<?xml version="1.0"?>
<svg xmlns="http://www.w3.org/2000/svg" width="139" height="26" viewBox="0 0 139 26" fill="none">
<path d="M13.0388 1.1011C13.2102 0.69198 13.7898 0.691981 13.9612 1.1011L16.8365 7.9661C16.9086 8.13821 17.0705 8.25586 17.2565 8.27124L24.674 8.88443C25.1161 8.92097 25.2952 9.47225 24.959 9.76165L19.3186 14.6176C19.1771 14.7394 19.1153 14.9297 19.1581 15.1114L20.8671 22.3553C20.9689 22.787 20.5 23.1278 20.1209 22.8975L13.7596 19.0337C13.6001 18.9368 13.3999 18.9368 13.2404 19.0337L6.87911 22.8975C6.5 23.1278 6.03105 22.787 6.1329 22.3553L7.84186 15.1114C7.88471 14.9297 7.82285 14.7394 7.68144 14.6176L2.04096 9.76165C1.70482 9.47225 1.88394 8.92097 2.32599 8.88443L9.74351 8.27124C9.92948 8.25586 10.0914 8.13821 10.1635 7.9661L13.0388 1.1011Z" fill="#005CFF"/>
<path d="M41.0388 1.1011C41.2102 0.69198 41.7898 0.691981 41.9612 1.1011L44.8365 7.9661C44.9086 8.13821 45.0705 8.25586 45.2565 8.27124L52.674 8.88443C53.1161 8.92097 53.2952 9.47225 52.959 9.76165L47.3186 14.6176C47.1771 14.7394 47.1153 14.9297 47.1581 15.1114L48.8671 22.3553C48.9689 22.787 48.5 23.1278 48.1209 22.8975L41.7596 19.0337C41.6001 18.9368 41.3999 18.9368 41.2404 19.0337L34.8791 22.8975C34.5 23.1278 34.0311 22.787 34.1329 22.3553L35.8419 15.1114C35.8847 14.9297 35.8229 14.7394 35.6814 14.6176L30.041 9.76165C29.7048 9.47225 29.8839 8.92097 30.326 8.88443L37.7435 8.27124C37.9295 8.25586 38.0914 8.13821 38.1635 7.9661L41.0388 1.1011Z" fill="#005CFF"/>
<path d="M69.0388 1.1011C69.2102 0.69198 69.7898 0.691981 69.9612 1.1011L72.8365 7.9661C72.9086 8.13821 73.0705 8.25586 73.2565 8.27124L80.674 8.88443C81.1161 8.92097 81.2952 9.47225 80.959 9.76165L75.3186 14.6176C75.1771 14.7394 75.1153 14.9297 75.1581 15.1114L76.8671 22.3553C76.9689 22.787 76.5 23.1278 76.1209 22.8975L69.7596 19.0337C69.6001 18.9368 69.3999 18.9368 69.2404 19.0337L62.8791 22.8975C62.5 23.1278 62.0311 22.787 62.1329 22.3553L63.8419 15.1114C63.8847 14.9297 63.8229 14.7394 63.6814 14.6176L58.041 9.76165C57.7048 9.47225 57.8839 8.92097 58.326 8.88443L65.7435 8.27124C65.9295 8.25586 66.0914 8.13821 66.1635 7.9661L69.0388 1.1011Z" fill="#005CFF"/>
<path d="M97.0388 1.1011C97.2102 0.69198 97.7898 0.691981 97.9612 1.1011L100.837 7.9661C100.909 8.13821 101.071 8.25586 101.256 8.27124L108.674 8.88443C109.116 8.92097 109.295 9.47225 108.959 9.76165L103.319 14.6176C103.177 14.7394 103.115 14.9297 103.158 15.1114L104.867 22.3553C104.969 22.787 104.5 23.1278 104.121 22.8975L97.7596 19.0337C97.6001 18.9368 97.3999 18.9368 97.2404 19.0337L90.8791 22.8975C90.5 23.1278 90.0311 22.787 90.1329 22.3553L91.8419 15.1114C91.8847 14.9297 91.8229 14.7394 91.6814 14.6176L86.041 9.76165C85.7048 9.47225 85.8839 8.92097 86.326 8.88443L93.7435 8.27124C93.9295 8.25586 94.0914 8.13821 94.1635 7.9661L97.0388 1.1011Z" fill="#005CFF"/>
<path d="M125.039 1.1011C125.21 0.69198 125.79 0.691981 125.961 1.1011L128.837 7.9661C128.909 8.13821 129.071 8.25586 129.256 8.27124L136.674 8.88443C137.116 8.92097 137.295 9.47225 136.959 9.76165L131.319 14.6176C131.177 14.7394 131.115 14.9297 131.158 15.1114L132.867 22.3553C132.969 22.787 132.5 23.1278 132.121 22.8975L125.76 19.0337C125.6 18.9368 125.4 18.9368 125.24 19.0337L118.879 22.8975C118.5 23.1278 118.031 22.787 118.133 22.3553L119.842 15.1114C119.885 14.9297 119.823 14.7394 119.681 14.6176L114.041 9.76165C113.705 9.47225 113.884 8.92097 114.326 8.88443L121.744 8.27124C121.929 8.25586 122.091 8.13821 122.163 7.9661L125.039 1.1011Z" fill="#005CFF"/>
</svg>
