<?xml version="1.0" standalone="no"?>
<!DOCTYPE svg PUBLIC "-//W3C//DTD SVG 1.1//EN" "http://www.w3.org/Graphics/SVG/1.1/DTD/svg11.dtd" >
<svg xmlns="http://www.w3.org/2000/svg" xmlns:xlink="http://www.w3.org/1999/xlink" version="1.1">
<metadata>
Created by FontForge 20170731 at Tue Jan 11 00:05:52 2022
 By Aleksey,,,
Copyright (c) 2020 by Newlyn Works Limited. All rights reserved.
</metadata>
<defs>
<font id="NewSpirit-Regular" horiz-adv-x="839" >
  <font-face 
    font-family="New Spirit"
    font-weight="400"
    font-stretch="normal"
    units-per-em="2048"
    panose-1="0 0 5 0 0 0 0 0 0 0"
    ascent="1587"
    descent="-461"
    x-height="1010"
    cap-height="1454"
    bbox="-543 -489 2425 1991"
    underline-thickness="102"
    underline-position="-307"
    unicode-range="U+0020-FB02"
  />
<missing-glyph horiz-adv-x="677" 
d="M678 0h-678v1450h678v-1450zM340 813l231 555h-465zM66 1294v-1138l237 571zM612 160v1130l-235 -563zM106 82h465l-231 557z" />
    <glyph glyph-name="f_l" unicode="fl" horiz-adv-x="1208" 
d="M1022 1477v-1258q0 -39 9.5 -66t24.5 -38.5t31.5 -20.5t31.5 -13.5t24.5 -16t9.5 -29.5q0 -15 -12 -28t-33 -13q-18 0 -77.5 3t-100.5 3q-40 0 -98 -3t-76 -3q-24 0 -36.5 12.5t-12.5 28.5q0 18 9.5 29.5t24.5 16t31.5 13.5t31.5 20.5t24.5 38.5t9.5 66v991q0 22 -3 44.5
t-19 59.5t-43 64t-81 47.5t-127 20.5q-64 0 -108.5 -19t-67 -53t-32 -70t-9.5 -79q0 -45 12.5 -123.5t14.5 -95.5h266q35 0 35 -29q0 -11 -6 -47q-6 -33 -37 -33h-252v-678q0 -46 17.5 -74t42 -38.5t49 -17.5t42 -19t17.5 -35q0 -15 -12 -28t-33 -13q-23 0 -93 3t-116 3
q-42 0 -101.5 -3t-78.5 -3q-23 0 -35 12.5t-12 28.5q0 21 13.5 32.5t32 18.5t37.5 18t32.5 40t13.5 75l2 678h-117q-31 0 -37 33q-6 36 -6 47q0 29 35 29h123q-3 24 -15 93t-12 113q0 110 53.5 190.5t137.5 118.5t186 38q61 0 116.5 -14.5t93 -29t52.5 -14.5q19 0 81 23.5
t87 23.5q45 0 45 -71z" />
    <glyph glyph-name=".notdef" horiz-adv-x="677" 
d="M678 0h-678v1450h678v-1450zM340 813l231 555h-465zM66 1294v-1138l237 571zM612 160v1130l-235 -563zM106 82h465l-231 557z" />
    <glyph glyph-name=".null" horiz-adv-x="0" 
 />
    <glyph glyph-name="nonmarkingreturn" horiz-adv-x="682" 
 />
    <glyph glyph-name="space" unicode=" " horiz-adv-x="507" 
 />
    <glyph glyph-name="exclam" unicode="!" horiz-adv-x="528" 
d="M266 352q-49 0 -55 51q-11 188 -27.5 414t-26.5 362.5t-10 188.5q0 55 31.5 87t87.5 32q119 0 119 -119q0 -53 -9.5 -188.5t-26 -362.5t-27.5 -414q-3 -24 -18.5 -37.5t-37.5 -13.5zM272 209q-63 0 -104 -34t-41 -85q0 -52 34.5 -80t92.5 -28q62 0 103.5 34t41.5 84
q0 51 -35 80t-92 29z" />
    <glyph glyph-name="quotedbl" unicode="&#x22;" horiz-adv-x="702" 
d="M193 915q22 0 37 17t18 47l33 319q0 4 4 38.5t4 49.5q0 41 -27 67t-69 26t-69.5 -26t-27.5 -67q0 -38 8 -88l33 -319q3 -31 18 -47.5t38 -16.5zM510 915q49 0 55 64l33 319q8 50 8 88q0 41 -27 67t-69 26t-69 -26t-27 -67q0 -15 4 -49.5t4 -38.5l33 -319q3 -30 18 -47
t37 -17z" />
    <glyph glyph-name="numbersign" unicode="#" horiz-adv-x="1323" 
d="M334 -6q-36 0 -50.5 13.5t-11.5 43.5l47 336q3 21 -16 21h-172q-37 0 -47.5 16t-5.5 53q4 36 21 51t51 15h169q20 0 23 20l45 322q1 12 -2 16t-14 4h-172q-37 0 -48 16.5t-6 53.5q4 37 20.5 52t51.5 15h170q20 0 23 21l47 336q5 31 20.5 44t48.5 13q36 0 50.5 -13.5
t11.5 -43.5l-47 -336q-3 -21 16 -21h295q19 0 22 21l48 336q3 31 19 44t50 13q36 0 50 -13.5t10 -43.5l-45 -336q-3 -21 16 -21h170q37 0 48.5 -16t6.5 -53q-6 -37 -22.5 -52.5t-50.5 -15.5h-168q-22 0 -25 -20l-43 -322q-3 -20 16 -20h170q37 0 48.5 -16.5t5.5 -53.5
q-4 -36 -21 -50.5t-51 -14.5h-170q-20 0 -23 -21l-47 -336q-5 -32 -19 -44.5t-48 -12.5q-36 0 -51 13.5t-11 43.5l45 336q3 21 -16 21h-293q-18 0 -24 -21l-46 -336q-4 -32 -19.5 -44.5t-49.5 -12.5zM489 543h295q20 0 23 20l45 322q2 20 -16 20h-295q-21 0 -23 -20
l-45 -322q-3 -20 16 -20z" />
    <glyph glyph-name="dollar" unicode="$" horiz-adv-x="1200" 
d="M653 1348v-502q59 -23 100 -40.5t93 -44.5t87.5 -52.5t73 -62.5t59.5 -77t36 -92t14 -112q0 -189 -125 -292.5t-327 -103.5h-9v-180q0 -37 -13.5 -54.5t-43.5 -17.5q-59 0 -59 72v193q-49 10 -110.5 31.5t-76.5 21.5q-22 0 -45.5 -36t-42.5 -36q-24 0 -39.5 19t-31.5 61
l-64 174q-12 33 -26 68.5t-20 51t-10.5 30.5t-4.5 26q0 22 13 34.5t28 12.5q6 0 11.5 -1.5t11.5 -5.5t10 -7t10 -10t8 -9t8 -10l6 -8q179 -237 365 -285v566q-87 35 -152 73t-123 90.5t-88.5 122t-30.5 152.5q0 157 106.5 265t270.5 108h15v149q0 74 59 74q57 0 57 -74v-168
q23 -6 52.5 -15t48.5 -14.5t30 -5.5q22 0 38 30t38 30q24 0 42.5 -25t47.5 -82l47 -96q70 -143 70 -174q0 -17 -10 -28t-25 -11q-31 0 -65 49q-137 185 -314 228zM334 1143q0 -77 49 -136t154 -112v465q-92 -4 -147.5 -63.5t-55.5 -153.5zM655 625v-535q128 3 199.5 66
t71.5 178q0 102 -67.5 167.5t-203.5 123.5z" />
    <glyph glyph-name="percent" unicode="%" horiz-adv-x="1726" 
d="M344 -33q-27 0 -42 12t-15 31q0 25 53 103q5 8 8 12l907 1278q52 80 117 80q26 0 42 -12t16 -31q0 -10 -4 -21t-16 -30t-18 -27.5t-26 -36.5l-905 -1280q-20 -25 -29 -35.5t-35 -26.5t-53 -16zM406 666q-151 0 -245.5 109t-94.5 294q0 186 94.5 296t245.5 110
q152 0 247 -110t95 -296t-95 -294.5t-247 -108.5zM406 762q75 0 119 76.5t44 230.5q0 155 -44 231t-119 76q-74 0 -118 -76t-44 -231q0 -154 44 -230.5t118 -76.5zM1317 -8q-152 0 -246 109.5t-94 295.5t94 295t246 109t247 -109t95 -295q0 -187 -95 -296t-247 -109z
M1317 88q75 0 119.5 77t44.5 232q0 154 -44.5 231t-119.5 77q-74 0 -118 -77t-44 -231q0 -155 44 -232t118 -77z" />
    <glyph glyph-name="ampersand" unicode="&#x26;" horiz-adv-x="1648" 
d="M1206 330l166 -152q36 -33 83 -54t78.5 -28t54 -22t22.5 -39q0 -41 -58 -41q-8 0 -50.5 3t-76.5 3q-31 0 -80 -3t-63 -3q-42 0 -55 12.5t-17 40.5q-4 22 -11.5 33t-29.5 31l-90 84q-122 -109 -262.5 -167.5t-279.5 -58.5q-202 0 -333.5 113t-131.5 285q0 139 89 257.5
t245 192.5q-84 84 -130.5 162.5t-46.5 171.5q0 148 115.5 240t292.5 92q164 0 262 -81t98 -206q0 -104 -81.5 -198.5t-245.5 -172.5l444 -409q104 137 163.5 308t59.5 349q0 76 -12 106t-45 52q-16 10 -23 15.5t-13.5 15t-6.5 20.5q0 30 45 53q21 13 55 24t54 11
q79 0 79 -233q0 -239 -70 -444.5t-194 -362.5zM623 1374q-85 0 -145 -52.5t-60 -147.5q0 -72 40 -133t130 -142q112 62 169.5 138t57.5 149q0 80 -52.5 134t-139.5 54zM606 115q196 0 381 164l-493 454l-13 10q-82 -59 -135 -146t-53 -187q0 -133 86.5 -214t226.5 -81z" />
    <glyph glyph-name="quotesingle" unicode="'" horiz-adv-x="382" 
d="M193 915q22 0 37 17t18 47l33 319q0 4 4 38.5t4 49.5q0 41 -27 67t-69 26t-69.5 -26t-27.5 -67q0 -38 8 -88l33 -319q3 -31 18 -47.5t38 -16.5z" />
    <glyph glyph-name="parenleft" unicode="(" horiz-adv-x="638" 
d="M287 676q0 -466 250 -731l25 -25t24.5 -25t18 -21t14 -21.5t4.5 -18.5q0 -41 -41 -41q-70 0 -203 133q-59 59 -108.5 129t-95.5 163t-72.5 211t-26.5 247q0 124 26.5 241t72 210.5t96 165.5t108.5 130q133 136 203 136q41 0 41 -41q0 -9 -4.5 -18.5t-14 -21.5t-18 -21
t-24.5 -25l-25 -25q-250 -268 -250 -731z" />
    <glyph glyph-name="parenright" unicode=")" horiz-adv-x="638" 
d="M350 676q0 462 -248 731l-25.5 25.5l-24.5 24.5t-19 21t-14.5 21.5t-4.5 18.5q0 41 41 41q72 0 205 -136q58 -58 108.5 -130t96 -165.5t72 -210.5t26.5 -241q0 -129 -26.5 -247t-72.5 -211t-95.5 -163t-108.5 -129q-133 -133 -205 -133q-41 0 -41 41q0 9 4.5 18.5
t14.5 21.5t19 21l24.5 24.5l25.5 25.5q248 266 248 731z" />
    <glyph glyph-name="asterisk" unicode="*" horiz-adv-x="1017" 
d="M313 682q-29 0 -61.5 27t-32.5 59q0 27 21 57q63 89 176 179q12 10 12 14q0 9 -37 12q-135 6 -229 39q-64 21 -64 72q0 35 21.5 67.5t58.5 32.5q19 0 53.5 -13.5t62.5 -28t80.5 -43t71.5 -38.5q8 -4 11 -4q6 0 6 6q0 7 -4 19q-37 133 -37 245q0 86 88 86q86 0 86 -86
q0 -105 -39 -245q-4 -12 -4 -19q0 -6 6 -6q4 0 12 4q201 123 267 123q37 0 58.5 -32.5t21.5 -67.5q0 -52 -62 -72q-93 -33 -231 -39q-35 -3 -35 -12q0 -4 12 -14q129 -109 176 -179q21 -30 21 -57q0 -32 -33.5 -59t-63.5 -27q-36 0 -65 39q-62 80 -119 233q-4 11 -8 11
q-8 0 -12 -11q-44 -134 -117 -233q-29 -39 -68 -39z" />
    <glyph glyph-name="plus" unicode="+" horiz-adv-x="1179" 
d="M590 129q-68 0 -68 43v356q0 23 -22 23h-336q-43 0 -43 65q0 66 43 66h336q22 0 22 23v335q0 43 68 43q67 0 67 -43v-335q0 -23 23 -23h336q43 0 43 -66q0 -65 -43 -65h-336q-23 0 -23 -23v-356q0 -43 -67 -43z" />
    <glyph glyph-name="comma" unicode="," horiz-adv-x="499" 
d="M143 -270q-20 0 -32.5 11t-12.5 28q0 25 35 49q92 70 92 129q0 10 -3.5 18t-15.5 16l-15 10t-21 11q-34 17 -54 39t-20 61q0 52 44.5 88.5t109.5 36.5q149 0 149 -149q0 -64 -28.5 -130t-69.5 -112.5t-84.5 -76t-73.5 -29.5z" />
    <glyph glyph-name="hyphen" unicode="-" horiz-adv-x="768" 
d="M594 455h-420q-31 0 -43 12.5t-12 48.5v35q0 35 12 48t43 13h420q31 0 43 -13t12 -48v-35q0 -36 -12 -48.5t-43 -12.5z" />
    <glyph glyph-name="period" unicode="." horiz-adv-x="483" 
d="M250 229q-66 0 -110 -36.5t-44 -90.5q0 -57 36.5 -87.5t98.5 -30.5q66 0 110 36.5t44 90.5q0 56 -37 87t-98 31z" />
    <glyph glyph-name="slash" unicode="/" horiz-adv-x="815" 
d="M123 -59q-60 0 -60 36q0 15 13 50l530 1374q12 30 31 41.5t55 11.5q62 0 62 -39q0 -4 -15 -49l-530 -1374q-12 -30 -30 -40.5t-56 -10.5z" />
    <glyph glyph-name="zero" unicode="0" horiz-adv-x="1282" 
d="M641 -31q-242 0 -394.5 203.5t-152.5 552.5q0 348 152 551t395 203t395 -203t152 -551q0 -349 -152.5 -552.5t-394.5 -203.5zM641 90q151 0 244.5 168t93.5 467q0 296 -93.5 465.5t-244.5 169.5q-150 0 -243 -169.5t-93 -465.5q0 -298 93 -466.5t243 -168.5z" />
    <glyph glyph-name="one" unicode="1" horiz-adv-x="776" 
d="M180 -6q-25 0 -37 12t-12 31q0 25 20.5 39t49.5 21.5t57.5 17t49 33t20.5 61.5v917q0 103 -78 103q-26 0 -87 -11.5t-79 -11.5q-27 0 -42 13.5t-15 35.5q0 38 43 54q36 12 129.5 37.5t167.5 50.5q44 15 93 36t76 31.5t44 10.5q21 0 33 -13t12 -32q0 -17 -9.5 -31.5
t-23.5 -27t-27.5 -28t-23 -41t-9.5 -59.5v-1034q0 -38 20.5 -61.5t49 -33t57.5 -17t49.5 -21.5t20.5 -39q0 -19 -12 -31t-37 -12q-27 0 -111.5 3t-140.5 3q-55 0 -138 -3t-110 -3z" />
    <glyph glyph-name="two" unicode="2" horiz-adv-x="1179" 
d="M1090 416q18 0 30.5 -11.5t12.5 -31.5q0 -33 -60 -156l-86 -186q-20 -40 -37.5 -57t-42.5 -17q-23 0 -56 21.5t-69 21.5h-518q-33 0 -87.5 -3t-72.5 -3q-28 0 -43.5 15t-15.5 38q0 20 12 39t43 55q76 86 157.5 179t169.5 194.5t132 151.5q72 84 113.5 141t70.5 127.5
t29 138.5q0 108 -71 176t-191 68q-100 0 -169 -51t-134 -148q-33 -51 -64 -51q-22 0 -37.5 14.5t-15.5 40.5q0 18 21 70q71 133 189.5 212t274.5 79q187 0 305.5 -108.5t118.5 -270.5q0 -62 -19 -123.5t-43 -107t-70 -101.5t-75.5 -86.5t-82.5 -83.5q-50 -50 -143 -140
t-160 -157.5t-121 -128.5h399q74 0 120 15.5t90 52t126 123.5q40 49 70 49z" />
    <glyph glyph-name="three" unicode="3" horiz-adv-x="1169" 
d="M653 905q129 -12 227.5 -80.5t147.5 -167.5t49 -211q0 -133 -70 -244t-185 -173t-247 -62q-95 0 -178.5 24.5t-141.5 65t-98 84t-63 88.5q-26 48 -26 84q0 28 15.5 44t37.5 16q32 0 57 -45q47 -85 137.5 -145t212.5 -60q144 0 238 85.5t94 225.5q0 135 -87 226.5
t-206 91.5q-23 0 -56 -5.5t-44 -5.5q-24 0 -39.5 17.5t-15.5 42.5q0 16 9.5 28t29 28.5t28.5 25.5q275 309 359 413h-291q-106 0 -170 -37t-162 -151q-17 -19 -24.5 -27t-19 -14t-24.5 -6q-16 0 -28.5 12t-12.5 35q0 29 46 133l67 152q26 59 42.5 79.5t43.5 20.5
q21 0 51 -21.5t60 -21.5h415q33 0 85 3t61 3q40 0 58 -18.5t18 -44.5q0 -38 -60 -107q-179 -206 -340 -381z" />
    <glyph glyph-name="four" unicode="4" horiz-adv-x="1163" 
d="M895 522h149q31 0 42.5 -12.5t11.5 -52.5v-35q0 -41 -11.5 -53.5t-42.5 -12.5h-149v-149q0 -34 10 -57t25 -33.5t32.5 -19t32.5 -14t25 -18t10 -30.5q0 -41 -51 -41q-18 0 -80.5 3t-105.5 3q-47 0 -117.5 -3t-91.5 -3q-52 0 -52 41q0 23 16.5 36t39.5 20.5t46 17.5
t39.5 34.5t16.5 63.5v149h-596q-44 0 -64 17t-20 55q0 22 14.5 53.5t27.5 51t42 61.5l531 780q33 48 57 64t76 16h43q54 0 74 -15t20 -50v-867zM692 522v733l-495 -733h495z" />
    <glyph glyph-name="five" unicode="5" horiz-adv-x="1128" 
d="M526 932q228 0 368 -135.5t140 -335.5q0 -212 -149.5 -352t-370.5 -140q-147 0 -260.5 59.5t-169.5 133.5q-35 46 -35 80q0 23 15.5 38t37.5 15q14 0 25 -5.5t17 -11t18 -18.5q51 -60 130.5 -99.5t184.5 -39.5q150 0 244 84.5t94 232.5q0 144 -99 235t-241 91
q-66 0 -121.5 -16t-93 -32t-59.5 -16q-24 0 -38.5 18.5t-10.5 49.5l106 621q8 36 23.5 48.5t54.5 12.5h530q55 0 88 33q21 21 32.5 29t25.5 8q18 0 28.5 -12.5t10.5 -30.5q0 -23 -31 -93l-27 -61q-12 -26 -29.5 -39.5t-50.5 -13.5h-553l-67 -385q107 47 233 47z" />
    <glyph glyph-name="six" unicode="6" horiz-adv-x="1185" 
d="M657 958q128 0 233 -57.5t167.5 -167t62.5 -252.5q0 -222 -142 -366t-355 -144q-94 0 -174 27t-145.5 83.5t-111.5 140t-71 201t-25 261.5q0 173 35.5 317t103.5 250.5t173.5 166t238.5 59.5q176 0 299 -95q60 -46 60 -88q0 -23 -14.5 -38t-37.5 -15q-21 0 -63 29
q-105 71 -217 71q-87 0 -154 -39.5t-109.5 -111t-65 -165t-26.5 -208.5q138 141 338 141zM629 86q127 0 203.5 104t76.5 273q0 170 -79.5 267t-219.5 97q-129 0 -211 -82.5t-82 -244.5q0 -105 35 -198t108 -154.5t169 -61.5z" />
    <glyph glyph-name="seven" unicode="7" horiz-adv-x="1007" 
d="M924 1456q36 0 52.5 -18.5t16.5 -42.5q0 -14 -16 -68q-265 -702 -485 -1266q-26 -67 -103 -67h-51q-70 0 -70 53q0 12 7 31t14 33t23.5 44.5t23.5 43.5q293 593 493 1073h-401q-85 0 -149.5 -41t-151.5 -141q-17 -20 -25 -28t-19.5 -15t-23.5 -7q-18 0 -29.5 12.5
t-11.5 34.5q0 29 45 134l72 172q25 57 44 78.5t46 21.5q19 0 48 -21.5t61 -21.5h440q33 0 89 3t61 3z" />
    <glyph glyph-name="eight" unicode="8" horiz-adv-x="1241" 
d="M836 799q72 -35 126.5 -72t101 -86t71 -111t24.5 -135q0 -184 -152 -304t-389 -120q-236 0 -386 117.5t-150 290.5q0 126 75.5 228t223.5 169q-215 125 -215 332q0 73 31 139.5t88 118.5t145 82.5t195 30.5q203 0 323.5 -98.5t120.5 -245.5q0 -103 -60.5 -191.5
t-172.5 -144.5zM629 1366q-119 0 -194 -63t-75 -160q0 -32 9 -60t22 -49t38.5 -42t46.5 -34.5t58.5 -31t62 -28t68.5 -27.5q22 -9 33 -13q4 -1 11.5 -4t11.5 -4q85 43 129.5 112t44.5 150q0 110 -70 182t-196 72zM618 86q89 0 166 28.5t130 91.5t53 150q0 54 -26 100.5
t-52.5 75t-99 66t-105 51t-130.5 51.5q-32 13 -48 19h-2q-117 -49 -178.5 -133t-61.5 -191q0 -131 99 -220t255 -89z" />
    <glyph glyph-name="nine" unicode="9" horiz-adv-x="1204" 
d="M584 1477q113 0 206 -42.5t165.5 -129.5t112.5 -232.5t40 -337.5q0 -128 -21 -240.5t-66 -209.5t-111 -166t-162 -108.5t-213 -39.5q-103 0 -195.5 30.5t-153.5 80.5q-30 23 -44.5 42.5t-14.5 45.5q0 23 15 39t38 16t62 -26q43 -28 74 -45t83.5 -32.5t108.5 -15.5
q98 0 172.5 40.5t120.5 114t70 170.5t26 216q-139 -160 -354 -160q-93 0 -176 33t-147.5 93.5t-102 155.5t-37.5 210q0 209 142.5 353.5t361.5 144.5zM582 618q132 0 218.5 85.5t86.5 246.5q0 106 -35 198t-106.5 152t-165.5 60q-126 0 -207.5 -102.5t-81.5 -276.5
q0 -172 76.5 -267.5t214.5 -95.5z" />
    <glyph glyph-name="colon" unicode=":" horiz-adv-x="522" 
d="M270 883q-66 0 -109.5 -36t-43.5 -91q0 -56 37 -87.5t98 -31.5q66 0 110 37.5t44 91.5q0 56 -37 86.5t-99 30.5zM270 229q-66 0 -109.5 -36.5t-43.5 -92.5t36.5 -86t98.5 -30q66 0 110 36.5t44 90.5q0 56 -37.5 87t-98.5 31z" />
    <glyph glyph-name="semicolon" unicode=";" horiz-adv-x="548" 
d="M281 883q-67 0 -111.5 -36.5t-44.5 -90.5q0 -56 37.5 -87.5t97.5 -31.5q67 0 111.5 37t44.5 90q0 56 -37.5 87.5t-97.5 31.5zM172 -270q-20 0 -31.5 10.5t-11.5 28.5q0 26 33 49q94 71 94 129q0 5 -1.5 10t-3.5 8.5t-6.5 8t-7 6.5t-9 6t-9 5.5t-10.5 5.5l-10 5
q-34 16 -53 38.5t-19 61.5q0 52 44.5 88.5t109.5 36.5q147 0 147 -149q0 -64 -28.5 -130t-69.5 -112.5t-84.5 -76t-73.5 -29.5z" />
    <glyph glyph-name="less" unicode="&#x3c;" horiz-adv-x="1036" 
d="M885 190q-12 0 -47 15l-682 327q-32 15 -46 34t-14 48q0 31 14 50t46 34l682 328q28 12 47 12q16 0 25.5 -12t9.5 -35q0 -42 -13 -64.5t-47 -37.5l-573 -262q-13 -3 -13 -13q0 -7 13 -12l573 -260q35 -17 47.5 -39.5t12.5 -64.5q0 -23 -10 -35.5t-25 -12.5z" />
    <glyph glyph-name="equal" unicode="=" horiz-adv-x="1198" 
d="M1026 733h-854q-45 0 -45 66q0 65 45 65h854q43 0 43 -65q0 -66 -43 -66zM1026 369h-854q-45 0 -45 65q0 66 45 66h854q43 0 43 -66q0 -65 -43 -65z" />
    <glyph glyph-name="greater" unicode="&#x3e;" horiz-adv-x="1036" 
d="M154 190q-35 0 -35 48q0 43 11.5 65t45.5 39l576 260q12 6 12 12q0 10 -12 13l-576 262q-34 14 -45.5 36.5t-11.5 65.5q0 47 35 47q17 0 45 -12l682 -328q33 -15 46 -34t13 -50q0 -30 -13 -48.5t-46 -33.5l-682 -327q-35 -15 -45 -15z" />
    <glyph glyph-name="question" unicode="?" horiz-adv-x="1069" 
d="M485 352q-40 0 -51 37q-22 80 -22 238q0 81 42.5 148.5t139.5 154.5q105 93 141.5 141.5t36.5 114.5q0 77 -57 125.5t-156 48.5q-110 0 -177 -68t-93 -184q-12 -57 -56 -57q-27 0 -61 30q-92 85 -92 179q0 46 57.5 96t165 86.5t229.5 36.5q183 0 304.5 -91.5
t121.5 -238.5q0 -63 -16 -114.5t-51.5 -98t-68.5 -78.5t-91 -80q-86 -75 -124 -124t-46 -95q-5 -32 -12 -93.5t-10 -76.5q-2 -16 -16 -26.5t-38 -10.5zM506 209q-63 0 -104.5 -34t-41.5 -85q0 -52 34.5 -80t92.5 -28q63 0 104.5 34t41.5 84q0 51 -35 80t-92 29z" />
    <glyph glyph-name="at" unicode="@" horiz-adv-x="1982" 
d="M1073 1315q240 0 428.5 -93t295 -265t106.5 -394q0 -167 -62 -305t-166.5 -215.5t-226.5 -77.5q-100 0 -153.5 50t-63.5 155q-59 -86 -152.5 -137t-206.5 -51q-152 0 -256 111.5t-104 295.5q0 116 38 218.5t103.5 176.5t159.5 117t201 43q66 0 120 -19t89 -38t53 -19
q31 0 75 31t60 31q19 0 29.5 -13t7.5 -34l-59 -584q-2 -16 -4.5 -41t-4.5 -42t-2 -23q0 -49 21 -81t67 -32q105 0 185 138.5t80 336.5q0 192 -86.5 340t-240 227.5t-349.5 79.5q-167 0 -314.5 -60.5t-253.5 -167.5t-167.5 -260.5t-61.5 -332.5q0 -133 47 -247t133.5 -198
t217.5 -132t292 -48q116 0 207.5 16.5t140.5 33t62 16.5q15 0 28 -10t13 -31q0 -46 -76 -78q-156 -65 -410 -65q-190 0 -348.5 54.5t-266 150.5t-167 230.5t-59.5 291.5q0 204 76.5 381t209 302t318 196t397.5 71zM954 113q102 0 184 74t95 206q16 157 16 162q0 121 -73 205
t-177 84q-94 0 -165 -59t-104.5 -148.5t-33.5 -192.5q0 -154 74 -242.5t184 -88.5z" />
    <glyph glyph-name="A" unicode="A" horiz-adv-x="1470" 
d="M987 1053l340 -844q18 -46 47 -74.5t52.5 -37.5t41 -24.5t17.5 -39.5q0 -17 -12.5 -27t-32.5 -10q-11 0 -68 3t-102 3q-42 0 -120 -3t-101 -3q-62 0 -62 43q0 22 21 36.5t46.5 21t46.5 22t21 39.5q0 26 -14 61l-109 266q-8 22 -18.5 29.5t-34.5 7.5h-500
q-23 0 -34.5 -7.5t-18.5 -29.5l-106 -264q-17 -43 -17 -59q0 -25 21.5 -41.5t47.5 -24t47.5 -22t21.5 -35.5q0 -43 -62 -43q-25 0 -81 3t-91 3t-80.5 -3t-58.5 -3q-23 0 -36 10.5t-13 28.5q0 20 11 32.5t29 21t38.5 19t42 34.5t36.5 61l340 850q83 212 107 284q30 87 51 106
t96 19q72 0 92 -19t50 -106q36 -100 108 -284zM481 633h424q18 0 25 8t2 21l-236 589l-233 -587q-6 -15 -0.5 -23t18.5 -8z" />
    <glyph glyph-name="B" unicode="B" horiz-adv-x="1441" 
d="M1026 793q152 -36 246 -131.5t94 -245.5q0 -199 -159 -309.5t-443 -110.5q-115 0 -263 3t-171 3q-42 0 -105.5 -3t-74.5 -3q-58 0 -58 43q0 21 14 33.5t34 19t40.5 16.5t34.5 33.5t14 61.5v1042q0 38 -14 62t-34 34t-40.5 17t-34.5 19.5t-14 33.5q0 43 58 43
q11 0 74.5 -3t105.5 -3q45 0 167.5 3t209.5 3q254 0 398 -95t144 -263q0 -106 -59 -186t-164 -117zM434 1235v-354q0 -25 12 -35t46 -10h219q315 0 315 245q0 127 -88 194.5t-266 67.5h-54q-108 0 -146 -23.5t-38 -84.5zM625 106h104q193 0 302.5 78t109.5 224
q0 147 -107.5 233t-318.5 86h-223q-34 0 -46 -11t-12 -38v-455q0 -69 38 -93t153 -24z" />
    <glyph glyph-name="C" unicode="C" horiz-adv-x="1425" 
d="M774 -29q-108 0 -209.5 30.5t-189 92t-152.5 147.5t-102 203.5t-37 253.5q0 165 54.5 310.5t146.5 248t217.5 161.5t263.5 59q84 0 185 -23.5t110 -23.5q21 0 43 26.5t43 26.5q25 0 42 -22t42 -81l63 -161q11 -28 24 -57t19 -42.5t10.5 -28.5t4.5 -28q0 -23 -15 -36
t-32 -13q-28 0 -68 49q-118 150 -221.5 221.5t-220.5 71.5q-136 0 -248 -80.5t-176 -223t-64 -315.5q0 -176 64.5 -314.5t184 -217t273.5 -78.5q132 0 244.5 60.5t190.5 172.5q9 13 14 19.5t17.5 14t27.5 7.5q20 0 34.5 -15t14.5 -40q0 -24 -22 -70q-30 -54 -84 -106.5
t-127 -97.5t-168.5 -73t-196.5 -28z" />
    <glyph glyph-name="D" unicode="D" horiz-adv-x="1579" 
d="M698 -4q-62 0 -184 3t-184 3q-42 0 -106 -3t-74 -3q-58 0 -58 43q0 21 14 33.5t34 19t40.5 16.5t34.5 33.5t14 61.5v1042q0 38 -14 62t-34 34t-40.5 17t-34.5 19.5t-14 33.5q0 43 58 43q10 0 74 -3t106 -3q54 0 162.5 3t162.5 3q190 0 349 -58t267 -159t168 -240t60 -299
q0 -210 -102 -370t-283.5 -246t-415.5 -86zM621 109h63q278 0 434 166.5t156 445.5q0 132 -42 245t-120 196.5t-196 131t-263 47.5h-32q-109 0 -148 -22t-39 -78v-1032q0 -57 39.5 -78.5t147.5 -21.5z" />
    <glyph glyph-name="E" unicode="E" horiz-adv-x="1396" 
d="M1327 408q18 0 30.5 -11.5t12.5 -31.5q0 -23 -11.5 -53.5t-45.5 -98.5l-82 -174q-38 -82 -82 -82q-23 0 -55 21.5t-68 21.5h-696q-42 0 -105.5 -3t-74.5 -3q-58 0 -58 43q0 21 14 33.5t34 19t40.5 16.5t34.5 33.5t14 61.5v1046q0 38 -14 62t-34 34t-40.5 17t-34.5 19.5
t-14 33.5q0 43 58 43q11 0 74 -3t106 -3h614q31 0 59.5 21.5t49.5 21.5q26 0 45.5 -22t46.5 -78l74 -152q51 -102 51 -139q0 -20 -12.5 -31.5t-28.5 -11.5q-17 0 -31 10t-39 37q-51 55 -79.5 83.5t-69 63t-73 49.5t-75 26t-92.5 11h-174q-73 0 -108 -10.5t-44.5 -29.5
t-9.5 -60v-401q0 -25 12 -35t46 -10h208q44 0 74 24t43 52.5t32 52.5t42 24q43 0 43 -59q0 -23 -3 -73.5t-3 -76.5q0 -27 3 -78t3 -73q0 -58 -43 -58q-23 0 -42 24t-32 53t-43 53t-74 24h-208q-34 0 -46 -10.5t-12 -34.5v-428q0 -41 11 -60t45 -28.5t106 -9.5h258
q44 0 81 6.5t73 24t62 34t62.5 51t60 59t67.5 72.5q18 21 25 28t18.5 14.5t23.5 7.5z" />
    <glyph glyph-name="F" unicode="F" horiz-adv-x="1267" 
d="M1139 1393l71 -152q54 -108 54 -139q0 -20 -13 -31.5t-28 -11.5q-19 0 -33 10t-39 37q-65 70 -98.5 103t-82.5 68.5t-96 48.5t-108 13h-170q-73 0 -108 -10.5t-44.5 -29.5t-9.5 -60v-416q0 -25 12 -35t46 -10h272q36 0 62.5 16t41 39t26 46t26 39t34.5 16q43 0 43 -57
q0 -24 -3 -75.5t-3 -78.5t3 -79t3 -75q0 -57 -43 -57q-20 0 -34.5 16t-26 39t-26 46t-41 39t-62.5 16h-272q-34 0 -46 -10t-12 -35v-420q0 -46 26 -72t57 -32.5t57 -21t26 -40.5q0 -41 -51 -41q-22 0 -96 3t-121 3q-44 0 -107 -3t-82 -3q-25 0 -38 11.5t-13 29.5
q0 26 21.5 40.5t47 21t47 32.5t21.5 72v1044q0 38 -14 62t-34 34t-40.5 17t-34.5 19.5t-14 33.5q0 43 58 43q11 0 74.5 -3t105.5 -3h608q31 0 58 21.5t48 21.5q27 0 46.5 -21.5t48.5 -78.5z" />
    <glyph glyph-name="G" unicode="G" horiz-adv-x="1556" 
d="M889 -29q-237 0 -418 84t-284 249.5t-103 391.5q0 166 55 312.5t147.5 248.5t218 161t263.5 59q81 0 154.5 -11.5t119 -23.5t60.5 -12q18 0 40 26.5t46 26.5q26 0 46 -28t38 -77l65 -159q12 -29 25.5 -60.5l19.5 -45.5t10.5 -27.5t4.5 -22.5q0 -22 -14.5 -36.5
t-34.5 -14.5q-15 0 -29 10.5t-39 38.5q-94 113 -146 159q-152 136 -337 136q-140 0 -252.5 -84.5t-174 -228t-61.5 -316.5q0 -130 38 -241t112.5 -197.5t194.5 -135.5t274 -49q123 0 183 29.5t60 69.5v305q0 38 -15.5 61.5t-37.5 33t-43.5 16.5t-37 20t-15.5 35q0 41 59 41
h371q57 0 57 -41q0 -26 -21 -40.5t-46.5 -21t-46.5 -32.5t-21 -72v-279q0 -30 7.5 -49.5t16 -27t16 -18t7.5 -25.5q0 -19 -11.5 -31.5t-41.5 -22.5q-262 -84 -479 -84z" />
    <glyph glyph-name="H" unicode="H" horiz-adv-x="1654" 
d="M1425 1245v-1042q0 -46 21.5 -72t47.5 -32.5t47.5 -21t21.5 -40.5q0 -41 -52 -41q-20 0 -82.5 3t-105.5 3t-105.5 -3t-80.5 -3q-52 0 -52 41q0 26 21.5 40.5t46.5 21t46.5 32.5t21.5 72v434q0 24 -11.5 34.5t-44.5 10.5h-673q-34 0 -46 -10.5t-12 -34.5v-434
q0 -46 21 -72t46.5 -32.5t46.5 -21t21 -40.5q0 -41 -51 -41q-18 0 -81.5 3t-106.5 3t-105 -3t-82 -3q-25 0 -38 11.5t-13 29.5q0 26 21.5 40.5t47 21t47 32.5t21.5 72v1042q0 38 -14 62t-34 34t-40.5 17.5t-34.5 20t-14 34.5q0 17 13.5 29t39.5 12q20 0 81 -3t104 -3
t106.5 3t81.5 3q26 0 38.5 -12t12.5 -29q0 -22 -14 -34.5t-33.5 -20t-39.5 -17.5t-34 -34t-14 -62v-407q0 -25 12 -35t46 -10h673q33 0 44.5 10t11.5 35v407q0 46 -21.5 72.5t-46.5 33t-46.5 21.5t-21.5 41q0 17 13 29t39 12q18 0 80.5 -3t105.5 -3t105.5 3t82.5 3
q26 0 39 -12t13 -29q0 -22 -14 -34.5t-34.5 -20t-41 -17.5t-34.5 -34t-14 -62z" />
    <glyph glyph-name="I" unicode="I" horiz-adv-x="663" 
d="M143 -4q-25 0 -38 11.5t-13 29.5q0 26 21.5 40.5t47 21t47 32.5t21.5 72v1042q0 38 -14 62t-34 34t-40.5 17.5t-34.5 20t-14 34.5q0 17 13.5 29t39.5 12q20 0 81 -3t104 -3t106.5 3t81.5 3q26 0 38.5 -12t12.5 -29q0 -22 -14 -34.5t-33.5 -20t-39.5 -17.5t-34 -34
t-14 -62v-1042q0 -46 21 -72t46.5 -32.5t46.5 -21t21 -40.5q0 -41 -51 -41q-18 0 -81.5 3t-106.5 3t-105 -3t-82 -3z" />
    <glyph glyph-name="J" unicode="J" horiz-adv-x="997" 
d="M391 -27q-93 0 -178 22t-139 63t-54 89q0 67 58 238q7 24 22.5 38.5t32.5 14.5q43 0 49 -55q13 -159 63.5 -228t145.5 -69q92 0 146.5 62t54.5 165l-2 932q0 38 -15.5 61.5t-38 33t-45 16.5t-38 20.5t-15.5 36.5q0 17 13 29t38 12q21 0 88.5 -3t114.5 -3q43 0 106 3t83 3
q26 0 38.5 -12t12.5 -29q0 -22 -14 -34.5t-34 -20t-40.5 -17.5t-34.5 -34t-14 -62l2 -909q0 -182 -112 -272.5t-294 -90.5z" />
    <glyph glyph-name="K" unicode="K" horiz-adv-x="1464" 
d="M813 922l490 -740q23 -34 56 -56t57.5 -29.5t42.5 -22.5t18 -39q0 -17 -12.5 -28t-34.5 -11q-10 0 -84 3t-119 3q-42 0 -116.5 -3t-96.5 -3q-62 0 -62 43q0 23 19 37.5t41.5 20.5t41.5 21t19 38q0 22 -22 61l-379 576l-238 -218v-372q0 -46 21 -72t46.5 -32.5t46.5 -21
t21 -40.5q0 -41 -51 -41q-18 0 -81.5 3t-106.5 3t-105 -3t-82 -3q-25 0 -38 11.5t-13 29.5q0 26 21.5 40.5t47 21t47 32.5t21.5 72v1042q0 38 -14 62t-34 34t-40.5 17.5t-34.5 20t-14 34.5q0 17 13.5 29t39.5 12q20 0 81 -3t104 -3t106.5 3t81.5 3q26 0 38.5 -12t12.5 -29
q0 -22 -14 -34.5t-33.5 -20t-39.5 -17.5t-34 -34t-14 -62v-508l545 498q4 4 14 13t13 12.5t10.5 10.5t9.5 11t6 10.5t5 12t1 12.5q0 18 -14.5 28.5t-32.5 14.5t-32.5 15.5t-14.5 31.5q0 45 62 45q26 0 87 -3t93 -3q35 0 105 3t83 3q45 0 45 -41q0 -25 -21 -39.5t-49.5 -21
t-68 -23t-66.5 -41.5z" />
    <glyph glyph-name="L" unicode="L" horiz-adv-x="1296" 
d="M1073 -43q-23 0 -56 21.5t-69 21.5h-618q-42 0 -105.5 -3t-74.5 -3q-58 0 -58 43q0 21 14 33.5t34 19t40.5 16.5t34.5 33.5t14 61.5v1044q0 38 -14 62t-34 34t-40.5 17.5t-34.5 20t-14 34.5q0 17 13.5 29t39.5 12q20 0 81 -3t104 -3t106.5 3t81.5 3q26 0 38.5 -12
t12.5 -29q0 -22 -14 -34.5t-33.5 -20t-39.5 -17.5t-34 -34t-14 -62v-1057q0 -41 19 -59t61 -18h254q41 0 77.5 7t74 27t63 35.5t67 54t63.5 59.5t73 73q36 39 50 45q9 4 19 4q18 0 30.5 -11.5t12.5 -31.5q0 -22 -11.5 -52.5t-45.5 -103.5l-86 -176q-21 -43 -39.5 -63.5
t-42.5 -20.5z" />
    <glyph glyph-name="M" unicode="M" horiz-adv-x="1935" 
d="M1589 1178l164 -992q5 -31 30.5 -52t52.5 -29t49 -24.5t22 -41.5q0 -43 -62 -43q-10 0 -64.5 3t-105.5 3q-45 0 -111 -3t-89 -3q-62 0 -62 43q0 22 21 37t45.5 22t45.5 23t21 39q0 15 -8 69l-137 852l-375 -917q-18 -45 -68 -45q-46 0 -67 45l-430 928l-131 -863
q-8 -58 -8 -69q0 -23 20.5 -39t45 -23t45 -22t20.5 -37q0 -43 -62 -43q-19 0 -72.5 3t-87.5 3q-32 0 -81 -3t-66 -3q-24 0 -39.5 11t-15.5 32q0 24 22.5 40.5t50 25t53.5 30t31 53.5l160 990q6 35 6 96q0 32 -18 51t-40 26t-40 22.5t-18 39.5q0 17 15 29t44 12q18 0 80 -3
t102 -3t101 3t81 3q27 0 41.5 -12.5t14.5 -30.5q0 -25 -17 -40t-37.5 -22t-37.5 -25.5t-17 -47.5q0 -8 2.5 -18t5 -19t9.5 -24.5t11.5 -26t14.5 -32.5t15 -34l333 -725l295 725q45 112 45 154q0 33 -18 51.5t-40 24t-40 20t-18 39.5q0 18 14.5 30.5t38.5 12.5q21 0 84 -3
t104 -3q38 0 98.5 3t79.5 3q26 0 41 -12.5t15 -28.5q0 -25 -19 -40t-41.5 -21t-41.5 -23.5t-19 -46.5t14 -104z" />
    <glyph glyph-name="N" unicode="N" horiz-adv-x="1587" 
d="M1460 1454q53 0 53 -41q0 -22 -14.5 -34.5t-35 -20t-40.5 -17.5t-34.5 -34t-14.5 -62v-1204q0 -27 -14.5 -41t-38.5 -14q-47 0 -80 45l-879 1145v-973q0 -37 17 -60t41.5 -31.5t49 -15.5t41.5 -20.5t17 -38.5q0 -41 -57 -41q-23 0 -84.5 3t-87.5 3q-22 0 -77 -3t-79 -3
q-26 0 -39.5 12t-13.5 31q0 21 14.5 33.5t35 19t40.5 16.5t34.5 33.5t14.5 61.5v1042q0 38 -14.5 62t-34.5 34t-40.5 17t-35 19.5t-14.5 33.5q0 18 14.5 30.5t42.5 12.5q15 0 53 -3t64 -3q24 0 50.5 2t33.5 2q51 0 86 -45l807 -1057v895q0 37 -17 60t-41 32t-48 16t-41 21
t-17 39q0 18 15.5 29.5t42.5 11.5q23 0 78.5 -3t91.5 -3q30 0 81.5 3t73.5 3z" />
    <glyph glyph-name="O" unicode="O" horiz-adv-x="1652" 
d="M827 -31q-155 0 -292 53.5t-237.5 148.5t-159 233.5t-58.5 300.5q0 158 56 300.5t153.5 246.5t237 165.5t298.5 61.5q162 0 302 -59t237.5 -160.5t153 -241.5t55.5 -297q0 -162 -58.5 -302.5t-158.5 -239t-237.5 -154.5t-291.5 -56zM829 98q151 0 269.5 80.5t183 221
t64.5 315.5t-64.5 320.5t-184.5 233t-272 87.5q-113 0 -210.5 -49.5t-165 -134t-106 -200.5t-38.5 -247q0 -173 64 -315.5t184.5 -227t275.5 -84.5z" />
    <glyph glyph-name="P" unicode="P" horiz-adv-x="1327" 
d="M657 1460q299 0 464 -131t165 -366q0 -228 -160.5 -359t-486.5 -131q-62 0 -136 4q-49 2 -59 -1.5t-10 -24.5v-244q0 -39 17.5 -63t42 -33.5t49 -16.5t42 -20.5t17.5 -36.5q0 -41 -51 -41q-21 0 -97.5 3t-123.5 3q-43 0 -105 -3t-82 -3q-25 0 -38 11.5t-13 29.5
q0 26 21.5 40.5t47 21t47 32.5t21.5 72v1044q0 38 -14 61.5t-34 33.5t-40.5 17.5t-34.5 20.5t-14 35q0 16 13.5 27.5t39.5 11.5q20 0 81 -3t104 -3q38 0 157 6t170 6zM614 588q232 0 337.5 96.5t105.5 276.5q0 190 -111.5 287.5t-318.5 97.5q-46 0 -81 -4.5t-55 -14.5
t-32.5 -18.5t-17.5 -23t-6 -22.5t-1 -22v-569q0 -46 42 -65t138 -19z" />
    <glyph glyph-name="Q" unicode="Q" horiz-adv-x="1718" 
d="M1587 39q21 0 33 -13t12 -34q0 -50 -90 -162q-42 -49 -75.5 -65.5t-71.5 -16.5q-96 0 -169 72.5t-116 199.5q-133 -51 -283 -51q-155 0 -292 53.5t-237.5 148.5t-159 233.5t-58.5 300.5q0 158 56 300.5t153.5 246.5t237 165.5t298.5 61.5q162 0 302 -59t237.5 -160.5
t153 -241.5t55.5 -297q0 -200 -85.5 -363t-234.5 -262q38 -77 74.5 -116t79.5 -39q32 0 67 24.5t64.5 49t48.5 24.5zM305 725q0 -173 64 -315.5t184.5 -227t275.5 -84.5q130 0 238 60q-50 126 -100.5 176.5t-128.5 50.5q-36 0 -70.5 -15.5t-58.5 -30.5t-35 -15q-39 0 -39 38
t72 85t157 47q105 0 181.5 -60t134.5 -190q166 174 166 471q0 175 -64.5 320.5t-184.5 233t-272 87.5q-113 0 -210.5 -49.5t-165 -134t-106 -200.5t-38.5 -247z" />
    <glyph glyph-name="R" unicode="R" horiz-adv-x="1468" 
d="M975 561l250 -332q36 -47 80 -78.5t73 -42t49.5 -27t20.5 -42.5q0 -43 -51 -43q-12 0 -85.5 3t-117.5 3q-41 0 -112.5 -3t-92.5 -3q-61 0 -61 43q0 21 17 34.5t37 20t37 21t17 37.5q0 27 -37 77l-200 265q-35 46 -84 43q-114 -6 -230 0q-30 1 -40.5 -9t-10.5 -36v-289
q0 -38 14.5 -61.5t35 -33.5t40.5 -17t34.5 -19.5t14.5 -34.5q0 -41 -51 -41q-18 0 -83.5 3t-108.5 3t-105 -3t-82 -3q-25 0 -38 11.5t-13 29.5q0 26 21.5 40.5t47 21t47 32.5t21.5 72v1042q0 38 -14 62t-34 34t-40.5 17.5t-34.5 20t-14 34.5q0 17 13 29t40 12q18 0 79.5 -3
t101.5 -3t151 5t166 5q329 0 503.5 -127.5t174.5 -343.5q0 -159 -93.5 -271.5t-252.5 -154.5zM641 643q103 0 180 15t141.5 51.5t98 106t33.5 171.5q0 169 -125.5 262.5t-329.5 93.5q-117 0 -161 -21.5t-44 -82.5v-524q0 -30 16.5 -44.5t59.5 -21t131 -6.5z" />
    <glyph glyph-name="S" unicode="S" horiz-adv-x="1345" 
d="M289 -35q-23 0 -39 18.5t-37 61.5l-78 170q-15 33 -33 69.5t-24.5 50.5t-11.5 29.5t-5 28.5q0 21 13.5 34t29.5 13q6 0 12 -1.5t12.5 -5.5t11.5 -7t11.5 -9t9.5 -9l9.5 -9.5l7.5 -7.5q131 -141 271.5 -220t310.5 -79q162 0 250 70t88 192q0 40 -10.5 74t-27.5 60
t-48.5 50.5t-62 41.5t-80 36.5t-91 33t-106.5 32.5q-106 31 -162.5 49.5t-144 59t-132 81.5t-79.5 107.5t-35 148.5q0 148 116 248.5t297 100.5q73 0 138.5 -13t107 -26t56.5 -13q25 0 47 30t45 30q30 0 60 -45q7 -10 38 -62l57 -94q80 -137 80 -174q0 -15 -11 -27t-26 -12
q-13 0 -26.5 8t-22 15.5t-26.5 25.5q-230 238 -496 238q-111 0 -177.5 -52t-66.5 -141q0 -100 97 -161q69 -44 267 -104q16 -5 50 -15h1l1 -1h1h1l1 -1h1q73 -22 121 -37.5t112.5 -42t107 -52t88.5 -63.5t72.5 -80t44 -98.5t17.5 -122.5q0 -191 -142 -303.5t-372 -112.5
q-90 0 -174.5 16t-138.5 32t-70 16q-26 0 -54.5 -35t-51.5 -35z" />
    <glyph glyph-name="T" unicode="T" horiz-adv-x="1499" 
d="M528 -4q-47 0 -47 43q0 23 17 36.5t41.5 20t49 16t41.5 32.5t17 61v1048q0 45 -17.5 65.5t-60.5 20.5h-73q-105 0 -192 -54.5t-193 -176.5q-23 -26 -37 -36.5t-31 -10.5q-41 0 -41 47q0 28 45 133l66 152q23 56 42.5 78t45.5 22q21 0 49 -21.5t59 -21.5h881q32 0 60 21.5
t48 21.5q27 0 46.5 -21.5t44.5 -78.5l63 -152q45 -105 45 -133q0 -47 -41 -47q-17 0 -30.5 10.5t-34.5 36.5q-106 122 -193.5 176.5t-193.5 54.5h-74q-43 0 -60.5 -20.5t-17.5 -65.5v-1048q0 -38 17.5 -61t42 -32.5t49 -16t42 -20t17.5 -36.5q0 -43 -49 -43q-26 0 -101 3
t-120 3q-44 0 -119.5 -3t-102.5 -3z" />
    <glyph glyph-name="U" unicode="U" horiz-adv-x="1490" 
d="M748 -27q-99 0 -184 15.5t-161 52t-130 92.5t-85.5 140.5t-31.5 191.5q0 35 8 117l51 594q6 58 6 86q0 31 -13.5 51.5t-27 27.5t-37.5 15q-41 16 -50 28t-9 29t13 29t38 12q20 0 83 -3t106 -3q44 0 112.5 3t89.5 3q26 0 39 -12t13 -29q0 -6 -1 -11t-2 -9t-4.5 -8t-4.5 -6
t-6.5 -5.5t-7 -4.5t-8 -4t-8 -4t-9.5 -4t-9 -3q-23 -10 -31.5 -14t-25.5 -16.5t-25 -31.5t-10 -47l-55 -663q-9 -88 -9 -107q0 -353 416 -356q197 -2 308.5 83t111.5 271q0 37 -8 119l-57 653q-2 26 -11 45t-25.5 30.5t-28.5 17t-34 12.5q-18 6 -27 9.5t-20 10.5t-15.5 17.5
t-4.5 25.5q0 17 13 29t38 12q27 0 90 -3t88 -3q22 0 78 3t80 3q26 0 38.5 -12t12.5 -29q0 -13 -3.5 -22t-15.5 -16.5t-16.5 -9.5t-23.5 -9q-18 -6 -29 -11t-24.5 -15.5t-20 -27.5t-6.5 -40q0 -28 6 -86l55 -601q8 -94 8 -116q0 -105 -31 -188.5t-84.5 -138t-129 -91
t-160 -52t-182.5 -16.5z" />
    <glyph glyph-name="V" unicode="V" horiz-adv-x="1533" 
d="M1497 1454q22 0 35.5 -11t13.5 -28q0 -21 -12 -33.5t-32 -21.5t-42.5 -20t-46 -36t-39.5 -63l-495 -1202q-12 -32 -37 -45.5t-76 -13.5q-54 0 -76.5 14t-34.5 45l-493 1194q-20 47 -52 76.5t-57.5 38.5t-45 24t-19.5 39q0 19 16 31t37 12q11 0 71 -3t105 -3q46 0 133 3
t113 3q28 0 44.5 -12t16.5 -33q0 -22 -23 -37.5t-50.5 -23t-50.5 -26t-23 -46.5q0 -19 29 -100l399 -977l403 983q25 55 25 88q0 32 -24.5 52t-53.5 27.5t-53.5 22.5t-24.5 37q0 21 17 33t47 12q28 0 91.5 -3t102.5 -3q38 0 94 3t68 3z" />
    <glyph glyph-name="W" unicode="W" horiz-adv-x="2156" 
d="M2132 1454q19 0 31 -11t12 -28q0 -25 -17.5 -40t-40.5 -23t-50 -34.5t-42 -70.5l-417 -1208q-9 -32 -32.5 -45.5t-70.5 -13.5q-52 0 -73.5 12.5t-32.5 46.5l-314 872l-305 -872q-11 -34 -32.5 -46.5t-73.5 -12.5q-54 0 -75 12.5t-32 46.5l-434 1200q-13 38 -34 63.5
t-40.5 37t-37 20.5t-28.5 22t-11 33q0 17 13 28t32 11q12 0 69.5 -3t100.5 -3q41 0 114.5 3t94.5 3q61 0 61 -45q0 -21 -19 -36t-41.5 -22.5t-41.5 -24t-19 -40.5q0 -35 29 -121l334 -950l307 891l-49 133q-16 45 -43.5 73.5t-50 37.5t-39.5 24.5t-17 40.5q0 17 12 28t31 11
q12 0 68 -3t102 -3q40 0 114 3t95 3q57 0 57 -45q0 -21 -18.5 -36t-40.5 -22.5t-40.5 -24t-18.5 -40.5q0 -36 28 -121l332 -950l317 946q33 95 33 125q0 24 -20 40.5t-44.5 24t-44.5 22.5t-20 36q0 45 60 45q23 0 83 -3t91 -3q34 0 80 3t59 3z" />
    <glyph glyph-name="X" unicode="X" horiz-adv-x="1437" 
d="M829 762l402 -533q33 -44 68 -73.5t60 -41.5t46.5 -21.5t32 -21.5t10.5 -34q0 -18 -14.5 -29.5t-36.5 -11.5q-24 0 -88.5 3t-108.5 3q-48 0 -141.5 -3t-112.5 -3q-55 0 -55 43q0 25 20.5 40t45 20.5t45 20t20.5 38.5q0 33 -53 102l-281 373l-309 -389q-43 -57 -43 -88
q0 -24 21.5 -38.5t47 -19.5t47 -19.5t21.5 -39.5q0 -43 -55 -43q-20 0 -96 3t-105 3q-31 0 -90.5 -3t-85.5 -3q-23 0 -37 10.5t-14 30.5q0 24 19.5 41t49 29.5t77.5 49.5t91 91l385 485l-387 516q-29 39 -65 66t-60.5 36.5t-41.5 24t-17 35.5q0 20 14.5 31.5t36.5 11.5
q24 0 83.5 -3t103.5 -3q48 0 132 3t103 3q55 0 55 -43q0 -24 -19 -37.5t-42.5 -18t-42.5 -18t-19 -37.5q0 -22 50 -94l260 -344l264 342q43 53 43 88q0 24 -20 38.5t-44.5 19.5t-44.5 19.5t-20 39.5q0 45 55 45q20 0 90 -3t99 -3q31 0 86 3t79 3q52 0 52 -41q0 -24 -17 -40
t-41.5 -26t-62.5 -37t-70 -67z" />
    <glyph glyph-name="Y" unicode="Y" horiz-adv-x="1386" 
d="M1333 1454q19 0 31 -11t12 -28q0 -21 -14.5 -35t-35.5 -23t-51.5 -35.5t-55.5 -66.5l-424 -694v-356q0 -38 17.5 -61t42 -32.5t49 -16t42 -20t17.5 -36.5q0 -43 -50 -43q-26 0 -101 3t-120 3q-44 0 -118 -3t-101 -3q-49 0 -49 43q0 23 17.5 36.5t42 20t49 16t42 32.5
t17.5 61v354l-428 703q-23 35 -52 59.5t-49 34t-34.5 23.5t-14.5 34q0 19 13 30t36 11q9 0 69 -3t104 -3q38 0 111 3t95 3q58 0 58 -45q0 -21 -18.5 -34.5t-40 -19t-40 -20t-18.5 -37.5q0 -20 27 -67l321 -543l324 529q30 54 30 75q0 24 -19 40t-42 22.5t-42 20.5t-19 34
q0 45 61 45q23 0 76.5 -3t79.5 -3q32 0 86 3t67 3z" />
    <glyph glyph-name="Z" unicode="Z" horiz-adv-x="1339" 
d="M1262 434q16 0 30.5 -12.5t14.5 -30.5q0 -24 -12 -55.5t-54 -122.5l-80 -174q-20 -42 -37.5 -62t-44.5 -20q-23 0 -55 21.5t-68 21.5h-690q-42 0 -104 -3t-72 -3q-59 0 -59 45q0 13 16 41l918 1259h-373q-36 0 -68.5 -6.5t-56.5 -13.5t-55.5 -28t-48.5 -33t-52.5 -47
t-51 -51t-58.5 -62q-19 -20 -26.5 -27.5t-19.5 -14.5t-24 -7q-16 0 -28.5 12t-12.5 33q0 30 55 145l70 154q27 58 46.5 79t47.5 21q21 0 48.5 -21.5t58.5 -21.5h590q44 0 106 3t72 3q59 0 59 -45q0 -7 -0.5 -12t-3 -9.5t-3.5 -6.5t-5.5 -7.5t-5.5 -7.5l-908 -1257h463
q29 0 55 3t52 13.5t44.5 17.5t45 27.5t40 30.5t42.5 39.5t40.5 41.5t45.5 49.5t47 51.5q19 20 26.5 27.5t19.5 14.5t24 7z" />
    <glyph glyph-name="bracketleft" unicode="[" horiz-adv-x="663" 
d="M555 -178h-285q-41 0 -64.5 24.5t-23.5 65.5v1528q0 41 23.5 64.5t64.5 23.5h285q82 0 82 -55q0 -56 -82 -56h-156q-39 0 -39 -33v-1419q0 -33 39 -33h156q82 0 82 -55t-82 -55z" />
    <glyph glyph-name="backslash" unicode="\" horiz-adv-x="815" 
d="M692 -59q-37 0 -55.5 10.5t-30.5 40.5l-530 1374q-13 39 -13 49q0 39 60 39q37 0 56.5 -11.5t29.5 -41.5l530 -1374q15 -30 15 -50q0 -36 -62 -36z" />
    <glyph glyph-name="bracketright" unicode="]" horiz-adv-x="663" 
d="M393 -178h-284q-82 0 -82 55t82 55h155q37 0 37 33v1419q0 33 -37 33h-155q-82 0 -82 56q0 55 82 55h284q41 0 64.5 -23.5t23.5 -64.5v-1528q0 -41 -23.5 -65.5t-64.5 -24.5z" />
    <glyph glyph-name="asciicircum" unicode="^" horiz-adv-x="987" 
d="M127 840q-51 0 -51 34q0 17 16 39l318 490q22 34 38.5 45.5t45.5 11.5q28 0 45 -11.5t39 -45.5l317 -490q16 -22 16 -39q0 -34 -51 -34q-78 0 -115 61l-239 395q-7 11 -12 11q-6 0 -13 -11l-239 -395q-37 -61 -115 -61z" />
    <glyph glyph-name="underscore" unicode="_" horiz-adv-x="876" 
d="M856 -211h-833q-32 0 -45 11.5t-13 45.5v23q0 33 13 45t45 12h833q31 0 43 -12t12 -45v-23q0 -35 -11.5 -46t-43.5 -11z" />
    <glyph glyph-name="grave" unicode="`" 
d="M444 1163q-20 0 -36.5 8t-40.5 35q-99 116 -179 201q-63 69 -63 98q0 23 19 30t73 7q37 0 54.5 -8.5t35.5 -32.5q79 -111 162 -260q16 -37 16 -51q0 -12 -12 -19.5t-29 -7.5z" />
    <glyph glyph-name="a" unicode="a" horiz-adv-x="1122" 
d="M1112 115q33 -6 33 -31q0 -32 -53 -66t-121 -34q-66 0 -116.5 39t-72.5 116q-63 -74 -160 -118t-214 -44q-157 0 -253 85t-96 221q0 138 113 229.5t303 91.5q115 0 244 -39l-4 27q-22 163 -81 229t-163 66q-125 0 -252 -117q-31 -25 -51 -25q-16 0 -28.5 12t-12.5 31
q0 23 33 64q53 74 156 125t214 51q77 0 136 -21t96 -54.5t64 -85t40 -102t23 -116.5l51 -344q7 -57 19 -91.5t36 -54t47.5 -27.5t69.5 -17zM469 100q86 0 166 45t127 111l-29 203q-106 41 -217 41q-127 0 -194.5 -53.5t-67.5 -147.5q0 -88 60 -143.5t155 -55.5z" />
    <glyph glyph-name="b" unicode="b" horiz-adv-x="1249" 
d="M715 1032q205 0 334 -141t129 -371q0 -122 -41 -226t-111.5 -173.5t-164.5 -108.5t-199 -39q-72 0 -136.5 16.5t-109 33t-66.5 16.5q-32 0 -83 -29.5t-68 -29.5q-21 0 -33 14.5t-12 38.5v1208q0 35 -16.5 54t-39.5 25t-46 9.5t-39.5 14t-16.5 32.5q0 25 31 48t116 61
q119 57 154 57q20 0 30.5 -16t10.5 -37v-655q62 91 157.5 144.5t219.5 53.5zM662 82q141 0 231 96t90 277q0 188 -94.5 312t-243.5 124q-126 0 -216.5 -89t-90.5 -241v-147q0 -151 91 -241.5t233 -90.5z" />
    <glyph glyph-name="c" unicode="c" horiz-adv-x="1036" 
d="M567 -27q-136 0 -247 58.5t-179.5 176.5t-68.5 277t69.5 285t186.5 194t258 68q74 0 145.5 -21t121 -52t80 -67t30.5 -67q0 -76 -84 -180q-30 -35 -54 -35q-40 0 -49 60q-11 59 -26 101.5t-40 80t-65.5 57t-95.5 19.5q-123 0 -202 -104t-79 -273q0 -187 107 -311.5
t266 -124.5q162 0 266 131q24 30 49 30q18 0 28.5 -12t10.5 -33t-18 -53q-48 -84 -162 -144.5t-248 -60.5z" />
    <glyph glyph-name="d" unicode="d" horiz-adv-x="1275" 
d="M1087 1468v-1189q0 -35 15.5 -56.5t38 -31t45 -16.5t38 -20t15.5 -34q0 -25 -32 -44.5t-122 -51.5q-120 -43 -139 -43q-15 0 -24.5 7t-13 20.5t-4.5 22t-1 23.5v111q-60 -88 -154.5 -140.5t-213.5 -52.5q-93 0 -177 35.5t-148.5 100.5t-102 163.5t-37.5 216.5
q0 237 146 390t366 153q197 0 321 -121v332q0 42 -26 62t-57 22t-57 13.5t-26 39.5q0 24 31.5 46t120.5 61q122 55 153 55q45 0 45 -74zM606 115q54 0 106 19.5t95 57t69.5 98.5t26.5 136v127q0 84 -30 155.5t-78 117.5t-106 72t-116 26q-144 0 -226.5 -105t-82.5 -270
q0 -99 29.5 -182.5t78.5 -137.5t109.5 -84t124.5 -30z" />
    <glyph glyph-name="e" unicode="e" horiz-adv-x="1085" 
d="M993 268q17 0 29 -13t12 -32q0 -18 -20 -51q-57 -82 -180.5 -140.5t-253.5 -58.5q-141 0 -255.5 61t-184.5 182.5t-70 283.5q0 114 41 214.5t110 169.5t160.5 108.5t191.5 39.5q121 0 218.5 -56t149.5 -144t52 -187q0 -31 -9.5 -44t-33.5 -21l-655 -195q42 -122 136 -197
t216 -75q164 0 293 125q38 30 53 30zM547 913q-123 0 -204 -94.5t-81 -245.5q0 -43 6 -84l473 146q28 8 37.5 19t9.5 38q0 79 -69.5 150t-171.5 71z" />
    <glyph glyph-name="f" unicode="f" horiz-adv-x="679" 
d="M436 1452q-51 0 -86 -37.5t-35 -101.5q0 -56 35 -156.5t43 -150.5h242q37 0 37 -29q0 -11 -6 -47q-9 -33 -39 -33h-226v-676q0 -46 17.5 -74t42 -38.5t49 -17.5t42 -19t17.5 -35q0 -15 -12 -28t-33 -13q-23 0 -93 3t-116 3q-42 0 -101.5 -3t-78.5 -3q-23 0 -35 12.5
t-12 28.5q0 21 13.5 32.5t32 18.5t37.5 18t32.5 40t13.5 75v676h-135q-31 0 -37 33q-6 36 -6 47q0 29 35 29h137q-5 30 -32 121.5t-27 152.5q0 130 85 204.5t214 74.5q103 0 189.5 -44.5t86.5 -107.5q0 -53 -55 -158q-22 -45 -54 -45q-41 0 -47 49q-15 103 -47 151t-88 48z
" />
    <glyph glyph-name="g" unicode="g" horiz-adv-x="1144" 
d="M831 188q151 -15 234.5 -80.5t83.5 -173.5q0 -142 -152.5 -233.5t-398.5 -91.5q-244 0 -394.5 71.5t-150.5 188.5q0 64 44 120t124 93q-59 20 -90 59t-31 90q0 98 146 189q-152 89 -152 252q0 153 129 256.5t352 103.5q51 0 97 -6q17 125 82.5 198.5t122.5 73.5
q73 0 159 -53q45 -29 45 -59q0 -42 -57 -45q-53 0 -88.5 -4t-74.5 -16t-63 -40t-34 -71q125 -34 195.5 -112.5t70.5 -190.5q0 -150 -127.5 -252.5t-351.5 -102.5q-111 0 -209 29q-22 -15 -29.5 -20.5t-22 -18t-19.5 -23t-5 -22.5q0 -47 111 -61q181 -25 454 -48zM553 930
q-117 0 -190.5 -63.5t-73.5 -168.5q0 -113 79 -179t203 -66q117 0 191 63t74 170q0 110 -80 177t-203 67zM606 -289q160 0 260.5 51t100.5 119q0 110 -207 131q-79 8 -217.5 23.5t-194.5 21.5q-50 -26 -82.5 -70.5t-32.5 -97.5q0 -88 96 -133t277 -45z" />
    <glyph glyph-name="h" unicode="h" horiz-adv-x="1226" 
d="M1026 621l51 -379q6 -45 20.5 -76.5t30.5 -45t34 -23.5t32 -15t23.5 -16.5t9.5 -30.5q0 -39 -56 -39q-24 0 -79 3t-99 3q-47 0 -99.5 -3t-76.5 -3q-27 0 -43 12t-16 31q0 20 14 31.5t34 17.5t40.5 14.5t34.5 29.5t14 56q0 22 -4 54l-49 352q-6 39 -13 70.5t-23.5 72.5
t-38 68.5t-58 47t-82.5 19.5q-47 0 -92 -19.5t-82 -56t-59.5 -97.5t-22.5 -136v-342q0 -39 9.5 -66t24.5 -38.5t31.5 -20.5t31.5 -13.5t24.5 -16t9.5 -29.5q0 -16 -11 -28.5t-32 -12.5q-19 0 -79 3t-101 3q-39 0 -97.5 -3t-77.5 -3q-23 0 -35 12.5t-12 28.5q0 18 9.5 29.5
t24 16t31 13.5t31 20.5t24 38.5t9.5 66v1020q0 35 -15 54t-36 25t-42.5 9.5t-36.5 14t-15 32.5q0 25 30.5 47.5t112.5 61.5q116 57 148 57q39 0 39 -53v-662q125 201 327 201q71 0 127 -27t89 -66.5t57.5 -98.5t35.5 -107t19 -108z" />
    <glyph glyph-name="i" unicode="i" horiz-adv-x="577" 
d="M242 1241q-44 0 -76.5 28.5t-32.5 76.5q0 61 53 112t127 51q48 0 81.5 -28t33.5 -76q0 -61 -56 -112.5t-130 -51.5zM127 -4q-24 0 -36.5 12.5t-12.5 28.5q0 21 13.5 32.5t32 18.5t37.5 18t32.5 40t13.5 75v498q0 35 -15 54t-36.5 25t-43 9.5t-36.5 14t-15 32.5
q0 24 31 46.5t113 62.5q116 57 143 57q43 0 43 -74v-725q0 -39 10 -66t24.5 -38.5t32 -20.5t32 -13.5t24.5 -16t10 -29.5q0 -15 -12 -28t-33 -13q-19 0 -79 3t-101 3q-40 0 -97 -3t-75 -3z" />
    <glyph glyph-name="j" unicode="j" horiz-adv-x="528" 
d="M227 1241q-45 0 -77.5 28t-32.5 77q0 61 53 112t127 51q48 0 81.5 -28t33.5 -76q0 -61 -55.5 -112.5t-129.5 -51.5zM195 -199q0 23 -1 77.5t-1 86.5v756q0 35 -15 55t-36.5 25.5t-43 9.5t-36.5 14.5t-15 32.5q0 25 30.5 47.5t112.5 61.5q117 55 144 55q43 0 43 -72v-997
q0 -84 -26.5 -151t-72 -108t-101.5 -63t-118 -22t-84 25t-22 83q-2 69 13.5 114.5t47.5 45.5q14 0 22.5 -9.5t18.5 -31.5q27 -56 48.5 -78t48.5 -22q43 0 43 65z" />
    <glyph glyph-name="k" unicode="k" horiz-adv-x="1198" 
d="M731 670l346 -523q16 -24 42 -40.5t46.5 -22.5t36 -18t15.5 -31q0 -39 -50 -39q-22 0 -84.5 3t-109.5 3q-43 0 -99.5 -3t-74.5 -3q-54 0 -54 41q0 22 16 34.5t35.5 17.5t35.5 19t16 39q0 20 -27 66l-223 346l-227 -190v-148q0 -39 9.5 -66t24.5 -38.5t31.5 -20.5
t31.5 -13.5t24.5 -16t9.5 -29.5q0 -16 -11 -28.5t-32 -12.5q-19 0 -79 3t-101 3q-39 0 -97.5 -3t-77.5 -3q-23 0 -35 12.5t-12 28.5q0 18 9.5 29.5t24 16t31 13.5t31 20.5t24 38.5t9.5 66v1020q0 35 -15 54t-36 25t-42.5 9.5t-36.5 14t-15 32.5q0 25 30.5 47.5t112.5 61.5
q116 57 148 57q39 0 39 -53v-991l350 303q22 19 30.5 27.5t17.5 23t9 29.5q0 17 -14 27t-31 13.5t-31 15.5t-14 32q0 41 53 41q19 0 76.5 -3t85.5 -3t97.5 3t93.5 3q22 0 35.5 -10.5t13.5 -28.5q0 -29 -29 -43t-82 -32t-88 -48z" />
    <glyph glyph-name="l" unicode="l" horiz-adv-x="557" 
d="M104 -4q-23 0 -35 12.5t-12 28.5q0 18 9.5 29.5t24 16t31 13.5t31 20.5t24 38.5t9.5 66v1020q0 35 -15 54t-36 25t-42.5 9.5t-36.5 14t-15 32.5q0 25 30.5 47.5t112.5 61.5q116 57 144 57q43 0 43 -74v-1247q0 -39 9.5 -66t24.5 -38.5t31.5 -20.5t31.5 -13.5t24.5 -16
t9.5 -29.5q0 -16 -11 -28.5t-32 -12.5q-19 0 -79 3t-101 3q-39 0 -97.5 -3t-77.5 -3z" />
    <glyph glyph-name="m" unicode="m" horiz-adv-x="1835" 
d="M1632 621l56 -379q7 -45 21.5 -76.5t31 -45t34 -23.5t32 -15t23.5 -16.5t9 -30.5t-16 -29t-41 -10t-79.5 3t-98.5 3q-48 0 -100 -3t-77 -3q-26 0 -42.5 12t-16.5 31q0 24 21.5 37t48 18.5t48 29t21.5 66.5q0 32 -6 62l-51 344q-4 30 -7 48t-10.5 50.5t-16 53.5t-24 47
t-34.5 41t-46.5 25.5t-60.5 10.5q-98 0 -164.5 -73.5t-66.5 -214.5v-363q0 -39 10 -66t25 -38.5t32.5 -20.5t32.5 -13.5t25 -16t10 -29.5q0 -15 -12.5 -28t-34.5 -13q-19 0 -78.5 3t-101.5 3q-39 0 -96 -3t-76 -3q-23 0 -36 13t-13 28q0 21 13.5 32.5t32 18.5t37.5 18
t32.5 40t13.5 75v375q0 276 -189 276q-102 0 -179 -79.5t-77 -225.5v-346q0 -39 10 -66t24.5 -38.5t32 -20.5t32 -13.5t24.5 -16t10 -29.5q0 -15 -12 -28t-33 -13q-19 0 -78.5 3t-101.5 3q-39 0 -96 -3t-76 -3q-23 0 -36 13t-13 28q0 21 13.5 32.5t32 18.5t37.5 18t32.5 40
t13.5 75v498q0 35 -15 54t-36.5 25t-43 9.5t-36.5 14t-15 32.5q0 24 30.5 46.5t111.5 62.5q118 57 145 57q43 0 43 -74v-119q125 201 326 201q199 0 270 -203q106 203 318 203q68 0 122 -24.5t87.5 -62t58.5 -94t37.5 -108.5t21.5 -118z" />
    <glyph glyph-name="n" unicode="n" horiz-adv-x="1247" 
d="M1047 621l53 -379q7 -54 25 -88t38.5 -46t40 -19.5t32.5 -18.5t13 -33q0 -41 -57 -41q-23 0 -78 3t-100 3q-46 0 -99 -3t-77 -3q-58 0 -58 43q0 24 21.5 37t47.5 18.5t47.5 29t21.5 66.5q0 8 -3 30t-4 32l-49 342q-6 40 -13 70.5t-23 72t-37.5 69t-58.5 47t-83 19.5
q-47 0 -92 -19.5t-82 -56t-59.5 -97.5t-22.5 -136v-342q0 -39 10 -66t24.5 -38.5t32 -20.5t32 -13.5t24.5 -16t10 -29.5q0 -15 -12 -28t-33 -13q-19 0 -79 3t-101 3q-40 0 -97 -3t-75 -3q-24 0 -36.5 12.5t-12.5 28.5q0 21 13.5 32.5t32 18.5t37.5 18t32.5 40t13.5 75v498
q0 35 -15 54t-36.5 25t-43 9.5t-36.5 14t-15 32.5q0 24 31 46.5t113 62.5q116 57 143 57q43 0 43 -74v-119q125 201 330 201q70 0 125 -27t88.5 -66.5t58 -98.5t35.5 -107.5t19 -107.5z" />
    <glyph glyph-name="o" unicode="o" horiz-adv-x="1228" 
d="M600 -31q-234 0 -381 144t-147 374q0 239 157.5 394t401.5 155q234 0 380 -145t146 -375q0 -239 -157.5 -393t-399.5 -154zM649 82q139 0 225.5 101t86.5 270q0 121 -47 228t-135.5 175t-198.5 68q-141 0 -226.5 -102t-85.5 -269q0 -121 47 -228t135.5 -175t198.5 -68z
" />
    <glyph glyph-name="p" unicode="p" horiz-adv-x="1273" 
d="M745 1032q199 0 328 -145t129 -373q0 -122 -40 -225t-108 -171.5t-159 -106.5t-193 -38q-193 0 -325 111v-229q0 -38 11 -64.5t28 -37.5t36.5 -20t36.5 -13.5t28 -16.5t11 -31q0 -15 -12 -28t-33 -13t-87.5 3.5t-110.5 3.5q-40 0 -97 -3.5t-75 -3.5q-23 0 -35 12.5
t-12 28.5q0 17 9.5 28.5t23.5 16t30.5 13.5t30.5 20.5t23.5 38.5t9.5 66v864q0 35 -15 54t-36 25t-42 9.5t-36 14t-15 32.5q0 25 29 47t112 62q76 37 101 47t43 10q43 0 43 -74v-112q59 91 152.5 144.5t215.5 53.5zM692 82q138 0 227 98t89 279q0 186 -93 309t-239 123
q-58 0 -111 -22t-95.5 -63t-67.5 -105t-25 -142v-145q0 -151 88.5 -241.5t226.5 -90.5z" />
    <glyph glyph-name="q" unicode="q" horiz-adv-x="1232" 
d="M1079 971v-1116q0 -39 9.5 -66t23.5 -38.5t30.5 -20.5t30.5 -13.5t23.5 -16t9.5 -28.5q0 -16 -12 -28.5t-35 -12.5q-19 0 -76.5 3.5t-95.5 3.5q-45 0 -113 -3.5t-90 -3.5q-20 0 -32.5 13t-12.5 28q0 22 16 34t39 19t46 17.5t39 38.5t16 74v307q-60 -86 -155 -137.5
t-214 -51.5q-93 0 -176 36t-145 101.5t-98.5 164.5t-36.5 217q0 238 143.5 389t361.5 151q77 0 140.5 -18t104.5 -35.5t61 -17.5q33 0 84 31.5t69 31.5q20 0 32.5 -14t12.5 -39zM602 115q54 0 105 19.5t93.5 57t68.5 98.5t26 136v127q0 83 -30 155t-78 118t-105 72t-113 26
q-143 0 -224 -106t-81 -271q0 -99 29 -182.5t77 -137t108 -83t124 -29.5z" />
    <glyph glyph-name="r" unicode="r" horiz-adv-x="917" 
d="M754 1028q63 0 104 -27.5t41 -66.5q0 -42 -37 -172q-16 -57 -55 -57q-19 0 -30 14t-21 43q-21 49 -43.5 71.5t-53.5 22.5q-38 0 -83.5 -29.5t-87 -83t-69.5 -140.5t-28 -189v-193q0 -46 16.5 -74t40 -38.5t47 -17.5t40 -19t16.5 -35q0 -15 -12 -28t-33 -13t-91 3t-116 3
q-40 0 -97 -3t-75 -3q-24 0 -36.5 12.5t-12.5 28.5q0 21 13.5 32.5t32 18.5t37.5 18t32.5 40t13.5 75v498q0 35 -15 54t-36.5 25t-43 9.5t-36.5 14t-15 32.5q0 24 31 46.5t113 62.5q116 57 143 57q43 0 43 -74v-207q51 129 152 209t211 80z" />
    <glyph glyph-name="s" unicode="s" horiz-adv-x="1060" 
d="M242 -33q-15 0 -28.5 12t-19.5 22.5t-16 31.5l-61 131q-10 21 -23.5 48.5t-19 38.5t-9.5 23.5t-4 22.5q0 20 11 31.5t30 11.5q23 0 64 -41q222 -219 426 -219q98 0 158.5 49.5t60.5 120.5q0 17 -3 32t-11 27.5t-15 22.5t-23 20t-27 17t-34.5 15t-37.5 13t-45 12.5
t-47.5 11.5t-53.5 13q-72 17 -122.5 31.5t-112 41.5t-99.5 58t-64 78.5t-26 106.5q0 119 95.5 199.5t248.5 80.5q68 0 149 -17.5t87 -17.5q17 0 35 20.5t38 20.5q13 0 23 -4t21 -18.5t14.5 -19.5t17.5 -29l68 -111q45 -72 45 -102q0 -18 -11.5 -29.5t-27.5 -11.5q-6 0 -12 2
t-14 7.5t-12.5 8.5t-13.5 11t-12 10q-84 78 -183 127t-193 49q-80 0 -128.5 -37.5t-48.5 -95.5q0 -19 3.5 -35t15.5 -30t21.5 -24t33.5 -20.5l40 -17.5t53 -17.5t60 -16.5t72 -18q54 -13 91.5 -23t85 -26.5t80 -33.5t66 -42.5t53.5 -54t33 -67.5t13 -84
q0 -139 -111.5 -223.5t-289.5 -84.5q-61 0 -120 11t-97 22.5t-49 11.5q-19 0 -42 -26.5t-46 -26.5z" />
    <glyph glyph-name="t" unicode="t" horiz-adv-x="806" 
d="M752 219q18 0 29.5 -13t11.5 -32q0 -36 -41 -80q-111 -117 -285 -117q-116 0 -192 57t-76 138q0 10 2 134.5t2 205.5v385h-133q-60 0 -60 47q0 38 53 57q91 36 141 107t89 215q10 39 22 56.5t35 17.5q16 0 26.5 -14t10.5 -42v-335h350q35 0 35 -29q0 -11 -6 -47
q-6 -33 -37 -33h-342v-592q0 -107 37.5 -151.5t105.5 -44.5q17 0 33 2t31.5 9t25 10.5t25 15t19.5 14.5t20.5 17.5t17.5 15.5q26 26 50 26z" />
    <glyph glyph-name="u" unicode="u" horiz-adv-x="1267" 
d="M1063 946v-682q0 -42 26.5 -67.5t57.5 -34t57.5 -23t26.5 -35.5q0 -31 -34.5 -50t-131.5 -42q-110 -28 -143 -28q-43 0 -43 69v119q-124 -199 -347 -199q-169 0 -255.5 106t-86.5 294v350q0 35 -17 56t-41 29.5t-47.5 15t-40.5 18t-17 32.5q0 26 31.5 46.5t123.5 54.5
q115 43 146 43q47 0 47 -72v-545q0 -136 48 -206t171 -70q115 0 200 82.5t85 228.5v287q0 35 -18.5 55.5t-45.5 29t-53.5 14.5t-45 18t-18.5 34q0 25 35 45.5t137 57.5q115 41 150 41q43 0 43 -72z" />
    <glyph glyph-name="v" unicode="v" horiz-adv-x="1144" 
d="M1094 1010q49 0 49 -39q0 -22 -17.5 -37t-41 -23.5t-51 -33t-42.5 -60.5l-319 -764q-14 -37 -34.5 -50t-64.5 -13q-45 0 -65 13.5t-35 51.5l-319 760q-16 38 -43.5 62.5t-50.5 33.5t-40.5 23.5t-17.5 36.5q0 39 49 39q22 0 84.5 -3t110.5 -3q43 0 102.5 3t77.5 3
q53 0 53 -41q0 -23 -18.5 -38t-41 -22t-41 -26.5t-18.5 -51.5q0 -38 31 -112l219 -543l213 543q35 96 35 121q0 28 -19.5 45.5t-43 24t-43 21.5t-19.5 38q0 41 53 41q19 0 70.5 -3t79.5 -3t81 3t77 3z" />
    <glyph glyph-name="w" unicode="w" horiz-adv-x="1789" 
d="M1739 1010q21 0 36 -10t15 -29q0 -22 -18 -37.5t-42 -25.5t-53 -37.5t-47 -69.5l-317 -746q-15 -36 -34 -50.5t-65 -14.5q-48 0 -68 15.5t-34 51.5l-207 539l-229 -541q-6 -18 -10 -25t-14.5 -19t-29 -16.5t-47.5 -4.5q-47 0 -65.5 15t-34.5 52l-317 746q-18 42 -47 69.5
t-52.5 37t-41 24.5t-17.5 37q0 39 49 39q22 0 86.5 -3t112.5 -3q43 0 101 3t75 3q57 0 57 -41q0 -22 -18 -37t-39 -22t-39 -27t-18 -52q0 -39 28 -106l219 -532l232 561l-19 49q-16 43 -42 70.5t-47.5 37t-37.5 24t-16 36.5q0 39 49 39q22 0 78.5 -3t103.5 -3q43 0 108 3
t83 3q57 0 57 -41q0 -23 -21 -39.5t-45.5 -26t-45.5 -28.5t-21 -46q0 -25 27 -104l194 -535l215 533q31 80 31 113q0 30 -19.5 49t-43 26t-43 21.5t-19.5 36.5q0 41 58 41q19 0 69.5 -3t79.5 -3t82 3t78 3z" />
    <glyph glyph-name="x" unicode="x" horiz-adv-x="1128" 
d="M664 526l272 -338q26 -32 61 -56t60 -35t43 -26.5t18 -35.5q0 -18 -14 -28.5t-35 -10.5q-23 0 -79 3t-99 3q-44 0 -105 -3t-79 -3q-54 0 -54 41q0 20 14.5 31.5t31.5 16.5t31.5 19t14.5 37q0 28 -49 86l-161 203l-175 -211q-41 -47 -41 -80q0 -22 15 -35t33.5 -17.5
t33.5 -17t15 -32.5q0 -41 -54 -41q-18 0 -71 3t-84 3q-28 0 -81 -3t-77 -3q-49 0 -49 39q0 21 18.5 36.5t43.5 25t59.5 29.5t58.5 48l285 344l-240 299q-26 32 -61 56t-60 35t-43 26.5t-18 34.5q0 41 49 41q23 0 80 -3t100 -3q46 0 104.5 3t76.5 3q53 0 53 -41
q0 -20 -14 -31.5t-31 -16.5t-31 -18.5t-14 -36.5q0 -9 2.5 -17.5t9 -19.5t10 -16.5t13.5 -19t12 -15.5l131 -166l145 174q43 53 43 80q0 22 -15 35.5t-33 18.5t-33 17t-15 32q0 41 51 41q20 0 71 -3t79 -3q29 0 84 3t80 3q49 0 49 -39q0 -21 -18 -36t-43 -24t-58.5 -28.5
t-56.5 -46.5z" />
    <glyph glyph-name="y" unicode="y" horiz-adv-x="1146" 
d="M1094 1010q49 0 49 -39q0 -21 -17.5 -36t-41 -24.5t-52 -36t-45.5 -65.5l-381 -899q-127 -301 -342 -301q-48 0 -87 12.5t-54 32.5q-21 28 -42.5 104t-21.5 117q0 24 11.5 39.5t31.5 15.5q16 0 26.5 -8.5t25.5 -30.5q46 -71 83 -104t76 -33q103 0 191 215l12 31l-358 807
q-18 40 -47 66.5t-52 36.5t-40 25t-17 36q0 39 47 39q22 0 85.5 -3t111.5 -3q43 0 102.5 3t77.5 3q53 0 53 -41q0 -23 -18.5 -38t-41 -22t-41 -26.5t-18.5 -51.5q0 -38 31 -112l221 -518l211 518q37 81 37 121q0 28 -19.5 45.5t-43 24t-43 21.5t-19.5 38q0 41 53 41
q19 0 69.5 -3t78.5 -3q30 0 82 3t76 3z" />
    <glyph glyph-name="z" unicode="z" horiz-adv-x="1030" 
d="M954 330q18 0 29.5 -11.5t11.5 -31.5q0 -19 -26 -84l-72 -162q-30 -78 -72 -78q-19 0 -45 18.5t-53 18.5h-455q-40 0 -103 -3t-75 -3q-57 0 -57 43q0 20 22 49l621 813h-221q-84 0 -148.5 -34t-132.5 -113q-34 -43 -63 -43q-15 0 -26 11.5t-11 29.5q0 26 24 81l66 146
q8 17 11.5 24t12 19t18.5 17t23 5q19 0 44 -18t51 -18h379q42 0 104 3t72 3q59 0 59 -43q0 -18 -14 -39l-625 -824h234q115 0 196.5 42t159.5 139q34 43 61 43z" />
    <glyph glyph-name="braceleft" unicode="{" horiz-adv-x="628" 
d="M516 -70q62 0 62 -51q0 -48 -66 -55q-44 -8 -104 -8q-126 0 -195.5 70.5t-69.5 185.5q0 62 22.5 135t45 140t22.5 114q0 37 -11 65t-33.5 45.5t-35.5 25t-38 17.5q-15 6 -23.5 11t-18.5 18.5t-10 32.5q0 40 52 61q21 8 36.5 17t37 26t33 45t11.5 64q0 47 -22.5 114.5
t-45 141t-22.5 135.5q0 115 69.5 184.5t195.5 69.5q54 0 104 -6q66 -11 66 -58q0 -51 -62 -51q-7 0 -34.5 2t-39.5 2q-116 0 -116 -129q0 -68 46 -203.5t46 -199.5q0 -149 -156 -215q156 -66 156 -217q0 -63 -46 -199t-46 -205q0 -127 116 -127q12 0 39.5 1t34.5 1z" />
    <glyph glyph-name="bar" unicode="|" horiz-adv-x="509" 
d="M256 -293q-36 0 -54 12.5t-18 44.5v1919q0 32 18 45t54 13q35 0 52.5 -13t17.5 -45v-1919q0 -32 -17.5 -44.5t-52.5 -12.5z" />
    <glyph glyph-name="braceright" unicode="}" horiz-adv-x="628" 
d="M514 739q51 -20 51 -63q0 -14 -4 -24.5t-14.5 -18t-15 -10t-17.5 -9.5q-60 -25 -83 -48q-38 -39 -38 -103q0 -48 23 -114.5t46 -140t23 -136.5q0 -115 -69 -184.5t-195 -69.5q-55 0 -104 6q-66 7 -66 57q0 26 17 38.5t43 12.5q7 0 35 -2t40 -2q117 0 117 129
q0 68 -46 204t-46 200q0 149 156 215q-78 33 -117 88.5t-39 126.5q0 64 46 200t46 203q0 129 -117 129q-12 0 -40 -2t-35 -2q-26 0 -43 13.5t-17 40.5q0 48 66 55q50 6 104 6q126 0 195 -69.5t69 -182.5q0 -64 -23 -137.5t-46 -140.5t-23 -113q0 -37 12 -64.5t34.5 -45
t37 -25.5t37.5 -17z" />
    <glyph glyph-name="asciitilde" unicode="~" horiz-adv-x="1208" 
d="M195 483q-33 0 -53.5 18.5t-20.5 45.5q0 21 8 37q33 97 102.5 150.5t169.5 53.5q59 0 121 -27t105.5 -59t94.5 -59t91 -27q112 0 160 138q13 37 45 37q33 0 53.5 -18.5t20.5 -45.5q0 -20 -9 -35q-33 -98 -102.5 -152.5t-169.5 -54.5q-58 0 -120 27t-106 59t-95.5 59
t-90.5 27q-112 0 -159 -137q-15 -37 -45 -37z" />
    <glyph glyph-name="uni00A0" unicode="&#xa0;" horiz-adv-x="507" 
 />
    <glyph glyph-name="exclamdown" unicode="&#xa1;" horiz-adv-x="528" 
d="M256 817q63 0 104 33.5t41 83.5q0 51 -35 79.5t-92 28.5q-63 0 -105 -33t-42 -83q0 -51 35.5 -80t93.5 -29zM262 672q47 0 53 -51q12 -183 29.5 -411.5t27 -363.5t9.5 -188q0 -56 -31.5 -88.5t-87.5 -32.5q-59 0 -90 31.5t-31 89.5q0 52 10.5 189t27.5 361t28 413
q3 24 18 37.5t37 13.5z" />
    <glyph glyph-name="cent" unicode="&#xa2;" horiz-adv-x="1187" 
d="M1063 287q19 0 32 -13.5t13 -33.5q0 -27 -25 -62q-49 -72 -149.5 -131.5t-233.5 -71.5v-186q0 -72 -55 -72q-30 0 -43.5 17.5t-13.5 54.5v184q-217 14 -347 152t-130 362q0 113 38.5 213t102.5 169.5t147 112t172 48.5v154q0 38 13.5 55.5t44.5 17.5q30 0 42.5 -17
t12.5 -56v-158q36 -6 88.5 -20.5t67.5 -14.5q20 0 38.5 23.5t36.5 23.5q21 0 37 -20t37 -72l55 -139q10 -25 21.5 -51t17 -38.5t9.5 -24.5t4 -21q0 -20 -12 -31.5t-27 -11.5q-25 0 -62 43q-112 135 -192.5 196.5t-165.5 61.5q-122 0 -210.5 -117t-88.5 -297q0 -185 105 -296
t257 -111q96 0 178 39.5t132 101.5q30 37 53 37z" />
    <glyph glyph-name="sterling" unicode="&#xa3;" horiz-adv-x="1236" 
d="M1133 297q41 0 41 -68q0 -43 -17.5 -87.5t-51 -84t-92 -65t-130.5 -25.5q-70 0 -152.5 23t-181.5 61.5t-139 50.5q-53 -63 -99 -95t-102 -32q-48 0 -82.5 29t-34.5 74q0 65 72 112.5t168 49.5q33 62 33 149q0 112 -39 244h-142q-18 0 -37 4.5t-38 22.5t-19 47q0 53 70 53
h127q-56 167 -67 235q-7 44 -7 82q0 178 128 290t321 112q100 0 197 -31.5t157.5 -81t60.5 -100.5q0 -30 -22 -77t-68 -99q-30 -35 -55 -35q-16 0 -27 11t-14.5 20.5t-7.5 27.5q-8 44 -16 75t-24.5 66.5t-38 57.5t-56.5 36.5t-80 14.5q-104 0 -173 -68t-69 -202
q0 -34 5.5 -78t11.5 -75t19.5 -92.5t18.5 -88.5h365q31 0 62.5 -17t31.5 -57q0 -53 -70 -53h-366q12 -80 12 -164q0 -148 -49 -246q26 -5 116.5 -27t152.5 -32t116 -10q63 0 111.5 20.5t101.5 71.5q6 6 15.5 16t14 14.5t11.5 10.5t13.5 8t13.5 2z" />
    <glyph glyph-name="currency" unicode="&#xa4;" horiz-adv-x="1196" 
d="M946 360l107 -104q24 -18 24 -47q0 -23 -25 -48.5t-48 -25.5q-18 0 -46 25l-110 106q-114 -80 -248 -80q-138 0 -254 82l-108 -108q-20 -23 -45 -23t-47.5 22.5t-22.5 47.5q0 28 22 47l107 108q-84 114 -84 254q0 134 82 250l-109 111q-22 22 -22 45q0 25 24.5 50.5
t49.5 25.5q20 0 47 -27l106 -108q117 86 254 86q138 0 252 -84l109 110q23 23 47 23q23 0 46 -23.5t23 -46.5q0 -22 -22 -47l-109 -109q86 -117 86 -256t-86 -256zM600 309q126 0 217.5 91t91.5 216q0 126 -91.5 218t-217.5 92t-216.5 -92t-90.5 -218q0 -125 90.5 -216
t216.5 -91z" />
    <glyph glyph-name="yen" unicode="&#xa5;" horiz-adv-x="1443" 
d="M1352 1454q19 0 31 -11t12 -28q0 -21 -14.5 -35t-34 -21.5t-46 -26t-45.5 -44.5l-405 -563h262q68 0 68 -53q0 -54 -68 -54h-291v-188h291q68 0 68 -55q0 -53 -68 -53h-291v-119q0 -38 17.5 -61t42 -32.5t49 -16t42 -20t17.5 -36.5q0 -43 -49 -43q-26 0 -101 3t-120 3
q-44 0 -118 -3t-101 -3q-49 0 -49 43q0 23 17 36.5t41.5 20t49.5 16t42 32.5t17 61v119h-290q-68 0 -68 53q0 55 68 55h290v188h-290q-68 0 -68 54q0 53 68 53h264l-399 559q-19 26 -46 45t-47 27.5t-34.5 22.5t-14.5 34q0 19 12 30t31 11q11 0 70 -3t102 -3q39 0 113 3
t94 3q59 0 59 -45q0 -21 -16.5 -34.5t-36.5 -19t-36.5 -19.5t-16.5 -36q0 -28 23 -61l317 -444l311 434q27 31 27 63q0 23 -17.5 38.5t-38 22.5t-38 21t-17.5 35q0 45 64 45q24 0 76.5 -3t80.5 -3q32 0 78 3t60 3z" />
    <glyph glyph-name="brokenbar" unicode="&#xa6;" horiz-adv-x="509" 
d="M256 891q-37 0 -54.5 11.5t-17.5 43.5v737q0 32 18 45t54 13q35 0 52.5 -13t17.5 -45v-737q0 -32 -17.5 -43.5t-52.5 -11.5zM256 -293q-36 0 -54 12.5t-18 44.5v736q0 32 18 44.5t54 12.5q35 0 52.5 -12.5t17.5 -44.5v-736q0 -32 -17.5 -44.5t-52.5 -12.5z" />
    <glyph glyph-name="section" unicode="&#xa7;" horiz-adv-x="1234" 
d="M909 418q90 -45 138.5 -107t48.5 -153q0 -143 -120.5 -227.5t-313.5 -84.5q-92 0 -191 22.5t-102 22.5q-19 0 -44.5 -26.5t-52.5 -26.5q-15 0 -28.5 12.5t-18.5 22t-16 31.5l-70 137q-7 13 -16 30.5t-14 26.5t-11 21t-9 18.5t-6 14t-4 13.5t-1 11q0 21 12 33t31 12
q20 0 72 -41q252 -231 464 -231q111 0 179.5 52t68.5 128q0 33 -13 57.5t-31.5 41t-59 32.5t-73 25.5t-95.5 26.5q-39 10 -60 16q-188 52 -254 80q-159 68 -195 182q-13 40 -13 86q0 95 59.5 170t161.5 110q-166 88 -166 232q0 125 103.5 207t269.5 82q75 0 164 -18.5
t94 -18.5q19 0 39.5 21.5t42.5 21.5q16 0 30.5 -12t22 -23t26.5 -41l72 -113q49 -83 49 -102q0 -20 -11.5 -32.5t-29.5 -12.5q-6 0 -12 2t-10.5 4t-11.5 7t-10 8t-11.5 11t-11.5 11q-86 76 -198.5 129t-217.5 53q-91 0 -145 -38.5t-54 -98.5q0 -27 7.5 -48t29 -38.5t43 -30
t66.5 -27t81 -24.5t105 -27q63 -15 105 -26.5t95 -30t87.5 -36t71 -43.5t57 -55.5t34 -69t13.5 -85.5q0 -98 -64 -170t-178 -106zM301 733q0 -33 7 -57.5t25 -43.5t39.5 -33t59.5 -27.5t75 -24.5t96 -27q6 -2 10 -3t9.5 -2.5t10.5 -2.5q84 -22 135 -39q88 17 141.5 68
t53.5 118q0 78 -78 119q-49 26 -209 66q-31 8 -47 12q-85 21 -174 49q-69 -14 -111.5 -61t-42.5 -111z" />
    <glyph glyph-name="dieresis" unicode="&#xa8;" 
d="M240 1214q-57 0 -92 30.5t-35 82.5q0 47 35.5 81t91.5 34t92.5 -30.5t36.5 -80.5q0 -52 -36.5 -84.5t-92.5 -32.5zM600 1217q-58 0 -92.5 29t-34.5 81q0 47 35.5 81t91.5 34t91.5 -30.5t35.5 -80.5q0 -52 -35.5 -83t-91.5 -31z" />
    <glyph glyph-name="copyright" unicode="&#xa9;" horiz-adv-x="1728" 
d="M864 -33q-156 0 -295 59t-239 159.5t-158.5 241t-58.5 296.5q0 157 58.5 297.5t158.5 241.5t239 160t295 59q208 0 380 -100t271 -274t99 -384q0 -209 -99 -382.5t-271 -273.5t-380 -100zM864 78q175 0 321.5 85.5t231 234t84.5 325.5q0 178 -84.5 327t-231 234.5
t-321.5 85.5t-321.5 -85.5t-231 -234.5t-84.5 -327q0 -177 84.5 -325.5t231 -234t321.5 -85.5zM858 328q-169 0 -274 104.5t-105 280.5q0 175 112 293t261 118q46 0 106 -13t68 -13q12 0 25 15t26 15q15 0 26 -12t23 -43l37 -92q6 -15 13.5 -32t11.5 -25.5t7 -18t3 -16.5
q0 -16 -9 -24.5t-22 -8.5q-21 0 -47 33q-71 88 -122.5 124t-114.5 36q-103 0 -169.5 -88.5t-66.5 -227.5q0 -138 76 -219.5t188 -81.5q130 0 217 105q26 30 43 30q14 0 25.5 -10.5t11.5 -26.5q0 -13 -18 -45q-39 -63 -126.5 -110t-205.5 -47z" />
    <glyph glyph-name="ordfeminine" unicode="&#xaa;" horiz-adv-x="819" 
d="M811 825q25 -3 25 -24q0 -28 -43.5 -57t-102.5 -29q-47 0 -84 26.5t-57 77.5q-44 -49 -112 -78.5t-150 -29.5q-113 0 -181.5 60.5t-68.5 156.5q0 98 80 162.5t217 64.5q79 0 166 -25l-2 21q-14 97 -53 144.5t-113 47.5q-83 0 -168 -71q-29 -19 -43 -19q-12 0 -22.5 9.5
t-10.5 23.5q0 24 33 57q40 47 111.5 80t152.5 33q69 0 120 -21t80.5 -59.5t45.5 -81t24 -98.5l35 -240q9 -71 34 -95.5t87 -35.5zM348 813q54 0 104 27t80 65l-20 146q-68 22 -135 22q-78 0 -123 -34.5t-45 -94.5q0 -58 38.5 -94.5t100.5 -36.5z" />
    <glyph glyph-name="guillemotleft" unicode="&#xab;" horiz-adv-x="1126" 
d="M297 485l188 -221q55 -64 74 -90.5t19 -48.5q0 -19 -10 -30t-27 -11t-43.5 19.5t-79.5 64.5l-242 213q-31 27 -43 38t-26.5 33.5t-14.5 43.5t14.5 43.5t26 32.5t43.5 38l242 213q96 86 123 86q17 0 27 -11.5t10 -29.5q0 -22 -19.5 -50.5t-73.5 -90.5l-188 -221
q-2 -2 -2 -10q0 -9 2 -11zM743 477l183 -213q57 -65 75.5 -91.5t18.5 -47.5q0 -19 -11 -30t-28 -11q-15 0 -37.5 15.5t-67.5 53.5l-18 15l-242 213q-31 27 -43 38t-26.5 33.5t-14.5 43.5t14.5 43.5t26 32.5t43.5 38l242 213q83 71 105 81q10 5 18 5q17 0 28 -12t11 -29
q0 -22 -19.5 -50t-74.5 -91l-183 -215q-6 -6 -6 -16t6 -19z" />
    <glyph glyph-name="logicalnot" unicode="&#xac;" horiz-adv-x="1130" 
d="M934 219q-68 0 -68 43v367q0 20 -20 20h-692q-43 0 -43 68q0 65 43 65h802q45 0 45 -45v-475q0 -43 -67 -43z" />
    <glyph glyph-name="registered" unicode="&#xae;" horiz-adv-x="1384" 
d="M692 1479q156 0 288 -76.5t209 -208t77 -287.5q0 -155 -77 -286.5t-209 -208t-288 -76.5t-288 76.5t-208.5 208t-76.5 286.5q0 156 76.5 287.5t208.5 208t288 76.5zM692 434q97 0 184.5 37.5t151.5 100.5t101.5 151t37.5 184q0 97 -37.5 184.5t-101.5 151.5t-151.5 101.5
t-184.5 37.5t-184.5 -37.5t-151.5 -101.5t-101.5 -151.5t-37.5 -184.5q0 -96 37.5 -184t101.5 -151t151.5 -100.5t184.5 -37.5zM817 858l111 -147q13 -18 33.5 -28.5t32.5 -18t12 -21.5q0 -22 -25 -22q-5 0 -41.5 2t-58.5 2q-21 0 -53 -2t-42 -2q-13 0 -22.5 6.5t-9.5 15.5
q0 11 7.5 17.5t16 9t16 9t7.5 17.5q0 5 -3.5 11t-9 13.5t-8.5 12.5l-63 80q-11 16 -20 20.5t-31 4.5h-66q-20 0 -20 -19v-100q0 -19 9 -30.5t19.5 -15t19.5 -11t9 -19.5q0 -8 -8 -15t-21 -7q-7 0 -36.5 2t-53.5 2t-51.5 -2t-34.5 -2q-13 0 -19.5 7t-6.5 15q0 12 8.5 19.5
t18 11t18 15t8.5 30.5v399q0 19 -8.5 30.5t-18 15t-18 10.5t-8.5 18q0 9 7 15.5t19 6.5q9 0 35 -2t49 -2q16 0 67.5 4.5t96.5 4.5q124 0 198 -52.5t74 -140.5q0 -59 -36 -102.5t-99 -65.5zM639 897h31q69 0 110 32.5t41 96.5q0 66 -43.5 98.5t-115.5 32.5q-36 0 -55 -6
t-23 -13.5t-4 -19.5v-192q0 -14 10 -20.5t20 -7.5t29 -1z" />
    <glyph glyph-name="macron" unicode="&#xaf;" 
d="M184 1284q-30 0 -42.5 15t-12.5 47q0 33 12.5 48t42.5 15l236 -2q26 0 123 1t112 1q30 0 43 -15t13 -48q0 -62 -56 -62l-235 2q-26 0 -124 -1t-112 -1z" />
    <glyph glyph-name="degree" unicode="&#xb0;" horiz-adv-x="811" 
d="M406 819q-140 0 -237 96.5t-97 235.5t97 235.5t237 96.5t236.5 -96.5t96.5 -235.5t-96.5 -235.5t-236.5 -96.5zM406 940q88 0 148 61t60 150t-60 150t-148 61t-148.5 -61t-60.5 -150t60.5 -150t148.5 -61z" />
    <glyph glyph-name="plusminus" unicode="&#xb1;" horiz-adv-x="1136" 
d="M567 268q-67 0 -67 43v238q0 22 -21 22h-336q-45 0 -45 66q0 65 45 65h336q21 0 21 23v315q0 43 67 43q68 0 68 -43v-315q0 -23 22 -23h336q43 0 43 -65q0 -66 -43 -66h-336q-22 0 -22 -22v-238q0 -43 -68 -43zM995 76h-854q-45 0 -45 67q0 66 45 66h854q43 0 43 -66
q0 -67 -43 -67z" />
    <glyph glyph-name="uni00B2" unicode="&#xb2;" horiz-adv-x="856" 
d="M774 815q12 0 22.5 -11t10.5 -26q0 -23 -39 -102l-57 -121q-16 -32 -29 -45.5t-37 -13.5q-14 0 -38 15t-52 15h-348q-21 0 -62 -2t-57 -2q-22 0 -34.5 13t-12.5 28q0 21 37 64q59 63 116 121.5t195 205.5q69 74 104 134t35 120q0 63 -46 104.5t-120 41.5
q-65 0 -109 -29.5t-87 -89.5q-27 -39 -51 -39q-15 0 -26 13t-11 30q0 29 14 51q51 90 135.5 141.5t190.5 51.5q134 0 216.5 -72.5t82.5 -175.5q0 -47 -15.5 -91t-46.5 -85t-57 -68t-68 -65q-27 -24 -88.5 -75t-113 -96.5t-92.5 -88.5h270q52 0 100 22t117 90q4 4 12 13
t12 13t11.5 7.5t15.5 3.5z" />
    <glyph glyph-name="uni00B3" unicode="&#xb3;" 
d="M483 1112q131 -14 208 -100t77 -193q0 -130 -103.5 -221.5t-250.5 -91.5q-69 0 -128.5 17t-100 44.5t-67.5 56t-42 58.5q-17 39 -17 61q0 17 12.5 29t26.5 12q23 0 47 -34q34 -52 93.5 -86.5t136.5 -34.5q89 0 149 50t60 130t-55.5 133t-127.5 53q-16 0 -38.5 -4
t-30.5 -4q-19 0 -31 13.5t-12 31.5q0 14 8 24t24.5 22t24.5 20q43 40 114 114.5t115 128.5h-202q-35 0 -56.5 -4t-62 -31.5t-90.5 -82.5q-31 -31 -51 -31q-11 0 -21 9.5t-10 25.5q0 10 5 25.5t14 36.5l12 28l47 106q16 37 29 51.5t34 14.5q17 0 39 -14.5t45 -14.5h281
q21 0 62.5 2t58.5 2q22 0 33.5 -15.5t11.5 -35.5q0 -26 -47 -76q-66 -70 -224 -225z" />
    <glyph glyph-name="acute" unicode="&#xb4;" 
d="M371 1163q-17 0 -29 7.5t-12 19.5q0 16 18 51q66 119 160 260q18 24 36 32.5t56 8.5q53 0 71.5 -7t18.5 -30q0 -29 -63 -98q-2 -2 -76 -86.5t-102 -114.5q-24 -27 -41 -35t-37 -8z" />
    <glyph glyph-name="uni00B5" unicode="&#xb5;" horiz-adv-x="1159" 
d="M1061 123q36 0 39 -55q0 -63 -47 -74q-42 -10 -82 -10q-144 0 -178 112q-41 -54 -108.5 -84t-145.5 -30q-72 0 -134 26t-102 72v-393q0 -34 -13.5 -47t-51.5 -13t-53 13t-15 47v1267q0 34 15 47t53 13t51.5 -13t13.5 -47v-610q0 -106 65 -167.5t175 -61.5q115 0 177 61.5
t62 175.5v602q0 34 14.5 47t51.5 13q38 0 52.5 -13t14.5 -47v-757q0 -46 18 -64t64 -18q14 0 35.5 4t28.5 4z" />
    <glyph glyph-name="paragraph" unicode="&#xb6;" horiz-adv-x="1292" 
d="M1145 1456q24 0 36.5 -12t12.5 -29q0 -22 -14.5 -35t-36 -20.5t-42.5 -17.5t-35.5 -33.5t-14.5 -61.5v-1184q0 -40 -17 -58.5t-55 -18.5t-55 18.5t-17 58.5v1215q0 63 -86 63q-88 0 -88 -63v-1215q0 -40 -16.5 -58.5t-54.5 -18.5q-72 0 -72 77v492q-244 6 -375 129.5
t-131 337.5q0 68 17.5 129t58 118.5t101.5 99t155 66.5t211 25q97 0 196 -5t127 -5q45 0 110 3t85 3z" />
    <glyph glyph-name="periodcentered" unicode="&#xb7;" horiz-adv-x="518" 
d="M268 598q-66 0 -109.5 -36.5t-43.5 -92.5t37 -87.5t98 -31.5q66 0 111 37.5t45 91.5q0 56 -38.5 87.5t-99.5 31.5z" />
    <glyph glyph-name="cedilla" unicode="&#xb8;" 
d="M449 -102q76 0 126 -41t50 -105q0 -70 -60 -115t-151 -45q-106 0 -172 41q-27 18 -27 41q0 14 9.5 25.5t23.5 11.5q17 0 49 -12q73 -27 113 -27q44 0 71 19t27 49q0 29 -23 46t-63 17q-30 0 -92 -20q-13 3 -32 21t-22 32l54 191h88l-37 -138q34 9 68 9z" />
    <glyph glyph-name="uni00B9" unicode="&#xb9;" horiz-adv-x="593" 
d="M145 522q-20 0 -30.5 10.5t-10.5 24.5q0 19 21 30t46 15t46 21.5t21 48.5v563q0 63 -52 63q-18 0 -58 -5t-52 -5q-45 0 -45 35q0 28 37 39q37 13 103.5 30t111.5 33q35 11 70.5 26t53.5 21.5t31 6.5q15 0 25 -10.5t10 -24.5t-10 -26.5t-22.5 -21t-22.5 -26t-10 -41.5
v-657q0 -31 21 -48.5t45.5 -21.5t45.5 -15t21 -30q0 -15 -10 -25t-29 -10q-18 0 -77.5 2t-102.5 2t-101.5 -2t-75.5 -2z" />
    <glyph glyph-name="ordmasculine" unicode="&#xba;" horiz-adv-x="886" 
d="M432 700q-172 0 -279.5 105.5t-107.5 269.5q0 166 116 276.5t294 110.5q172 0 279.5 -105t107.5 -270q0 -167 -117.5 -277t-292.5 -110zM467 791q91 0 145 66.5t54 174.5q0 84 -30 162t-87.5 129t-128.5 51q-91 0 -145 -68t-54 -178q0 -82 30 -158.5t88 -127.5t128 -51z
" />
    <glyph glyph-name="guillemotright" unicode="&#xbb;" horiz-adv-x="1126" 
d="M592 496q0 -21 -14.5 -43.5t-26.5 -33.5t-43 -38l-242 -213q-36 -31 -53.5 -45t-37.5 -26.5t-32 -12.5q-17 0 -27 11t-10 30t15 41.5t58 73.5q4 5 6.5 8t6.5 7.5t7 8.5l188 221q2 2 2 11q0 8 -2 10l-188 221q-74 89 -85 112q-8 16 -8 29q0 18 10 29.5t27 11.5
q27 0 123 -86l242 -213q56 -48 69 -69q15 -23 15 -45zM709 823l241 -213q56 -48 69 -69q15 -23 15 -45q0 -21 -14.5 -43.5t-26.5 -33.5t-43 -38l-241 -213l-18 -15q-31 -26 -45.5 -37.5t-31.5 -21.5t-28 -10q-17 0 -27 11t-10 30q0 22 19 49.5t73 89.5l182 213q6 9 6 19
t-6 16l-182 215q-53 61 -72.5 90t-19.5 51q0 18 10 29.5t27 11.5q16 0 41 -18t73 -60q6 -5 9 -8z" />
    <glyph glyph-name="onequarter" unicode="&#xbc;" horiz-adv-x="1927" 
d="M575 549q0 -15 -10.5 -25t-29.5 -10q-18 0 -78 2t-103 2t-100.5 -2t-75.5 -2q-20 0 -29.5 10.5t-9.5 24.5q0 19 20.5 30t45 15t45 21.5t20.5 48.5v563q0 63 -51 63q-19 0 -58 -5t-52 -5q-43 0 -43 35q0 28 34 39q36 13 103 30t112 33q36 11 71.5 25.5t53.5 21t31 6.5
q15 0 25 -10t10 -24t-10.5 -26.5t-22.5 -21t-22.5 -26t-10.5 -41.5v-657q0 -31 21 -48.5t46.5 -21.5t46.5 -15t21 -30zM1489 1405q0 -31 -31 -74l-883 -1288q-4 -6 -13.5 -19.5t-13 -18.5t-11 -14t-13 -12.5t-13 -6.5t-15.5 -3q-27 0 -47.5 18.5t-20.5 39.5q0 27 33 73
l882 1286q36 54 51 64q14 10 29 10q27 0 46.5 -17t19.5 -38zM1724 352h93q11 0 17 -1t13.5 -5t11 -14t3.5 -27v-33q0 -29 -8.5 -40t-36.5 -11h-93v-80q0 -30 14 -47.5t31.5 -22.5t31.5 -15.5t14 -28.5q0 -12 -10.5 -21.5t-30.5 -9.5q-12 0 -57 2t-79 2q-37 0 -86 -2t-63 -2
q-19 0 -30 9.5t-11 21.5q0 19 16 29.5t36 15t36 22t16 47.5v80h-389q-65 0 -65 53q0 8 1.5 16t3.5 14t6.5 15.5t7.5 14.5t10.5 16.5t10.5 15.5t12.5 17.5t12.5 17.5l336 471q27 38 48 52t55 14h63q59 0 59 -47v-539zM1559 352v451l-324 -451h324z" />
    <glyph glyph-name="onehalf" unicode="&#xbd;" horiz-adv-x="2041" 
d="M575 549q0 -15 -9.5 -25t-28.5 -10q-18 0 -78 2t-103 2t-100.5 -2t-75.5 -2q-20 0 -30.5 10.5t-10.5 24.5q0 19 21 30t45.5 15t45.5 21.5t21 48.5v563q0 63 -51 63q-19 0 -58.5 -5t-51.5 -5q-43 0 -43 35q0 29 34 39q37 13 103.5 30t111.5 33q34 11 70.5 25.5t54.5 21
t31 6.5q15 0 25 -10t10 -24t-10.5 -26.5t-22.5 -21t-22.5 -26t-10.5 -41.5v-657q0 -31 21 -48.5t45.5 -21.5t45.5 -15t21 -30zM1493 1405q0 -28 -33 -74l-880 -1288q-3 -4 -8.5 -12t-8 -11.5l-7.5 -10.5t-7.5 -10t-7.5 -8.5t-8 -7.5t-7.5 -5.5t-8 -5t-8 -2.5t-9.5 -1
q-27 0 -47.5 18.5t-20.5 39.5q0 27 33 73l881 1286q16 24 21 31t16.5 21t21 18t20.5 4q27 0 47.5 -17t20.5 -38zM1944 289q12 0 22 -11t10 -26q0 -23 -39 -102l-57 -121q-11 -21 -18 -32t-19 -19.5t-28 -8.5q-15 0 -39 15.5t-52 15.5h-348q-22 0 -63 -2t-56 -2
q-22 0 -34.5 13t-12.5 28q0 23 37 63q46 50 69 74t36.5 38t66.5 70.5t137 145.5q70 75 105 134.5t35 119.5q0 63 -45.5 104t-120.5 41q-64 0 -109 -30t-86 -88q-27 -39 -53 -39q-14 0 -24.5 13t-10.5 30q0 25 13 51q52 90 136 141t189 51q134 0 217.5 -72t83.5 -175
q0 -47 -15.5 -91.5t-47 -85t-57.5 -68t-68 -65.5q-13 -11 -126 -107t-167 -153h270q52 0 100 22.5t117 90.5q4 4 10 10.5t9.5 10.5t9 8t11 6t12.5 2z" />
    <glyph glyph-name="threequarters" unicode="&#xbe;" horiz-adv-x="2019" 
d="M782 811q0 -130 -103.5 -221.5t-250.5 -91.5q-69 0 -129 17t-100.5 44.5t-67 56t-41.5 58.5q-16 37 -16 61q0 17 12.5 29t26.5 12q23 0 47 -35q34 -52 93 -86t134 -34q91 0 151 50t60 130q0 81 -55.5 133.5t-128.5 52.5q-14 0 -37.5 -4t-32.5 -4q-18 0 -29.5 13.5
t-11.5 31.5q0 14 7 23.5t25 22.5t25 20q44 41 115.5 115t114.5 128h-203q-35 0 -56.5 -4.5t-62 -32t-90.5 -82.5q-30 -30 -51 -30q-11 0 -21 9.5t-10 25.5q0 20 31 90l47 106q16 37 29.5 51.5t34.5 14.5q16 0 38 -14.5t46 -14.5h280q21 0 62.5 2t58.5 2q22 0 33.5 -15.5
t11.5 -35.5q0 -26 -47 -76q-87 -93 -225 -225q132 -13 209 -99t77 -194zM1624 1405q0 -28 -33 -74l-882 -1288q-4 -5 -12 -16.5t-11 -16t-10 -13.5t-11 -12.5t-10.5 -8t-12.5 -6t-13 -1.5q-27 0 -46.5 18.5t-19.5 39.5q0 30 31 73l883 1286q3 4 9 13.5t9 13.5t8 11.5t8 10.5
l8 8t8.5 7.5t8.5 5t10 3.5t10 1q27 0 47.5 -17t20.5 -38zM1819 352h94q11 0 16.5 -1t13 -5t10.5 -14t3 -27v-33q0 -30 -7.5 -40.5t-35.5 -10.5h-94v-80q0 -30 14 -47.5t31 -22.5t31 -15.5t14 -28.5q0 -12 -9.5 -21.5t-29.5 -9.5q-13 0 -57 2t-78 2q-37 0 -87.5 -2t-64.5 -2
q-19 0 -29 9.5t-10 21.5q0 19 16.5 29.5t36 15t36 22t16.5 47.5v80h-392q-63 0 -63 53q0 19 10 42.5t19.5 37t33.5 47.5l338 471q26 38 46.5 52t54.5 14h65q58 0 58 -47v-539zM1655 352v453l-326 -453h326z" />
    <glyph glyph-name="questiondown" unicode="&#xbf;" horiz-adv-x="1069" 
d="M532 819q63 0 104.5 33t41.5 84t-35 79.5t-92 28.5q-63 0 -105.5 -33.5t-42.5 -82.5q0 -51 35.5 -80t93.5 -29zM551 674q42 0 53 -37q23 -98 23 -238q0 -80 -43.5 -147.5t-141.5 -153.5q-104 -92 -141 -142t-37 -116q0 -76 57.5 -125t157.5 -49q109 0 176 68.5t95 185.5
q13 57 53 57q24 0 61 -32q94 -87 94 -176q0 -35 -35.5 -73.5t-94 -72t-145 -55t-179.5 -21.5q-183 0 -303.5 92t-120.5 240q0 63 16 114.5t51.5 98t68.5 78.5t91 80q86 73 124 122t46 95q5 34 11.5 95.5t9.5 76.5q8 35 53 35z" />
    <glyph glyph-name="Agrave" unicode="&#xc0;" horiz-adv-x="1470" 
d="M682 1589q-109 127 -178 201q-64 70 -64 98q0 23 19 30t73 7q37 0 55 -8.5t36 -32.5q74 -104 161 -260q17 -39 17 -51t-12 -19.5t-29 -7.5q-20 0 -37 8t-41 35zM987 1053l340 -844q18 -46 47 -74.5t52.5 -37.5t41 -24.5t17.5 -39.5q0 -17 -12.5 -27t-32.5 -10
q-11 0 -68 3t-102 3q-42 0 -120 -3t-101 -3q-62 0 -62 43q0 22 21 36.5t46.5 21t46.5 22t21 39.5q0 26 -14 61l-109 266q-8 22 -18.5 29.5t-34.5 7.5h-500q-23 0 -34.5 -7.5t-18.5 -29.5l-106 -264q-17 -43 -17 -59q0 -25 21.5 -41.5t47.5 -24t47.5 -22t21.5 -35.5
q0 -43 -62 -43q-25 0 -81 3t-91 3t-80.5 -3t-58.5 -3q-23 0 -36 10.5t-13 28.5q0 20 11 32.5t29 21t38.5 19t42 34.5t36.5 61l340 850q83 212 107 284q30 87 51 106t96 19q72 0 92 -19t50 -106q36 -100 108 -284zM481 633h424q18 0 25 8t2 21l-236 589l-233 -587
q-6 -15 -0.5 -23t18.5 -8z" />
    <glyph glyph-name="Aacute" unicode="&#xc1;" horiz-adv-x="1470" 
d="M686 1546q-17 0 -29 7.5t-12 19.5q0 15 19 51q72 128 159 260q18 24 36 32.5t56 8.5q53 0 72 -7t19 -30q0 -28 -64 -98q-2 -2 -76 -86.5t-102 -114.5q-24 -27 -41 -35t-37 -8zM987 1053l340 -844q18 -46 47 -74.5t52.5 -37.5t41 -24.5t17.5 -39.5q0 -17 -12.5 -27
t-32.5 -10q-11 0 -68 3t-102 3q-42 0 -120 -3t-101 -3q-62 0 -62 43q0 22 21 36.5t46.5 21t46.5 22t21 39.5q0 26 -14 61l-109 266q-8 22 -18.5 29.5t-34.5 7.5h-500q-23 0 -34.5 -7.5t-18.5 -29.5l-106 -264q-17 -43 -17 -59q0 -25 21.5 -41.5t47.5 -24t47.5 -22
t21.5 -35.5q0 -43 -62 -43q-25 0 -81 3t-91 3t-80.5 -3t-58.5 -3q-23 0 -36 10.5t-13 28.5q0 20 11 32.5t29 21t38.5 19t42 34.5t36.5 61l340 850q83 212 107 284q30 87 51 106t96 19q72 0 92 -19t50 -106q36 -100 108 -284zM481 633h424q18 0 25 8t2 21l-236 589l-233 -587
q-6 -15 -0.5 -23t18.5 -8z" />
    <glyph glyph-name="Acircumflex" unicode="&#xc2;" horiz-adv-x="1470" 
d="M487 1563q-19 0 -32 11.5t-13 24.5q0 21 23 54q86 118 170 227q23 29 42.5 39t59.5 10q41 0 61.5 -10t41.5 -39q83 -100 172 -227q20 -33 20 -54q0 -13 -12.5 -24.5t-30.5 -11.5q-40 0 -80 45l-172 186l-172 -186q-40 -45 -78 -45zM987 1053l340 -844q18 -46 47 -74.5
t52.5 -37.5t41 -24.5t17.5 -39.5q0 -17 -12.5 -27t-32.5 -10q-11 0 -68 3t-102 3q-42 0 -120 -3t-101 -3q-62 0 -62 43q0 22 21 36.5t46.5 21t46.5 22t21 39.5q0 26 -14 61l-109 266q-8 22 -18.5 29.5t-34.5 7.5h-500q-23 0 -34.5 -7.5t-18.5 -29.5l-106 -264
q-17 -43 -17 -59q0 -25 21.5 -41.5t47.5 -24t47.5 -22t21.5 -35.5q0 -43 -62 -43q-25 0 -81 3t-91 3t-80.5 -3t-58.5 -3q-23 0 -36 10.5t-13 28.5q0 20 11 32.5t29 21t38.5 19t42 34.5t36.5 61l340 850q83 212 107 284q30 87 51 106t96 19q72 0 92 -19t50 -106
q36 -100 108 -284zM481 633h424q18 0 25 8t2 21l-236 589l-233 -587q-6 -15 -0.5 -23t18.5 -8z" />
    <glyph glyph-name="Atilde" unicode="&#xc3;" horiz-adv-x="1470" 
d="M469 1610q-41 0 -41 43q0 26 12 61q24 65 67.5 113.5t98.5 48.5q36 0 77.5 -25t72 -55t63 -55t51.5 -25q31 0 72 74q5 8 14.5 25.5t14 23.5t14 12.5t21.5 6.5q41 0 41 -41q0 -29 -13 -64q-22 -66 -66.5 -114t-99.5 -48q-37 0 -80.5 24.5t-75 54.5t-63 54.5t-47.5 24.5
q-14 0 -33 -19t-37 -53q-3 -5 -9 -18t-8.5 -17t-8 -12.5t-10 -11.5t-11.5 -5.5t-16 -2.5zM987 1053l340 -844q18 -46 47 -74.5t52.5 -37.5t41 -24.5t17.5 -39.5q0 -17 -12.5 -27t-32.5 -10q-11 0 -68 3t-102 3q-42 0 -120 -3t-101 -3q-62 0 -62 43q0 22 21 36.5t46.5 21
t46.5 22t21 39.5q0 26 -14 61l-109 266q-8 22 -18.5 29.5t-34.5 7.5h-500q-23 0 -34.5 -7.5t-18.5 -29.5l-106 -264q-17 -43 -17 -59q0 -25 21.5 -41.5t47.5 -24t47.5 -22t21.5 -35.5q0 -43 -62 -43q-25 0 -81 3t-91 3t-80.5 -3t-58.5 -3q-23 0 -36 10.5t-13 28.5
q0 20 11 32.5t29 21t38.5 19t42 34.5t36.5 61l340 850q83 212 107 284q30 87 51 106t96 19q72 0 92 -19t50 -106q36 -100 108 -284zM481 633h424q18 0 25 8t2 21l-236 589l-233 -587q-6 -15 -0.5 -23t18.5 -8z" />
    <glyph glyph-name="Adieresis" unicode="&#xc4;" horiz-adv-x="1470" 
d="M555 1597q-57 0 -92 30.5t-35 82.5q0 47 35.5 81t91.5 34t92.5 -30.5t36.5 -80.5q0 -52 -36.5 -84.5t-92.5 -32.5zM915 1599q-58 0 -92.5 29.5t-34.5 81.5q0 47 35.5 81t91.5 34t91.5 -30.5t35.5 -80.5q0 -52 -35.5 -83.5t-91.5 -31.5zM987 1053l340 -844
q18 -46 47 -74.5t52.5 -37.5t41 -24.5t17.5 -39.5q0 -17 -12.5 -27t-32.5 -10q-11 0 -68 3t-102 3q-42 0 -120 -3t-101 -3q-62 0 -62 43q0 22 21 36.5t46.5 21t46.5 22t21 39.5q0 26 -14 61l-109 266q-8 22 -18.5 29.5t-34.5 7.5h-500q-23 0 -34.5 -7.5t-18.5 -29.5
l-106 -264q-17 -43 -17 -59q0 -25 21.5 -41.5t47.5 -24t47.5 -22t21.5 -35.5q0 -43 -62 -43q-25 0 -81 3t-91 3t-80.5 -3t-58.5 -3q-23 0 -36 10.5t-13 28.5q0 20 11 32.5t29 21t38.5 19t42 34.5t36.5 61l340 850q83 212 107 284q30 87 51 106t96 19q72 0 92 -19t50 -106
q36 -100 108 -284zM481 633h424q18 0 25 8t2 21l-236 589l-233 -587q-6 -15 -0.5 -23t18.5 -8z" />
    <glyph glyph-name="Aring" unicode="&#xc5;" horiz-adv-x="1470" 
d="M735 1528q-108 0 -166.5 54t-58.5 153q0 97 63.5 152t171.5 55q104 0 163 -52.5t59 -146.5q0 -100 -62.5 -157.5t-169.5 -57.5zM741 1864q-53 0 -81.5 -33.5t-28.5 -97.5q0 -59 29 -92t79 -33q107 0 107 129q0 60 -28.5 93.5t-76.5 33.5zM987 1053l340 -844
q18 -46 47 -74.5t52.5 -37.5t41 -24.5t17.5 -39.5q0 -17 -12.5 -27t-32.5 -10q-11 0 -68 3t-102 3q-42 0 -120 -3t-101 -3q-62 0 -62 43q0 22 21 36.5t46.5 21t46.5 22t21 39.5q0 26 -14 61l-109 266q-8 22 -18.5 29.5t-34.5 7.5h-500q-23 0 -34.5 -7.5t-18.5 -29.5
l-106 -264q-17 -43 -17 -59q0 -25 21.5 -41.5t47.5 -24t47.5 -22t21.5 -35.5q0 -43 -62 -43q-25 0 -81 3t-91 3t-80.5 -3t-58.5 -3q-23 0 -36 10.5t-13 28.5q0 20 11 32.5t29 21t38.5 19t42 34.5t36.5 61l340 850q83 212 107 284q30 87 51 106t96 19q72 0 92 -19t50 -106
q36 -100 108 -284zM481 633h424q18 0 25 8t2 21l-236 589l-233 -587q-6 -15 -0.5 -23t18.5 -8z" />
    <glyph glyph-name="AE" unicode="&#xc6;" horiz-adv-x="2187" 
d="M2118 408q18 0 30.5 -11.5t12.5 -31.5q0 -23 -11.5 -52.5t-46.5 -99.5l-82 -174q-21 -42 -39.5 -62t-42.5 -20t-55.5 21.5t-66.5 21.5h-662q-43 0 -106 -3t-74 -3q-57 0 -57 43q0 21 14 33.5t34 19t40.5 16.5t34.5 33.5t14 61.5v278q0 43 -41 43h-434q-43 0 -72 -45
l-178 -254q-37 -60 -37 -76q0 -19 20.5 -32.5t45 -20.5t45 -21.5t20.5 -35.5q0 -43 -64 -43q-27 0 -86.5 3t-93.5 3q-47 0 -114.5 -3t-77.5 -3q-20 0 -31.5 10.5t-11.5 26.5q0 23 12 35.5t34 20t47.5 17t58.5 34.5t61 65l678 954q1 1 10 13t11.5 16t10 15t10.5 17l7.5 15
t6 17t1.5 16q0 36 -21.5 56.5t-47 27t-47 22t-21.5 41.5q0 43 59 43q10 0 73 -3t105 -3h764q31 0 59.5 21.5t49.5 21.5q25 0 44 -21.5t48 -78.5l74 -152q51 -108 51 -139q0 -20 -12.5 -31.5t-28.5 -11.5q-29 0 -70 47q-51 55 -79.5 83.5t-69 63t-73 49.5t-75 26t-92.5 11
h-162q-73 0 -107.5 -10.5t-44 -29.5t-9.5 -60v-401q0 -26 11 -35.5t44 -9.5h203q36 0 62.5 16t41.5 38.5t26.5 44.5t26.5 38t35 16q41 0 41 -59q0 -23 -3 -73.5t-3 -76.5q0 -27 3 -78t3 -73q0 -58 -41 -58q-20 0 -35 16t-26.5 38.5t-26.5 45t-41.5 38.5t-62.5 16h-203
q-32 0 -43.5 -10.5t-11.5 -34.5v-428q0 -41 10 -60t44 -28.5t107 -9.5h224q52 0 97.5 12.5t79.5 29t76.5 53.5t71 66t80.5 86q17 20 25 28t19.5 15t23.5 7zM657 633h357q41 0 41 43v592l-410 -590q-33 -45 12 -45z" />
    <glyph glyph-name="Ccedilla" unicode="&#xc7;" horiz-adv-x="1425" 
d="M1323 401q20 0 34.5 -15t14.5 -40q0 -24 -22 -70q-30 -54 -84 -106.5t-127 -97.5t-168.5 -73t-196.5 -28h-18l-23 -82q35 9 68 9q76 0 126 -41t50 -105q0 -70 -60 -115t-151 -45q-106 0 -172 41q-27 18 -27 41q0 14 9.5 25.5t23.5 11.5q17 0 49 -12q73 -27 113 -27
q44 0 71 19t27 49q0 29 -23 46t-63 17q-30 0 -92 -20q-13 3 -31.5 21t-21.5 32l39 144q-120 17 -224.5 73t-185.5 144.5t-127.5 218t-46.5 282.5q0 165 54.5 310.5t146.5 248t217.5 161.5t263.5 59q84 0 185 -23.5t110 -23.5q21 0 43 26.5t43 26.5q25 0 42 -22t42 -81
l63 -161q11 -28 24 -57t19 -42.5t10.5 -28.5t4.5 -28q0 -23 -15 -36t-32 -13q-28 0 -68 49q-118 150 -221.5 221.5t-220.5 71.5q-136 0 -248 -80.5t-176 -223t-64 -315.5q0 -176 64.5 -314.5t184 -217t273.5 -78.5q132 0 244.5 60.5t190.5 172.5q9 13 14 19.5t17.5 14
t27.5 7.5z" />
    <glyph glyph-name="Egrave" unicode="&#xc8;" horiz-adv-x="1396" 
d="M614 1589q-109 127 -178 201q-63 69 -63 98q0 23 19 30t73 7q37 0 54.5 -8.5t35.5 -32.5q79 -111 162 -260q16 -37 16 -51q0 -12 -12 -19.5t-29 -7.5q-20 0 -37 8t-41 35zM1327 408q18 0 30.5 -11.5t12.5 -31.5q0 -23 -11.5 -53.5t-45.5 -98.5l-82 -174q-38 -82 -82 -82
q-23 0 -55 21.5t-68 21.5h-696q-42 0 -105.5 -3t-74.5 -3q-58 0 -58 43q0 21 14 33.5t34 19t40.5 16.5t34.5 33.5t14 61.5v1046q0 38 -14 62t-34 34t-40.5 17t-34.5 19.5t-14 33.5q0 43 58 43q11 0 74 -3t106 -3h614q31 0 59.5 21.5t49.5 21.5q26 0 45.5 -22t46.5 -78
l74 -152q51 -102 51 -139q0 -20 -12.5 -31.5t-28.5 -11.5q-17 0 -31 10t-39 37q-51 55 -79.5 83.5t-69 63t-73 49.5t-75 26t-92.5 11h-174q-73 0 -108 -10.5t-44.5 -29.5t-9.5 -60v-401q0 -25 12 -35t46 -10h208q44 0 74 24t43 52.5t32 52.5t42 24q43 0 43 -59
q0 -23 -3 -73.5t-3 -76.5q0 -27 3 -78t3 -73q0 -58 -43 -58q-23 0 -42 24t-32 53t-43 53t-74 24h-208q-34 0 -46 -10.5t-12 -34.5v-428q0 -41 11 -60t45 -28.5t106 -9.5h258q44 0 81 6.5t73 24t62 34t62.5 51t60 59t67.5 72.5q18 21 25 28t18.5 14.5t23.5 7.5z" />
    <glyph glyph-name="Eacute" unicode="&#xc9;" horiz-adv-x="1396" 
d="M618 1546q-17 0 -28.5 7.5t-11.5 19.5q0 17 18 51q66 119 160 260q18 24 36 32.5t56 8.5q53 0 71.5 -7t18.5 -30q0 -28 -64 -98q-2 -2 -76 -86.5t-102 -114.5q-24 -27 -41 -35t-37 -8zM1327 408q18 0 30.5 -11.5t12.5 -31.5q0 -23 -11.5 -53.5t-45.5 -98.5l-82 -174
q-38 -82 -82 -82q-23 0 -55 21.5t-68 21.5h-696q-42 0 -105.5 -3t-74.5 -3q-58 0 -58 43q0 21 14 33.5t34 19t40.5 16.5t34.5 33.5t14 61.5v1046q0 38 -14 62t-34 34t-40.5 17t-34.5 19.5t-14 33.5q0 43 58 43q11 0 74 -3t106 -3h614q31 0 59.5 21.5t49.5 21.5
q26 0 45.5 -22t46.5 -78l74 -152q51 -102 51 -139q0 -20 -12.5 -31.5t-28.5 -11.5q-17 0 -31 10t-39 37q-51 55 -79.5 83.5t-69 63t-73 49.5t-75 26t-92.5 11h-174q-73 0 -108 -10.5t-44.5 -29.5t-9.5 -60v-401q0 -25 12 -35t46 -10h208q44 0 74 24t43 52.5t32 52.5t42 24
q43 0 43 -59q0 -23 -3 -73.5t-3 -76.5q0 -27 3 -78t3 -73q0 -58 -43 -58q-23 0 -42 24t-32 53t-43 53t-74 24h-208q-34 0 -46 -10.5t-12 -34.5v-428q0 -41 11 -60t45 -28.5t106 -9.5h258q44 0 81 6.5t73 24t62 34t62.5 51t60 59t67.5 72.5q18 21 25 28t18.5 14.5t23.5 7.5z
" />
    <glyph glyph-name="Ecircumflex" unicode="&#xca;" horiz-adv-x="1396" 
d="M420 1563q-19 0 -32 11.5t-13 24.5q0 23 22 54q86 118 170 227q23 29 43 39t60 10q41 0 61 -10t41 -39q83 -100 172 -227q21 -35 21 -54q0 -13 -12.5 -24.5t-30.5 -11.5q-40 0 -80 45l-172 186l-172 -186q-40 -45 -78 -45zM1327 408q18 0 30.5 -11.5t12.5 -31.5
q0 -23 -11.5 -53.5t-45.5 -98.5l-82 -174q-38 -82 -82 -82q-23 0 -55 21.5t-68 21.5h-696q-42 0 -105.5 -3t-74.5 -3q-58 0 -58 43q0 21 14 33.5t34 19t40.5 16.5t34.5 33.5t14 61.5v1046q0 38 -14 62t-34 34t-40.5 17t-34.5 19.5t-14 33.5q0 43 58 43q11 0 74 -3t106 -3
h614q31 0 59.5 21.5t49.5 21.5q26 0 45.5 -22t46.5 -78l74 -152q51 -102 51 -139q0 -20 -12.5 -31.5t-28.5 -11.5q-17 0 -31 10t-39 37q-51 55 -79.5 83.5t-69 63t-73 49.5t-75 26t-92.5 11h-174q-73 0 -108 -10.5t-44.5 -29.5t-9.5 -60v-401q0 -25 12 -35t46 -10h208
q44 0 74 24t43 52.5t32 52.5t42 24q43 0 43 -59q0 -23 -3 -73.5t-3 -76.5q0 -27 3 -78t3 -73q0 -58 -43 -58q-23 0 -42 24t-32 53t-43 53t-74 24h-208q-34 0 -46 -10.5t-12 -34.5v-428q0 -41 11 -60t45 -28.5t106 -9.5h258q44 0 81 6.5t73 24t62 34t62.5 51t60 59t67.5 72.5
q18 21 25 28t18.5 14.5t23.5 7.5z" />
    <glyph glyph-name="Edieresis" unicode="&#xcb;" horiz-adv-x="1396" 
d="M487 1597q-57 0 -92 30.5t-35 82.5q0 47 35.5 81t91.5 34t92.5 -30.5t36.5 -80.5q0 -52 -36.5 -84.5t-92.5 -32.5zM848 1599q-58 0 -92.5 29.5t-34.5 81.5q0 47 35.5 81t91.5 34t91.5 -30.5t35.5 -80.5q0 -52 -35.5 -83.5t-91.5 -31.5zM1327 408q18 0 30.5 -11.5
t12.5 -31.5q0 -23 -11.5 -53.5t-45.5 -98.5l-82 -174q-38 -82 -82 -82q-23 0 -55 21.5t-68 21.5h-696q-42 0 -105.5 -3t-74.5 -3q-58 0 -58 43q0 21 14 33.5t34 19t40.5 16.5t34.5 33.5t14 61.5v1046q0 38 -14 62t-34 34t-40.5 17t-34.5 19.5t-14 33.5q0 43 58 43
q11 0 74 -3t106 -3h614q31 0 59.5 21.5t49.5 21.5q26 0 45.5 -22t46.5 -78l74 -152q51 -102 51 -139q0 -20 -12.5 -31.5t-28.5 -11.5q-17 0 -31 10t-39 37q-51 55 -79.5 83.5t-69 63t-73 49.5t-75 26t-92.5 11h-174q-73 0 -108 -10.5t-44.5 -29.5t-9.5 -60v-401
q0 -25 12 -35t46 -10h208q44 0 74 24t43 52.5t32 52.5t42 24q43 0 43 -59q0 -23 -3 -73.5t-3 -76.5q0 -27 3 -78t3 -73q0 -58 -43 -58q-23 0 -42 24t-32 53t-43 53t-74 24h-208q-34 0 -46 -10.5t-12 -34.5v-428q0 -41 11 -60t45 -28.5t106 -9.5h258q44 0 81 6.5t73 24t62 34
t62.5 51t60 59t67.5 72.5q18 21 25 28t18.5 14.5t23.5 7.5z" />
    <glyph glyph-name="Igrave" unicode="&#xcc;" horiz-adv-x="663" 
d="M342 1546q-20 0 -37 8t-41 35q-109 127 -178 201q-63 69 -63 98q0 23 19 30t73 7q37 0 54.5 -8.5t35.5 -32.5q79 -111 162 -260q16 -37 16 -51q0 -12 -12 -19.5t-29 -7.5zM143 -4q-25 0 -38 11.5t-13 29.5q0 26 21.5 40.5t47 21t47 32.5t21.5 72v1042q0 38 -14 62t-34 34
t-40.5 17.5t-34.5 20t-14 34.5q0 17 13.5 29t39.5 12q20 0 81 -3t104 -3t106.5 3t81.5 3q26 0 38.5 -12t12.5 -29q0 -22 -14 -34.5t-33.5 -20t-39.5 -17.5t-34 -34t-14 -62v-1042q0 -46 21 -72t46.5 -32.5t46.5 -21t21 -40.5q0 -41 -51 -41q-18 0 -81.5 3t-106.5 3t-105 -3
t-82 -3z" />
    <glyph glyph-name="Iacute" unicode="&#xcd;" horiz-adv-x="663" 
d="M268 1546q-17 0 -29 7.5t-12 19.5q0 15 19 51q66 119 160 260q18 24 36 32.5t56 8.5q53 0 71.5 -7t18.5 -30q0 -28 -64 -98q-2 -2 -76 -86.5t-102 -114.5q-24 -27 -41 -35t-37 -8zM143 -4q-25 0 -38 11.5t-13 29.5q0 26 21.5 40.5t47 21t47 32.5t21.5 72v1042
q0 38 -14 62t-34 34t-40.5 17.5t-34.5 20t-14 34.5q0 17 13.5 29t39.5 12q20 0 81 -3t104 -3t106.5 3t81.5 3q26 0 38.5 -12t12.5 -29q0 -22 -14 -34.5t-33.5 -20t-39.5 -17.5t-34 -34t-14 -62v-1042q0 -46 21 -72t46.5 -32.5t46.5 -21t21 -40.5q0 -41 -51 -41
q-18 0 -81.5 3t-106.5 3t-105 -3t-82 -3z" />
    <glyph glyph-name="Icircumflex" unicode="&#xce;" horiz-adv-x="663" 
d="M594 1653q20 -33 20 -54q0 -13 -12.5 -24.5t-30.5 -11.5q-39 0 -79 45l-173 186l-172 -186q-40 -45 -77 -45q-19 0 -32 11.5t-13 24.5q0 23 22 54q86 118 170 227q23 29 42.5 39t59.5 10q41 0 61.5 -10t41.5 -39q83 -100 172 -227zM569 1413q0 -22 -14 -34.5t-33.5 -20
t-39.5 -17.5t-34 -34t-14 -62v-1042q0 -46 21 -72t46.5 -32.5t46.5 -21t21 -40.5q0 -41 -51 -41q-18 0 -81.5 3t-106.5 3t-105 -3t-82 -3q-25 0 -38 11.5t-13 29.5q0 26 21.5 40.5t47 21t47 32.5t21.5 72v1042q0 38 -14 62t-34 34t-40.5 17.5t-34.5 20t-14 34.5
q0 17 13.5 29t39.5 12q20 0 81 -3t104 -3t106.5 3t81.5 3q26 0 38.5 -12t12.5 -29z" />
    <glyph glyph-name="Idieresis" unicode="&#xcf;" horiz-adv-x="663" 
d="M137 1597q-57 0 -92 30.5t-35 82.5q0 47 35.5 81t91.5 34t92.5 -30.5t36.5 -80.5q0 -52 -36.5 -84.5t-92.5 -32.5zM498 1599q-58 0 -92.5 29.5t-34.5 81.5q0 47 35.5 81t91.5 34t91.5 -30.5t35.5 -80.5q0 -52 -35.5 -83.5t-91.5 -31.5zM143 -4q-25 0 -38 11.5t-13 29.5
q0 26 21.5 40.5t47 21t47 32.5t21.5 72v1042q0 38 -14 62t-34 34t-40.5 17.5t-34.5 20t-14 34.5q0 17 13.5 29t39.5 12q20 0 81 -3t104 -3t106.5 3t81.5 3q26 0 38.5 -12t12.5 -29q0 -22 -14 -34.5t-33.5 -20t-39.5 -17.5t-34 -34t-14 -62v-1042q0 -46 21 -72t46.5 -32.5
t46.5 -21t21 -40.5q0 -41 -51 -41q-18 0 -81.5 3t-106.5 3t-105 -3t-82 -3z" />
    <glyph glyph-name="Eth" unicode="&#xd0;" horiz-adv-x="1587" 
d="M662 1454q190 0 349 -58t266.5 -159t167.5 -240t60 -299q0 -210 -102 -370t-284 -246t-417 -86q-60 0 -182 3t-184 3q-43 0 -107 -3t-75 -3q-58 0 -58 43q0 21 14.5 33.5t35 19t41 16.5t35 33.5t14.5 61.5v481h-132q-61 0 -61 55q0 56 61 56h132v450q0 38 -14.5 62
t-35 34t-41 17t-35 19.5t-14.5 33.5q0 43 58 43q11 0 75 -3t107 -3q53 0 162 3t164 3zM627 109h63q278 0 434 166.5t156 445.5q0 132 -42 245t-120 196.5t-196 131t-263 47.5h-32q-110 0 -148.5 -21.5t-38.5 -78.5v-446h297q64 0 64 -56q0 -55 -64 -55h-297v-475
q0 -57 39.5 -78.5t147.5 -21.5z" />
    <glyph glyph-name="Ntilde" unicode="&#xd1;" horiz-adv-x="1587" 
d="M524 1610q-41 0 -41 43q0 23 13 61q24 65 67.5 113.5t98.5 48.5q36 0 77.5 -25t72 -55t63 -55t51.5 -25q30 0 71 74q5 8 14.5 25.5t14 23.5t14 12.5t21.5 6.5q41 0 41 -41q0 -32 -12 -64q-22 -66 -66.5 -114t-99.5 -48q-37 0 -80.5 24.5t-75.5 54.5t-63.5 54.5
t-47.5 24.5q-31 0 -69 -72q-2 -4 -7.5 -15.5t-8 -15t-7 -11.5t-8 -11t-9 -7t-11.5 -5.5t-13 -1.5zM1460 1454q53 0 53 -41q0 -22 -14.5 -34.5t-35 -20t-40.5 -17.5t-34.5 -34t-14.5 -62v-1204q0 -27 -14.5 -41t-38.5 -14q-47 0 -80 45l-879 1145v-973q0 -37 17 -60
t41.5 -31.5t49 -15.5t41.5 -20.5t17 -38.5q0 -41 -57 -41q-23 0 -84.5 3t-87.5 3q-22 0 -77 -3t-79 -3q-26 0 -39.5 12t-13.5 31q0 21 14.5 33.5t35 19t40.5 16.5t34.5 33.5t14.5 61.5v1042q0 38 -14.5 62t-34.5 34t-40.5 17t-35 19.5t-14.5 33.5q0 18 14.5 30.5t42.5 12.5
q15 0 53 -3t64 -3q24 0 50.5 2t33.5 2q51 0 86 -45l807 -1057v895q0 37 -17 60t-41 32t-48 16t-41 21t-17 39q0 18 15.5 29.5t42.5 11.5q23 0 78.5 -3t91.5 -3q30 0 81.5 3t73.5 3z" />
    <glyph glyph-name="Ograve" unicode="&#xd2;" horiz-adv-x="1652" 
d="M848 1561q-20 0 -37 8t-41 35q-99 116 -178 200q-64 70 -64 99q0 22 19 29t74 7q37 0 54.5 -8.5t35.5 -32.5q74 -104 161 -260q17 -39 17 -51t-11.5 -19t-29.5 -7zM827 -31q-155 0 -292 53.5t-237.5 148.5t-159 233.5t-58.5 300.5q0 158 56 300.5t153.5 246.5t237 165.5
t298.5 61.5q162 0 302 -59t237.5 -160.5t153 -241.5t55.5 -297q0 -162 -58.5 -302.5t-158.5 -239t-237.5 -154.5t-291.5 -56zM829 98q151 0 269.5 80.5t183 221t64.5 315.5t-64.5 320.5t-184.5 233t-272 87.5q-113 0 -210.5 -49.5t-165 -134t-106 -200.5t-38.5 -247
q0 -173 64 -315.5t184.5 -227t275.5 -84.5z" />
    <glyph glyph-name="Oacute" unicode="&#xd3;" horiz-adv-x="1652" 
d="M774 1561q-18 0 -29.5 7t-11.5 19q0 15 19 51q72 128 159 260q18 24 36 32.5t57 8.5q53 0 71.5 -7t18.5 -29q0 -29 -64 -99q-9 -11 -47 -54t-74 -83t-57 -63q-24 -27 -41 -35t-37 -8zM827 -31q-155 0 -292 53.5t-237.5 148.5t-159 233.5t-58.5 300.5q0 158 56 300.5
t153.5 246.5t237 165.5t298.5 61.5q162 0 302 -59t237.5 -160.5t153 -241.5t55.5 -297q0 -162 -58.5 -302.5t-158.5 -239t-237.5 -154.5t-291.5 -56zM829 98q151 0 269.5 80.5t183 221t64.5 315.5t-64.5 320.5t-184.5 233t-272 87.5q-113 0 -210.5 -49.5t-165 -134
t-106 -200.5t-38.5 -247q0 -173 64 -315.5t184.5 -227t275.5 -84.5z" />
    <glyph glyph-name="Ocircumflex" unicode="&#xd4;" horiz-adv-x="1652" 
d="M575 1577q-19 0 -32 12t-13 25q0 20 23 53q86 118 170 227q23 29 42.5 39.5t59.5 10.5q41 0 61.5 -10.5t41.5 -39.5q83 -100 172 -227q20 -33 20 -53q0 -13 -12.5 -25t-30.5 -12q-40 0 -80 45l-172 186l-172 -186q-40 -45 -78 -45zM825 1479q162 0 302 -59t237.5 -160.5
t153 -241.5t55.5 -297q0 -162 -58.5 -302.5t-158.5 -239t-237.5 -154.5t-291.5 -56q-155 0 -292 53.5t-237.5 148.5t-159 233.5t-58.5 300.5q0 158 56 300.5t153.5 246.5t237 165.5t298.5 61.5zM829 98q151 0 269.5 80.5t183 221t64.5 315.5t-64.5 320.5t-184.5 233
t-272 87.5q-113 0 -210.5 -49.5t-165 -134t-106 -200.5t-38.5 -247q0 -173 64 -315.5t184.5 -227t275.5 -84.5z" />
    <glyph glyph-name="Otilde" unicode="&#xd5;" horiz-adv-x="1652" 
d="M956 1606q-37 0 -80.5 24.5t-75 54t-63 54t-47.5 24.5q-31 0 -69 -71q-3 -5 -8 -16t-7.5 -15t-7 -12t-8 -11t-9 -7t-11.5 -5.5t-13 -1.5q-41 0 -41 43q0 27 12 62q24 65 67.5 113t98.5 48q36 0 77.5 -25t72 -54.5t63 -54.5t51.5 -25q32 0 72 73q5 8 14.5 25.5t14 23.5
t14 12.5t21.5 6.5q41 0 41 -41q0 -29 -13 -64q-22 -66 -66.5 -113.5t-99.5 -47.5zM827 -31q-155 0 -292 53.5t-237.5 148.5t-159 233.5t-58.5 300.5q0 158 56 300.5t153.5 246.5t237 165.5t298.5 61.5q162 0 302 -59t237.5 -160.5t153 -241.5t55.5 -297q0 -162 -58.5 -302.5
t-158.5 -239t-237.5 -154.5t-291.5 -56zM829 98q151 0 269.5 80.5t183 221t64.5 315.5t-64.5 320.5t-184.5 233t-272 87.5q-113 0 -210.5 -49.5t-165 -134t-106 -200.5t-38.5 -247q0 -173 64 -315.5t184.5 -227t275.5 -84.5z" />
    <glyph glyph-name="Odieresis" unicode="&#xd6;" horiz-adv-x="1652" 
d="M643 1612q-58 0 -92.5 30t-34.5 82q0 47 35.5 81t91.5 34q57 0 93 -30t36 -80q0 -52 -36.5 -84.5t-92.5 -32.5zM1004 1614q-58 0 -92.5 29t-34.5 81q0 47 35.5 81t91.5 34t91 -30t35 -80q0 -52 -35 -83.5t-91 -31.5zM827 -31q-155 0 -292 53.5t-237.5 148.5t-159 233.5
t-58.5 300.5q0 158 56 300.5t153.5 246.5t237 165.5t298.5 61.5q162 0 302 -59t237.5 -160.5t153 -241.5t55.5 -297q0 -162 -58.5 -302.5t-158.5 -239t-237.5 -154.5t-291.5 -56zM829 98q151 0 269.5 80.5t183 221t64.5 315.5t-64.5 320.5t-184.5 233t-272 87.5
q-113 0 -210.5 -49.5t-165 -134t-106 -200.5t-38.5 -247q0 -173 64 -315.5t184.5 -227t275.5 -84.5z" />
    <glyph glyph-name="multiply" unicode="&#xd7;" horiz-adv-x="1013" 
d="M176 209q-23 0 -49.5 25.5t-26.5 52.5q0 15 13 28l284 285q11 11 11 16q0 6 -11 17l-284 285q-13 13 -13 28q0 24 26 50t50 26q19 0 29 -12l284 -285q12 -8 19 -8q4 0 16 8l285 285q10 12 29 12q23 0 49 -25.5t26 -50.5q0 -16 -12 -28l-285 -285q-10 -10 -10 -17
q0 -6 10 -16l285 -285q12 -12 12 -28q0 -25 -26.5 -51.5t-48.5 -26.5q-17 0 -29 12l-285 287q-12 8 -16 8q-7 0 -19 -8l-284 -287q-12 -12 -29 -12z" />
    <glyph glyph-name="Oslash" unicode="&#xd8;" horiz-adv-x="1695" 
d="M1567 1362l-154 -150q168 -208 168 -491q0 -162 -58 -302.5t-158 -239t-236.5 -154.5t-290.5 -56q-295 0 -502 176l-143 -141q-24 -24 -46 -24q-18 0 -36.5 17.5t-18.5 39.5t25 47l141 139q-168 202 -168 482q0 211 95 388t266.5 281.5t382.5 104.5q299 0 505 -187
l152 150q24 24 47 24q17 0 36 -17.5t19 -39.5q0 -21 -26 -47zM836 1356q-150 0 -270 -84t-185.5 -228t-65.5 -319q0 -203 88 -360l809 800q-69 90 -165.5 140.5t-210.5 50.5zM840 98q151 0 269 80.5t182.5 221t64.5 315.5q0 196 -84 358l-807 -799q145 -176 375 -176z" />
    <glyph glyph-name="Ugrave" unicode="&#xd9;" horiz-adv-x="1490" 
d="M793 1546q-20 0 -37 8t-41 35q-109 127 -178 201q-64 70 -64 98q0 23 19 30t73 7q37 0 54.5 -8.5t35.5 -32.5q79 -111 162 -260q17 -39 17 -51t-12 -19.5t-29 -7.5zM748 -27q-99 0 -184 15.5t-161 52t-130 92.5t-85.5 140.5t-31.5 191.5q0 35 8 117l51 594q6 58 6 86
q0 31 -13.5 51.5t-27 27.5t-37.5 15q-41 16 -50 28t-9 29t13 29t38 12q20 0 83 -3t106 -3q44 0 112.5 3t89.5 3q26 0 39 -12t13 -29q0 -6 -1 -11t-2 -9t-4.5 -8t-4.5 -6t-6.5 -5.5t-7 -4.5t-8 -4t-8 -4t-9.5 -4t-9 -3q-23 -10 -31.5 -14t-25.5 -16.5t-25 -31.5t-10 -47
l-55 -663q-9 -88 -9 -107q0 -353 416 -356q197 -2 308.5 83t111.5 271q0 37 -8 119l-57 653q-2 26 -11 45t-25.5 30.5t-28.5 17t-34 12.5q-18 6 -27 9.5t-20 10.5t-15.5 17.5t-4.5 25.5q0 17 13 29t38 12q27 0 90 -3t88 -3q22 0 78 3t80 3q26 0 38.5 -12t12.5 -29
q0 -13 -3.5 -22t-15.5 -16.5t-16.5 -9.5t-23.5 -9q-18 -6 -29 -11t-24.5 -15.5t-20 -27.5t-6.5 -40q0 -28 6 -86l55 -601q8 -94 8 -116q0 -105 -31 -188.5t-84.5 -138t-129 -91t-160 -52t-182.5 -16.5z" />
    <glyph glyph-name="Uacute" unicode="&#xda;" horiz-adv-x="1490" 
d="M719 1546q-17 0 -29 7.5t-12 19.5q0 17 18 51q66 119 160 260q18 24 36 32.5t56 8.5q53 0 71.5 -7t18.5 -30q0 -29 -63 -98q-2 -2 -76 -86.5t-102 -114.5q-24 -27 -41 -35t-37 -8zM748 -27q-99 0 -184 15.5t-161 52t-130 92.5t-85.5 140.5t-31.5 191.5q0 35 8 117l51 594
q6 58 6 86q0 31 -13.5 51.5t-27 27.5t-37.5 15q-41 16 -50 28t-9 29t13 29t38 12q20 0 83 -3t106 -3q44 0 112.5 3t89.5 3q26 0 39 -12t13 -29q0 -6 -1 -11t-2 -9t-4.5 -8t-4.5 -6t-6.5 -5.5t-7 -4.5t-8 -4t-8 -4t-9.5 -4t-9 -3q-23 -10 -31.5 -14t-25.5 -16.5t-25 -31.5
t-10 -47l-55 -663q-9 -88 -9 -107q0 -353 416 -356q197 -2 308.5 83t111.5 271q0 37 -8 119l-57 653q-2 26 -11 45t-25.5 30.5t-28.5 17t-34 12.5q-18 6 -27 9.5t-20 10.5t-15.5 17.5t-4.5 25.5q0 17 13 29t38 12q27 0 90 -3t88 -3q22 0 78 3t80 3q26 0 38.5 -12t12.5 -29
q0 -13 -3.5 -22t-15.5 -16.5t-16.5 -9.5t-23.5 -9q-18 -6 -29 -11t-24.5 -15.5t-20 -27.5t-6.5 -40q0 -28 6 -86l55 -601q8 -94 8 -116q0 -105 -31 -188.5t-84.5 -138t-129 -91t-160 -52t-182.5 -16.5z" />
    <glyph glyph-name="Ucircumflex" unicode="&#xdb;" horiz-adv-x="1490" 
d="M520 1563q-19 0 -32 11.5t-13 24.5q0 21 23 54q86 118 170 227q23 29 42.5 39t59.5 10q41 0 61 -10t41 -39q83 -100 172 -227q21 -35 21 -54q0 -13 -12.5 -24.5t-30.5 -11.5q-40 0 -80 45l-172 186l-172 -186q-40 -45 -78 -45zM1354 1454q26 0 38.5 -12t12.5 -29
q0 -13 -3.5 -22t-15.5 -16.5t-16.5 -9.5t-23.5 -9q-18 -6 -29 -11t-24.5 -15.5t-20 -27.5t-6.5 -40q0 -28 6 -86l55 -601q8 -94 8 -116q0 -105 -31 -188.5t-84.5 -138t-129 -91t-160 -52t-182.5 -16.5q-99 0 -184 15.5t-161 52t-130 92.5t-85.5 140.5t-31.5 191.5
q0 35 8 117l51 594q6 58 6 86q0 31 -13.5 51.5t-27 27.5t-37.5 15q-41 16 -50 28t-9 29t13 29t38 12q20 0 83 -3t106 -3q44 0 112.5 3t89.5 3q26 0 39 -12t13 -29q0 -6 -1 -11t-2 -9t-4.5 -8t-4.5 -6t-6.5 -5.5t-7 -4.5t-8 -4t-8 -4t-9.5 -4t-9 -3q-23 -10 -31.5 -14
t-25.5 -16.5t-25 -31.5t-10 -47l-55 -663q-9 -88 -9 -107q0 -353 416 -356q197 -2 308.5 83t111.5 271q0 37 -8 119l-57 653q-2 26 -11 45t-25.5 30.5t-28.5 17t-34 12.5q-18 6 -27 9.5t-20 10.5t-15.5 17.5t-4.5 25.5q0 17 13 29t38 12q27 0 90 -3t88 -3q22 0 78 3t80 3z
" />
    <glyph glyph-name="Udieresis" unicode="&#xdc;" horiz-adv-x="1490" 
d="M588 1597q-57 0 -92 30.5t-35 82.5q0 47 35.5 81t91.5 34t92.5 -30.5t36.5 -80.5q0 -52 -36.5 -84.5t-92.5 -32.5zM948 1599q-58 0 -92.5 29.5t-34.5 81.5q0 47 35.5 81t91.5 34t91.5 -30.5t35.5 -80.5q0 -52 -35.5 -83.5t-91.5 -31.5zM748 -27q-99 0 -184 15.5t-161 52
t-130 92.5t-85.5 140.5t-31.5 191.5q0 35 8 117l51 594q6 58 6 86q0 31 -13.5 51.5t-27 27.5t-37.5 15q-41 16 -50 28t-9 29t13 29t38 12q20 0 83 -3t106 -3q44 0 112.5 3t89.5 3q26 0 39 -12t13 -29q0 -6 -1 -11t-2 -9t-4.5 -8t-4.5 -6t-6.5 -5.5t-7 -4.5t-8 -4t-8 -4
t-9.5 -4t-9 -3q-23 -10 -31.5 -14t-25.5 -16.5t-25 -31.5t-10 -47l-55 -663q-9 -88 -9 -107q0 -353 416 -356q197 -2 308.5 83t111.5 271q0 37 -8 119l-57 653q-2 26 -11 45t-25.5 30.5t-28.5 17t-34 12.5q-18 6 -27 9.5t-20 10.5t-15.5 17.5t-4.5 25.5q0 17 13 29t38 12
q27 0 90 -3t88 -3q22 0 78 3t80 3q26 0 38.5 -12t12.5 -29q0 -13 -3.5 -22t-15.5 -16.5t-16.5 -9.5t-23.5 -9q-18 -6 -29 -11t-24.5 -15.5t-20 -27.5t-6.5 -40q0 -28 6 -86l55 -601q8 -94 8 -116q0 -105 -31 -188.5t-84.5 -138t-129 -91t-160 -52t-182.5 -16.5z" />
    <glyph glyph-name="Yacute" unicode="&#xdd;" horiz-adv-x="1386" 
d="M664 1546q-17 0 -29 7.5t-12 19.5q0 17 18 51q66 119 160 260q18 24 36 32.5t56 8.5q53 0 71.5 -7t18.5 -30q0 -29 -63 -98q-9 -10 -47.5 -53.5t-74.5 -84t-57 -63.5q-24 -27 -40.5 -35t-36.5 -8zM1333 1454q19 0 31 -11t12 -28q0 -21 -14.5 -35t-35.5 -23t-51.5 -35.5
t-55.5 -66.5l-424 -694v-356q0 -38 17.5 -61t42 -32.5t49 -16t42 -20t17.5 -36.5q0 -43 -50 -43q-26 0 -101 3t-120 3q-44 0 -118 -3t-101 -3q-49 0 -49 43q0 23 17.5 36.5t42 20t49 16t42 32.5t17.5 61v354l-428 703q-23 35 -52 59.5t-49 34t-34.5 23.5t-14.5 34
q0 19 13 30t36 11q9 0 69 -3t104 -3q38 0 111 3t95 3q58 0 58 -45q0 -21 -18.5 -34.5t-40 -19t-40 -20t-18.5 -37.5q0 -20 27 -67l321 -543l324 529q30 54 30 75q0 24 -19 40t-42 22.5t-42 20.5t-19 34q0 45 61 45q23 0 76.5 -3t79.5 -3q32 0 86 3t67 3z" />
    <glyph glyph-name="Thorn" unicode="&#xde;" horiz-adv-x="1390" 
d="M700 1237q284 0 451.5 -130t167.5 -362q0 -226 -171 -359.5t-505 -133.5q-115 0 -209 6v-55q0 -38 17.5 -62t42 -33t49 -16t42 -20.5t17.5 -36.5q0 -41 -51 -41q-21 0 -97.5 3t-123.5 3q-43 0 -105 -3t-82 -3q-25 0 -38 11.5t-13 29.5q0 26 21.5 40.5t47 21t47 32.5
t21.5 72v1046q0 38 -14 62t-34 34t-40.5 17.5t-34.5 20t-14 34.5q0 17 13 29t38 12q20 0 82 -3t105 -3q47 0 123.5 3t97.5 3q26 0 38.5 -12t12.5 -29q0 -23 -17.5 -36.5t-42 -20.5t-49 -16t-42 -33t-17.5 -62v-24q119 14 266 14zM662 365q204 0 317 102t113 272
q0 191 -115.5 287t-317.5 96q-130 0 -177.5 -21.5t-47.5 -82.5v-567q0 -54 50.5 -70t177.5 -16z" />
    <glyph glyph-name="germandbls" unicode="&#xdf;" horiz-adv-x="1343" 
d="M680 -37q-34 0 -57 66l-54 133q-45 113 -45 135q0 21 10.5 33t28.5 12q28 0 58 -45q170 -225 335 -225q75 0 126 50t51 120q0 23 -4.5 42.5t-17 36.5t-22.5 29.5t-34 26.5t-37.5 22t-46 21.5t-47.5 19t-54 19.5q-55 22 -87.5 36.5t-77.5 42t-70 56t-43.5 71t-18.5 93.5
q0 56 21 104.5t52.5 81.5t68.5 69t68.5 67t53 76t21.5 97q0 90 -58.5 137.5t-148.5 47.5q-132 0 -206 -96.5t-74 -284.5v-838q0 -39 8.5 -66t21 -38.5t27.5 -20.5t27.5 -13.5t21 -16t8.5 -29.5q0 -15 -12 -28t-33 -13q-16 0 -68 3t-87 3q-42 0 -102 -3t-79 -3
q-23 0 -35 12.5t-12 28.5q0 18 9.5 29.5t24 16t31 13.5t31 20.5t24 38.5t9.5 66v809q0 132 35 234t97.5 164.5t144 94t180.5 31.5q163 0 276.5 -80t112.5 -223q-1 -69 -29 -124t-68 -91.5t-79.5 -69t-67.5 -72t-28 -85.5q0 -54 42.5 -88.5t147.5 -75.5q154 -61 215 -101
q145 -101 148 -259q0 -135 -106 -224.5t-246 -89.5q-48 0 -92.5 11t-73.5 22.5t-39 11.5q-14 0 -34 -25.5t-42 -25.5z" />
    <glyph glyph-name="agrave" unicode="&#xe0;" horiz-adv-x="1122" 
d="M496 1206q-99 116 -179 201q-63 69 -63 98q0 23 19 30t73 7q37 0 54.5 -8.5t35.5 -32.5q79 -111 162 -260q16 -37 16 -51q0 -12 -12 -19.5t-29 -7.5q-20 0 -36.5 8t-40.5 35zM1112 115q33 -6 33 -31q0 -32 -53 -66t-121 -34q-66 0 -116.5 39t-72.5 116q-63 -74 -160 -118
t-214 -44q-157 0 -253 85t-96 221q0 138 113 229.5t303 91.5q115 0 244 -39l-4 27q-22 163 -81 229t-163 66q-125 0 -252 -117q-31 -25 -51 -25q-16 0 -28.5 12t-12.5 31q0 23 33 64q53 74 156 125t214 51q77 0 136 -21t96 -54.5t64 -85t40 -102t23 -116.5l51 -344
q7 -57 19 -91.5t36 -54t47.5 -27.5t69.5 -17zM469 100q86 0 166 45t127 111l-29 203q-106 41 -217 41q-127 0 -194.5 -53.5t-67.5 -147.5q0 -88 60 -143.5t155 -55.5z" />
    <glyph glyph-name="aacute" unicode="&#xe1;" horiz-adv-x="1122" 
d="M500 1163q-17 0 -29 7.5t-12 19.5q0 16 18 51q66 119 160 260q18 24 36 32.5t56 8.5q53 0 71.5 -7t18.5 -30q0 -29 -63 -98q-2 -2 -76 -86.5t-102 -114.5q-24 -27 -41 -35t-37 -8zM1112 115q33 -6 33 -31q0 -32 -53 -66t-121 -34q-66 0 -116.5 39t-72.5 116
q-63 -74 -160 -118t-214 -44q-157 0 -253 85t-96 221q0 138 113 229.5t303 91.5q115 0 244 -39l-4 27q-22 163 -81 229t-163 66q-125 0 -252 -117q-31 -25 -51 -25q-16 0 -28.5 12t-12.5 31q0 23 33 64q53 74 156 125t214 51q77 0 136 -21t96 -54.5t64 -85t40 -102
t23 -116.5l51 -344q7 -57 19 -91.5t36 -54t47.5 -27.5t69.5 -17zM469 100q86 0 166 45t127 111l-29 203q-106 41 -217 41q-127 0 -194.5 -53.5t-67.5 -147.5q0 -88 60 -143.5t155 -55.5z" />
    <glyph glyph-name="acircumflex" unicode="&#xe2;" horiz-adv-x="1122" 
d="M301 1180q-19 0 -32 12t-13 25q0 20 23 53q86 118 170 227q23 29 42.5 39t59.5 10q41 0 61 -10t41 -39q83 -100 172 -227q21 -35 21 -53q0 -13 -12.5 -25t-30.5 -12q-40 0 -80 45l-172 186l-172 -186q-40 -45 -78 -45zM1112 115q33 -6 33 -31q0 -32 -53 -66t-121 -34
q-66 0 -116.5 39t-72.5 116q-63 -74 -160 -118t-214 -44q-157 0 -253 85t-96 221q0 138 113 229.5t303 91.5q115 0 244 -39l-4 27q-22 163 -81 229t-163 66q-125 0 -252 -117q-31 -25 -51 -25q-16 0 -28.5 12t-12.5 31q0 23 33 64q53 74 156 125t214 51q77 0 136 -21
t96 -54.5t64 -85t40 -102t23 -116.5l51 -344q7 -57 19 -91.5t36 -54t47.5 -27.5t69.5 -17zM469 100q86 0 166 45t127 111l-29 203q-106 41 -217 41q-127 0 -194.5 -53.5t-67.5 -147.5q0 -88 60 -143.5t155 -55.5z" />
    <glyph glyph-name="atilde" unicode="&#xe3;" horiz-adv-x="1122" 
d="M283 1227q-41 0 -41 43q0 26 12 61q24 65 67.5 113.5t98.5 48.5q36 0 77.5 -25t72 -55t63 -55t51.5 -25q31 0 72 74q5 8 14.5 25t14 23.5t13.5 13t21 6.5q41 0 41 -41q0 -32 -12 -64q-22 -66 -66.5 -114t-99.5 -48q-37 0 -80.5 24.5t-75 54.5t-63 54.5t-47.5 24.5
q-14 0 -33 -19t-37 -53q-3 -5 -9 -18t-8.5 -17t-8 -12.5t-10 -11.5t-11.5 -5.5t-16 -2.5zM1112 115q33 -6 33 -31q0 -32 -53 -66t-121 -34q-66 0 -116.5 39t-72.5 116q-63 -74 -160 -118t-214 -44q-157 0 -253 85t-96 221q0 138 113 229.5t303 91.5q115 0 244 -39l-4 27
q-22 163 -81 229t-163 66q-125 0 -252 -117q-31 -25 -51 -25q-16 0 -28.5 12t-12.5 31q0 23 33 64q53 74 156 125t214 51q77 0 136 -21t96 -54.5t64 -85t40 -102t23 -116.5l51 -344q7 -57 19 -91.5t36 -54t47.5 -27.5t69.5 -17zM469 100q86 0 166 45t127 111l-29 203
q-106 41 -217 41q-127 0 -194.5 -53.5t-67.5 -147.5q0 -88 60 -143.5t155 -55.5z" />
    <glyph glyph-name="adieresis" unicode="&#xe4;" horiz-adv-x="1122" 
d="M369 1214q-57 0 -92 30.5t-35 82.5q0 47 35.5 81t91.5 34t92.5 -30.5t36.5 -80.5q0 -52 -36.5 -84.5t-92.5 -32.5zM729 1217q-58 0 -92.5 29t-34.5 81q0 47 35.5 81t91.5 34t91.5 -30.5t35.5 -80.5q0 -52 -35.5 -83t-91.5 -31zM1112 115q33 -6 33 -31q0 -32 -53 -66
t-121 -34q-66 0 -116.5 39t-72.5 116q-63 -74 -160 -118t-214 -44q-157 0 -253 85t-96 221q0 138 113 229.5t303 91.5q115 0 244 -39l-4 27q-22 163 -81 229t-163 66q-125 0 -252 -117q-31 -25 -51 -25q-16 0 -28.5 12t-12.5 31q0 23 33 64q53 74 156 125t214 51
q77 0 136 -21t96 -54.5t64 -85t40 -102t23 -116.5l51 -344q7 -57 19 -91.5t36 -54t47.5 -27.5t69.5 -17zM469 100q86 0 166 45t127 111l-29 203q-106 41 -217 41q-127 0 -194.5 -53.5t-67.5 -147.5q0 -88 60 -143.5t155 -55.5z" />
    <glyph glyph-name="aring" unicode="&#xe5;" horiz-adv-x="1122" 
d="M547 1145q-108 0 -166.5 54t-58.5 153q0 97 63.5 152t171.5 55q103 0 162 -52t59 -147q0 -101 -62.5 -158t-168.5 -57zM553 1481q-53 0 -82 -33.5t-29 -97.5q0 -59 29.5 -92t79.5 -33q106 0 106 129q0 61 -28 94t-76 33zM1112 115q33 -6 33 -31q0 -32 -53 -66t-121 -34
q-66 0 -116.5 39t-72.5 116q-63 -74 -160 -118t-214 -44q-157 0 -253 85t-96 221q0 138 113 229.5t303 91.5q115 0 244 -39l-4 27q-22 163 -81 229t-163 66q-125 0 -252 -117q-31 -25 -51 -25q-16 0 -28.5 12t-12.5 31q0 23 33 64q53 74 156 125t214 51q77 0 136 -21
t96 -54.5t64 -85t40 -102t23 -116.5l51 -344q7 -57 19 -91.5t36 -54t47.5 -27.5t69.5 -17zM469 100q86 0 166 45t127 111l-29 203q-106 41 -217 41q-127 0 -194.5 -53.5t-67.5 -147.5q0 -88 60 -143.5t155 -55.5z" />
    <glyph glyph-name="ae" unicode="&#xe6;" horiz-adv-x="1744" 
d="M1655 270q16 0 28.5 -13t12.5 -32t-21 -49q-58 -84 -180.5 -141.5t-253.5 -57.5q-126 0 -229 50t-172 141q-75 -88 -183 -139.5t-233 -51.5q-168 0 -266.5 84.5t-98.5 221.5q0 138 113 229.5t303 91.5q115 0 244 -39l-4 27q-26 163 -83.5 231t-160.5 68q-125 0 -252 -117
q-30 -24 -51 -24q-16 0 -28.5 11.5t-12.5 29.5q0 20 33 65q53 73 154.5 124.5t205.5 51.5q231 0 322 -194q71 92 173.5 143t219.5 51q121 0 218 -56t148.5 -144t51.5 -187q0 -31 -9.5 -44t-33.5 -21l-656 -195q44 -121 138.5 -195.5t216.5 -74.5q166 0 293 127q32 28 53 28z
M1206 913q-122 0 -203 -95t-81 -245q0 -43 6 -84l475 146q27 8 36 19t9 38q0 78 -70 149.5t-172 71.5zM487 100q164 0 301 152q-35 75 -47 160l-6 47q-109 41 -219 41q-127 0 -194.5 -53.5t-67.5 -147.5q0 -89 63 -144t170 -55z" />
    <glyph glyph-name="ccedilla" unicode="&#xe7;" horiz-adv-x="1036" 
d="M956 276q18 0 28.5 -12t10.5 -33t-18 -53q-48 -84 -162 -144.5t-248 -60.5h-2l-22 -84q35 9 67 9q76 0 126 -41t50 -105q0 -70 -60 -115t-151 -45q-106 0 -172 41q-26 17 -26 41q0 14 9.5 25.5t23.5 11.5q17 0 49 -12q73 -27 112 -27q44 0 71.5 19t27.5 49q0 29 -23 46
t-63 17q-30 0 -92 -20q-13 3 -32 21t-22 32l41 144q-179 29 -293 161.5t-114 343.5q0 159 69.5 285t186.5 194t258 68q74 0 145.5 -21t121 -52t80 -67t30.5 -67q0 -76 -84 -180q-30 -35 -54 -35q-40 0 -49 60q-11 59 -26 101.5t-40 80t-65.5 57t-95.5 19.5q-123 0 -202 -104
t-79 -273q0 -187 107 -311.5t266 -124.5q162 0 266 131q24 30 49 30z" />
    <glyph glyph-name="egrave" unicode="&#xe8;" horiz-adv-x="1085" 
d="M508 1202q-109 128 -178 201q-64 70 -64 98q0 23 19 30t73 7q37 0 55 -8.5t36 -32.5q74 -104 161 -260q17 -39 17 -51t-12 -19.5t-29 -7.5q-20 0 -37 8t-41 35zM993 268q17 0 29 -13t12 -32q0 -18 -20 -51q-57 -82 -180.5 -140.5t-253.5 -58.5q-141 0 -255.5 61
t-184.5 182.5t-70 283.5q0 114 41 214.5t110 169.5t160.5 108.5t191.5 39.5q121 0 218.5 -56t149.5 -144t52 -187q0 -31 -9.5 -44t-33.5 -21l-655 -195q42 -122 136 -197t216 -75q164 0 293 125q38 30 53 30zM547 913q-123 0 -204 -94.5t-81 -245.5q0 -43 6 -84l473 146
q28 8 37.5 19t9.5 38q0 79 -69.5 150t-171.5 71z" />
    <glyph glyph-name="eacute" unicode="&#xe9;" horiz-adv-x="1085" 
d="M512 1159q-17 0 -29 7.5t-12 19.5q0 16 18 51q66 119 160 260q18 24 36 32.5t56 8.5q53 0 71.5 -7t18.5 -30q0 -29 -63 -98q-2 -2 -76 -86.5t-102 -114.5q-24 -27 -41 -35t-37 -8zM993 268q17 0 29 -13t12 -32q0 -18 -20 -51q-57 -82 -180.5 -140.5t-253.5 -58.5
q-141 0 -255.5 61t-184.5 182.5t-70 283.5q0 114 41 214.5t110 169.5t160.5 108.5t191.5 39.5q121 0 218.5 -56t149.5 -144t52 -187q0 -31 -9.5 -44t-33.5 -21l-655 -195q42 -122 136 -197t216 -75q164 0 293 125q38 30 53 30zM547 913q-123 0 -204 -94.5t-81 -245.5
q0 -43 6 -84l473 146q28 8 37.5 19t9.5 38q0 79 -69.5 150t-171.5 71z" />
    <glyph glyph-name="ecircumflex" unicode="&#xea;" horiz-adv-x="1085" 
d="M313 1176q-19 0 -32 11.5t-13 24.5q0 21 23 54q86 118 170 227q23 29 42.5 39t59.5 10q41 0 61.5 -10t41.5 -39q83 -100 172 -227q20 -33 20 -54q0 -13 -12.5 -24.5t-30.5 -11.5q-40 0 -80 45l-172 186l-172 -186q-40 -45 -78 -45zM993 268q17 0 29 -13t12 -32
q0 -18 -20 -51q-57 -82 -180.5 -140.5t-253.5 -58.5q-141 0 -255.5 61t-184.5 182.5t-70 283.5q0 114 41 214.5t110 169.5t160.5 108.5t191.5 39.5q121 0 218.5 -56t149.5 -144t52 -187q0 -31 -9.5 -44t-33.5 -21l-655 -195q42 -122 136 -197t216 -75q164 0 293 125
q38 30 53 30zM547 913q-123 0 -204 -94.5t-81 -245.5q0 -43 6 -84l473 146q28 8 37.5 19t9.5 38q0 79 -69.5 150t-171.5 71z" />
    <glyph glyph-name="edieresis" unicode="&#xeb;" horiz-adv-x="1085" 
d="M381 1210q-57 0 -92 30.5t-35 82.5q0 47 35.5 81t91.5 34t92.5 -30.5t36.5 -80.5q0 -52 -36.5 -84.5t-92.5 -32.5zM741 1212q-58 0 -92.5 29.5t-34.5 81.5q0 47 35.5 81t91.5 34t91.5 -30.5t35.5 -80.5q0 -52 -35.5 -83.5t-91.5 -31.5zM993 268q17 0 29 -13t12 -32
q0 -18 -20 -51q-57 -82 -180.5 -140.5t-253.5 -58.5q-141 0 -255.5 61t-184.5 182.5t-70 283.5q0 114 41 214.5t110 169.5t160.5 108.5t191.5 39.5q121 0 218.5 -56t149.5 -144t52 -187q0 -31 -9.5 -44t-33.5 -21l-655 -195q42 -122 136 -197t216 -75q164 0 293 125
q38 30 53 30zM547 913q-123 0 -204 -94.5t-81 -245.5q0 -43 6 -84l473 146q28 8 37.5 19t9.5 38q0 79 -69.5 150t-171.5 71z" />
    <glyph glyph-name="igrave" unicode="&#xec;" horiz-adv-x="577" 
d="M303 1163q-20 0 -37 8t-41 35q-109 127 -178 201q-63 69 -63 98q0 23 19 30t73 7q37 0 54.5 -8.5t35.5 -32.5q79 -111 162 -260q16 -37 16 -51q0 -12 -12 -19.5t-29 -7.5zM127 -4q-24 0 -36.5 12.5t-12.5 28.5q0 21 13.5 32.5t32 18.5t37.5 18t32.5 40t13.5 75v498
q0 35 -15 54t-36.5 25t-43 9.5t-36.5 14t-15 32.5q0 24 31 46.5t113 62.5q116 57 143 57q43 0 43 -74v-725q0 -39 10 -66t24.5 -38.5t32 -20.5t32 -13.5t24.5 -16t10 -29.5q0 -15 -12 -28t-33 -13q-19 0 -79 3t-101 3q-40 0 -97 -3t-75 -3z" />
    <glyph glyph-name="iacute" unicode="&#xed;" horiz-adv-x="577" 
d="M229 1163q-17 0 -29 7.5t-12 19.5q0 15 19 51q66 119 160 260q18 24 36 32.5t56 8.5q53 0 71.5 -7t18.5 -30q0 -28 -64 -98q-2 -2 -76 -86.5t-102 -114.5q-24 -27 -41 -35t-37 -8zM127 -4q-24 0 -36.5 12.5t-12.5 28.5q0 21 13.5 32.5t32 18.5t37.5 18t32.5 40t13.5 75
v498q0 35 -15 54t-36.5 25t-43 9.5t-36.5 14t-15 32.5q0 24 31 46.5t113 62.5q116 57 143 57q43 0 43 -74v-725q0 -39 10 -66t24.5 -38.5t32 -20.5t32 -13.5t24.5 -16t10 -29.5q0 -15 -12 -28t-33 -13q-19 0 -79 3t-101 3q-40 0 -97 -3t-75 -3z" />
    <glyph glyph-name="icircumflex" unicode="&#xee;" horiz-adv-x="577" 
d="M555 1270q20 -33 20 -53q0 -13 -12.5 -25t-30.5 -12q-39 0 -79 45l-172 186l-172 -186q-40 -45 -78 -45q-19 0 -32 12t-13 25q0 22 22 53q86 118 170 227q23 29 43 39t60 10q41 0 61 -10t41 -39q83 -100 172 -227zM391 946v-725q0 -39 10 -66t24.5 -38.5t32 -20.5
t32 -13.5t24.5 -16t10 -29.5q0 -15 -12 -28t-33 -13q-19 0 -79 3t-101 3q-40 0 -97 -3t-75 -3q-24 0 -36.5 12.5t-12.5 28.5q0 21 13.5 32.5t32 18.5t37.5 18t32.5 40t13.5 75v498q0 35 -15 54t-36.5 25t-43 9.5t-36.5 14t-15 32.5q0 24 31 46.5t113 62.5q116 57 143 57
q43 0 43 -74z" />
    <glyph glyph-name="idieresis" unicode="&#xef;" horiz-adv-x="577" 
d="M98 1214q-57 0 -92 30.5t-35 82.5q0 47 35.5 81t91.5 34t92.5 -30.5t36.5 -80.5q0 -52 -36.5 -84.5t-92.5 -32.5zM459 1217q-58 0 -92.5 29t-34.5 81q0 47 35.5 81t91.5 34t91.5 -30.5t35.5 -80.5q0 -52 -35.5 -83t-91.5 -31zM127 -4q-24 0 -36.5 12.5t-12.5 28.5
q0 21 13.5 32.5t32 18.5t37.5 18t32.5 40t13.5 75v498q0 35 -15 54t-36.5 25t-43 9.5t-36.5 14t-15 32.5q0 24 31 46.5t113 62.5q116 57 143 57q43 0 43 -74v-725q0 -39 10 -66t24.5 -38.5t32 -20.5t32 -13.5t24.5 -16t10 -29.5q0 -15 -12 -28t-33 -13q-19 0 -79 3t-101 3
q-40 0 -97 -3t-75 -3z" />
    <glyph glyph-name="eth" unicode="&#xf0;" horiz-adv-x="1187" 
d="M989 1417l-205 -104q143 -134 230.5 -323.5t87.5 -424.5q0 -142 -43 -256.5t-116.5 -187t-168.5 -110.5t-203 -38q-103 0 -194.5 36.5t-159.5 102t-107.5 164.5t-39.5 218q0 238 139.5 389t355.5 151q143 0 252 -69q-69 160 -188 270l-238 -121q-27 -10 -41 -10
q-18 0 -30.5 13t-12.5 34q0 33 37 49l203 103q-50 36 -111 67q-89 47 -117 68.5t-28 46.5q0 49 59 49q70 0 191 -55q81 -38 161 -97l240 121q26 13 41 13q18 0 30.5 -13.5t12.5 -34.5q0 -33 -37 -51zM610 94q43 0 84 12t81.5 41.5t71 73.5t49.5 112.5t19 153.5
q0 104 -32.5 190t-84 138.5t-111 80.5t-118.5 28q-142 0 -223.5 -107t-81.5 -272q0 -102 30 -188.5t79.5 -143t111 -88t125.5 -31.5z" />
    <glyph glyph-name="ntilde" unicode="&#xf1;" horiz-adv-x="1247" 
d="M344 1227q-41 0 -41 43q0 26 12 61q24 65 67.5 113.5t98.5 48.5q36 0 77.5 -25t72 -55t63 -55t51.5 -25q31 0 72 74q5 8 14.5 25.5t14 23.5t14 12.5t21.5 6.5q41 0 41 -41q0 -29 -13 -64q-22 -66 -66.5 -114t-99.5 -48q-37 0 -80.5 24.5t-75 54.5t-63 54.5t-47.5 24.5
q-31 0 -69 -72q-2 -4 -7.5 -15.5t-8 -15t-7 -11.5t-8 -11t-9 -7t-11.5 -5.5t-13 -1.5zM1047 621l53 -379q7 -54 25 -88t38.5 -46t40 -19.5t32.5 -18.5t13 -33q0 -41 -57 -41q-23 0 -78 3t-100 3q-46 0 -99 -3t-77 -3q-58 0 -58 43q0 24 21.5 37t47.5 18.5t47.5 29t21.5 66.5
q0 8 -3 30t-4 32l-49 342q-6 40 -13 70.5t-23 72t-37.5 69t-58.5 47t-83 19.5q-47 0 -92 -19.5t-82 -56t-59.5 -97.5t-22.5 -136v-342q0 -39 10 -66t24.5 -38.5t32 -20.5t32 -13.5t24.5 -16t10 -29.5q0 -15 -12 -28t-33 -13q-19 0 -79 3t-101 3q-40 0 -97 -3t-75 -3
q-24 0 -36.5 12.5t-12.5 28.5q0 21 13.5 32.5t32 18.5t37.5 18t32.5 40t13.5 75v498q0 35 -15 54t-36.5 25t-43 9.5t-36.5 14t-15 32.5q0 24 31 46.5t113 62.5q116 57 143 57q43 0 43 -74v-119q125 201 330 201q70 0 125 -27t88.5 -66.5t58 -98.5t35.5 -107.5t19 -107.5z
" />
    <glyph glyph-name="ograve" unicode="&#xf2;" horiz-adv-x="1228" 
d="M631 1161q-20 0 -37 8t-41 35q-109 128 -178 201q-64 70 -64 98q0 23 19 30t73 7q37 0 55 -8.5t36 -32.5q74 -104 161 -260q17 -39 17 -51t-12 -19.5t-29 -7.5zM600 -31q-234 0 -381 144t-147 374q0 239 157.5 394t401.5 155q234 0 380 -145t146 -375q0 -239 -157.5 -393
t-399.5 -154zM649 82q139 0 225.5 101t86.5 270q0 121 -47 228t-135.5 175t-198.5 68q-141 0 -226.5 -102t-85.5 -269q0 -121 47 -228t135.5 -175t198.5 -68z" />
    <glyph glyph-name="oacute" unicode="&#xf3;" horiz-adv-x="1228" 
d="M557 1161q-17 0 -29 7.5t-12 19.5q0 15 19 51q72 128 159 260q18 24 36 32.5t56 8.5q53 0 72 -7t19 -30q0 -28 -64 -98q-2 -2 -76 -86.5t-102 -114.5q-24 -27 -41 -35t-37 -8zM600 -31q-234 0 -381 144t-147 374q0 239 157.5 394t401.5 155q234 0 380 -145t146 -375
q0 -239 -157.5 -393t-399.5 -154zM649 82q139 0 225.5 101t86.5 270q0 121 -47 228t-135.5 175t-198.5 68q-141 0 -226.5 -102t-85.5 -269q0 -121 47 -228t135.5 -175t198.5 -68z" />
    <glyph glyph-name="ocircumflex" unicode="&#xf4;" horiz-adv-x="1228" 
d="M358 1178q-19 0 -32 11.5t-13 24.5q0 21 23 54q86 118 170 227q23 29 42.5 39t59.5 10q42 0 62 -10t41 -39q83 -100 172 -227q20 -33 20 -54q0 -13 -12.5 -24.5t-30.5 -11.5q-40 0 -80 45l-172 186l-172 -186q-40 -45 -78 -45zM631 1036q234 0 380 -145t146 -375
q0 -239 -157.5 -393t-399.5 -154q-234 0 -381 144t-147 374q0 239 157.5 394t401.5 155zM649 82q139 0 225.5 101t86.5 270q0 121 -47 228t-135.5 175t-198.5 68q-141 0 -226.5 -102t-85.5 -269q0 -121 47 -228t135.5 -175t198.5 -68z" />
    <glyph glyph-name="otilde" unicode="&#xf5;" horiz-adv-x="1228" 
d="M739 1206q-37 0 -80.5 24.5t-75 54.5t-63 54.5t-47.5 24.5q-14 0 -33 -19t-37 -53q-3 -5 -9 -18t-8.5 -17t-8 -12.5t-10 -11.5t-11.5 -5.5t-16 -2.5q-41 0 -41 43q0 26 12 61q24 65 67.5 113.5t98.5 48.5q36 0 77.5 -25t72 -55t63 -55t51.5 -25q31 0 72 74q5 8 14.5 25.5
t14 23.5t14 12.5t21.5 6.5q41 0 41 -41q0 -29 -13 -64q-22 -66 -66.5 -114t-99.5 -48zM600 -31q-234 0 -381 144t-147 374q0 239 157.5 394t401.5 155q234 0 380 -145t146 -375q0 -239 -157.5 -393t-399.5 -154zM649 82q139 0 225.5 101t86.5 270q0 121 -47 228t-135.5 175
t-198.5 68q-141 0 -226.5 -102t-85.5 -269q0 -121 47 -228t135.5 -175t198.5 -68z" />
    <glyph glyph-name="odieresis" unicode="&#xf6;" horiz-adv-x="1228" 
d="M426 1212q-57 0 -92 30.5t-35 82.5q0 47 35.5 81t91.5 34t92.5 -30.5t36.5 -80.5q0 -52 -36.5 -84.5t-92.5 -32.5zM786 1214q-58 0 -92.5 29.5t-34.5 81.5q0 47 35.5 81t91.5 34t91.5 -30.5t35.5 -80.5q0 -52 -35.5 -83.5t-91.5 -31.5zM600 -31q-234 0 -381 144t-147 374
q0 239 157.5 394t401.5 155q234 0 380 -145t146 -375q0 -239 -157.5 -393t-399.5 -154zM649 82q139 0 225.5 101t86.5 270q0 121 -47 228t-135.5 175t-198.5 68q-141 0 -226.5 -102t-85.5 -269q0 -121 47 -228t135.5 -175t198.5 -68z" />
    <glyph glyph-name="divide" unicode="&#xf7;" horiz-adv-x="1175" 
d="M588 889q-45 0 -75 27t-30 67t30 67t75 27t74.5 -27t29.5 -67t-29.5 -67t-74.5 -27zM1012 551h-850q-43 0 -43 65q0 66 43 66h850q45 0 45 -66q0 -65 -45 -65zM588 156q-45 0 -75 27t-30 67t30 67t75 27t74.5 -27t29.5 -67t-29.5 -67t-74.5 -27z" />
    <glyph glyph-name="oslash" unicode="&#xf8;" horiz-adv-x="1261" 
d="M1139 936l-80 -78q117 -142 117 -342q0 -238 -159 -392.5t-401 -154.5q-201 0 -344 111l-79 -80q-30 -27 -50 -27q-15 0 -30 17.5t-15 34.5q0 20 27 47l78 78q-115 141 -115 337q0 239 158 394t401 155q201 0 342 -110l82 82q27 24 47 24q16 0 31.5 -15.5t15.5 -33.5
q0 -21 -26 -47zM596 924q-139 0 -224 -102t-85 -269q0 -142 63 -262l508 504q-109 129 -262 129zM668 82q139 0 224 101t85 270q0 142 -66 262l-505 -504q109 -129 262 -129z" />
    <glyph glyph-name="ugrave" unicode="&#xf9;" horiz-adv-x="1267" 
d="M557 1206q-109 127 -178 201q-64 70 -64 98q0 23 19.5 30t73.5 7q37 0 54.5 -8.5t35.5 -32.5q74 -104 161 -260q17 -39 17 -51t-12 -19.5t-29 -7.5q-20 0 -37 8t-41 35zM1063 946v-682q0 -42 26.5 -67.5t57.5 -34t57.5 -23t26.5 -35.5q0 -31 -34.5 -50t-131.5 -42
q-110 -28 -143 -28q-43 0 -43 69v119q-124 -199 -347 -199q-169 0 -255.5 106t-86.5 294v350q0 35 -17 56t-41 29.5t-47.5 15t-40.5 18t-17 32.5q0 26 31.5 46.5t123.5 54.5q115 43 146 43q47 0 47 -72v-545q0 -136 48 -206t171 -70q115 0 200 82.5t85 228.5v287
q0 35 -18.5 55.5t-45.5 29t-53.5 14.5t-45 18t-18.5 34q0 25 35 45.5t137 57.5q115 41 150 41q43 0 43 -72z" />
    <glyph glyph-name="uacute" unicode="&#xfa;" horiz-adv-x="1267" 
d="M561 1163q-17 0 -29 7.5t-12 19.5q0 15 19 51q72 128 159 260q18 24 36 32.5t57 8.5q53 0 71.5 -7t18.5 -30q0 -28 -64 -98q-2 -2 -76 -86.5t-102 -114.5q-24 -27 -41 -35t-37 -8zM1063 946v-682q0 -42 26.5 -67.5t57.5 -34t57.5 -23t26.5 -35.5q0 -31 -34.5 -50
t-131.5 -42q-110 -28 -143 -28q-43 0 -43 69v119q-124 -199 -347 -199q-169 0 -255.5 106t-86.5 294v350q0 35 -17 56t-41 29.5t-47.5 15t-40.5 18t-17 32.5q0 26 31.5 46.5t123.5 54.5q115 43 146 43q47 0 47 -72v-545q0 -136 48 -206t171 -70q115 0 200 82.5t85 228.5v287
q0 35 -18.5 55.5t-45.5 29t-53.5 14.5t-45 18t-18.5 34q0 25 35 45.5t137 57.5q115 41 150 41q43 0 43 -72z" />
    <glyph glyph-name="ucircumflex" unicode="&#xfb;" horiz-adv-x="1267" 
d="M362 1180q-19 0 -32 12t-13 25q0 20 23 53q86 118 170 227q23 29 42.5 39t59.5 10q42 0 62 -10t41 -39q83 -100 172 -227q20 -33 20 -53q0 -13 -12.5 -25t-30.5 -12q-40 0 -80 45l-172 186l-172 -186q-40 -45 -78 -45zM1063 946v-682q0 -42 26.5 -67.5t57.5 -34t57.5 -23
t26.5 -35.5q0 -31 -34.5 -50t-131.5 -42q-110 -28 -143 -28q-43 0 -43 69v119q-124 -199 -347 -199q-169 0 -255.5 106t-86.5 294v350q0 35 -17 56t-41 29.5t-47.5 15t-40.5 18t-17 32.5q0 26 31.5 46.5t123.5 54.5q115 43 146 43q47 0 47 -72v-545q0 -136 48 -206t171 -70
q115 0 200 82.5t85 228.5v287q0 35 -18.5 55.5t-45.5 29t-53.5 14.5t-45 18t-18.5 34q0 25 35 45.5t137 57.5q115 41 150 41q43 0 43 -72z" />
    <glyph glyph-name="udieresis" unicode="&#xfc;" horiz-adv-x="1267" 
d="M430 1214q-57 0 -92 30.5t-35 82.5q0 47 35.5 81t91.5 34t92.5 -30.5t36.5 -80.5q0 -52 -36.5 -84.5t-92.5 -32.5zM791 1217q-58 0 -92.5 29t-34.5 81q0 47 35.5 81t91.5 34t91.5 -30.5t35.5 -80.5q0 -52 -35.5 -83t-91.5 -31zM1063 946v-682q0 -42 26.5 -67.5t57.5 -34
t57.5 -23t26.5 -35.5q0 -31 -34.5 -50t-131.5 -42q-110 -28 -143 -28q-43 0 -43 69v119q-124 -199 -347 -199q-169 0 -255.5 106t-86.5 294v350q0 35 -17 56t-41 29.5t-47.5 15t-40.5 18t-17 32.5q0 26 31.5 46.5t123.5 54.5q115 43 146 43q47 0 47 -72v-545q0 -136 48 -206
t171 -70q115 0 200 82.5t85 228.5v287q0 35 -18.5 55.5t-45.5 29t-53.5 14.5t-45 18t-18.5 34q0 25 35 45.5t137 57.5q115 41 150 41q43 0 43 -72z" />
    <glyph glyph-name="yacute" unicode="&#xfd;" horiz-adv-x="1146" 
d="M535 1163q-17 0 -29 7.5t-12 19.5q0 16 18 51q66 119 160 260q18 24 36 32.5t56 8.5q53 0 71.5 -7t18.5 -30q0 -29 -63 -98q-9 -10 -47.5 -53.5t-74.5 -84t-57 -63.5q-24 -27 -40.5 -35t-36.5 -8zM1094 1010q49 0 49 -39q0 -21 -17.5 -36t-41 -24.5t-52 -36t-45.5 -65.5
l-381 -899q-127 -301 -342 -301q-48 0 -87 12.5t-54 32.5q-21 28 -42.5 104t-21.5 117q0 24 11.5 39.5t31.5 15.5q16 0 26.5 -8.5t25.5 -30.5q46 -71 83 -104t76 -33q103 0 191 215l12 31l-358 807q-18 40 -47 66.5t-52 36.5t-40 25t-17 36q0 39 47 39q22 0 85.5 -3
t111.5 -3q43 0 102.5 3t77.5 3q53 0 53 -41q0 -23 -18.5 -38t-41 -22t-41 -26.5t-18.5 -51.5q0 -38 31 -112l221 -518l211 518q37 81 37 121q0 28 -19.5 45.5t-43 24t-43 21.5t-19.5 38q0 41 53 41q19 0 69.5 -3t78.5 -3q30 0 82 3t76 3z" />
    <glyph glyph-name="thorn" unicode="&#xfe;" horiz-adv-x="1234" 
d="M707 1034q199 0 327.5 -145.5t128.5 -374.5q0 -122 -39.5 -225t-108 -171.5t-159 -106.5t-192.5 -38q-194 0 -326 111v-229q0 -39 11 -65t28 -37.5t36.5 -20.5t36.5 -13.5t28 -16.5t11 -30q0 -15 -12 -28t-33 -13t-87.5 3.5t-110.5 3.5q-40 0 -97 -3.5t-75 -3.5
q-23 0 -35 12t-12 29t9.5 28.5t23.5 17t30.5 14.5t30.5 21t23.5 38t9.5 64v1386q0 35 -15 54t-36.5 25t-43 9.5t-36.5 14t-15 32.5q0 24 30.5 47t111.5 62q116 57 145 57q43 0 43 -74v-630q58 91 152 143.5t217 52.5zM653 82q138 0 227 99t89 280q0 187 -93.5 309.5
t-238.5 122.5q-122 0 -210.5 -89t-88.5 -241v-153q0 -147 89 -237.5t226 -90.5z" />
    <glyph glyph-name="ydieresis" unicode="&#xff;" horiz-adv-x="1146" 
d="M403 1214q-57 0 -92 30.5t-35 82.5q0 47 35.5 81t91.5 34t92.5 -30.5t36.5 -80.5q0 -52 -36.5 -84.5t-92.5 -32.5zM764 1217q-58 0 -92.5 29t-34.5 81q0 47 35.5 81t91.5 34t91.5 -30.5t35.5 -80.5q0 -52 -35.5 -83t-91.5 -31zM1094 1010q49 0 49 -39q0 -21 -17.5 -36
t-41 -24.5t-52 -36t-45.5 -65.5l-381 -899q-127 -301 -342 -301q-48 0 -87 12.5t-54 32.5q-21 28 -42.5 104t-21.5 117q0 24 11.5 39.5t31.5 15.5q16 0 26.5 -8.5t25.5 -30.5q46 -71 83 -104t76 -33q103 0 191 215l12 31l-358 807q-18 40 -47 66.5t-52 36.5t-40 25t-17 36
q0 39 47 39q22 0 85.5 -3t111.5 -3q43 0 102.5 3t77.5 3q53 0 53 -41q0 -23 -18.5 -38t-41 -22t-41 -26.5t-18.5 -51.5q0 -38 31 -112l221 -518l211 518q37 81 37 121q0 28 -19.5 45.5t-43 24t-43 21.5t-19.5 38q0 41 53 41q19 0 69.5 -3t78.5 -3q30 0 82 3t76 3z" />
    <glyph glyph-name="Amacron" unicode="&#x100;" horiz-adv-x="1470" 
d="M500 1667q-56 0 -56 62q0 33 13 48t43 15l235 -2q27 0 124.5 1t111.5 1q30 0 42.5 -15t12.5 -48q0 -32 -12.5 -47t-42.5 -15l-236 2q-27 0 -124 -1t-111 -1zM987 1053l340 -844q18 -46 47 -74.5t52.5 -37.5t41 -24.5t17.5 -39.5q0 -17 -12.5 -27t-32.5 -10q-11 0 -68 3
t-102 3q-42 0 -120 -3t-101 -3q-62 0 -62 43q0 22 21 36.5t46.5 21t46.5 22t21 39.5q0 26 -14 61l-109 266q-8 22 -18.5 29.5t-34.5 7.5h-500q-23 0 -34.5 -7.5t-18.5 -29.5l-106 -264q-17 -43 -17 -59q0 -25 21.5 -41.5t47.5 -24t47.5 -22t21.5 -35.5q0 -43 -62 -43
q-25 0 -81 3t-91 3t-80.5 -3t-58.5 -3q-23 0 -36 10.5t-13 28.5q0 20 11 32.5t29 21t38.5 19t42 34.5t36.5 61l340 850q83 212 107 284q30 87 51 106t96 19q72 0 92 -19t50 -106q36 -100 108 -284zM481 633h424q18 0 25 8t2 21l-236 589l-233 -587q-6 -15 -0.5 -23t18.5 -8z
" />
    <glyph glyph-name="amacron" unicode="&#x101;" horiz-adv-x="1122" 
d="M313 1284q-30 0 -42.5 15t-12.5 47q0 33 12.5 48t42.5 15l236 -2q27 0 124 1t111 1q30 0 43 -15t13 -48q0 -62 -56 -62l-235 2q-27 0 -124.5 -1t-111.5 -1zM1112 115q33 -6 33 -31q0 -32 -53 -66t-121 -34q-66 0 -116.5 39t-72.5 116q-63 -74 -160 -118t-214 -44
q-157 0 -253 85t-96 221q0 138 113 229.5t303 91.5q115 0 244 -39l-4 27q-22 163 -81 229t-163 66q-125 0 -252 -117q-31 -25 -51 -25q-16 0 -28.5 12t-12.5 31q0 23 33 64q53 74 156 125t214 51q77 0 136 -21t96 -54.5t64 -85t40 -102t23 -116.5l51 -344q7 -57 19 -91.5
t36 -54t47.5 -27.5t69.5 -17zM469 100q86 0 166 45t127 111l-29 203q-106 41 -217 41q-127 0 -194.5 -53.5t-67.5 -147.5q0 -88 60 -143.5t155 -55.5z" />
    <glyph glyph-name="Abreve" unicode="&#x102;" horiz-adv-x="1470" 
d="M737 1573q-181 0 -260 203q-22 61 -22 100q0 21 14 34t33 13q5 0 10 -1t9.5 -4t8 -6t8 -9t7 -9.5t7 -11.5t7 -12t7.5 -14.5t7 -14.5q62 -139 164 -139q99 0 164 139q13 29 20.5 43t20.5 26.5t29 12.5q19 0 33 -13t14 -34q0 -36 -23 -100q-79 -203 -258 -203zM987 1053
l340 -844q18 -46 47 -74.5t52.5 -37.5t41 -24.5t17.5 -39.5q0 -17 -12.5 -27t-32.5 -10q-11 0 -68 3t-102 3q-42 0 -120 -3t-101 -3q-62 0 -62 43q0 22 21 36.5t46.5 21t46.5 22t21 39.5q0 26 -14 61l-109 266q-8 22 -18.5 29.5t-34.5 7.5h-500q-23 0 -34.5 -7.5
t-18.5 -29.5l-106 -264q-17 -43 -17 -59q0 -25 21.5 -41.5t47.5 -24t47.5 -22t21.5 -35.5q0 -43 -62 -43q-25 0 -81 3t-91 3t-80.5 -3t-58.5 -3q-23 0 -36 10.5t-13 28.5q0 20 11 32.5t29 21t38.5 19t42 34.5t36.5 61l340 850q83 212 107 284q30 87 51 106t96 19
q72 0 92 -19t50 -106q36 -100 108 -284zM481 633h424q18 0 25 8t2 21l-236 589l-233 -587q-6 -15 -0.5 -23t18.5 -8z" />
    <glyph glyph-name="abreve" unicode="&#x103;" horiz-adv-x="1122" 
d="M551 1190q-181 0 -260 203q-23 64 -23 100q0 21 14 34t33 13q21 0 34.5 -17t32.5 -55q3 -7 5 -10q62 -139 164 -139q99 0 164 139q13 30 20 43t20 26t29 13q19 0 33 -13t14 -34q0 -39 -22 -100q-79 -203 -258 -203zM1112 115q33 -6 33 -31q0 -32 -53 -66t-121 -34
q-66 0 -116.5 39t-72.5 116q-63 -74 -160 -118t-214 -44q-157 0 -253 85t-96 221q0 138 113 229.5t303 91.5q115 0 244 -39l-4 27q-22 163 -81 229t-163 66q-125 0 -252 -117q-31 -25 -51 -25q-16 0 -28.5 12t-12.5 31q0 23 33 64q53 74 156 125t214 51q77 0 136 -21
t96 -54.5t64 -85t40 -102t23 -116.5l51 -344q7 -57 19 -91.5t36 -54t47.5 -27.5t69.5 -17zM469 100q86 0 166 45t127 111l-29 203q-106 41 -217 41q-127 0 -194.5 -53.5t-67.5 -147.5q0 -88 60 -143.5t155 -55.5z" />
    <glyph glyph-name="Aogonek" unicode="&#x104;" horiz-adv-x="1470" 
d="M987 1053l340 -844q18 -46 47 -74.5t52.5 -37.5t41 -24.5t17.5 -39.5q0 -17 -12.5 -27t-32.5 -10q-14 0 -57 2.5t-70 3.5q-59 -59 -88 -112t-29 -115q0 -41 16.5 -64.5t44.5 -23.5q29 0 60 14q16 12 29 12q30 0 30 -32q0 -26 -26 -46q-49 -43 -131 -43q-64 0 -107 42
t-43 112q0 131 135 254q-32 0 -85 -2t-70 -2q-62 0 -62 43q0 22 21 36.5t46.5 21t46.5 22t21 39.5q0 26 -14 61l-109 266q-8 22 -18.5 29.5t-34.5 7.5h-500q-23 0 -34.5 -7.5t-18.5 -29.5l-106 -264q-17 -43 -17 -59q0 -25 21.5 -41.5t47.5 -24t47.5 -22t21.5 -35.5
q0 -43 -62 -43q-25 0 -81 3t-91 3t-80.5 -3t-58.5 -3q-23 0 -36 10.5t-13 28.5q0 20 11 32.5t29 21t38.5 19t42 34.5t36.5 61l340 850q83 212 107 284q30 87 51 106t96 19q72 0 92 -19t50 -106q36 -100 108 -284zM481 633h424q18 0 25 8t2 21l-236 589l-233 -587
q-6 -15 -0.5 -23t18.5 -8z" />
    <glyph glyph-name="aogonek" unicode="&#x105;" horiz-adv-x="1122" 
d="M1145 84q0 -21 -27 -46t-67 -40q-56 -56 -84.5 -109t-28.5 -114q0 -41 16.5 -64.5t44.5 -23.5q29 0 60 14q16 12 28 12q15 0 23 -9t8 -23q0 -26 -26 -46q-49 -43 -131 -43q-64 0 -107 42t-43 112q0 124 121 242q-111 20 -150 151q-63 -74 -160 -118t-214 -44
q-157 0 -253 85t-96 221q0 138 113 229.5t303 91.5q115 0 244 -39l-4 27q-22 163 -81 229t-163 66q-125 0 -252 -117q-31 -25 -51 -25q-16 0 -28.5 12t-12.5 31q0 23 33 64q53 74 156 125t214 51q77 0 136 -21t96 -54.5t64 -85t40 -102t23 -116.5l51 -344q7 -57 19 -91.5
t36 -54t47.5 -27.5t69.5 -17q33 -6 33 -31zM469 100q86 0 166 45t127 111l-29 203q-106 41 -217 41q-127 0 -194.5 -53.5t-67.5 -147.5q0 -88 60 -143.5t155 -55.5z" />
    <glyph glyph-name="Cacute" unicode="&#x106;" horiz-adv-x="1425" 
d="M729 1546q-17 0 -29 7.5t-12 19.5q0 15 19 51q72 128 159 260q18 24 36 32.5t56 8.5q53 0 72 -7t19 -30q0 -28 -64 -98q-2 -2 -76 -86.5t-102 -114.5q-24 -27 -41 -35t-37 -8zM774 -29q-108 0 -209.5 30.5t-189 92t-152.5 147.5t-102 203.5t-37 253.5q0 165 54.5 310.5
t146.5 248t217.5 161.5t263.5 59q84 0 185 -23.5t110 -23.5q21 0 43 26.5t43 26.5q25 0 42 -22t42 -81l63 -161q11 -28 24 -57t19 -42.5t10.5 -28.5t4.5 -28q0 -23 -15 -36t-32 -13q-28 0 -68 49q-118 150 -221.5 221.5t-220.5 71.5q-136 0 -248 -80.5t-176 -223t-64 -315.5
q0 -176 64.5 -314.5t184 -217t273.5 -78.5q132 0 244.5 60.5t190.5 172.5q9 13 14 19.5t17.5 14t27.5 7.5q20 0 34.5 -15t14.5 -40q0 -24 -22 -70q-30 -54 -84 -106.5t-127 -97.5t-168.5 -73t-196.5 -28z" />
    <glyph glyph-name="cacute" unicode="&#x107;" horiz-adv-x="1036" 
d="M514 1159q-17 0 -29 7.5t-12 19.5q0 15 19 51q72 128 159 260q18 24 36 32.5t56 8.5q53 0 72 -7t19 -30q0 -28 -64 -98q-2 -2 -76 -86.5t-102 -114.5q-24 -27 -41 -35t-37 -8zM567 -27q-136 0 -247 58.5t-179.5 176.5t-68.5 277t69.5 285t186.5 194t258 68
q74 0 145.5 -21t121 -52t80 -67t30.5 -67q0 -76 -84 -180q-30 -35 -54 -35q-40 0 -49 60q-11 59 -26 101.5t-40 80t-65.5 57t-95.5 19.5q-123 0 -202 -104t-79 -273q0 -187 107 -311.5t266 -124.5q162 0 266 131q24 30 49 30q18 0 28.5 -12t10.5 -33t-18 -53
q-48 -84 -162 -144.5t-248 -60.5z" />
    <glyph glyph-name="Ccircumflex" unicode="&#x108;" horiz-adv-x="1425" 
d="M530 1563q-19 0 -32 11.5t-13 24.5q0 21 23 54q86 118 170 227q23 29 42.5 39t59.5 10q42 0 62 -10t41 -39q83 -100 172 -227q20 -33 20 -54q0 -13 -12.5 -24.5t-30.5 -11.5q-40 0 -80 45l-172 186l-172 -186q-40 -45 -78 -45zM1323 401q20 0 34.5 -15t14.5 -40
q0 -24 -22 -70q-30 -54 -84 -106.5t-127 -97.5t-168.5 -73t-196.5 -28q-108 0 -209.5 30.5t-189 92t-152.5 147.5t-102 203.5t-37 253.5q0 165 54.5 310.5t146.5 248t217.5 161.5t263.5 59q84 0 185 -23.5t110 -23.5q21 0 43 26.5t43 26.5q25 0 42 -22t42 -81l63 -161
q11 -28 24 -57t19 -42.5t10.5 -28.5t4.5 -28q0 -23 -15 -36t-32 -13q-28 0 -68 49q-118 150 -221.5 221.5t-220.5 71.5q-136 0 -248 -80.5t-176 -223t-64 -315.5q0 -176 64.5 -314.5t184 -217t273.5 -78.5q132 0 244.5 60.5t190.5 172.5q9 13 14 19.5t17.5 14t27.5 7.5z" />
    <glyph glyph-name="ccircumflex" unicode="&#x109;" horiz-adv-x="1036" 
d="M315 1176q-19 0 -32 11.5t-13 24.5q0 21 23 54q86 118 170 227q23 29 42.5 39t59.5 10q41 0 61.5 -10t41.5 -39q83 -100 172 -227q20 -33 20 -54q0 -13 -12.5 -24.5t-30.5 -11.5q-40 0 -80 45l-172 186l-172 -186q-40 -45 -78 -45zM956 276q18 0 28.5 -12t10.5 -33
t-18 -53q-48 -84 -162 -144.5t-248 -60.5q-136 0 -247 58.5t-179.5 176.5t-68.5 277t69.5 285t186.5 194t258 68q74 0 145.5 -21t121 -52t80 -67t30.5 -67q0 -76 -84 -180q-30 -35 -54 -35q-40 0 -49 60q-11 59 -26 101.5t-40 80t-65.5 57t-95.5 19.5q-123 0 -202 -104
t-79 -273q0 -187 107 -311.5t266 -124.5q162 0 266 131q24 30 49 30z" />
    <glyph glyph-name="Cdotaccent" unicode="&#x10a;" horiz-adv-x="1425" 
d="M780 1597q-58 0 -93.5 30.5t-35.5 82.5q0 47 36.5 81t92.5 34t91.5 -30.5t35.5 -80.5q0 -52 -35.5 -84.5t-91.5 -32.5zM774 -29q-108 0 -209.5 30.5t-189 92t-152.5 147.5t-102 203.5t-37 253.5q0 165 54.5 310.5t146.5 248t217.5 161.5t263.5 59q84 0 185 -23.5
t110 -23.5q21 0 43 26.5t43 26.5q25 0 42 -22t42 -81l63 -161q11 -28 24 -57t19 -42.5t10.5 -28.5t4.5 -28q0 -23 -15 -36t-32 -13q-28 0 -68 49q-118 150 -221.5 221.5t-220.5 71.5q-136 0 -248 -80.5t-176 -223t-64 -315.5q0 -176 64.5 -314.5t184 -217t273.5 -78.5
q132 0 244.5 60.5t190.5 172.5q9 13 14 19.5t17.5 14t27.5 7.5q20 0 34.5 -15t14.5 -40q0 -24 -22 -70q-30 -54 -84 -106.5t-127 -97.5t-168.5 -73t-196.5 -28z" />
    <glyph glyph-name="cdotaccent" unicode="&#x10b;" horiz-adv-x="1036" 
d="M565 1210q-58 0 -93.5 30.5t-35.5 82.5q0 47 36.5 81t92.5 34t91.5 -30.5t35.5 -80.5q0 -52 -35.5 -84.5t-91.5 -32.5zM567 -27q-136 0 -247 58.5t-179.5 176.5t-68.5 277t69.5 285t186.5 194t258 68q74 0 145.5 -21t121 -52t80 -67t30.5 -67q0 -76 -84 -180
q-30 -35 -54 -35q-40 0 -49 60q-11 59 -26 101.5t-40 80t-65.5 57t-95.5 19.5q-123 0 -202 -104t-79 -273q0 -187 107 -311.5t266 -124.5q162 0 266 131q24 30 49 30q18 0 28.5 -12t10.5 -33t-18 -53q-48 -84 -162 -144.5t-248 -60.5z" />
    <glyph glyph-name="Ccaron" unicode="&#x10c;" horiz-adv-x="1425" 
d="M676 1620q-108 136 -170 229q-23 33 -23 52q0 13 13 24.5t32 11.5q37 0 80 -43l170 -186l172 186q40 43 80 43q18 0 30.5 -11.5t12.5 -24.5q0 -19 -20 -52q-27 -39 -170 -229q-23 -29 -43.5 -39t-61.5 -10q-40 0 -59.5 10t-42.5 39zM1323 401q20 0 34.5 -15t14.5 -40
q0 -24 -22 -70q-30 -54 -84 -106.5t-127 -97.5t-168.5 -73t-196.5 -28q-108 0 -209.5 30.5t-189 92t-152.5 147.5t-102 203.5t-37 253.5q0 165 54.5 310.5t146.5 248t217.5 161.5t263.5 59q84 0 185 -23.5t110 -23.5q21 0 43 26.5t43 26.5q25 0 42 -22t42 -81l63 -161
q11 -28 24 -57t19 -42.5t10.5 -28.5t4.5 -28q0 -23 -15 -36t-32 -13q-28 0 -68 49q-118 150 -221.5 221.5t-220.5 71.5q-136 0 -248 -80.5t-176 -223t-64 -315.5q0 -176 64.5 -314.5t184 -217t273.5 -78.5q132 0 244.5 60.5t190.5 172.5q9 13 14 19.5t17.5 14t27.5 7.5z" />
    <glyph glyph-name="ccaron" unicode="&#x10d;" horiz-adv-x="1036" 
d="M461 1233q-108 136 -170 229q-23 33 -23 51q0 13 13 25t32 12q37 0 80 -43l170 -186l172 186q40 43 80 43q18 0 30.5 -12t12.5 -25q0 -18 -20 -51q-27 -39 -170 -229q-23 -29 -43.5 -39t-61.5 -10q-40 0 -59.5 10t-42.5 39zM956 276q18 0 28.5 -12t10.5 -33t-18 -53
q-48 -84 -162 -144.5t-248 -60.5q-136 0 -247 58.5t-179.5 176.5t-68.5 277t69.5 285t186.5 194t258 68q74 0 145.5 -21t121 -52t80 -67t30.5 -67q0 -76 -84 -180q-30 -35 -54 -35q-40 0 -49 60q-11 59 -26 101.5t-40 80t-65.5 57t-95.5 19.5q-123 0 -202 -104t-79 -273
q0 -187 107 -311.5t266 -124.5q162 0 266 131q24 30 49 30z" />
    <glyph glyph-name="Dcaron" unicode="&#x10e;" horiz-adv-x="1579" 
d="M590 1620q-108 136 -170 229q-23 33 -23 52q0 13 13 24.5t32 11.5q37 0 80 -43l170 -186l172 186q40 43 80 43q18 0 30.5 -11.5t12.5 -24.5q0 -19 -20 -52q-27 -39 -170 -229q-23 -29 -43.5 -39t-61.5 -10q-40 0 -59.5 10t-42.5 39zM655 1454q190 0 349 -58t267 -159
t168 -240t60 -299q0 -210 -102 -370t-283.5 -246t-415.5 -86q-62 0 -184 3t-184 3q-42 0 -106 -3t-74 -3q-58 0 -58 43q0 21 14 33.5t34 19t40.5 16.5t34.5 33.5t14 61.5v1042q0 38 -14 62t-34 34t-40.5 17t-34.5 19.5t-14 33.5q0 43 58 43q10 0 74 -3t106 -3q54 0 162.5 3
t162.5 3zM621 109h63q278 0 434 166.5t156 445.5q0 132 -42 245t-120 196.5t-196 131t-263 47.5h-32q-109 0 -148 -22t-39 -78v-1032q0 -57 39.5 -78.5t147.5 -21.5z" />
    <glyph glyph-name="dcaron" unicode="&#x10f;" horiz-adv-x="1275" 
d="M1300 1597q78 0 78 -53q0 -75 -14.5 -199.5t-30.5 -209.5q-10 -50 -51 -50q-21 0 -31 9t-10 32l2 418q0 29 12.5 41t44.5 12zM1087 1468v-1189q0 -35 15.5 -56.5t38 -31t45 -16.5t38 -20t15.5 -34q0 -25 -32 -44.5t-122 -51.5q-120 -43 -139 -43q-15 0 -24.5 7t-13 20.5
t-4.5 22t-1 23.5v111q-60 -88 -154.5 -140.5t-213.5 -52.5q-93 0 -177 35.5t-148.5 100.5t-102 163.5t-37.5 216.5q0 237 146 390t366 153q197 0 321 -121v332q0 42 -26 62t-57 22t-57 13.5t-26 39.5q0 24 31.5 46t120.5 61q122 55 153 55q45 0 45 -74zM606 115
q54 0 106 19.5t95 57t69.5 98.5t26.5 136v127q0 84 -30 155.5t-78 117.5t-106 72t-116 26q-144 0 -226.5 -105t-82.5 -270q0 -99 29.5 -182.5t78.5 -137.5t109.5 -84t124.5 -30z" />
    <glyph glyph-name="Dcroat" unicode="&#x110;" horiz-adv-x="1587" 
d="M662 1454q190 0 349 -58t266.5 -159t167.5 -240t60 -299q0 -210 -102 -370t-284 -246t-417 -86q-60 0 -182 3t-184 3q-43 0 -107 -3t-75 -3q-58 0 -58 43q0 21 14.5 33.5t35 19t41 16.5t35 33.5t14.5 61.5v481h-132q-61 0 -61 55q0 56 61 56h132v450q0 38 -14.5 62
t-35 34t-41 17t-35 19.5t-14.5 33.5q0 43 58 43q11 0 75 -3t107 -3q53 0 162 3t164 3zM627 109h63q278 0 434 166.5t156 445.5q0 132 -42 245t-120 196.5t-196 131t-263 47.5h-32q-110 0 -148.5 -21.5t-38.5 -78.5v-446h297q64 0 64 -56q0 -55 -64 -55h-297v-475
q0 -57 39.5 -78.5t147.5 -21.5z" />
    <glyph glyph-name="dcroat" unicode="&#x111;" horiz-adv-x="1275" 
d="M1190 1133h-103v-854q0 -35 15.5 -56.5t38 -31t45 -16.5t38 -20t15.5 -34q0 -25 -32 -44.5t-122 -51.5q-120 -43 -139 -43q-15 0 -24.5 7t-13 20.5t-4.5 22t-1 23.5v109q-60 -88 -154 -139.5t-214 -51.5q-93 0 -177 35.5t-148.5 99.5t-102 161.5t-37.5 213.5
q0 237 146 388t366 151q197 0 321 -121v232h-356q-64 0 -64 49q0 51 64 51h356v10q0 42 -26 62t-57 22t-57 13.5t-26 39.5q0 24 31.5 46t120.5 61q122 55 153 55q45 0 45 -74v-235h103q33 0 48 -12t15 -39q0 -49 -63 -49zM606 113q54 0 106 19.5t95 56t69.5 97.5t26.5 136
v125q0 83 -30 154.5t-78 117t-106 71t-116 25.5q-144 0 -226.5 -103.5t-82.5 -266.5q0 -99 29.5 -182.5t78.5 -137t109.5 -83t124.5 -29.5z" />
    <glyph glyph-name="Emacron" unicode="&#x112;" horiz-adv-x="1396" 
d="M432 1667q-30 0 -42.5 15t-12.5 47q0 33 12.5 48t42.5 15l236 -2q26 0 123 1t112 1q30 0 42.5 -15t12.5 -48q0 -32 -12.5 -47t-42.5 -15l-235 2q-26 0 -124 -1t-112 -1zM1327 408q18 0 30.5 -11.5t12.5 -31.5q0 -23 -11.5 -53.5t-45.5 -98.5l-82 -174q-38 -82 -82 -82
q-23 0 -55 21.5t-68 21.5h-696q-42 0 -105.5 -3t-74.5 -3q-58 0 -58 43q0 21 14 33.5t34 19t40.5 16.5t34.5 33.5t14 61.5v1046q0 38 -14 62t-34 34t-40.5 17t-34.5 19.5t-14 33.5q0 43 58 43q11 0 74 -3t106 -3h614q31 0 59.5 21.5t49.5 21.5q26 0 45.5 -22t46.5 -78
l74 -152q51 -102 51 -139q0 -20 -12.5 -31.5t-28.5 -11.5q-17 0 -31 10t-39 37q-51 55 -79.5 83.5t-69 63t-73 49.5t-75 26t-92.5 11h-174q-73 0 -108 -10.5t-44.5 -29.5t-9.5 -60v-401q0 -25 12 -35t46 -10h208q44 0 74 24t43 52.5t32 52.5t42 24q43 0 43 -59
q0 -23 -3 -73.5t-3 -76.5q0 -27 3 -78t3 -73q0 -58 -43 -58q-23 0 -42 24t-32 53t-43 53t-74 24h-208q-34 0 -46 -10.5t-12 -34.5v-428q0 -41 11 -60t45 -28.5t106 -9.5h258q44 0 81 6.5t73 24t62 34t62.5 51t60 59t67.5 72.5q18 21 25 28t18.5 14.5t23.5 7.5z" />
    <glyph glyph-name="emacron" unicode="&#x113;" horiz-adv-x="1085" 
d="M326 1280q-30 0 -43 15t-13 46q0 33 13 48.5t43 15.5l235 -2q27 0 124 1t112 1q30 0 42.5 -15.5t12.5 -48.5q0 -32 -12.5 -46.5t-42.5 -14.5l-236 2q-27 0 -124 -1t-111 -1zM993 268q17 0 29 -13t12 -32q0 -18 -20 -51q-57 -82 -180.5 -140.5t-253.5 -58.5
q-141 0 -255.5 61t-184.5 182.5t-70 283.5q0 114 41 214.5t110 169.5t160.5 108.5t191.5 39.5q121 0 218.5 -56t149.5 -144t52 -187q0 -31 -9.5 -44t-33.5 -21l-655 -195q42 -122 136 -197t216 -75q164 0 293 125q38 30 53 30zM547 913q-123 0 -204 -94.5t-81 -245.5
q0 -43 6 -84l473 146q28 8 37.5 19t9.5 38q0 79 -69.5 150t-171.5 71z" />
    <glyph glyph-name="Ebreve" unicode="&#x114;" horiz-adv-x="1396" 
d="M670 1573q-181 0 -260 203q-23 64 -23 100q0 21 14 34t33 13q21 0 34.5 -17t32.5 -55q3 -7 5 -10q62 -139 164 -139q99 0 164 139q13 30 20 43t20 26t29 13q19 0 33 -13t14 -34q0 -39 -22 -100q-79 -203 -258 -203zM1327 408q18 0 30.5 -11.5t12.5 -31.5
q0 -23 -11.5 -53.5t-45.5 -98.5l-82 -174q-38 -82 -82 -82q-23 0 -55 21.5t-68 21.5h-696q-42 0 -105.5 -3t-74.5 -3q-58 0 -58 43q0 21 14 33.5t34 19t40.5 16.5t34.5 33.5t14 61.5v1046q0 38 -14 62t-34 34t-40.5 17t-34.5 19.5t-14 33.5q0 43 58 43q11 0 74 -3t106 -3
h614q31 0 59.5 21.5t49.5 21.5q26 0 45.5 -22t46.5 -78l74 -152q51 -102 51 -139q0 -20 -12.5 -31.5t-28.5 -11.5q-17 0 -31 10t-39 37q-51 55 -79.5 83.5t-69 63t-73 49.5t-75 26t-92.5 11h-174q-73 0 -108 -10.5t-44.5 -29.5t-9.5 -60v-401q0 -25 12 -35t46 -10h208
q44 0 74 24t43 52.5t32 52.5t42 24q43 0 43 -59q0 -23 -3 -73.5t-3 -76.5q0 -27 3 -78t3 -73q0 -58 -43 -58q-23 0 -42 24t-32 53t-43 53t-74 24h-208q-34 0 -46 -10.5t-12 -34.5v-428q0 -41 11 -60t45 -28.5t106 -9.5h258q44 0 81 6.5t73 24t62 34t62.5 51t60 59t67.5 72.5
q18 21 25 28t18.5 14.5t23.5 7.5z" />
    <glyph glyph-name="ebreve" unicode="&#x115;" horiz-adv-x="1085" 
d="M563 1186q-181 0 -260 203q-22 61 -22 100q0 21 14 34t33 13q5 0 10 -1t9.5 -4t8 -6t8 -9t7 -9.5t7 -11.5t7 -12t7.5 -14.5t7 -14.5q62 -139 164 -139q99 0 164 139q13 29 20.5 43t20.5 26.5t29 12.5q19 0 33 -13t14 -34q0 -36 -23 -100q-79 -203 -258 -203zM993 268
q17 0 29 -13t12 -32q0 -18 -20 -51q-57 -82 -180.5 -140.5t-253.5 -58.5q-141 0 -255.5 61t-184.5 182.5t-70 283.5q0 114 41 214.5t110 169.5t160.5 108.5t191.5 39.5q121 0 218.5 -56t149.5 -144t52 -187q0 -31 -9.5 -44t-33.5 -21l-655 -195q42 -122 136 -197t216 -75
q164 0 293 125q38 30 53 30zM547 913q-123 0 -204 -94.5t-81 -245.5q0 -43 6 -84l473 146q28 8 37.5 19t9.5 38q0 79 -69.5 150t-171.5 71z" />
    <glyph glyph-name="Edotaccent" unicode="&#x116;" horiz-adv-x="1396" 
d="M670 1597q-58 0 -93.5 30.5t-35.5 82.5q0 47 36.5 81t92.5 34t91.5 -30.5t35.5 -80.5q0 -52 -35.5 -84.5t-91.5 -32.5zM1327 408q18 0 30.5 -11.5t12.5 -31.5q0 -23 -11.5 -53.5t-45.5 -98.5l-82 -174q-38 -82 -82 -82q-23 0 -55 21.5t-68 21.5h-696q-42 0 -105.5 -3
t-74.5 -3q-58 0 -58 43q0 21 14 33.5t34 19t40.5 16.5t34.5 33.5t14 61.5v1046q0 38 -14 62t-34 34t-40.5 17t-34.5 19.5t-14 33.5q0 43 58 43q11 0 74 -3t106 -3h614q31 0 59.5 21.5t49.5 21.5q26 0 45.5 -22t46.5 -78l74 -152q51 -102 51 -139q0 -20 -12.5 -31.5
t-28.5 -11.5q-17 0 -31 10t-39 37q-51 55 -79.5 83.5t-69 63t-73 49.5t-75 26t-92.5 11h-174q-73 0 -108 -10.5t-44.5 -29.5t-9.5 -60v-401q0 -25 12 -35t46 -10h208q44 0 74 24t43 52.5t32 52.5t42 24q43 0 43 -59q0 -23 -3 -73.5t-3 -76.5q0 -27 3 -78t3 -73
q0 -58 -43 -58q-23 0 -42 24t-32 53t-43 53t-74 24h-208q-34 0 -46 -10.5t-12 -34.5v-428q0 -41 11 -60t45 -28.5t106 -9.5h258q44 0 81 6.5t73 24t62 34t62.5 51t60 59t67.5 72.5q18 21 25 28t18.5 14.5t23.5 7.5z" />
    <glyph glyph-name="edotaccent" unicode="&#x117;" horiz-adv-x="1085" 
d="M563 1210q-58 0 -93.5 30.5t-35.5 82.5q0 47 36.5 81t92.5 34t91.5 -30.5t35.5 -80.5q0 -52 -35.5 -84.5t-91.5 -32.5zM993 268q17 0 29 -13t12 -32q0 -18 -20 -51q-57 -82 -180.5 -140.5t-253.5 -58.5q-141 0 -255.5 61t-184.5 182.5t-70 283.5q0 114 41 214.5
t110 169.5t160.5 108.5t191.5 39.5q121 0 218.5 -56t149.5 -144t52 -187q0 -31 -9.5 -44t-33.5 -21l-655 -195q42 -122 136 -197t216 -75q164 0 293 125q38 30 53 30zM547 913q-123 0 -204 -94.5t-81 -245.5q0 -43 6 -84l473 146q28 8 37.5 19t9.5 38q0 79 -69.5 150
t-171.5 71z" />
    <glyph glyph-name="Eogonek" unicode="&#x118;" horiz-adv-x="1396" 
d="M1327 408q18 0 30.5 -11.5t12.5 -31.5q0 -23 -11.5 -53.5t-45.5 -98.5l-82 -174q-38 -82 -82 -82q-24 0 -53 20t-54 23q-57 -57 -85.5 -110t-28.5 -115q0 -41 16.5 -64.5t44.5 -23.5t60 14q16 12 28 12q15 0 23 -9t8 -23q0 -25 -27 -46q-49 -43 -131 -43q-63 0 -106 42
t-43 112q0 131 135 254h-606q-42 0 -105.5 -3t-74.5 -3q-58 0 -58 43q0 21 14 33.5t34 19t40.5 16.5t34.5 33.5t14 61.5v1046q0 38 -14 62t-34 34t-40.5 17t-34.5 19.5t-14 33.5q0 43 58 43q11 0 74 -3t106 -3h614q31 0 59.5 21.5t49.5 21.5q26 0 45.5 -22t46.5 -78l74 -152
q51 -102 51 -139q0 -20 -12.5 -31.5t-28.5 -11.5q-17 0 -31 10t-39 37q-51 55 -79.5 83.5t-69 63t-73 49.5t-75 26t-92.5 11h-174q-73 0 -108 -10.5t-44.5 -29.5t-9.5 -60v-401q0 -25 12 -35t46 -10h208q44 0 74 24t43 52.5t32 52.5t42 24q43 0 43 -59q0 -23 -3 -73.5
t-3 -76.5q0 -27 3 -78t3 -73q0 -58 -43 -58q-23 0 -42 24t-32 53t-43 53t-74 24h-208q-34 0 -46 -10.5t-12 -34.5v-428q0 -41 11 -60t45 -28.5t106 -9.5h258q44 0 81 6.5t73 24t62 34t62.5 51t60 59t67.5 72.5q18 21 25 28t18.5 14.5t23.5 7.5z" />
    <glyph glyph-name="eogonek" unicode="&#x119;" horiz-adv-x="1085" 
d="M993 268q17 0 29 -13t12 -32q0 -18 -20 -51q-35 -51 -99.5 -94.5t-144.5 -71.5q-61 -61 -91 -114.5t-30 -116.5q0 -41 17 -64.5t45 -23.5q27 0 59 14q16 12 29 12q30 0 30 -32q0 -26 -26 -46q-49 -43 -131 -43q-64 0 -107 42t-43 112q0 118 111 229q-18 -2 -53 -2
q-141 0 -255.5 61t-184.5 182.5t-70 283.5q0 114 41 214.5t110 169.5t160.5 108.5t191.5 39.5q121 0 218.5 -56t149.5 -144t52 -187q0 -31 -9.5 -44t-33.5 -21l-655 -195q42 -122 136 -197t216 -75q164 0 293 125q38 30 53 30zM547 913q-123 0 -204 -94.5t-81 -245.5
q0 -43 6 -84l473 146q28 8 37.5 19t9.5 38q0 79 -69.5 150t-171.5 71z" />
    <glyph glyph-name="Ecaron" unicode="&#x11a;" horiz-adv-x="1396" 
d="M565 1620q-108 136 -170 229q-22 31 -22 52q0 13 13 24.5t32 11.5q37 0 80 -43l170 -186l172 186q40 43 80 43q18 0 30.5 -11.5t12.5 -24.5q0 -17 -21 -52q-27 -39 -170 -229q-23 -29 -43 -39t-61 -10q-40 0 -60 10t-43 39zM1327 408q18 0 30.5 -11.5t12.5 -31.5
q0 -23 -11.5 -53.5t-45.5 -98.5l-82 -174q-38 -82 -82 -82q-23 0 -55 21.5t-68 21.5h-696q-42 0 -105.5 -3t-74.5 -3q-58 0 -58 43q0 21 14 33.5t34 19t40.5 16.5t34.5 33.5t14 61.5v1046q0 38 -14 62t-34 34t-40.5 17t-34.5 19.5t-14 33.5q0 43 58 43q11 0 74 -3t106 -3
h614q31 0 59.5 21.5t49.5 21.5q26 0 45.5 -22t46.5 -78l74 -152q51 -102 51 -139q0 -20 -12.5 -31.5t-28.5 -11.5q-17 0 -31 10t-39 37q-51 55 -79.5 83.5t-69 63t-73 49.5t-75 26t-92.5 11h-174q-73 0 -108 -10.5t-44.5 -29.5t-9.5 -60v-401q0 -25 12 -35t46 -10h208
q44 0 74 24t43 52.5t32 52.5t42 24q43 0 43 -59q0 -23 -3 -73.5t-3 -76.5q0 -27 3 -78t3 -73q0 -58 -43 -58q-23 0 -42 24t-32 53t-43 53t-74 24h-208q-34 0 -46 -10.5t-12 -34.5v-428q0 -41 11 -60t45 -28.5t106 -9.5h258q44 0 81 6.5t73 24t62 34t62.5 51t60 59t67.5 72.5
q18 21 25 28t18.5 14.5t23.5 7.5z" />
    <glyph glyph-name="ecaron" unicode="&#x11b;" horiz-adv-x="1085" 
d="M459 1233q-108 136 -170 229q-23 33 -23 51q0 13 13 25t32 12q37 0 80 -43l170 -186l172 186q40 43 80 43q18 0 30.5 -12t12.5 -25q0 -18 -20 -51q-27 -39 -170 -229q-23 -29 -43.5 -39t-61.5 -10q-40 0 -59.5 10t-42.5 39zM993 268q17 0 29 -13t12 -32q0 -18 -20 -51
q-57 -82 -180.5 -140.5t-253.5 -58.5q-141 0 -255.5 61t-184.5 182.5t-70 283.5q0 114 41 214.5t110 169.5t160.5 108.5t191.5 39.5q121 0 218.5 -56t149.5 -144t52 -187q0 -31 -9.5 -44t-33.5 -21l-655 -195q42 -122 136 -197t216 -75q164 0 293 125q38 30 53 30zM547 913
q-123 0 -204 -94.5t-81 -245.5q0 -43 6 -84l473 146q28 8 37.5 19t9.5 38q0 79 -69.5 150t-171.5 71z" />
    <glyph glyph-name="Gcircumflex" unicode="&#x11c;" horiz-adv-x="1556" 
d="M543 1563q-19 0 -32 11.5t-13 24.5q0 23 22 54q86 118 170 227q23 29 43 39t60 10q41 0 61 -10t41 -39q83 -100 172 -227q20 -33 20 -54q0 -13 -12.5 -24.5t-30.5 -11.5q-39 0 -79 45l-172 186l-172 -186q-40 -45 -78 -45zM1509 674q0 -26 -21 -40.5t-46.5 -21
t-46.5 -32.5t-21 -72v-279q0 -30 7.5 -49.5t16 -27t16 -18t7.5 -25.5q0 -19 -11.5 -31.5t-41.5 -22.5q-262 -84 -479 -84q-237 0 -418 84t-284 249.5t-103 391.5q0 166 55 312.5t147.5 248.5t218 161t263.5 59q81 0 154.5 -11.5t119 -23.5t60.5 -12q18 0 40 26.5t46 26.5
q26 0 46 -28t38 -77l65 -159q12 -29 25.5 -60.5l19.5 -45.5t10.5 -27.5t4.5 -22.5q0 -22 -14.5 -36.5t-34.5 -14.5q-15 0 -29 10.5t-39 38.5q-94 113 -146 159q-152 136 -337 136q-140 0 -252.5 -84.5t-174 -228t-61.5 -316.5q0 -130 38 -241t112.5 -197.5t194.5 -135.5
t274 -49q123 0 183 29.5t60 69.5v305q0 38 -15.5 61.5t-37.5 33t-43.5 16.5t-37 20t-15.5 35q0 41 59 41h371q57 0 57 -41z" />
    <glyph glyph-name="gcircumflex" unicode="&#x11d;" horiz-adv-x="1165" 
d="M307 1180q-19 0 -32 12t-13 25q0 20 23 53q86 118 170 227q23 29 42.5 39t59.5 10q41 0 61 -10t41 -39q83 -100 172 -227q21 -35 21 -53q0 -13 -12.5 -25t-30.5 -12q-40 0 -80 45l-172 186l-172 -186q-40 -45 -78 -45zM1122 1083q-13 0 -47.5 5t-64 6t-65.5 -4.5
t-69 -30.5t-57 -68q100 -41 155.5 -113.5t55.5 -170.5q0 -150 -127.5 -252.5t-351.5 -102.5q-111 0 -209 29q-22 -15 -29.5 -20.5t-22 -18t-19.5 -23t-5 -22.5q0 -47 111 -61q176 -24 454 -48q151 -15 234.5 -80.5t83.5 -173.5q0 -142 -152.5 -233.5t-398.5 -91.5
q-244 0 -394.5 71.5t-150.5 188.5q0 64 44 120t124 93q-59 20 -90 59t-31 90q0 98 146 189q-152 89 -152 252q0 153 129 256.5t352 103.5q74 0 156 -14q49 116 123 176.5t129 60.5q33 0 75.5 -20t76.5 -51q34 -27 34 -60q0 -41 -47 -41zM571 453q117 0 191 63t74 170
q0 110 -80 177t-203 67q-117 0 -190.5 -63.5t-73.5 -168.5q0 -113 79 -179t203 -66zM967 -119q0 110 -207 131q-81 8 -219.5 23.5t-192.5 21.5q-50 -26 -82.5 -70.5t-32.5 -97.5q0 -88 96 -133t277 -45q160 0 260.5 51t100.5 119z" />
    <glyph glyph-name="Gbreve" unicode="&#x11e;" horiz-adv-x="1556" 
d="M793 1573q-182 0 -261 203q-22 61 -22 100q0 21 14 34t33 13q21 0 34.5 -17t32.5 -55q3 -7 5 -10q62 -139 164 -139q98 0 163 139q13 29 20.5 43t20.5 26.5t29 12.5q19 0 33 -13t14 -34q0 -39 -22 -100q-79 -203 -258 -203zM889 -29q-237 0 -418 84t-284 249.5
t-103 391.5q0 166 55 312.5t147.5 248.5t218 161t263.5 59q81 0 154.5 -11.5t119 -23.5t60.5 -12q18 0 40 26.5t46 26.5q26 0 46 -28t38 -77l65 -159q12 -29 25.5 -60.5l19.5 -45.5t10.5 -27.5t4.5 -22.5q0 -22 -14.5 -36.5t-34.5 -14.5q-15 0 -29 10.5t-39 38.5
q-94 113 -146 159q-152 136 -337 136q-140 0 -252.5 -84.5t-174 -228t-61.5 -316.5q0 -130 38 -241t112.5 -197.5t194.5 -135.5t274 -49q123 0 183 29.5t60 69.5v305q0 38 -15.5 61.5t-37.5 33t-43.5 16.5t-37 20t-15.5 35q0 41 59 41h371q57 0 57 -41q0 -26 -21 -40.5
t-46.5 -21t-46.5 -32.5t-21 -72v-279q0 -30 7.5 -49.5t16 -27t16 -18t7.5 -25.5q0 -19 -11.5 -31.5t-41.5 -22.5q-262 -84 -479 -84z" />
    <glyph glyph-name="gbreve" unicode="&#x11f;" horiz-adv-x="1165" 
d="M557 1190q-181 0 -260 203q-23 64 -23 100q0 21 14 34t34 13q5 0 10 -1t9.5 -4t8 -6t8 -9t7 -9.5t7 -11.5t7 -12t7.5 -14.5t7 -14.5q62 -139 164 -139q99 0 164 139q13 29 20.5 43t20.5 26.5t29 12.5q19 0 33 -13t14 -34q0 -36 -23 -100q-79 -203 -258 -203zM1122 1083
q-13 0 -47.5 5t-64 6t-65.5 -4.5t-69 -30.5t-57 -68q100 -41 155.5 -113.5t55.5 -170.5q0 -150 -127.5 -252.5t-351.5 -102.5q-111 0 -209 29q-22 -15 -29.5 -20.5t-22 -18t-19.5 -23t-5 -22.5q0 -47 111 -61q176 -24 454 -48q151 -15 234.5 -80.5t83.5 -173.5
q0 -142 -152.5 -233.5t-398.5 -91.5q-244 0 -394.5 71.5t-150.5 188.5q0 64 44 120t124 93q-59 20 -90 59t-31 90q0 98 146 189q-152 89 -152 252q0 153 129 256.5t352 103.5q74 0 156 -14q49 116 123 176.5t129 60.5q33 0 75.5 -20t76.5 -51q34 -27 34 -60q0 -41 -47 -41z
M571 453q117 0 191 63t74 170q0 110 -80 177t-203 67q-117 0 -190.5 -63.5t-73.5 -168.5q0 -113 79 -179t203 -66zM967 -119q0 110 -207 131q-81 8 -219.5 23.5t-192.5 21.5q-50 -26 -82.5 -70.5t-32.5 -97.5q0 -88 96 -133t277 -45q160 0 260.5 51t100.5 119z" />
    <glyph glyph-name="Gdotaccent" unicode="&#x120;" horiz-adv-x="1556" 
d="M793 1597q-58 0 -93.5 30.5t-35.5 82.5q0 47 36.5 81t92.5 34t91.5 -30.5t35.5 -80.5q0 -52 -35.5 -84.5t-91.5 -32.5zM889 -29q-237 0 -418 84t-284 249.5t-103 391.5q0 166 55 312.5t147.5 248.5t218 161t263.5 59q81 0 154.5 -11.5t119 -23.5t60.5 -12q18 0 40 26.5
t46 26.5q26 0 46 -28t38 -77l65 -159q12 -29 25.5 -60.5l19.5 -45.5t10.5 -27.5t4.5 -22.5q0 -22 -14.5 -36.5t-34.5 -14.5q-15 0 -29 10.5t-39 38.5q-94 113 -146 159q-152 136 -337 136q-140 0 -252.5 -84.5t-174 -228t-61.5 -316.5q0 -130 38 -241t112.5 -197.5
t194.5 -135.5t274 -49q123 0 183 29.5t60 69.5v305q0 38 -15.5 61.5t-37.5 33t-43.5 16.5t-37 20t-15.5 35q0 41 59 41h371q57 0 57 -41q0 -26 -21 -40.5t-46.5 -21t-46.5 -32.5t-21 -72v-279q0 -30 7.5 -49.5t16 -27t16 -18t7.5 -25.5q0 -19 -11.5 -31.5t-41.5 -22.5
q-262 -84 -479 -84z" />
    <glyph glyph-name="gdotaccent" unicode="&#x121;" horiz-adv-x="1165" 
d="M557 1214q-58 0 -93.5 30.5t-35.5 82.5q0 47 36.5 81t92.5 34t91.5 -30.5t35.5 -80.5q0 -52 -35.5 -84.5t-91.5 -32.5zM1122 1083q-13 0 -47.5 5t-64 6t-65.5 -4.5t-69 -30.5t-57 -68q100 -41 155.5 -113.5t55.5 -170.5q0 -150 -127.5 -252.5t-351.5 -102.5
q-111 0 -209 29q-22 -15 -29.5 -20.5t-22 -18t-19.5 -23t-5 -22.5q0 -47 111 -61q176 -24 454 -48q151 -15 234.5 -80.5t83.5 -173.5q0 -142 -152.5 -233.5t-398.5 -91.5q-244 0 -394.5 71.5t-150.5 188.5q0 64 44 120t124 93q-59 20 -90 59t-31 90q0 98 146 189
q-152 89 -152 252q0 153 129 256.5t352 103.5q74 0 156 -14q49 116 123 176.5t129 60.5q33 0 75.5 -20t76.5 -51q34 -27 34 -60q0 -41 -47 -41zM571 453q117 0 191 63t74 170q0 110 -80 177t-203 67q-117 0 -190.5 -63.5t-73.5 -168.5q0 -113 79 -179t203 -66zM967 -119
q0 110 -207 131q-81 8 -219.5 23.5t-192.5 21.5q-50 -26 -82.5 -70.5t-32.5 -97.5q0 -88 96 -133t277 -45q160 0 260.5 51t100.5 119z" />
    <glyph glyph-name="uni0122" unicode="&#x122;" horiz-adv-x="1556" 
d="M889 -29q-237 0 -418 84t-284 249.5t-103 391.5q0 166 55 312.5t147.5 248.5t218 161t263.5 59q81 0 154.5 -11.5t119 -23.5t60.5 -12q18 0 40 26.5t46 26.5q26 0 46 -28t38 -77l65 -159q12 -29 25.5 -60.5l19.5 -45.5t10.5 -27.5t4.5 -22.5q0 -22 -14.5 -36.5
t-34.5 -14.5q-15 0 -29 10.5t-39 38.5q-94 113 -146 159q-152 136 -337 136q-140 0 -252.5 -84.5t-174 -228t-61.5 -316.5q0 -130 38 -241t112.5 -197.5t194.5 -135.5t274 -49q123 0 183 29.5t60 69.5v305q0 38 -15.5 61.5t-37.5 33t-43.5 16.5t-37 20t-15.5 35q0 41 59 41
h371q57 0 57 -41q0 -26 -21 -40.5t-46.5 -21t-46.5 -32.5t-21 -72v-279q0 -30 7.5 -49.5t16 -27t16 -18t7.5 -25.5q0 -19 -11.5 -31.5t-41.5 -22.5q-262 -84 -479 -84zM731 -489q-16 0 -26.5 8.5t-10.5 23.5q0 19 29 41q76 61 76 105q0 21 -43 43q-30 15 -46 33t-16 51
q0 42 36.5 71t88.5 29q121 0 121 -121q0 -69 -39 -137.5t-87.5 -107.5t-82.5 -39z" />
    <glyph glyph-name="uni0123" unicode="&#x123;" horiz-adv-x="1165" 
d="M553 1085q-117 0 -117 113q0 66 37.5 131.5t83.5 103t78 37.5q14 0 24.5 -8.5t10.5 -21.5q0 -17 -27 -41q-72 -56 -72 -99q0 -20 41 -40q58 -28 58 -78q0 -41 -34.5 -69t-82.5 -28zM1122 1083q-13 0 -47.5 5t-64 6t-65.5 -4.5t-69 -30.5t-57 -68q100 -41 155.5 -113.5
t55.5 -170.5q0 -150 -127.5 -252.5t-351.5 -102.5q-111 0 -209 29q-22 -15 -29.5 -20.5t-22 -18t-19.5 -23t-5 -22.5q0 -47 111 -61q176 -24 454 -48q151 -15 234.5 -80.5t83.5 -173.5q0 -142 -152.5 -233.5t-398.5 -91.5q-244 0 -394.5 71.5t-150.5 188.5q0 64 44 120
t124 93q-59 20 -90 59t-31 90q0 98 146 189q-152 89 -152 252q0 153 129 256.5t352 103.5q74 0 156 -14q49 116 123 176.5t129 60.5q33 0 75.5 -20t76.5 -51q34 -27 34 -60q0 -41 -47 -41zM571 453q117 0 191 63t74 170q0 110 -80 177t-203 67q-117 0 -190.5 -63.5
t-73.5 -168.5q0 -113 79 -179t203 -66zM967 -119q0 110 -207 131q-81 8 -219.5 23.5t-192.5 21.5q-50 -26 -82.5 -70.5t-32.5 -97.5q0 -88 96 -133t277 -45q160 0 260.5 51t100.5 119z" />
    <glyph glyph-name="Hcircumflex" unicode="&#x124;" horiz-adv-x="1654" 
d="M575 1563q-19 0 -32 11.5t-13 24.5q0 21 23 54q86 118 170 227q23 29 42.5 39t59.5 10q41 0 61.5 -10t41.5 -39q83 -100 172 -227q20 -33 20 -54q0 -13 -12.5 -24.5t-30.5 -11.5q-40 0 -80 45l-172 186l-172 -186q-40 -45 -78 -45zM1425 1245v-1042q0 -46 21.5 -72
t47.5 -32.5t47.5 -21t21.5 -40.5q0 -41 -52 -41q-20 0 -82.5 3t-105.5 3t-105.5 -3t-80.5 -3q-52 0 -52 41q0 26 21.5 40.5t46.5 21t46.5 32.5t21.5 72v434q0 24 -11.5 34.5t-44.5 10.5h-673q-34 0 -46 -10.5t-12 -34.5v-434q0 -46 21 -72t46.5 -32.5t46.5 -21t21 -40.5
q0 -41 -51 -41q-18 0 -81.5 3t-106.5 3t-105 -3t-82 -3q-25 0 -38 11.5t-13 29.5q0 26 21.5 40.5t47 21t47 32.5t21.5 72v1042q0 38 -14 62t-34 34t-40.5 17.5t-34.5 20t-14 34.5q0 17 13.5 29t39.5 12q20 0 81 -3t104 -3t106.5 3t81.5 3q26 0 38.5 -12t12.5 -29
q0 -22 -14 -34.5t-33.5 -20t-39.5 -17.5t-34 -34t-14 -62v-407q0 -25 12 -35t46 -10h673q33 0 44.5 10t11.5 35v407q0 46 -21.5 72.5t-46.5 33t-46.5 21.5t-21.5 41q0 17 13 29t39 12q18 0 80.5 -3t105.5 -3t105.5 3t82.5 3q26 0 39 -12t13 -29q0 -22 -14 -34.5t-34.5 -20
t-41 -17.5t-34.5 -34t-14 -62z" />
    <glyph glyph-name="hcircumflex" unicode="&#x125;" horiz-adv-x="1226" 
d="M264 1821l-172 -187q-40 -45 -78 -45q-19 0 -32 12t-13 25q0 20 23 53q96 133 170 228q23 29 42.5 39t59.5 10q42 0 62 -10t41 -39q78 -94 172 -228q20 -33 20 -53q0 -13 -12.5 -25t-30.5 -12q-40 0 -80 45zM1026 621l51 -379q6 -45 20.5 -76.5t30.5 -45t34 -23.5t32 -15
t23.5 -16.5t9.5 -30.5q0 -39 -56 -39q-24 0 -79 3t-99 3q-47 0 -99.5 -3t-76.5 -3q-27 0 -43 12t-16 31q0 20 14 31.5t34 17.5t40.5 14.5t34.5 29.5t14 56q0 22 -4 54l-49 352q-6 39 -13 70.5t-23.5 72.5t-38 68.5t-58 47t-82.5 19.5q-47 0 -92 -19.5t-82 -56t-59.5 -97.5
t-22.5 -136v-342q0 -39 9.5 -66t24.5 -38.5t31.5 -20.5t31.5 -13.5t24.5 -16t9.5 -29.5q0 -16 -11 -28.5t-32 -12.5q-19 0 -79 3t-101 3q-39 0 -97.5 -3t-77.5 -3q-23 0 -35 12.5t-12 28.5q0 18 9.5 29.5t24 16t31 13.5t31 20.5t24 38.5t9.5 66v1020q0 35 -15 54t-36 25
t-42.5 9.5t-36.5 14t-15 32.5q0 25 30.5 47.5t112.5 61.5q116 57 148 57q39 0 39 -53v-662q125 201 327 201q71 0 127 -27t89 -66.5t57.5 -98.5t35.5 -107t19 -108z" />
    <glyph glyph-name="Hbar" unicode="&#x126;" horiz-adv-x="1665" 
d="M1565 1014h-133v-811q0 -46 21 -72t46.5 -32.5t46.5 -21t21 -40.5q0 -41 -49 -41q-20 0 -83 3t-106 3t-105.5 -3t-82.5 -3q-49 0 -49 41q0 26 21 40.5t46.5 21t46.5 32.5t21 72v434q0 24 -12 34.5t-46 10.5h-673q-33 0 -44.5 -10.5t-11.5 -34.5v-434q0 -46 21 -72
t46.5 -32.5t46.5 -21t21 -40.5q0 -41 -51 -41q-20 0 -82.5 3t-105.5 3t-104.5 -3t-81.5 -3q-52 0 -52 41q0 26 21.5 40.5t47.5 21t47.5 32.5t21.5 72v811h-136q-61 0 -61 53q0 55 61 55h136v123q0 38 -14 62t-34.5 34t-41 17.5t-34.5 20t-14 34.5q0 17 14 29t40 12
q20 0 80.5 -3t103.5 -3t105.5 3t82.5 3q26 0 38.5 -12t12.5 -29q0 -22 -14 -34.5t-33.5 -20t-39.5 -17.5t-34 -34t-14 -62v-125h787v125q0 38 -14 62t-33.5 34t-39.5 17.5t-34 20t-14 34.5q0 17 12.5 29t36.5 12q20 0 82.5 -3t105.5 -3t106 3t83 3q24 0 36.5 -12t12.5 -29
q0 -22 -14 -34.5t-33.5 -20t-39.5 -17.5t-34 -34t-14 -62v-123h133q63 0 63 -55q0 -53 -63 -53zM496 793h673q34 0 46 10t12 35v178h-787v-178q0 -25 11.5 -35t44.5 -10z" />
    <glyph glyph-name="hbar" unicode="&#x127;" horiz-adv-x="1226" 
d="M1026 616l51 -376q7 -53 25.5 -86.5t39 -46t40 -20t32.5 -19t13 -33.5q0 -39 -56 -39q-24 0 -79 3t-99 3q-47 0 -99.5 -3t-76.5 -3q-59 0 -59 43q0 20 14 31t34 17t40.5 14.5t34.5 29.5t14 55q0 22 -4 54l-49 350q-42 276 -215 276q-47 0 -92 -19t-82 -55.5t-59.5 -97
t-22.5 -135.5v-338q0 -39 9.5 -66t24.5 -38.5t31.5 -20.5t31.5 -13.5t24.5 -16t9.5 -29.5q0 -16 -11 -28.5t-32 -12.5q-19 0 -79 3t-101 3q-39 0 -97.5 -3t-77.5 -3q-23 0 -35 12.5t-12 28.5q0 18 9.5 29.5t24 16t31 13.5t31 20.5t24 38.5t9.5 66v912h-137q-61 0 -61 49
q0 51 61 51h137v8q0 35 -15 54t-36 25t-42.5 9.5t-36.5 14t-15 32.5q0 25 30.5 47.5t112.5 61.5q116 57 148 57q39 0 39 -53v-256h319q62 0 62 -51q0 -49 -62 -49h-319v-312q124 199 327 199q71 0 127 -27t89 -66t57.5 -98t35.5 -106.5t19 -106.5z" />
    <glyph glyph-name="Itilde" unicode="&#x128;" horiz-adv-x="663" 
d="M451 1591q-37 0 -80.5 24.5t-75.5 54.5t-63.5 54.5t-47.5 24.5q-31 0 -69 -72q-2 -4 -7.5 -15.5t-8 -15t-7 -11.5t-8 -11t-9 -7t-11.5 -5.5t-13 -1.5q-41 0 -41 43q0 23 13 61q24 65 67 113.5t98 48.5q36 0 78 -25t72.5 -55t63 -55t51.5 -25q30 0 71 74q5 8 14.5 25.5
t14 23.5t14 12.5t21.5 6.5q41 0 41 -41q0 -29 -13 -64q-23 -67 -66.5 -114.5t-98.5 -47.5zM143 -4q-25 0 -38 11.5t-13 29.5q0 26 21.5 40.5t47 21t47 32.5t21.5 72v1042q0 38 -14 62t-34 34t-40.5 17.5t-34.5 20t-14 34.5q0 17 13.5 29t39.5 12q20 0 81 -3t104 -3t106.5 3
t81.5 3q26 0 38.5 -12t12.5 -29q0 -22 -14 -34.5t-33.5 -20t-39.5 -17.5t-34 -34t-14 -62v-1042q0 -46 21 -72t46.5 -32.5t46.5 -21t21 -40.5q0 -41 -51 -41q-18 0 -81.5 3t-106.5 3t-105 -3t-82 -3z" />
    <glyph glyph-name="itilde" unicode="&#x129;" horiz-adv-x="577" 
d="M412 1208q-37 0 -80.5 24.5t-75.5 54.5t-63.5 54.5t-47.5 24.5q-31 0 -69 -72q-2 -4 -7.5 -15.5t-8 -15t-7 -11.5t-8 -11t-9 -7t-11.5 -5.5t-13 -1.5q-41 0 -41 43q0 23 13 61q24 65 67.5 113.5t98.5 48.5q36 0 77.5 -25t72 -55t63 -55t51.5 -25q30 0 71 74
q5 8 14.5 25.5t14 23.5t14 12.5t21.5 6.5q41 0 41 -41q0 -32 -12 -64q-22 -66 -66.5 -114t-99.5 -48zM127 -4q-24 0 -36.5 12.5t-12.5 28.5q0 21 13.5 32.5t32 18.5t37.5 18t32.5 40t13.5 75v498q0 35 -15 54t-36.5 25t-43 9.5t-36.5 14t-15 32.5q0 24 31 46.5t113 62.5
q116 57 143 57q43 0 43 -74v-725q0 -39 10 -66t24.5 -38.5t32 -20.5t32 -13.5t24.5 -16t10 -29.5q0 -15 -12 -28t-33 -13q-19 0 -79 3t-101 3q-40 0 -97 -3t-75 -3z" />
    <glyph glyph-name="Imacron" unicode="&#x12a;" horiz-adv-x="663" 
d="M82 1667q-30 0 -42.5 15t-12.5 47q0 33 12.5 48t42.5 15l235 -2q27 0 124 1t112 1q30 0 42.5 -15t12.5 -48q0 -32 -12.5 -47t-42.5 -15l-236 2q-27 0 -124 -1t-111 -1zM143 -4q-25 0 -38 11.5t-13 29.5q0 26 21.5 40.5t47 21t47 32.5t21.5 72v1042q0 38 -14 62t-34 34
t-40.5 17.5t-34.5 20t-14 34.5q0 17 13.5 29t39.5 12q20 0 81 -3t104 -3t106.5 3t81.5 3q26 0 38.5 -12t12.5 -29q0 -22 -14 -34.5t-33.5 -20t-39.5 -17.5t-34 -34t-14 -62v-1042q0 -46 21 -72t46.5 -32.5t46.5 -21t21 -40.5q0 -41 -51 -41q-18 0 -81.5 3t-106.5 3t-105 -3
t-82 -3z" />
    <glyph glyph-name="imacron" unicode="&#x12b;" horiz-adv-x="577" 
d="M43 1284q-30 0 -42.5 15t-12.5 47q0 33 12.5 48t42.5 15l236 -2q27 0 124 1t111 1q30 0 42.5 -15t12.5 -48q0 -32 -12.5 -47t-42.5 -15l-235 2q-27 0 -124.5 -1t-111.5 -1zM127 -4q-24 0 -36.5 12.5t-12.5 28.5q0 21 13.5 32.5t32 18.5t37.5 18t32.5 40t13.5 75v498
q0 35 -15 54t-36.5 25t-43 9.5t-36.5 14t-15 32.5q0 24 31 46.5t113 62.5q116 57 143 57q43 0 43 -74v-725q0 -39 10 -66t24.5 -38.5t32 -20.5t32 -13.5t24.5 -16t10 -29.5q0 -15 -12 -28t-33 -13q-19 0 -79 3t-101 3q-40 0 -97 -3t-75 -3z" />
    <glyph glyph-name="Ibreve" unicode="&#x12c;" horiz-adv-x="663" 
d="M319 1573q-181 0 -260 203q-22 61 -22 100q0 21 14 34t33 13q21 0 34.5 -17t32.5 -55q3 -7 5 -10q62 -139 163 -139q99 0 164 139q13 29 20.5 43t20.5 26.5t29 12.5q19 0 33 -13t14 -34q0 -39 -22 -100q-79 -203 -259 -203zM143 -4q-25 0 -38 11.5t-13 29.5
q0 26 21.5 40.5t47 21t47 32.5t21.5 72v1042q0 38 -14 62t-34 34t-40.5 17.5t-34.5 20t-14 34.5q0 17 13.5 29t39.5 12q20 0 81 -3t104 -3t106.5 3t81.5 3q26 0 38.5 -12t12.5 -29q0 -22 -14 -34.5t-33.5 -20t-39.5 -17.5t-34 -34t-14 -62v-1042q0 -46 21 -72t46.5 -32.5
t46.5 -21t21 -40.5q0 -41 -51 -41q-18 0 -81.5 3t-106.5 3t-105 -3t-82 -3z" />
    <glyph glyph-name="ibreve" unicode="&#x12d;" horiz-adv-x="577" 
d="M281 1190q-182 0 -261 203q-22 61 -22 100q0 21 14 34t33 13q21 0 34.5 -17t32.5 -55q3 -7 5 -10q62 -139 164 -139q98 0 163 139q13 29 20.5 43t20.5 26.5t29 12.5q19 0 33 -13t14 -34q0 -39 -22 -100q-79 -203 -258 -203zM127 -4q-24 0 -36.5 12.5t-12.5 28.5
q0 21 13.5 32.5t32 18.5t37.5 18t32.5 40t13.5 75v498q0 35 -15 54t-36.5 25t-43 9.5t-36.5 14t-15 32.5q0 24 31 46.5t113 62.5q116 57 143 57q43 0 43 -74v-725q0 -39 10 -66t24.5 -38.5t32 -20.5t32 -13.5t24.5 -16t10 -29.5q0 -15 -12 -28t-33 -13q-19 0 -79 3t-101 3
q-40 0 -97 -3t-75 -3z" />
    <glyph glyph-name="Iogonek" unicode="&#x12e;" horiz-adv-x="663" 
d="M434 1245v-1042q0 -46 21 -72t46.5 -32.5t46.5 -21t21 -40.5q0 -41 -51 -41q-25 0 -123 4q-57 -56 -85.5 -109t-28.5 -116q0 -41 16.5 -64.5t44.5 -23.5q27 0 59 14q16 12 29 12q15 0 23 -9t8 -23q0 -25 -27 -46q-49 -43 -131 -43q-63 0 -106 42t-43 112q0 131 137 256
q-22 -1 -74 -3.5t-74 -2.5q-25 0 -38 11.5t-13 29.5q0 26 21.5 40.5t47 21t47 32.5t21.5 72v1042q0 38 -14 62t-34 34t-40.5 17.5t-34.5 20t-14 34.5q0 17 13.5 29t39.5 12q20 0 81 -3t104 -3t106.5 3t81.5 3q26 0 38.5 -12t12.5 -29q0 -22 -14 -34.5t-33.5 -20t-39.5 -17.5
t-34 -34t-14 -62z" />
    <glyph glyph-name="iogonek" unicode="&#x12f;" horiz-adv-x="577" 
d="M242 1241q-44 0 -76.5 28.5t-32.5 76.5q0 61 53 112t127 51q48 0 81.5 -28t33.5 -76q0 -61 -56 -112.5t-130 -51.5zM391 946v-725q0 -39 10 -66t24.5 -38.5t32 -20.5t32 -13.5t24.5 -16t10 -29.5q0 -15 -12 -28t-33 -13q-20 0 -98 4q-58 -58 -86.5 -111t-28.5 -114
q0 -41 17 -64.5t45 -23.5q24 0 59 14q16 12 29 12t21.5 -9t8.5 -23q0 -26 -26 -46q-49 -43 -131 -43q-64 0 -107 42t-43 112q0 131 137 256q-24 -1 -75.5 -3.5t-73.5 -2.5q-24 0 -36.5 12.5t-12.5 28.5q0 21 13.5 32.5t32 18.5t37.5 18t32.5 40t13.5 75v498q0 35 -15 54
t-36.5 25t-43 9.5t-36.5 14t-15 32.5q0 24 31 46.5t113 62.5q116 57 143 57q43 0 43 -74z" />
    <glyph glyph-name="Idotaccent" unicode="&#x130;" horiz-adv-x="663" 
d="M319 1597q-58 0 -93.5 30.5t-35.5 82.5q0 47 36.5 81t92.5 34t91.5 -30.5t35.5 -80.5q0 -52 -35.5 -84.5t-91.5 -32.5zM143 -4q-25 0 -38 11.5t-13 29.5q0 26 21.5 40.5t47 21t47 32.5t21.5 72v1042q0 38 -14 62t-34 34t-40.5 17.5t-34.5 20t-14 34.5q0 17 13.5 29
t39.5 12q20 0 81 -3t104 -3t106.5 3t81.5 3q26 0 38.5 -12t12.5 -29q0 -22 -14 -34.5t-33.5 -20t-39.5 -17.5t-34 -34t-14 -62v-1042q0 -46 21 -72t46.5 -32.5t46.5 -21t21 -40.5q0 -41 -51 -41q-18 0 -81.5 3t-106.5 3t-105 -3t-82 -3z" />
    <glyph glyph-name="dotlessi" unicode="&#x131;" horiz-adv-x="577" 
d="M127 -4q-24 0 -36.5 12.5t-12.5 28.5q0 21 13.5 32.5t32 18.5t37.5 18t32.5 40t13.5 75v498q0 35 -15 54t-36.5 25t-43 9.5t-36.5 14t-15 32.5q0 24 31 46.5t113 62.5q116 57 143 57q43 0 43 -74v-725q0 -39 10 -66t24.5 -38.5t32 -20.5t32 -13.5t24.5 -16t10 -29.5
q0 -15 -12 -28t-33 -13q-19 0 -79 3t-101 3q-40 0 -97 -3t-75 -3z" />
    <glyph glyph-name="IJ" unicode="&#x132;" horiz-adv-x="1658" 
d="M143 -4q-25 0 -38 11.5t-13 29.5q0 26 21.5 40.5t47 21t47 32.5t21.5 72v1042q0 38 -14 62t-34 34t-40.5 17.5t-34.5 20t-14 34.5q0 17 13.5 29t39.5 12q20 0 81 -3t104 -3t106.5 3t81.5 3q26 0 38.5 -12t12.5 -29q0 -22 -14 -34.5t-33.5 -20t-39.5 -17.5t-34 -34
t-14 -62v-1042q0 -46 21 -72t46.5 -32.5t46.5 -21t21 -40.5q0 -41 -51 -41q-18 0 -81.5 3t-106.5 3t-105 -3t-82 -3zM1055 -27q-93 0 -178 22t-139 63t-54 89q0 70 57 238q7 24 22.5 38.5t33.5 14.5q43 0 49 -55q13 -159 63.5 -228t145.5 -69q92 0 146 62t54 165l-2 932
q0 38 -15.5 61.5t-37.5 33t-44.5 16.5t-38 20.5t-15.5 36.5q0 17 13 29t38 12q21 0 88.5 -3t114.5 -3q43 0 105.5 3t82.5 3q26 0 38.5 -12t12.5 -29q0 -22 -14 -34.5t-34.5 -20t-40.5 -17.5t-34 -34t-14 -62l2 -909q0 -182 -111.5 -272.5t-293.5 -90.5z" />
    <glyph glyph-name="ij" unicode="&#x133;" horiz-adv-x="1105" 
d="M242 1241q-44 0 -76.5 28.5t-32.5 76.5q0 61 53 112t127 51q48 0 81.5 -28t33.5 -76q0 -61 -56 -112.5t-130 -51.5zM805 1241q-46 0 -78.5 28t-32.5 77q0 61 53 112t127 51q48 0 81.5 -28t33.5 -76q0 -61 -55 -112.5t-129 -51.5zM772 -199q0 23 -1 77.5t-1 86.5v756
q0 35 -15 55t-36 25.5t-42.5 9.5t-36.5 14.5t-15 32.5q0 25 30.5 47.5t112.5 61.5q117 55 143 55q43 0 43 -72v-997q0 -164 -93 -254t-224 -90q-62 0 -84.5 25t-22.5 83q-2 69 14 114.5t48 45.5q14 0 22.5 -9.5t18.5 -31.5q28 -57 49 -78.5t47 -21.5q43 0 43 65zM127 -4
q-24 0 -36.5 12.5t-12.5 28.5q0 21 13.5 32.5t32 18.5t37.5 18t32.5 40t13.5 75v498q0 35 -15 54t-36.5 25t-43 9.5t-36.5 14t-15 32.5q0 24 31 46.5t113 62.5q116 57 143 57q43 0 43 -74v-725q0 -39 10 -66t24.5 -38.5t32 -20.5t32 -13.5t24.5 -16t10 -29.5q0 -15 -12 -28
t-33 -13q-19 0 -79 3t-101 3q-40 0 -97 -3t-75 -3z" />
    <glyph glyph-name="Jcircumflex" unicode="&#x134;" horiz-adv-x="997" 
d="M956 1653q21 -35 21 -54q0 -13 -12.5 -24.5t-30.5 -11.5q-40 0 -80 45l-172 186l-172 -186q-40 -45 -78 -45q-19 0 -32 11.5t-13 24.5q0 21 23 54q86 118 170 227q23 29 42.5 39t59.5 10q41 0 61 -10t41 -39q83 -100 172 -227zM881 1454q26 0 38.5 -12t12.5 -29
q0 -22 -14 -34.5t-34 -20t-40.5 -17.5t-34.5 -34t-14 -62l2 -909q0 -182 -112 -272.5t-294 -90.5q-93 0 -178 22t-139 63t-54 89q0 67 58 238q7 24 22.5 38.5t32.5 14.5q43 0 49 -55q13 -159 63.5 -228t145.5 -69q92 0 146.5 62t54.5 165l-2 932q0 38 -15.5 61.5t-38 33
t-45 16.5t-38 20.5t-15.5 36.5q0 17 13 29t38 12q21 0 88.5 -3t114.5 -3q43 0 106 3t83 3z" />
    <glyph glyph-name="jcircumflex" unicode="&#x135;" horiz-adv-x="528" 
d="M535 1270q20 -33 20 -53q0 -13 -12.5 -25t-30.5 -12q-40 0 -80 45l-172 186l-172 -186q-40 -45 -78 -45q-19 0 -32 12t-13 25q0 20 23 53q86 118 170 227q23 29 42.5 39t59.5 10q41 0 61 -10t41 -39q89 -109 173 -227zM334 1022q43 0 43 -72v-997q0 -84 -26.5 -151
t-72 -108t-101.5 -63t-118 -22t-84 25t-22 83q-2 69 13.5 114.5t47.5 45.5q14 0 22.5 -9.5t18.5 -31.5q27 -56 48.5 -78t48.5 -22q43 0 43 65q0 23 -1 77.5t-1 86.5v756q0 35 -15 55t-36.5 25.5t-43 9.5t-36.5 14.5t-15 32.5q0 25 30.5 47.5t112.5 61.5q117 55 144 55z" />
    <glyph glyph-name="uni0136" unicode="&#x136;" horiz-adv-x="1464" 
d="M813 922l490 -740q23 -34 56 -56t57.5 -29.5t42.5 -22.5t18 -39q0 -17 -12.5 -28t-34.5 -11q-10 0 -84 3t-119 3q-42 0 -116.5 -3t-96.5 -3q-62 0 -62 43q0 23 19 37.5t41.5 20.5t41.5 21t19 38q0 22 -22 61l-379 576l-238 -218v-372q0 -46 21 -72t46.5 -32.5t46.5 -21
t21 -40.5q0 -41 -51 -41q-18 0 -81.5 3t-106.5 3t-105 -3t-82 -3q-25 0 -38 11.5t-13 29.5q0 26 21.5 40.5t47 21t47 32.5t21.5 72v1042q0 38 -14 62t-34 34t-40.5 17.5t-34.5 20t-14 34.5q0 17 13.5 29t39.5 12q20 0 81 -3t104 -3t106.5 3t81.5 3q26 0 38.5 -12t12.5 -29
q0 -22 -14 -34.5t-33.5 -20t-39.5 -17.5t-34 -34t-14 -62v-508l545 498q4 4 14 13t13 12.5t10.5 10.5t9.5 11t6 10.5t5 12t1 12.5q0 18 -14.5 28.5t-32.5 14.5t-32.5 15.5t-14.5 31.5q0 45 62 45q26 0 87 -3t93 -3q35 0 105 3t83 3q45 0 45 -41q0 -25 -21 -39.5t-49.5 -21
t-68 -23t-66.5 -41.5zM762 -84q121 0 121 -121q0 -69 -39 -137.5t-87.5 -107.5t-82.5 -39q-16 0 -26.5 8.5t-10.5 23.5q0 19 29 41q75 60 75 105q0 21 -43 43q-29 15 -45 33t-16 51q0 42 36.5 71t88.5 29z" />
    <glyph glyph-name="uni0137" unicode="&#x137;" horiz-adv-x="1198" 
d="M731 670l346 -523q16 -24 42 -40.5t46.5 -22.5t36 -18t15.5 -31q0 -39 -50 -39q-22 0 -84.5 3t-109.5 3q-43 0 -99.5 -3t-74.5 -3q-54 0 -54 41q0 22 16 34.5t35.5 17.5t35.5 19t16 39q0 20 -27 66l-223 346l-227 -190v-148q0 -39 9.5 -66t24.5 -38.5t31.5 -20.5
t31.5 -13.5t24.5 -16t9.5 -29.5q0 -16 -11 -28.5t-32 -12.5q-19 0 -79 3t-101 3q-39 0 -97.5 -3t-77.5 -3q-23 0 -35 12.5t-12 28.5q0 18 9.5 29.5t24 16t31 13.5t31 20.5t24 38.5t9.5 66v1020q0 35 -15 54t-36 25t-42.5 9.5t-36.5 14t-15 32.5q0 25 30.5 47.5t112.5 61.5
q116 57 148 57q39 0 39 -53v-991l350 303q22 19 30.5 27.5t17.5 23t9 29.5q0 17 -14 27t-31 13.5t-31 15.5t-14 32q0 41 53 41q19 0 76.5 -3t85.5 -3t97.5 3t93.5 3q22 0 35.5 -10.5t13.5 -28.5q0 -29 -29 -43t-82 -32t-88 -48zM635 -84q121 0 121 -121q0 -69 -39 -137.5
t-87.5 -107.5t-82.5 -39q-16 0 -26.5 8.5t-10.5 23.5q0 19 29 41q75 60 75 105q0 21 -43 43q-29 15 -45 33t-16 51q0 42 36.5 71t88.5 29z" />
    <glyph glyph-name="kgreenlandic" unicode="&#x138;" horiz-adv-x="1218" 
d="M752 670l346 -525q16 -24 42 -40.5t46.5 -22.5t35.5 -18t15 -31q0 -39 -47 -39q-22 0 -85 3t-110 3q-45 0 -101 -3t-73 -3q-53 0 -53 41q0 22 15.5 34.5t34.5 17.5t34.5 19t15.5 39q0 23 -24 62l-223 352l-230 -192v-148q0 -39 10 -66t24.5 -38.5t32 -20.5t32 -13.5
t24.5 -16t10 -29.5q0 -15 -12 -28t-33 -13q-19 0 -79 3t-101 3q-40 0 -97 -3t-75 -3q-24 0 -36.5 12.5t-12.5 28.5q0 21 13.5 32.5t32 18.5t37.5 18t32.5 40t13.5 75v502q0 35 -15 55t-36.5 25.5t-43 9.5t-36.5 14.5t-15 32.5q0 24 30 45.5t114 61.5q116 57 143 57
q43 0 43 -72v-452l354 307q44 39 52 55q6 11 6 23q0 18 -14 28t-31 13.5t-31 15t-14 31.5q0 43 53 43q19 0 76.5 -3t85.5 -3t97 3t93 3q49 0 49 -41q0 -22 -19.5 -35.5t-46 -20.5t-65 -24t-67.5 -41z" />
    <glyph glyph-name="Lacute" unicode="&#x139;" horiz-adv-x="1296" 
d="M356 1546q-17 0 -29 7.5t-12 19.5q0 15 19 51q66 119 160 260q18 24 36 32.5t56 8.5q53 0 71.5 -7t18.5 -30q0 -28 -64 -98q-2 -2 -76 -86.5t-102 -114.5q-24 -27 -41 -35t-37 -8zM1073 -43q-23 0 -56 21.5t-69 21.5h-618q-42 0 -105.5 -3t-74.5 -3q-58 0 -58 43
q0 21 14 33.5t34 19t40.5 16.5t34.5 33.5t14 61.5v1044q0 38 -14 62t-34 34t-40.5 17.5t-34.5 20t-14 34.5q0 17 13.5 29t39.5 12q20 0 81 -3t104 -3t106.5 3t81.5 3q26 0 38.5 -12t12.5 -29q0 -22 -14 -34.5t-33.5 -20t-39.5 -17.5t-34 -34t-14 -62v-1057q0 -41 19 -59
t61 -18h254q41 0 77.5 7t74 27t63 35.5t67 54t63.5 59.5t73 73q36 39 50 45q9 4 19 4q18 0 30.5 -11.5t12.5 -31.5q0 -22 -11.5 -52.5t-45.5 -103.5l-86 -176q-21 -43 -39.5 -63.5t-42.5 -20.5z" />
    <glyph glyph-name="lacute" unicode="&#x13a;" horiz-adv-x="557" 
d="M207 1612q-18 0 -29.5 7t-11.5 19q0 18 18 52q66 119 160 260q18 24 36 32.5t56 8.5q53 0 71.5 -7t18.5 -30q0 -30 -63 -99q-9 -11 -47 -54t-74 -83t-57 -63q-24 -27 -41 -35t-37 -8zM104 -4q-23 0 -35 12.5t-12 28.5q0 18 9.5 29.5t24 16t31 13.5t31 20.5t24 38.5
t9.5 66v1020q0 35 -15 54t-36 25t-42.5 9.5t-36.5 14t-15 32.5q0 25 30.5 47.5t112.5 61.5q116 57 144 57q43 0 43 -74v-1247q0 -39 9.5 -66t24.5 -38.5t31.5 -20.5t31.5 -13.5t24.5 -16t9.5 -29.5q0 -16 -11 -28.5t-32 -12.5q-19 0 -79 3t-101 3q-39 0 -97.5 -3t-77.5 -3z
" />
    <glyph glyph-name="uni013B" unicode="&#x13b;" horiz-adv-x="1296" 
d="M1073 -43q-23 0 -56 21.5t-69 21.5h-618q-42 0 -105.5 -3t-74.5 -3q-58 0 -58 43q0 21 14 33.5t34 19t40.5 16.5t34.5 33.5t14 61.5v1044q0 38 -14 62t-34 34t-40.5 17.5t-34.5 20t-14 34.5q0 17 13.5 29t39.5 12q20 0 81 -3t104 -3t106.5 3t81.5 3q26 0 38.5 -12
t12.5 -29q0 -22 -14 -34.5t-33.5 -20t-39.5 -17.5t-34 -34t-14 -62v-1057q0 -41 19 -59t61 -18h254q41 0 77.5 7t74 27t63 35.5t67 54t63.5 59.5t73 73q36 39 50 45q9 4 19 4q18 0 30.5 -11.5t12.5 -31.5q0 -22 -11.5 -52.5t-45.5 -103.5l-86 -176q-21 -43 -39.5 -63.5
t-42.5 -20.5zM606 -489q-16 0 -26.5 8.5t-10.5 23.5q0 19 29 41q76 61 76 105q0 21 -43 43q-30 15 -46 33t-16 51q0 42 36.5 71t88.5 29q121 0 121 -121q0 -69 -39 -137.5t-87.5 -107.5t-82.5 -39z" />
    <glyph glyph-name="uni013C" unicode="&#x13c;" horiz-adv-x="557" 
d="M104 -4q-23 0 -35 12.5t-12 28.5q0 18 9.5 29.5t24 16t31 13.5t31 20.5t24 38.5t9.5 66v1020q0 35 -15 54t-36 25t-42.5 9.5t-36.5 14t-15 32.5q0 25 30.5 47.5t112.5 61.5q116 57 144 57q43 0 43 -74v-1247q0 -39 9.5 -66t24.5 -38.5t31.5 -20.5t31.5 -13.5t24.5 -16
t9.5 -29.5q0 -16 -11 -28.5t-32 -12.5q-19 0 -79 3t-101 3q-39 0 -97.5 -3t-77.5 -3zM207 -489q-16 0 -26.5 8.5t-10.5 23.5q0 19 29 41q75 60 75 105q0 21 -43 43q-29 15 -45 33t-16 51q0 42 36.5 71t88.5 29q121 0 121 -121q0 -69 -39 -137.5t-87.5 -107.5t-82.5 -39z" />
    <glyph glyph-name="Lcaron" unicode="&#x13d;" horiz-adv-x="1296" 
d="M707 1020q-21 0 -31 9t-10 32l2 418q0 29 12.5 41t44.5 12q78 0 78 -53q0 -75 -14.5 -200t-30.5 -210q-9 -49 -51 -49zM1073 -43q-23 0 -56 21.5t-69 21.5h-618q-42 0 -105.5 -3t-74.5 -3q-58 0 -58 43q0 21 14 33.5t34 19t40.5 16.5t34.5 33.5t14 61.5v1044q0 38 -14 62
t-34 34t-40.5 17.5t-34.5 20t-14 34.5q0 17 13.5 29t39.5 12q20 0 81 -3t104 -3t106.5 3t81.5 3q26 0 38.5 -12t12.5 -29q0 -22 -14 -34.5t-33.5 -20t-39.5 -17.5t-34 -34t-14 -62v-1057q0 -41 19 -59t61 -18h254q41 0 77.5 7t74 27t63 35.5t67 54t63.5 59.5t73 73
q36 39 50 45q9 4 19 4q18 0 30.5 -11.5t12.5 -31.5q0 -22 -11.5 -52.5t-45.5 -103.5l-86 -176q-21 -43 -39.5 -63.5t-42.5 -20.5z" />
    <glyph glyph-name="lcaron" unicode="&#x13e;" horiz-adv-x="557" 
d="M565 1085q-21 0 -31 9t-10 32l2 418q0 29 13 41t45 12q78 0 78 -53q0 -74 -14.5 -198.5t-31.5 -210.5q-10 -50 -51 -50zM104 -4q-23 0 -35 12.5t-12 28.5q0 18 9.5 29.5t24 16t31 13.5t31 20.5t24 38.5t9.5 66v1020q0 35 -15 54t-36 25t-42.5 9.5t-36.5 14t-15 32.5
q0 25 30.5 47.5t112.5 61.5q116 57 144 57q43 0 43 -74v-1247q0 -39 9.5 -66t24.5 -38.5t31.5 -20.5t31.5 -13.5t24.5 -16t9.5 -29.5q0 -16 -11 -28.5t-32 -12.5q-19 0 -79 3t-101 3q-39 0 -97.5 -3t-77.5 -3z" />
    <glyph glyph-name="Ldot" unicode="&#x13f;" horiz-adv-x="1298" 
d="M1073 -43q-23 0 -56 21.5t-69 21.5h-618q-42 0 -105.5 -3t-74.5 -3q-58 0 -58 43q0 21 14 33.5t34 19t40.5 16.5t34.5 33.5t14 61.5v1044q0 38 -14 62t-34 34t-40.5 17.5t-34.5 20t-14 34.5q0 17 13.5 29t39.5 12q20 0 81 -3t104 -3t106.5 3t81.5 3q26 0 38.5 -12
t12.5 -29q0 -22 -14 -34.5t-33.5 -20t-39.5 -17.5t-34 -34t-14 -62v-1057q0 -41 19 -59t61 -18h254q41 0 77.5 7t74 27t63 35.5t67 54t63.5 59.5t73 73q36 39 50 45q9 4 19 4q18 0 30.5 -11.5t12.5 -31.5q0 -22 -11.5 -52.5t-45.5 -103.5l-86 -176q-21 -43 -39.5 -63.5
t-42.5 -20.5zM983 879q-61 0 -102 -34t-41 -85q0 -53 35 -82t92 -29q61 0 102 34.5t41 84.5q0 53 -35 82t-92 29z" />
    <glyph glyph-name="ldot" unicode="&#x140;" horiz-adv-x="587" 
d="M104 -4q-23 0 -35 12.5t-12 28.5q0 18 9.5 29.5t24 16t31 13.5t31 20.5t24 38.5t9.5 66v1020q0 35 -15 54t-36 25t-42.5 9.5t-36.5 14t-15 32.5q0 25 30.5 47.5t112.5 61.5q116 57 144 57q43 0 43 -74v-1247q0 -39 9.5 -66t24.5 -38.5t31.5 -20.5t31.5 -13.5t24.5 -16
t9.5 -29.5q0 -16 -11 -28.5t-32 -12.5q-19 0 -79 3t-101 3q-39 0 -97.5 -3t-77.5 -3zM582 829q-58 0 -97 -32.5t-39 -79.5q0 -50 32.5 -77.5t86.5 -27.5q58 0 96.5 33t38.5 80q0 50 -32 77t-86 27z" />
    <glyph glyph-name="Lslash" unicode="&#x141;" horiz-adv-x="1339" 
d="M1296 416q18 0 31.5 -12t13.5 -31q0 -22 -11.5 -52.5t-45.5 -103.5l-86 -176q-21 -43 -39.5 -63.5t-44.5 -20.5q-23 0 -55 21.5t-68 21.5h-620q-42 0 -105 -3t-73 -3q-58 0 -58 43q0 21 14 33.5t33.5 19t39.5 16.5t34 33.5t14 61.5v407l-100 -51q-32 -12 -41 -12
q-16 0 -31.5 17t-15.5 42q0 32 37 51l151 76v514q0 38 -14 62t-33.5 34t-39.5 17.5t-34 20t-14 34.5q0 17 13 29t38 12q20 0 81 -3t104 -3t106.5 3t83.5 3q25 0 38 -12t13 -29q0 -22 -14 -34.5t-34 -20t-40.5 -17.5t-34.5 -34t-14 -62v-409l262 133q27 10 41 10
q17 0 32 -16.5t15 -42.5q0 -31 -37 -50l-313 -159v-523q0 -41 19 -59t61 -18h256q49 0 95 13.5t80 31t81 57t75 67.5t85 87q5 5 14 14.5t12.5 12.5t10 9t10.5 7.5t10 3.5t12 2z" />
    <glyph glyph-name="lslash" unicode="&#x142;" horiz-adv-x="632" 
d="M549 909q19 0 33 -14t14 -37q0 -29 -39 -49l-147 -76v-512q0 -39 10 -66t24.5 -38.5t32 -20.5t32 -13.5t24.5 -16t10 -29.5q0 -15 -12 -28t-33 -13q-19 0 -79.5 3t-101.5 3q-39 0 -97 -3t-77 -3q-23 0 -35 12.5t-12 28.5q0 21 13.5 32.5t32 18.5t37.5 18t32.5 40t13.5 75
v420l-96 -49q-21 -12 -39 -12t-30.5 15t-12.5 36q0 32 37 51l141 72v487q0 35 -15 54t-36 25t-42.5 9.5t-36.5 14t-15 32.5q0 25 30.5 47.5t112.5 61.5q116 57 144 57q43 0 43 -74v-620l102 51q18 10 37 10z" />
    <glyph glyph-name="Nacute" unicode="&#x143;" horiz-adv-x="1587" 
d="M741 1546q-17 0 -29 7.5t-12 19.5q0 15 19 51q66 119 160 260q18 24 36 32.5t56 8.5q53 0 71.5 -7t18.5 -30q0 -28 -64 -98q-2 -2 -76 -86.5t-102 -114.5q-24 -27 -41 -35t-37 -8zM1460 1454q53 0 53 -41q0 -22 -14.5 -34.5t-35 -20t-40.5 -17.5t-34.5 -34t-14.5 -62
v-1204q0 -27 -14.5 -41t-38.5 -14q-47 0 -80 45l-879 1145v-973q0 -37 17 -60t41.5 -31.5t49 -15.5t41.5 -20.5t17 -38.5q0 -41 -57 -41q-23 0 -84.5 3t-87.5 3q-22 0 -77 -3t-79 -3q-26 0 -39.5 12t-13.5 31q0 21 14.5 33.5t35 19t40.5 16.5t34.5 33.5t14.5 61.5v1042
q0 38 -14.5 62t-34.5 34t-40.5 17t-35 19.5t-14.5 33.5q0 18 14.5 30.5t42.5 12.5q15 0 53 -3t64 -3q24 0 50.5 2t33.5 2q51 0 86 -45l807 -1057v895q0 37 -17 60t-41 32t-48 16t-41 21t-17 39q0 18 15.5 29.5t42.5 11.5q23 0 78.5 -3t91.5 -3q30 0 81.5 3t73.5 3z" />
    <glyph glyph-name="nacute" unicode="&#x144;" horiz-adv-x="1247" 
d="M561 1163q-17 0 -29 7.5t-12 19.5q0 15 19 51q72 128 159 260q18 24 36 32.5t57 8.5q53 0 71.5 -7t18.5 -30q0 -28 -64 -98q-2 -2 -76 -86.5t-102 -114.5q-24 -27 -41 -35t-37 -8zM1047 621l53 -379q7 -54 25 -88t38.5 -46t40 -19.5t32.5 -18.5t13 -33q0 -41 -57 -41
q-23 0 -78 3t-100 3q-46 0 -99 -3t-77 -3q-58 0 -58 43q0 24 21.5 37t47.5 18.5t47.5 29t21.5 66.5q0 8 -3 30t-4 32l-49 342q-6 40 -13 70.5t-23 72t-37.5 69t-58.5 47t-83 19.5q-47 0 -92 -19.5t-82 -56t-59.5 -97.5t-22.5 -136v-342q0 -39 10 -66t24.5 -38.5t32 -20.5
t32 -13.5t24.5 -16t10 -29.5q0 -15 -12 -28t-33 -13q-19 0 -79 3t-101 3q-40 0 -97 -3t-75 -3q-24 0 -36.5 12.5t-12.5 28.5q0 21 13.5 32.5t32 18.5t37.5 18t32.5 40t13.5 75v498q0 35 -15 54t-36.5 25t-43 9.5t-36.5 14t-15 32.5q0 24 31 46.5t113 62.5q116 57 143 57
q43 0 43 -74v-119q125 201 330 201q70 0 125 -27t88.5 -66.5t58 -98.5t35.5 -107.5t19 -107.5z" />
    <glyph glyph-name="uni0145" unicode="&#x145;" horiz-adv-x="1587" 
d="M1460 1454q53 0 53 -41q0 -22 -14.5 -34.5t-35 -20t-40.5 -17.5t-34.5 -34t-14.5 -62v-1204q0 -27 -14.5 -41t-38.5 -14q-47 0 -80 45l-879 1145v-973q0 -37 17 -60t41.5 -31.5t49 -15.5t41.5 -20.5t17 -38.5q0 -41 -57 -41q-23 0 -84.5 3t-87.5 3q-22 0 -77 -3t-79 -3
q-26 0 -39.5 12t-13.5 31q0 21 14.5 33.5t35 19t40.5 16.5t34.5 33.5t14.5 61.5v1042q0 38 -14.5 62t-34.5 34t-40.5 17t-35 19.5t-14.5 33.5q0 18 14.5 30.5t42.5 12.5q15 0 53 -3t64 -3q24 0 50.5 2t33.5 2q51 0 86 -45l807 -1057v895q0 37 -17 60t-41 32t-48 16t-41 21
t-17 39q0 18 15.5 29.5t42.5 11.5q23 0 78.5 -3t91.5 -3q30 0 81.5 3t73.5 3zM815 -84q121 0 121 -121q0 -69 -39 -137.5t-87.5 -107.5t-82.5 -39q-16 0 -26.5 8.5t-10.5 23.5q0 19 29 41q76 61 76 105q0 21 -43 43q-30 15 -46 33t-16 51q0 42 36.5 71t88.5 29z" />
    <glyph glyph-name="uni0146" unicode="&#x146;" horiz-adv-x="1247" 
d="M1047 621l53 -379q7 -54 25 -88t38.5 -46t40 -19.5t32.5 -18.5t13 -33q0 -41 -57 -41q-23 0 -78 3t-100 3q-46 0 -99 -3t-77 -3q-58 0 -58 43q0 24 21.5 37t47.5 18.5t47.5 29t21.5 66.5q0 8 -3 30t-4 32l-49 342q-6 40 -13 70.5t-23 72t-37.5 69t-58.5 47t-83 19.5
q-47 0 -92 -19.5t-82 -56t-59.5 -97.5t-22.5 -136v-342q0 -39 10 -66t24.5 -38.5t32 -20.5t32 -13.5t24.5 -16t10 -29.5q0 -15 -12 -28t-33 -13q-19 0 -79 3t-101 3q-40 0 -97 -3t-75 -3q-24 0 -36.5 12.5t-12.5 28.5q0 21 13.5 32.5t32 18.5t37.5 18t32.5 40t13.5 75v498
q0 35 -15 54t-36.5 25t-43 9.5t-36.5 14t-15 32.5q0 24 31 46.5t113 62.5q116 57 143 57q43 0 43 -74v-119q125 201 330 201q70 0 125 -27t88.5 -66.5t58 -98.5t35.5 -107.5t19 -107.5zM666 -84q120 0 120 -121q0 -52 -23 -106t-56 -92t-68.5 -62t-60.5 -24q-16 0 -26.5 8.5
t-10.5 23.5q0 20 28 41q76 61 76 105q0 21 -43 43q-29 15 -45 33t-16 51q0 42 36.5 71t88.5 29z" />
    <glyph glyph-name="Ncaron" unicode="&#x147;" horiz-adv-x="1587" 
d="M688 1620q-108 136 -170 229q-22 31 -22 52q0 13 13 24.5t32 11.5q37 0 80 -43l170 -186l172 186q40 43 79 43q18 0 30.5 -11.5t12.5 -24.5q0 -19 -20 -52q-27 -39 -170 -229q-23 -29 -43 -39t-61 -10q-40 0 -60 10t-43 39zM1460 1454q53 0 53 -41q0 -22 -14.5 -34.5
t-35 -20t-40.5 -17.5t-34.5 -34t-14.5 -62v-1204q0 -27 -14.5 -41t-38.5 -14q-47 0 -80 45l-879 1145v-973q0 -37 17 -60t41.5 -31.5t49 -15.5t41.5 -20.5t17 -38.5q0 -41 -57 -41q-23 0 -84.5 3t-87.5 3q-22 0 -77 -3t-79 -3q-26 0 -39.5 12t-13.5 31q0 21 14.5 33.5t35 19
t40.5 16.5t34.5 33.5t14.5 61.5v1042q0 38 -14.5 62t-34.5 34t-40.5 17t-35 19.5t-14.5 33.5q0 18 14.5 30.5t42.5 12.5q15 0 53 -3t64 -3q24 0 50.5 2t33.5 2q51 0 86 -45l807 -1057v895q0 37 -17 60t-41 32t-48 16t-41 21t-17 39q0 18 15.5 29.5t42.5 11.5q23 0 78.5 -3
t91.5 -3q30 0 81.5 3t73.5 3z" />
    <glyph glyph-name="ncaron" unicode="&#x148;" horiz-adv-x="1247" 
d="M508 1237q-108 136 -170 229q-23 33 -23 52q0 13 13 24.5t32 11.5q37 0 80 -43l170 -186l172 186q40 43 80 43q18 0 30.5 -11.5t12.5 -24.5q0 -19 -20 -52q-28 -39 -170 -229q-23 -29 -43.5 -39t-61.5 -10q-40 0 -59.5 10t-42.5 39zM1047 621l53 -379q7 -54 25 -88
t38.5 -46t40 -19.5t32.5 -18.5t13 -33q0 -41 -57 -41q-23 0 -78 3t-100 3q-46 0 -99 -3t-77 -3q-58 0 -58 43q0 24 21.5 37t47.5 18.5t47.5 29t21.5 66.5q0 8 -3 30t-4 32l-49 342q-6 40 -13 70.5t-23 72t-37.5 69t-58.5 47t-83 19.5q-47 0 -92 -19.5t-82 -56t-59.5 -97.5
t-22.5 -136v-342q0 -39 10 -66t24.5 -38.5t32 -20.5t32 -13.5t24.5 -16t10 -29.5q0 -15 -12 -28t-33 -13q-19 0 -79 3t-101 3q-40 0 -97 -3t-75 -3q-24 0 -36.5 12.5t-12.5 28.5q0 21 13.5 32.5t32 18.5t37.5 18t32.5 40t13.5 75v498q0 35 -15 54t-36.5 25t-43 9.5t-36.5 14
t-15 32.5q0 24 31 46.5t113 62.5q116 57 143 57q43 0 43 -74v-119q125 201 330 201q70 0 125 -27t88.5 -66.5t58 -98.5t35.5 -107.5t19 -107.5z" />
    <glyph glyph-name="Eng" unicode="&#x14a;" horiz-adv-x="1587" 
d="M1464 1456q24 0 36.5 -12t12.5 -29q0 -22 -14.5 -34.5t-35 -20t-40.5 -17.5t-34.5 -34t-14.5 -62v-1298q0 -84 -26 -151t-70.5 -108t-99 -63t-115.5 -22q-62 0 -83.5 24.5t-23.5 83.5q-2 71 14 117.5t48 46.5q25 0 43 -41q29 -60 50 -82t54 -22q72 0 72 186v117
l-875 1145v-979q0 -37 17 -60t41.5 -31.5t49 -15.5t41.5 -20.5t17 -38.5q0 -41 -53 -41q-25 0 -88 3t-88 3q-22 0 -78 -3t-80 -3q-51 0 -51 41q0 22 14.5 34.5t35 19.5t40.5 17t34.5 33.5t14.5 61.5v1046q0 38 -14.5 62t-34.5 34t-40.5 17.5t-35 20t-14.5 34.5q0 17 13.5 29
t39.5 12q24 0 69 -3t60 -3q12 0 43.5 3t53.5 3q29 0 45 -20l827 -1086v897q0 37 -17 60t-41 32t-48 16t-41 21t-17 39q0 17 13 29t38 12q27 0 90 -3t87 -3q23 0 79 3t80 3z" />
    <glyph glyph-name="eng" unicode="&#x14b;" horiz-adv-x="1187" 
d="M721 1028q71 0 128.5 -25t95 -65t62.5 -94t35.5 -109t10.5 -112v-674q0 -84 -26.5 -151t-72 -108t-101.5 -63t-118 -22t-83 24.5t-23 83.5q-2 70 13.5 116t47.5 46q14 0 22.5 -9.5t18.5 -31.5q27 -58 48 -80t48 -22q43 0 43 65q0 23 -1 77.5t-1 86.5v633q0 50 -11 96.5
t-35 88.5t-67 67.5t-100 25.5q-104 0 -184 -80.5t-80 -226.5v-346q0 -39 10 -66t24.5 -38.5t32 -20.5t32 -13.5t24.5 -16t10 -29.5q0 -15 -12 -28t-33 -13q-19 0 -79 3t-101 3q-40 0 -97 -3t-75 -3q-24 0 -36.5 12.5t-12.5 28.5q0 21 13.5 32.5t32 18.5t37.5 18t32.5 40
t13.5 75v502q0 35 -15 55t-36.5 25.5t-43 9.5t-36.5 14.5t-15 32.5q0 24 30 45.5t114 61.5q116 57 143 57q43 0 43 -72v-121q55 88 138 143.5t192 55.5z" />
    <glyph glyph-name="Omacron" unicode="&#x14c;" horiz-adv-x="1652" 
d="M588 1681q-56 0 -56 62q0 33 13 48t43 15l235 -2q26 0 123.5 1t112.5 1q30 0 42.5 -15t12.5 -48q0 -32 -12.5 -47t-42.5 -15l-236 2q-26 0 -123.5 -1t-111.5 -1zM827 -31q-155 0 -292 53.5t-237.5 148.5t-159 233.5t-58.5 300.5q0 158 56 300.5t153.5 246.5t237 165.5
t298.5 61.5q162 0 302 -59t237.5 -160.5t153 -241.5t55.5 -297q0 -162 -58.5 -302.5t-158.5 -239t-237.5 -154.5t-291.5 -56zM829 98q151 0 269.5 80.5t183 221t64.5 315.5t-64.5 320.5t-184.5 233t-272 87.5q-113 0 -210.5 -49.5t-165 -134t-106 -200.5t-38.5 -247
q0 -173 64 -315.5t184.5 -227t275.5 -84.5z" />
    <glyph glyph-name="omacron" unicode="&#x14d;" horiz-adv-x="1228" 
d="M371 1282q-30 0 -43 15t-13 46q0 33 13 48.5t43 15.5l235 -2q26 0 124 1t112 1q30 0 42.5 -15.5t12.5 -48.5q0 -32 -12.5 -46.5t-42.5 -14.5l-236 2q-26 0 -123 -1t-112 -1zM600 -31q-234 0 -381 144t-147 374q0 239 157.5 394t401.5 155q234 0 380 -145t146 -375
q0 -239 -157.5 -393t-399.5 -154zM649 82q139 0 225.5 101t86.5 270q0 121 -47 228t-135.5 175t-198.5 68q-141 0 -226.5 -102t-85.5 -269q0 -121 47 -228t135.5 -175t198.5 -68z" />
    <glyph glyph-name="Obreve" unicode="&#x14e;" horiz-adv-x="1652" 
d="M825 1587q-181 0 -260 203q-22 61 -22 100q0 21 14 34t33 13q21 0 34.5 -17t32.5 -55q3 -7 5 -10q62 -139 163 -139q99 0 164 139q13 29 20.5 43t20.5 26.5t29 12.5q19 0 33 -13t14 -34q0 -36 -23 -100q-79 -203 -258 -203zM827 -31q-155 0 -292 53.5t-237.5 148.5
t-159 233.5t-58.5 300.5q0 158 56 300.5t153.5 246.5t237 165.5t298.5 61.5q162 0 302 -59t237.5 -160.5t153 -241.5t55.5 -297q0 -162 -58.5 -302.5t-158.5 -239t-237.5 -154.5t-291.5 -56zM829 98q151 0 269.5 80.5t183 221t64.5 315.5t-64.5 320.5t-184.5 233t-272 87.5
q-113 0 -210.5 -49.5t-165 -134t-106 -200.5t-38.5 -247q0 -173 64 -315.5t184.5 -227t275.5 -84.5z" />
    <glyph glyph-name="obreve" unicode="&#x14f;" horiz-adv-x="1228" 
d="M608 1188q-181 0 -260 203q-22 61 -22 100q0 21 14 34t33 13q5 0 10 -1t9.5 -4t8 -6t8 -9t7 -9.5t7 -11.5t7 -12t7.5 -14.5t7 -14.5q62 -139 164 -139q99 0 164 139q13 29 20.5 43t20.5 26.5t29 12.5q19 0 33 -13t14 -34q0 -36 -23 -100q-79 -203 -258 -203zM600 -31
q-234 0 -381 144t-147 374q0 239 157.5 394t401.5 155q234 0 380 -145t146 -375q0 -239 -157.5 -393t-399.5 -154zM649 82q139 0 225.5 101t86.5 270q0 121 -47 228t-135.5 175t-198.5 68q-141 0 -226.5 -102t-85.5 -269q0 -121 47 -228t135.5 -175t198.5 -68z" />
    <glyph glyph-name="Ohungarumlaut" unicode="&#x150;" horiz-adv-x="1652" 
d="M698 1546q-32 0 -32 31q0 17 12 55q51 142 110 260q12 28 27.5 37.5t50.5 9.5q40 0 57 -9t17 -32q0 -25 -43 -92q-77 -128 -137 -217q-29 -43 -62 -43zM958 1546q-34 0 -34 31q0 11 14 55q53 149 109 260q14 28 29 37.5t50 9.5q39 0 56.5 -9t17.5 -32q0 -4 -0.5 -7.5
t-2 -8.5t-2.5 -8t-4 -9t-4.5 -9.5t-6.5 -11t-7 -11t-7.5 -13.5t-8.5 -14q-77 -128 -137 -217q-29 -43 -62 -43zM827 -31q-155 0 -292 53.5t-237.5 148.5t-159 233.5t-58.5 300.5q0 158 56 300.5t153.5 246.5t237 165.5t298.5 61.5q162 0 302 -59t237.5 -160.5t153 -241.5
t55.5 -297q0 -162 -58.5 -302.5t-158.5 -239t-237.5 -154.5t-291.5 -56zM829 98q151 0 269.5 80.5t183 221t64.5 315.5t-64.5 320.5t-184.5 233t-272 87.5q-113 0 -210.5 -49.5t-165 -134t-106 -200.5t-38.5 -247q0 -173 64 -315.5t184.5 -227t275.5 -84.5z" />
    <glyph glyph-name="ohungarumlaut" unicode="&#x151;" horiz-adv-x="1228" 
d="M481 1147q-32 0 -32 31q0 18 12 55q51 142 110 260q12 28 27.5 37.5t50.5 9.5q40 0 57 -9t17 -32q0 -25 -43 -92q-77 -128 -137 -217q-29 -43 -62 -43zM741 1147q-34 0 -34 31q0 11 14 55q56 156 108 260q14 28 29.5 37.5t50.5 9.5q39 0 56.5 -9t17.5 -32q0 -4 -0.5 -7.5
t-2 -8.5t-2.5 -8t-4 -9t-4.5 -9.5t-6.5 -11t-7 -11t-7.5 -13.5t-8.5 -14q-77 -128 -137 -217q-29 -43 -62 -43zM600 -31q-234 0 -381 144t-147 374q0 239 157.5 394t401.5 155q234 0 380 -145t146 -375q0 -239 -157.5 -393t-399.5 -154zM649 82q139 0 225.5 101t86.5 270
q0 121 -47 228t-135.5 175t-198.5 68q-141 0 -226.5 -102t-85.5 -269q0 -121 47 -228t135.5 -175t198.5 -68z" />
    <glyph glyph-name="OE" unicode="&#x152;" horiz-adv-x="2367" 
d="M2298 408q16 0 29.5 -12t13.5 -31q0 -22 -11 -50.5t-46 -101.5l-84 -174q-38 -82 -80 -82q-24 0 -56 21.5t-67 21.5h-883q-127 -31 -250 -31q-225 0 -403 90.5t-279.5 259t-101.5 386.5q0 160 57 301.5t158 246t248.5 165.5t320.5 61q119 0 264 -29h787q32 0 59.5 21.5
t46.5 21.5q27 0 46.5 -21.5t48.5 -78.5l71 -152q54 -108 54 -139q0 -20 -13 -31.5t-28 -11.5q-19 0 -33 10t-39 37q-51 55 -79.5 83.5t-69 63t-73 49.5t-75 26t-92.5 11h-174q-73 0 -108 -10.5t-44.5 -29.5t-9.5 -60v-401q0 -26 11.5 -35.5t45.5 -9.5h209q36 0 62.5 16
t41 38.5t26.5 44.5t26.5 38t34.5 16q43 0 43 -59q0 -23 -3.5 -73.5t-3.5 -76.5q0 -27 3.5 -78t3.5 -73q0 -58 -43 -58q-20 0 -34.5 16t-26.5 38.5t-26.5 45t-41 38.5t-62.5 16h-209q-34 0 -45.5 -10t-11.5 -35v-428q0 -41 11 -60t45 -28.5t106 -9.5h258q65 0 116.5 15
t103 53t86.5 73t99 106q38 40 52 46q9 4 18 4zM862 98q90 0 164.5 22t123 69.5t48.5 113.5v801q0 110 -88 181t-246 71q-168 0 -296.5 -84.5t-195.5 -228t-67 -320.5q0 -129 38.5 -242.5t108.5 -199t176 -134.5t234 -49z" />
    <glyph glyph-name="oe" unicode="&#x153;" horiz-adv-x="1961" 
d="M1870 268q17 0 29 -13t12 -32q0 -17 -21 -51q-57 -82 -180.5 -140.5t-253.5 -58.5q-127 0 -235.5 52.5t-178.5 150.5q-74 -98 -189 -152.5t-253 -54.5q-234 0 -381 144t-147 374q0 239 157.5 394t401.5 155q135 0 245.5 -54.5t180.5 -152.5q71 96 174.5 149.5t218.5 53.5
q121 0 218.5 -56t149.5 -144t52 -187q0 -31 -9.5 -44t-33.5 -21l-656 -195q42 -122 136.5 -197t216.5 -75q164 0 293 125q35 30 53 30zM649 82q139 0 225.5 101t86.5 270q0 121 -47 228t-135.5 175t-198.5 68q-141 0 -226.5 -102t-85.5 -269q0 -121 47 -228t135.5 -175
t198.5 -68zM1423 913q-123 0 -203.5 -94.5t-80.5 -245.5q0 -43 6 -84l473 146q28 8 37.5 19t9.5 38q0 78 -70 149.5t-172 71.5z" />
    <glyph glyph-name="Racute" unicode="&#x154;" horiz-adv-x="1468" 
d="M649 1546q-17 0 -29 7.5t-12 19.5q0 15 19 51q72 128 159 260q18 24 36 32.5t57 8.5q53 0 71.5 -7t18.5 -30q0 -28 -64 -98q-2 -2 -76 -86.5t-102 -114.5q-24 -27 -41 -35t-37 -8zM975 561l250 -332q36 -47 80 -78.5t73 -42t49.5 -27t20.5 -42.5q0 -43 -51 -43
q-12 0 -85.5 3t-117.5 3q-41 0 -112.5 -3t-92.5 -3q-61 0 -61 43q0 21 17 34.5t37 20t37 21t17 37.5q0 27 -37 77l-200 265q-35 46 -84 43q-114 -6 -230 0q-30 1 -40.5 -9t-10.5 -36v-289q0 -38 14.5 -61.5t35 -33.5t40.5 -17t34.5 -19.5t14.5 -34.5q0 -41 -51 -41
q-18 0 -83.5 3t-108.5 3t-105 -3t-82 -3q-25 0 -38 11.5t-13 29.5q0 26 21.5 40.5t47 21t47 32.5t21.5 72v1042q0 38 -14 62t-34 34t-40.5 17.5t-34.5 20t-14 34.5q0 17 13 29t40 12q18 0 79.5 -3t101.5 -3t151 5t166 5q329 0 503.5 -127.5t174.5 -343.5
q0 -159 -93.5 -271.5t-252.5 -154.5zM641 643q103 0 180 15t141.5 51.5t98 106t33.5 171.5q0 169 -125.5 262.5t-329.5 93.5q-117 0 -161 -21.5t-44 -82.5v-524q0 -30 16.5 -44.5t59.5 -21t131 -6.5z" />
    <glyph glyph-name="racute" unicode="&#x155;" horiz-adv-x="917" 
d="M449 1163q-17 0 -29 7.5t-12 19.5q0 16 18 51q66 119 160 260q18 24 36 32.5t56 8.5q53 0 71.5 -7t18.5 -30q0 -29 -63 -98q-9 -10 -47.5 -53.5t-74.5 -84t-57 -63.5q-24 -27 -40.5 -35t-36.5 -8zM754 1028q63 0 104 -27.5t41 -66.5q0 -42 -37 -172q-16 -57 -55 -57
q-19 0 -30 14t-21 43q-21 49 -43.5 71.5t-53.5 22.5q-38 0 -83.5 -29.5t-87 -83t-69.5 -140.5t-28 -189v-193q0 -46 16.5 -74t40 -38.5t47 -17.5t40 -19t16.5 -35q0 -15 -12 -28t-33 -13t-91 3t-116 3q-40 0 -97 -3t-75 -3q-24 0 -36.5 12.5t-12.5 28.5q0 21 13.5 32.5
t32 18.5t37.5 18t32.5 40t13.5 75v498q0 35 -15 54t-36.5 25t-43 9.5t-36.5 14t-15 32.5q0 24 31 46.5t113 62.5q116 57 143 57q43 0 43 -74v-207q51 129 152 209t211 80z" />
    <glyph glyph-name="uni0156" unicode="&#x156;" horiz-adv-x="1468" 
d="M975 561l250 -332q36 -47 80 -78.5t73 -42t49.5 -27t20.5 -42.5q0 -43 -51 -43q-12 0 -85.5 3t-117.5 3q-41 0 -112.5 -3t-92.5 -3q-61 0 -61 43q0 21 17 34.5t37 20t37 21t17 37.5q0 27 -37 77l-200 265q-35 46 -84 43q-114 -6 -230 0q-30 1 -40.5 -9t-10.5 -36v-289
q0 -38 14.5 -61.5t35 -33.5t40.5 -17t34.5 -19.5t14.5 -34.5q0 -41 -51 -41q-18 0 -83.5 3t-108.5 3t-105 -3t-82 -3q-25 0 -38 11.5t-13 29.5q0 26 21.5 40.5t47 21t47 32.5t21.5 72v1042q0 38 -14 62t-34 34t-40.5 17.5t-34.5 20t-14 34.5q0 17 13 29t40 12q18 0 79.5 -3
t101.5 -3t151 5t166 5q329 0 503.5 -127.5t174.5 -343.5q0 -159 -93.5 -271.5t-252.5 -154.5zM641 643q103 0 180 15t141.5 51.5t98 106t33.5 171.5q0 169 -125.5 262.5t-329.5 93.5q-117 0 -161 -21.5t-44 -82.5v-524q0 -30 16.5 -44.5t59.5 -21t131 -6.5zM745 -84
q121 0 121 -121q0 -69 -39 -137.5t-87.5 -107.5t-82.5 -39q-15 0 -25.5 8.5t-10.5 23.5q0 20 28 41q76 61 76 105q0 21 -43 43q-29 15 -45 33t-16 51q0 42 36.5 71t87.5 29z" />
    <glyph glyph-name="uni0157" unicode="&#x157;" horiz-adv-x="917" 
d="M754 1028q63 0 104 -27.5t41 -66.5q0 -42 -37 -172q-16 -57 -55 -57q-19 0 -30 14t-21 43q-21 49 -43.5 71.5t-53.5 22.5q-38 0 -83.5 -29.5t-87 -83t-69.5 -140.5t-28 -189v-193q0 -46 16.5 -74t40 -38.5t47 -17.5t40 -19t16.5 -35q0 -15 -12 -28t-33 -13t-91 3t-116 3
q-40 0 -97 -3t-75 -3q-24 0 -36.5 12.5t-12.5 28.5q0 21 13.5 32.5t32 18.5t37.5 18t32.5 40t13.5 75v498q0 35 -15 54t-36.5 25t-43 9.5t-36.5 14t-15 32.5q0 24 31 46.5t113 62.5q116 57 143 57q43 0 43 -74v-207q51 129 152 209t211 80zM336 -84q121 0 121 -121
q0 -69 -39 -137.5t-87.5 -107.5t-82.5 -39q-16 0 -26.5 8.5t-10.5 23.5q0 19 29 41q75 60 75 105q0 21 -43 43q-29 15 -45 33t-16 51q0 42 36.5 71t88.5 29z" />
    <glyph glyph-name="Rcaron" unicode="&#x158;" horiz-adv-x="1468" 
d="M596 1620q-108 136 -170 229q-23 33 -23 52q0 13 13.5 24.5t32.5 11.5q36 0 79 -43l170 -186l172 186q40 43 80 43q18 0 30.5 -11.5t12.5 -24.5q0 -19 -20 -52q-27 -39 -170 -229q-23 -29 -43.5 -39t-61.5 -10q-40 0 -59.5 10t-42.5 39zM975 561l250 -332
q36 -47 80 -78.5t73 -42t49.5 -27t20.5 -42.5q0 -43 -51 -43q-12 0 -85.5 3t-117.5 3q-41 0 -112.5 -3t-92.5 -3q-61 0 -61 43q0 21 17 34.5t37 20t37 21t17 37.5q0 27 -37 77l-200 265q-35 46 -84 43q-114 -6 -230 0q-30 1 -40.5 -9t-10.5 -36v-289q0 -38 14.5 -61.5
t35 -33.5t40.5 -17t34.5 -19.5t14.5 -34.5q0 -41 -51 -41q-18 0 -83.5 3t-108.5 3t-105 -3t-82 -3q-25 0 -38 11.5t-13 29.5q0 26 21.5 40.5t47 21t47 32.5t21.5 72v1042q0 38 -14 62t-34 34t-40.5 17.5t-34.5 20t-14 34.5q0 17 13 29t40 12q18 0 79.5 -3t101.5 -3t151 5
t166 5q329 0 503.5 -127.5t174.5 -343.5q0 -159 -93.5 -271.5t-252.5 -154.5zM641 643q103 0 180 15t141.5 51.5t98 106t33.5 171.5q0 169 -125.5 262.5t-329.5 93.5q-117 0 -161 -21.5t-44 -82.5v-524q0 -30 16.5 -44.5t59.5 -21t131 -6.5z" />
    <glyph glyph-name="rcaron" unicode="&#x159;" horiz-adv-x="917" 
d="M395 1237q-108 136 -170 229q-22 31 -22 52q0 13 13 24.5t32 11.5q37 0 80 -43l170 -186l172 186q40 43 80 43q18 0 30.5 -11.5t12.5 -24.5q0 -17 -21 -52q-28 -39 -170 -229q-23 -29 -43 -39t-61 -10q-40 0 -60 10t-43 39zM754 1028q63 0 104 -27.5t41 -66.5
q0 -42 -37 -172q-16 -57 -55 -57q-19 0 -30 14t-21 43q-21 49 -43.5 71.5t-53.5 22.5q-38 0 -83.5 -29.5t-87 -83t-69.5 -140.5t-28 -189v-193q0 -46 16.5 -74t40 -38.5t47 -17.5t40 -19t16.5 -35q0 -15 -12 -28t-33 -13t-91 3t-116 3q-40 0 -97 -3t-75 -3q-24 0 -36.5 12.5
t-12.5 28.5q0 21 13.5 32.5t32 18.5t37.5 18t32.5 40t13.5 75v498q0 35 -15 54t-36.5 25t-43 9.5t-36.5 14t-15 32.5q0 24 31 46.5t113 62.5q116 57 143 57q43 0 43 -74v-207q51 129 152 209t211 80z" />
    <glyph glyph-name="Sacute" unicode="&#x15a;" horiz-adv-x="1345" 
d="M594 1546q-17 0 -29 7.5t-12 19.5q0 17 18 51q66 119 160 260q18 24 36 32.5t56 8.5q53 0 71.5 -7t18.5 -30q0 -29 -63 -98q-2 -2 -76 -86.5t-102 -114.5q-24 -27 -41 -35t-37 -8zM289 -35q-23 0 -39 18.5t-37 61.5l-78 170q-15 33 -33 69.5t-24.5 50.5t-11.5 29.5
t-5 28.5q0 21 13.5 34t29.5 13q6 0 12 -1.5t12.5 -5.5t11.5 -7t11.5 -9t9.5 -9l9.5 -9.5l7.5 -7.5q131 -141 271.5 -220t310.5 -79q162 0 250 70t88 192q0 40 -10.5 74t-27.5 60t-48.5 50.5t-62 41.5t-80 36.5t-91 33t-106.5 32.5q-106 31 -162.5 49.5t-144 59t-132 81.5
t-79.5 107.5t-35 148.5q0 148 116 248.5t297 100.5q73 0 138.5 -13t107 -26t56.5 -13q25 0 47 30t45 30q30 0 60 -45q7 -10 38 -62l57 -94q80 -137 80 -174q0 -15 -11 -27t-26 -12q-13 0 -26.5 8t-22 15.5t-26.5 25.5q-230 238 -496 238q-111 0 -177.5 -52t-66.5 -141
q0 -100 97 -161q69 -44 267 -104q16 -5 50 -15h1l1 -1h1h1l1 -1h1q73 -22 121 -37.5t112.5 -42t107 -52t88.5 -63.5t72.5 -80t44 -98.5t17.5 -122.5q0 -191 -142 -303.5t-372 -112.5q-90 0 -174.5 16t-138.5 32t-70 16q-26 0 -54.5 -35t-51.5 -35z" />
    <glyph glyph-name="sacute" unicode="&#x15b;" horiz-adv-x="1060" 
d="M455 1163q-17 0 -29 7.5t-12 19.5q0 16 18 51q66 119 160 260q18 24 36 32.5t56 8.5q53 0 71.5 -7t18.5 -30q0 -29 -63 -98q-9 -10 -47.5 -53.5t-74.5 -84t-57 -63.5q-24 -27 -40.5 -35t-36.5 -8zM242 -33q-15 0 -28.5 12t-19.5 22.5t-16 31.5l-61 131q-10 21 -23.5 48.5
t-19 38.5t-9.5 23.5t-4 22.5q0 20 11 31.5t30 11.5q23 0 64 -41q222 -219 426 -219q98 0 158.5 49.5t60.5 120.5q0 17 -3 32t-11 27.5t-15 22.5t-23 20t-27 17t-34.5 15t-37.5 13t-45 12.5t-47.5 11.5t-53.5 13q-72 17 -122.5 31.5t-112 41.5t-99.5 58t-64 78.5t-26 106.5
q0 119 95.5 199.5t248.5 80.5q68 0 149 -17.5t87 -17.5q17 0 35 20.5t38 20.5q13 0 23 -4t21 -18.5t14.5 -19.5t17.5 -29l68 -111q45 -72 45 -102q0 -18 -11.5 -29.5t-27.5 -11.5q-6 0 -12 2t-14 7.5t-12.5 8.5t-13.5 11t-12 10q-84 78 -183 127t-193 49q-80 0 -128.5 -37.5
t-48.5 -95.5q0 -19 3.5 -35t15.5 -30t21.5 -24t33.5 -20.5l40 -17.5t53 -17.5t60 -16.5t72 -18q54 -13 91.5 -23t85 -26.5t80 -33.5t66 -42.5t53.5 -54t33 -67.5t13 -84q0 -139 -111.5 -223.5t-289.5 -84.5q-61 0 -120 11t-97 22.5t-49 11.5q-19 0 -42 -26.5t-46 -26.5z" />
    <glyph glyph-name="Scircumflex" unicode="&#x15c;" horiz-adv-x="1345" 
d="M395 1563q-19 0 -32 11.5t-13 24.5q0 21 23 54q86 118 170 227q23 29 42.5 39t59.5 10q41 0 61.5 -10t41.5 -39q83 -100 172 -227q20 -33 20 -54q0 -13 -12.5 -24.5t-30.5 -11.5q-40 0 -80 45l-172 186l-172 -186q-40 -45 -78 -45zM729 883q73 -22 121 -37.5t112.5 -42
t107 -52t88.5 -63.5t72.5 -80t44 -98.5t17.5 -122.5q0 -191 -142 -303.5t-372 -112.5q-90 0 -174.5 16t-138.5 32t-70 16q-26 0 -54.5 -35t-51.5 -35t-39 18.5t-37 61.5l-78 170q-15 33 -33 69.5t-24.5 50.5t-11.5 29.5t-5 28.5q0 21 13.5 34t29.5 13q6 0 12 -1.5t12.5 -5.5
t11.5 -7t11.5 -9t9.5 -9l9.5 -9.5l7.5 -7.5q131 -141 271.5 -220t310.5 -79q162 0 250 70t88 192q0 40 -10.5 74t-27.5 60t-48.5 50.5t-62 41.5t-80 36.5t-91 33t-106.5 32.5q-106 31 -162.5 49.5t-144 59t-132 81.5t-79.5 107.5t-35 148.5q0 148 116 248.5t297 100.5
q73 0 138.5 -13t107 -26t56.5 -13q25 0 47 30t45 30q30 0 60 -45q7 -10 38 -62l57 -94q80 -137 80 -174q0 -15 -11 -27t-26 -12q-13 0 -26.5 8t-22 15.5t-26.5 25.5q-230 238 -496 238q-111 0 -177.5 -52t-66.5 -141q0 -100 97 -161q69 -44 267 -104q16 -5 50 -15h1l1 -1h1
h1l1 -1h1z" />
    <glyph glyph-name="scircumflex" unicode="&#x15d;" horiz-adv-x="1060" 
d="M256 1180q-19 0 -32 12t-13 25q0 22 22 53q86 118 170 227q23 29 43 39t60 10q41 0 61 -10t41 -39q83 -100 172 -227q21 -35 21 -53q0 -13 -12.5 -25t-30.5 -12q-40 0 -80 45l-172 186l-172 -186q-40 -45 -78 -45zM575 614q54 -13 91.5 -23t85 -26.5t80 -33.5t66 -42.5
t53.5 -54t33 -67.5t13 -84q0 -139 -111.5 -223.5t-289.5 -84.5q-61 0 -120 11t-97 22.5t-49 11.5q-19 0 -42 -26.5t-46 -26.5q-15 0 -28.5 12t-19.5 22.5t-16 31.5l-61 131q-10 21 -23.5 48.5t-19 38.5t-9.5 23.5t-4 22.5q0 20 11 31.5t30 11.5q23 0 64 -41
q222 -219 426 -219q98 0 158.5 49.5t60.5 120.5q0 17 -3 32t-11 27.5t-15 22.5t-23 20t-27 17t-34.5 15t-37.5 13t-45 12.5t-47.5 11.5t-53.5 13q-72 17 -122.5 31.5t-112 41.5t-99.5 58t-64 78.5t-26 106.5q0 119 95.5 199.5t248.5 80.5q68 0 149 -17.5t87 -17.5
q17 0 35 20.5t38 20.5q13 0 23 -4t21 -18.5t14.5 -19.5t17.5 -29l68 -111q45 -72 45 -102q0 -18 -11.5 -29.5t-27.5 -11.5q-6 0 -12 2t-14 7.5t-12.5 8.5t-13.5 11t-12 10q-84 78 -183 127t-193 49q-80 0 -128.5 -37.5t-48.5 -95.5q0 -19 3.5 -35t15.5 -30t21.5 -24
t33.5 -20.5l40 -17.5t53 -17.5t60 -16.5t72 -18z" />
    <glyph glyph-name="Scedilla" unicode="&#x15e;" horiz-adv-x="1345" 
d="M778 -29h-24l-23 -82q34 9 68 9q76 0 126 -41t50 -105q0 -70 -60 -115t-151 -45q-106 0 -172 41q-27 18 -27 41q0 14 9.5 25.5t23.5 11.5q17 0 49 -12q73 -27 113 -27q44 0 71 19t27 49q0 29 -23 46t-63 17q-30 0 -92 -20q-13 3 -31.5 21t-21.5 32l39 141
q-78 9 -167.5 33.5t-103.5 24.5q-26 0 -54.5 -35t-51.5 -35t-39 18.5t-37 61.5l-78 170q-15 33 -33 69.5t-24.5 50.5t-11.5 29.5t-5 28.5q0 21 13.5 34t29.5 13q6 0 12 -1.5t12.5 -5.5t11.5 -7t11.5 -9t9.5 -9l9.5 -9.5l7.5 -7.5q131 -141 271.5 -220t310.5 -79
q162 0 250 70t88 192q0 40 -10.5 74t-27.5 60t-48.5 50.5t-62 41.5t-80 36.5t-91 33t-106.5 32.5q-106 31 -162.5 49.5t-144 59t-132 81.5t-79.5 107.5t-35 148.5q0 148 116 248.5t297 100.5q73 0 138.5 -13t107 -26t56.5 -13q25 0 47 30t45 30q30 0 60 -45q7 -10 38 -62
l57 -94q80 -137 80 -174q0 -15 -11 -27t-26 -12q-13 0 -26.5 8t-22 15.5t-26.5 25.5q-230 238 -496 238q-111 0 -177.5 -52t-66.5 -141q0 -100 97 -161q69 -44 267 -104q16 -5 50 -15h1l1 -1h1h1l1 -1h1q73 -22 121 -37.5t112.5 -42t107 -52t88.5 -63.5t72.5 -80t44 -98.5
t17.5 -122.5q0 -191 -142 -303.5t-372 -112.5z" />
    <glyph glyph-name="scedilla" unicode="&#x15f;" horiz-adv-x="1060" 
d="M596 -25h-18l-23 -86q35 9 68 9q76 0 126 -41t50 -105q0 -70 -60 -115t-151 -45q-106 0 -172 41q-27 18 -27 41q0 14 9.5 25.5t23.5 11.5q17 0 49 -12q73 -27 113 -27q44 0 71 19t27 49q0 29 -23 46t-63 17q-30 0 -92 -20q-13 3 -31.5 21t-21.5 32l41 148q-45 7 -98 21.5
t-64 14.5q-19 0 -42 -26.5t-46 -26.5q-15 0 -28.5 12t-19.5 22.5t-16 31.5l-61 131q-10 21 -23.5 48.5t-19 38.5t-9.5 23.5t-4 22.5q0 20 11 31.5t30 11.5q23 0 64 -41q222 -219 426 -219q98 0 158.5 49.5t60.5 120.5q0 17 -3 32t-11 27.5t-15 22.5t-23 20t-27 17t-34.5 15
t-37.5 13t-45 12.5t-47.5 11.5t-53.5 13q-72 17 -122.5 31.5t-112 41.5t-99.5 58t-64 78.5t-26 106.5q0 119 95.5 199.5t248.5 80.5q68 0 149 -17.5t87 -17.5q17 0 35 20.5t38 20.5q13 0 23 -4t21 -18.5t14.5 -19.5t17.5 -29l68 -111q45 -72 45 -102q0 -18 -11.5 -29.5
t-27.5 -11.5q-6 0 -12 2t-14 7.5t-12.5 8.5t-13.5 11t-12 10q-84 78 -183 127t-193 49q-80 0 -128.5 -37.5t-48.5 -95.5q0 -19 3.5 -35t15.5 -30t21.5 -24t33.5 -20.5l40 -17.5t53 -17.5t60 -16.5t72 -18q54 -13 91.5 -23t85 -26.5t80 -33.5t66 -42.5t53.5 -54t33 -67.5
t13 -84q0 -139 -111.5 -223.5t-289.5 -84.5z" />
    <glyph glyph-name="Scaron" unicode="&#x160;" horiz-adv-x="1345" 
d="M541 1620q-108 136 -170 229q-23 33 -23 52q0 13 13 24.5t32 11.5q37 0 80 -43l170 -186l172 186q40 43 80 43q18 0 30.5 -11.5t12.5 -24.5q0 -19 -20 -52q-27 -39 -170 -229q-23 -29 -43.5 -39t-61.5 -10q-40 0 -59.5 10t-42.5 39zM729 883q73 -22 121 -37.5t112.5 -42
t107 -52t88.5 -63.5t72.5 -80t44 -98.5t17.5 -122.5q0 -191 -142 -303.5t-372 -112.5q-90 0 -174.5 16t-138.5 32t-70 16q-26 0 -54.5 -35t-51.5 -35t-39 18.5t-37 61.5l-78 170q-15 33 -33 69.5t-24.5 50.5t-11.5 29.5t-5 28.5q0 21 13.5 34t29.5 13q6 0 12 -1.5t12.5 -5.5
t11.5 -7t11.5 -9t9.5 -9l9.5 -9.5l7.5 -7.5q131 -141 271.5 -220t310.5 -79q162 0 250 70t88 192q0 40 -10.5 74t-27.5 60t-48.5 50.5t-62 41.5t-80 36.5t-91 33t-106.5 32.5q-106 31 -162.5 49.5t-144 59t-132 81.5t-79.5 107.5t-35 148.5q0 148 116 248.5t297 100.5
q73 0 138.5 -13t107 -26t56.5 -13q25 0 47 30t45 30q30 0 60 -45q7 -10 38 -62l57 -94q80 -137 80 -174q0 -15 -11 -27t-26 -12q-13 0 -26.5 8t-22 15.5t-26.5 25.5q-230 238 -496 238q-111 0 -177.5 -52t-66.5 -141q0 -100 97 -161q69 -44 267 -104q16 -5 50 -15h1l1 -1h1
h1l1 -1h1z" />
    <glyph glyph-name="scaron" unicode="&#x161;" horiz-adv-x="1060" 
d="M401 1237q-108 136 -170 229q-22 31 -22 52q0 13 13 24.5t32 11.5q37 0 80 -43l170 -186l172 186q40 43 80 43q18 0 30.5 -11.5t12.5 -24.5q0 -17 -21 -52q-28 -39 -170 -229q-23 -29 -43 -39t-61 -10q-40 0 -60 10t-43 39zM575 614q54 -13 91.5 -23t85 -26.5t80 -33.5
t66 -42.5t53.5 -54t33 -67.5t13 -84q0 -139 -111.5 -223.5t-289.5 -84.5q-61 0 -120 11t-97 22.5t-49 11.5q-19 0 -42 -26.5t-46 -26.5q-15 0 -28.5 12t-19.5 22.5t-16 31.5l-61 131q-10 21 -23.5 48.5t-19 38.5t-9.5 23.5t-4 22.5q0 20 11 31.5t30 11.5q23 0 64 -41
q222 -219 426 -219q98 0 158.5 49.5t60.5 120.5q0 17 -3 32t-11 27.5t-15 22.5t-23 20t-27 17t-34.5 15t-37.5 13t-45 12.5t-47.5 11.5t-53.5 13q-72 17 -122.5 31.5t-112 41.5t-99.5 58t-64 78.5t-26 106.5q0 119 95.5 199.5t248.5 80.5q68 0 149 -17.5t87 -17.5
q17 0 35 20.5t38 20.5q13 0 23 -4t21 -18.5t14.5 -19.5t17.5 -29l68 -111q45 -72 45 -102q0 -18 -11.5 -29.5t-27.5 -11.5q-6 0 -12 2t-14 7.5t-12.5 8.5t-13.5 11t-12 10q-84 78 -183 127t-193 49q-80 0 -128.5 -37.5t-48.5 -95.5q0 -19 3.5 -35t15.5 -30t21.5 -24
t33.5 -20.5l40 -17.5t53 -17.5t60 -16.5t72 -18z" />
    <glyph glyph-name="uni0162" unicode="&#x162;" horiz-adv-x="1499" 
d="M528 -4q-47 0 -47 43q0 23 17 36.5t41.5 20t49 16t41.5 32.5t17 61v1048q0 45 -17.5 65.5t-60.5 20.5h-73q-105 0 -192 -54.5t-193 -176.5q-23 -26 -37 -36.5t-31 -10.5q-41 0 -41 47q0 28 45 133l66 152q23 56 42.5 78t45.5 22q21 0 49 -21.5t59 -21.5h881q32 0 60 21.5
t48 21.5q27 0 46.5 -21.5t44.5 -78.5l63 -152q45 -105 45 -133q0 -47 -41 -47q-17 0 -30.5 10.5t-34.5 36.5q-106 122 -193.5 176.5t-193.5 54.5h-74q-43 0 -60.5 -20.5t-17.5 -65.5v-1048q0 -38 17.5 -61t42 -32.5t49 -16t42 -20t17.5 -36.5q0 -43 -49 -43q-26 0 -101 3
t-120 3q-44 0 -119.5 -3t-102.5 -3zM696 -489q-14 0 -25.5 9t-11.5 23q0 19 29 41q76 61 76 105q0 21 -43 43q-30 15 -46 33t-16 51q0 42 36.5 71t88.5 29q123 0 123 -121q0 -69 -39.5 -137.5t-88.5 -107.5t-83 -39z" />
    <glyph glyph-name="uni0163" unicode="&#x163;" horiz-adv-x="806" 
d="M752 219q18 0 29.5 -13t11.5 -32q0 -36 -41 -80q-111 -117 -285 -117q-116 0 -192 57t-76 138q0 10 2 134.5t2 205.5v385h-133q-60 0 -60 47q0 38 53 57q91 36 141 107t89 215q10 39 22 56.5t35 17.5q16 0 26.5 -14t10.5 -42v-335h350q35 0 35 -29q0 -11 -6 -47
q-6 -33 -37 -33h-342v-592q0 -107 37.5 -151.5t105.5 -44.5q17 0 33 2t31.5 9t25 10.5t25 15t19.5 14.5t20.5 17.5t17.5 15.5q26 26 50 26zM455 -84q123 0 123 -121q0 -52 -23.5 -106t-57 -92t-69 -62t-59.5 -24q-16 0 -26.5 8.5t-10.5 23.5q0 21 26 41q76 61 76 105
q0 24 -43 43q-29 15 -45 33t-16 51q0 42 36.5 71t88.5 29z" />
    <glyph glyph-name="Tcaron" unicode="&#x164;" horiz-adv-x="1499" 
d="M657 1620q-108 136 -170 229q-22 31 -22 52q0 13 13 24.5t32 11.5q37 0 80 -43l170 -186l172 186q40 43 80 43q18 0 30.5 -11.5t12.5 -24.5q0 -17 -21 -52q-28 -39 -170 -229q-23 -29 -43 -39t-61 -10q-40 0 -60 10t-43 39zM1389 1393l63 -152q45 -105 45 -133
q0 -47 -41 -47q-17 0 -30.5 10.5t-34.5 36.5q-106 122 -193.5 176.5t-193.5 54.5h-74q-43 0 -60.5 -20.5t-17.5 -65.5v-1048q0 -38 17.5 -61t42 -32.5t49 -16t42 -20t17.5 -36.5q0 -43 -49 -43q-26 0 -101 3t-120 3q-44 0 -119.5 -3t-102.5 -3q-47 0 -47 43q0 23 17 36.5
t41.5 20t49 16t41.5 32.5t17 61v1048q0 45 -17.5 65.5t-60.5 20.5h-73q-105 0 -192 -54.5t-193 -176.5q-23 -26 -37 -36.5t-31 -10.5q-41 0 -41 47q0 28 45 133l66 152q23 56 42.5 78t45.5 22q21 0 49 -21.5t59 -21.5h881q32 0 60 21.5t48 21.5q27 0 46.5 -21.5t44.5 -78.5z
" />
    <glyph glyph-name="tcaron" unicode="&#x165;" horiz-adv-x="806" 
d="M545 1178q-21 0 -31 9t-10 32l2 417q0 30 12.5 42t44.5 12q78 0 78 -54q0 -75 -14.5 -199.5t-30.5 -209.5q-9 -49 -51 -49zM752 219q18 0 29.5 -13t11.5 -32q0 -36 -41 -80q-111 -117 -285 -117q-116 0 -192 57t-76 138q0 10 2 134.5t2 205.5v385h-133q-60 0 -60 47
q0 38 53 57q91 36 141 107t89 215q10 39 22 56.5t35 17.5q16 0 26.5 -14t10.5 -42v-335h350q35 0 35 -29q0 -11 -6 -47q-6 -33 -37 -33h-342v-592q0 -107 37.5 -151.5t105.5 -44.5q17 0 33 2t31.5 9t25 10.5t25 15t19.5 14.5t20.5 17.5t17.5 15.5q26 26 50 26z" />
    </font>
</defs>
</svg>
