<?xml version="1.0" standalone="no"?>
<!DOCTYPE svg PUBLIC "-//W3C//DTD SVG 1.1//EN" "http://www.w3.org/Graphics/SVG/1.1/DTD/svg11.dtd" >
<svg xmlns="http://www.w3.org/2000/svg" xmlns:xlink="http://www.w3.org/1999/xlink" version="1.1">
<metadata>
Created by FontForge 20170731 at Tue Jan 11 00:05:52 2022
 By Aleksey,,,
Copyright (c) 2020 by Newlyn Works Limited. All rights reserved.
</metadata>
<defs>
<font id="NewSpirit-Bold" horiz-adv-x="894" >
  <font-face 
    font-family="New Spirit Bold"
    font-weight="700"
    font-stretch="normal"
    units-per-em="2048"
    panose-1="0 0 8 0 0 0 0 0 0 0"
    ascent="1587"
    descent="-461"
    x-height="1040"
    cap-height="1470"
    bbox="-618 -567 2937 1999"
    underline-thickness="102"
    underline-position="-307"
    unicode-range="U+0020-FB02"
  />
<missing-glyph horiz-adv-x="858" 
d="M858 0h-858v1466h858v-1466zM430 823l295 561h-590zM82 1311v-1153l301 577zM776 162v1145l-299 -572zM135 84h590l-295 561z" />
    <glyph glyph-name="f_l" unicode="fl" horiz-adv-x="1546" 
d="M1391 1456v-1200q0 -39 11.5 -65.5t28.5 -39.5t34 -23.5t28.5 -26.5t11.5 -40q0 -28 -21.5 -47.5t-64.5 -19.5q-16 0 -85.5 3t-141.5 3t-140.5 -3t-84.5 -3q-43 0 -64.5 19t-21.5 48q0 24 11.5 40t28 26.5t33 23.5t28 39.5t11.5 65.5v885q0 136 -62.5 195t-189.5 59
q-59 0 -100 -20t-60.5 -53.5t-27.5 -65t-8 -66.5q0 -56 20 -154h221q62 0 62 -53q0 -28 -6 -70q-9 -61 -66 -61h-192v-596q0 -39 15 -64t36 -37t42.5 -22t36.5 -27.5t15 -44.5q0 -28 -21.5 -47.5t-64.5 -19.5q-18 0 -97.5 3t-160.5 3q-72 0 -140.5 -3t-84.5 -3
q-43 0 -64.5 19t-21.5 48q0 24 11.5 40t28 26.5t33 23.5t28 39.5t11.5 65.5v596h-110q-57 0 -66 61q-6 42 -6 70q0 53 62 53h110q-18 97 -18 144q0 77 33.5 149t95 129.5t156.5 92t208 34.5q76 0 146.5 -12t111.5 -27t77 -27t52 -12q27 0 130.5 33t146.5 33q19 0 33 -6
t21.5 -18t12.5 -22t6.5 -27t2 -23.5t0.5 -20.5z" />
    <glyph glyph-name=".notdef" horiz-adv-x="858" 
d="M858 0h-858v1466h858v-1466zM430 823l295 561h-590zM82 1311v-1153l301 577zM776 162v1145l-299 -572zM135 84h590l-295 561z" />
    <glyph glyph-name=".null" horiz-adv-x="0" 
 />
    <glyph glyph-name="nonmarkingreturn" horiz-adv-x="682" 
 />
    <glyph glyph-name="space" unicode=" " horiz-adv-x="491" 
 />
    <glyph glyph-name="exclam" unicode="!" horiz-adv-x="587" 
d="M293 430q-65 0 -88 62q-32 89 -83.5 356t-51.5 412q0 120 52 185.5t173 65.5q120 0 171.5 -65.5t51.5 -185.5q0 -145 -51.5 -409t-83.5 -359q-22 -62 -90 -62zM301 324q-97 0 -159 -53.5t-62 -129.5q0 -74 51 -117.5t137 -43.5q97 0 160.5 54t63.5 130q0 72 -52.5 116
t-138.5 44z" />
    <glyph glyph-name="quotedbl" unicode="&#x22;" horiz-adv-x="872" 
d="M231 782q75 0 97 105l65 307q19 93 19 141q0 76 -49.5 122t-131.5 46t-131 -46t-49 -122q0 -48 19 -141l65 -307q22 -105 96 -105zM641 782q74 0 96 105l66 307q18 88 18 141q0 76 -49 122t-131 46t-131 -46t-49 -122q0 -53 18 -141l66 -307q22 -105 96 -105z" />
    <glyph glyph-name="numbersign" unicode="#" horiz-adv-x="1435" 
d="M375 -10q-55 0 -82.5 25t-20.5 77l33 238q3 30 -26 30h-123q-54 0 -75.5 26.5t-14.5 86.5q8 63 34.5 90t81.5 27h125q31 0 37 31l31 225q3 31 -27 31h-123q-54 0 -75.5 26t-14.5 86q7 63 34 90t83 27h125q34 0 37 31l32 237q8 54 37 78.5t88 24.5q53 0 79.5 -25.5
t19.5 -77.5l-33 -237q-3 -31 27 -31h206q34 0 37 31l33 237q8 54 37 78.5t88 24.5q112 0 98 -103l-33 -237q-3 -31 27 -31h123q54 0 75.5 -26.5t14.5 -86.5q-7 -63 -34 -89.5t-83 -26.5h-125q-30 0 -36 -31l-31 -225q-3 -31 26 -31h123q54 0 75.5 -26.5t14.5 -86.5
q-8 -63 -34.5 -90t-81.5 -27h-125q-31 0 -37 -30l-33 -238q-8 -54 -35.5 -78t-85.5 -24q-116 0 -102 102l33 238q3 30 -27 30h-207q-31 0 -37 -30l-32 -238q-8 -54 -35.5 -78t-85.5 -24zM594 590h207q34 0 37 31l30 225q3 31 -26 31h-207q-31 0 -37 -31l-31 -225
q-3 -31 27 -31z" />
    <glyph glyph-name="dollar" unicode="$" horiz-adv-x="1349" 
d="M1270 434q0 -214 -136.5 -334t-355.5 -133v-162q0 -49 -22.5 -73.5t-75.5 -24.5q-54 0 -77 24.5t-23 73.5v177q-26 6 -59 16t-53.5 15t-35.5 5q-32 0 -63 -34.5t-58 -34.5q-33 0 -60 33.5t-42 74.5l-80 209q-55 142 -55 195q0 43 21 66.5t50 23.5q46 0 93 -64
q36 -50 60.5 -81.5t71 -79.5t89 -75.5t103 -49t124.5 -21.5q87 0 141 43t54 111q0 21 -4.5 39.5t-15.5 34.5t-20.5 28t-30.5 25t-33.5 21t-40.5 19t-41 16.5t-46 17t-45 16.5q-44 16 -71.5 27t-72 30.5t-74 36t-68.5 42.5t-65 51.5t-53.5 60.5t-43.5 72.5t-26.5 84.5
t-10.5 99q0 187 122 309.5t304 136.5v131q0 49 23 74t77 25q53 0 75.5 -24.5t22.5 -74.5v-155q13 -3 34.5 -9.5t35 -10t23.5 -3.5q17 0 29.5 10.5t19.5 23.5t21 23.5t34 10.5q27 0 50.5 -19.5t36.5 -41.5t41 -76q3 -5 5 -9l4 -8l47 -90q82 -157 82 -217q0 -31 -19 -49.5
t-42 -18.5q-26 0 -46.5 14.5t-45.5 49.5q-30 41 -66 78t-84.5 74.5t-108.5 60t-120 22.5q-72 0 -118 -36t-46 -99q0 -35 14.5 -62t48 -48.5t64.5 -35.5t88 -34q55 -20 93 -34.5t88 -36t85 -41t75.5 -46.5t68.5 -55t55.5 -64t43.5 -75.5t26 -88t10 -102.5z" />
    <glyph glyph-name="percent" unicode="%" horiz-adv-x="2072" 
d="M473 659q-192 0 -310 119.5t-118 323.5q0 205 117.5 324.5t310.5 119.5t310.5 -119t117.5 -325q0 -205 -117.5 -324t-310.5 -119zM514 -35q-46 0 -74 22t-28 54q0 21 14.5 52.5t32 58.5t49.5 73q11 15 16 23l801 1159q41 61 90.5 100t122.5 39q46 0 74 -22t28 -54
q0 -9 -2.5 -20t-6 -20.5t-11 -23.5t-13 -23.5t-17 -28t-18 -28t-21 -31t-21.5 -31.5l-801 -1160q-93 -139 -215 -139zM473 821q29 0 47.5 21.5t30.5 85.5t12 174q0 111 -12 175t-30.5 84.5t-47.5 20.5q-44 0 -66 -59.5t-22 -220.5q0 -160 22 -220.5t66 -60.5zM1597 -16
q-192 0 -310 119t-118 323q0 205 117.5 324.5t310.5 119.5t310.5 -119t117.5 -325q0 -205 -117.5 -323.5t-310.5 -118.5zM1597 145q29 0 47.5 21.5t31 85.5t12.5 174q0 111 -12.5 175t-31 85t-47.5 21q-44 0 -66 -60t-22 -221q0 -160 22 -220.5t66 -60.5z" />
    <glyph glyph-name="ampersand" unicode="&#x26;" horiz-adv-x="1779" 
d="M1348 430l196 -168q45 -39 99.5 -70t87.5 -44.5t56 -36t23 -52.5q0 -65 -92 -65q-6 0 -73 3t-138 3q-72 0 -133 -3t-71 -3q-43 0 -69 11t-32.5 21t-13.5 29q-11 30 -19 40.5t-32 31.5l-43 37q-133 -95 -281 -145t-287 -50q-219 0 -350 113t-131 287q0 141 88 251t234 177
q-144 154 -144 319q0 167 140 277t358 110q190 0 311 -85.5t121 -219.5q0 -102 -76 -190.5t-217 -155.5l336 -291q141 213 141 465q0 75 -14 111t-49 55q-14 8 -20 12t-14.5 16.5t-8.5 28.5q0 40 45 72q84 65 154 65q112 0 112 -282q0 -387 -194 -674zM707 1315
q-49 0 -86 -32t-37 -81q0 -90 141 -231q111 91 111 200q0 62 -36 103t-93 41zM696 236q108 0 232 71l-428 369q-47 -71 -47 -174q0 -130 71 -198t172 -68z" />
    <glyph glyph-name="quotesingle" unicode="'" horiz-adv-x="462" 
d="M231 782q75 0 97 105l65 307q19 93 19 141q0 76 -49.5 122t-131.5 46t-131 -46t-49 -122q0 -48 19 -141l65 -307q22 -105 96 -105z" />
    <glyph glyph-name="parenleft" unicode="(" horiz-adv-x="835" 
d="M522 694q0 -120 14.5 -225t34.5 -175t50.5 -132.5t53.5 -96t52 -67.5q2 -2 15.5 -17t17 -19.5t13.5 -18t13.5 -22.5t7 -22.5t3.5 -27.5q0 -34 -21.5 -53t-62.5 -19q-61 0 -141.5 31t-155.5 88q-63 47 -123 117.5t-116.5 167.5t-91 225.5t-34.5 265.5q0 111 24 217.5
t61.5 190t86.5 157.5t97 125t96 86q75 57 155.5 88t141.5 31q84 0 84 -71q0 -14 -3.5 -27.5t-7 -22.5t-13.5 -22.5t-13.5 -18t-17 -19.5t-15.5 -17q-205 -242 -205 -697z" />
    <glyph glyph-name="parenright" unicode=")" horiz-adv-x="835" 
d="M313 694q0 456 -204 697q-2 2 -15.5 17t-17 19.5t-13.5 18t-13.5 22.5t-7 22.5t-3.5 27.5q0 71 84 71q61 0 141.5 -31t155.5 -88q61 -45 121 -115.5t116.5 -167.5t91.5 -226.5t35 -266.5t-34.5 -265.5t-90.5 -225.5t-116 -167.5t-123 -117.5q-75 -57 -155.5 -88
t-141.5 -31q-41 0 -62.5 19t-21.5 53q0 14 3.5 27.5t7 22.5t13.5 22.5t13.5 18t17 19.5t15.5 17q29 34 52 67.5t53 96t50 132.5t34.5 175t14.5 225z" />
    <glyph glyph-name="asterisk" unicode="*" horiz-adv-x="1056" 
d="M340 602q-49 0 -103.5 45.5t-54.5 91.5q0 32 25 68q45 62 151 143q13 10 13 17q0 9 -10.5 11.5t-41.5 4.5q-106 7 -174 27q-75 24 -75 100q0 59 30 108.5t84 49.5q66 0 228 -107q9 -6 16 -6q8 0 8 10q0 9 -4 21q-37 130 -37 196q0 55 34 84t99 29t99.5 -29t34.5 -84
q0 -66 -37 -196q-4 -12 -4 -21q0 -10 8 -10q7 0 16 6q152 107 227 107q54 0 84.5 -50t30.5 -108q0 -79 -76 -100q-68 -20 -174 -27q-31 -2 -41 -4.5t-10 -11.5q0 -8 12 -17q108 -82 152 -143q24 -35 24 -68q0 -46 -54 -91.5t-103 -45.5q-48 0 -82 49q-48 70 -90 191
q-7 20 -17 20q-9 0 -16 -20q-42 -121 -90 -191q-34 -49 -82 -49z" />
    <glyph glyph-name="plus" unicode="+" horiz-adv-x="1220" 
d="M610 102q-65 0 -98 18.5t-33 61.5v301q0 31 -30 31h-281q-43 0 -61.5 31.5t-18.5 95.5t18.5 95.5t61.5 31.5h281q30 0 30 31v280q0 43 33 61.5t98 18.5t98 -18.5t33 -61.5v-280q0 -31 31 -31h281q43 0 61.5 -31.5t18.5 -95.5t-18.5 -95.5t-61.5 -31.5h-281q-31 0 -31 -31
v-301q0 -43 -33 -61.5t-98 -18.5z" />
    <glyph glyph-name="comma" unicode="," horiz-adv-x="579" 
d="M180 -317q-30 0 -48.5 17t-18.5 44q0 9 2.5 17t5.5 13.5t10.5 13l11 11t14.5 12t15 11.5q78 63 78 117q0 12 -5 22t-16 17.5t-20 12.5t-26 12t-25 11q-25 12 -41 22.5t-33.5 28.5t-26 43t-8.5 58q0 85 71.5 144t176.5 59q225 0 225 -232q0 -79 -35.5 -163.5t-87.5 -147
t-112 -103t-107 -40.5z" />
    <glyph glyph-name="hyphen" unicode="-" horiz-adv-x="778" 
d="M590 379h-404q-54 0 -78 27t-24 90v94q0 64 24.5 90.5t79.5 26.5h404q54 0 78 -27t24 -90v-94q0 -64 -24.5 -90.5t-79.5 -26.5z" />
    <glyph glyph-name="period" unicode="." horiz-adv-x="559" 
d="M295 371q-108 0 -177 -61t-69 -148q0 -83 57 -132.5t154 -49.5q108 0 178 60.5t70 147.5q0 83 -58 133t-155 50z" />
    <glyph glyph-name="slash" unicode="/" horiz-adv-x="862" 
d="M164 -66q-67 0 -97 15t-30 55q0 20 16 66l471 1302q22 60 62 81.5t110 21.5q67 0 97 -15t30 -55q0 -20 -16 -66l-471 -1302q-22 -60 -62 -81.5t-110 -21.5z" />
    <glyph glyph-name="zero" unicode="0" horiz-adv-x="1351" 
d="M676 -37q-274 0 -442 206.5t-168 565.5q0 356 168 562t442 206t442 -206t168 -562q0 -359 -168 -565.5t-442 -206.5zM676 174q180 0 180 561q0 557 -180 557t-180 -557q0 -561 180 -561z" />
    <glyph glyph-name="one" unicode="1" horiz-adv-x="942" 
d="M207 -6q-44 0 -67 21t-23 51t18.5 48.5t45 29.5t53 25t45 44.5t18.5 77.5v745q0 45 -19.5 71t-54.5 26q-25 0 -71.5 -6.5t-69.5 -6.5q-37 0 -59.5 20.5t-22.5 55.5q0 29 20 52.5t56 33.5q27 8 96 27t142.5 41t160.5 51q69 23 136.5 50.5t97.5 37.5t55 10q35 0 55.5 -23
t20.5 -53q0 -35 -16.5 -64t-36 -46t-36 -48t-16.5 -69v-905q0 -47 18.5 -77.5t45 -44.5t53 -25t45 -29.5t18.5 -48.5t-23 -51t-67 -21q-25 0 -119 3t-190 3t-190 -3t-119 -3z" />
    <glyph glyph-name="two" unicode="2" horiz-adv-x="1320" 
d="M1208 535q30 0 51 -23.5t21 -60.5q0 -55 -53 -170l-103 -224q-28 -60 -55.5 -85t-67.5 -25q-26 0 -72.5 26.5t-101.5 26.5h-477q-25 0 -104 -3t-127 -3q-53 0 -79 28.5t-26 63.5q0 28 11 52t43 65q71 90 234 269.5t190 211.5q165 195 165 346q0 76 -42 127t-117 51
q-70 0 -126 -42.5t-108 -114.5q-16 -22 -26.5 -34t-31.5 -25t-44 -13q-36 0 -57 27.5t-21 64.5q0 46 29 109q65 141 205.5 232t336.5 91q136 0 249 -49.5t182 -146t69 -220.5q0 -215 -223 -411q-72 -64 -228.5 -170t-232.5 -172h365q85 0 145.5 31t130.5 108q30 33 50 47.5
t46 14.5z" />
    <glyph glyph-name="three" unicode="3" horiz-adv-x="1292" 
d="M805 928q127 -20 225 -91t146.5 -165.5t48.5 -194.5q0 -102 -43.5 -195t-119.5 -162.5t-187.5 -111t-239.5 -41.5q-116 0 -216 28t-168.5 74t-114 97t-68.5 104q-29 69 -29 113q0 43 24.5 69.5t61.5 26.5q29 0 50.5 -16.5t49.5 -52.5q124 -150 293 -150q97 0 156 56
t59 145q0 96 -57.5 152.5t-134.5 56.5q-20 0 -52.5 -6.5t-48.5 -6.5q-49 0 -73.5 29.5t-24.5 69.5q0 33 23 56t68 48.5t67 44.5q165 145 282 264h-299q-71 0 -111.5 -26t-127.5 -121q-29 -32 -48 -45.5t-46 -13.5q-30 0 -52 23.5t-22 62.5q0 21 4 40.5t8 31t16 40t19 45.5
l82 205q11 25 14.5 33.5t14 27.5t19.5 26.5t23.5 14.5t32.5 7q26 0 79 -27t108 -27h378q25 0 109.5 3.5t103.5 3.5q70 0 97.5 -33.5t27.5 -75.5q0 -35 -19.5 -70t-72.5 -88q-102 -102 -315 -278z" />
    <glyph glyph-name="four" unicode="4" horiz-adv-x="1286" 
d="M1051 629h84q56 0 76 -21t20 -90v-96q0 -71 -19.5 -91t-76.5 -20h-84v-43q0 -41 12 -68t29.5 -40.5t35 -24.5t29.5 -27.5t12 -41.5q0 -30 -23 -51t-67 -21q-17 0 -92 3t-156 3t-166 -3t-102 -3q-44 0 -67 21t-23 51q0 27 14.5 44.5t34.5 28t40.5 23t35 39t14.5 67.5v43
h-475q-71 0 -104 31t-33 98q0 54 22.5 102.5t84.5 149.5q11 16 16 25l362 583q62 100 114 136.5t142 36.5h138q96 0 134 -31t38 -105v-708zM633 629v520l-318 -520h318z" />
    <glyph glyph-name="five" unicode="5" horiz-adv-x="1282" 
d="M647 973q259 0 412 -135t153 -346q0 -227 -170.5 -378t-437.5 -151q-178 0 -312.5 63.5t-197.5 147.5q-55 74 -55 129q0 40 26.5 65t61.5 25q9 0 18 -2.5t15 -4.5t17 -9.5t14.5 -10t17.5 -14t18 -14.5q121 -98 267 -98q106 0 168.5 52t62.5 138q0 90 -66 145.5t-180 55.5
q-56 0 -109 -15t-93 -30t-64 -15q-34 0 -61.5 29.5t-18.5 83.5l119 705q7 45 34 63t79 18h591q32 0 56 11t53 37q41 38 78 38q29 0 48 -19t19 -52q0 -50 -57 -176l-45 -101q-42 -92 -135 -92h-567l-33 -182q131 39 274 39z" />
    <glyph glyph-name="six" unicode="6" horiz-adv-x="1323" 
d="M813 1012q198 0 329.5 -131.5t131.5 -358.5q0 -168 -77.5 -295t-212.5 -193.5t-308 -66.5q-200 0 -338.5 92t-205 253.5t-66.5 381.5q0 170 42 316t121 256.5t203 173.5t279 63q191 0 329 -78q49 -28 76 -59.5t27 -73.5t-24.5 -68t-63.5 -26q-29 0 -86 25q-93 39 -170 39
q-248 0 -281 -353q126 103 295 103zM680 174q77 0 119.5 81.5t42.5 225.5q0 287 -170 287q-73 0 -122.5 -61t-49.5 -203q0 -88 18.5 -160.5t60.5 -121t101 -48.5z" />
    <glyph glyph-name="seven" unicode="7" horiz-adv-x="1128" 
d="M983 1473q129 0 129 -107q0 -48 -49 -182q-261 -711 -418 -1078q-47 -106 -160 -106l-163 2q-66 1 -100 25.5t-34 66.5q0 22 6.5 44.5t22.5 50.5t26 44t36 52t34 47q102 145 168.5 244t161.5 254.5t166 293.5h-397q-71 0 -110.5 -26t-125.5 -121q-28 -31 -48 -45t-46 -14
q-31 0 -52.5 23t-21.5 63q0 11 2 23t3.5 20.5t7.5 25t8.5 24t12 31.5t13.5 33l97 250q23 59 49.5 84t64.5 25q26 0 73.5 -27t102.5 -27h334q24 0 107.5 3.5t99.5 3.5z" />
    <glyph glyph-name="eight" unicode="8" horiz-adv-x="1335" 
d="M979 870q158 -89 229.5 -192t71.5 -256q0 -211 -168.5 -334t-445.5 -123q-171 0 -309.5 52.5t-219 148.5t-80.5 219q0 233 250 336q-190 130 -190 338q0 190 147 317t398 127q237 0 380.5 -99t143.5 -251q0 -98 -57 -172t-150 -111zM666 1309q-68 0 -109 -37t-41 -94
q0 -31 15 -58.5t34 -46t58 -40t66.5 -33.5t79.5 -33q15 -6 22 -9q63 63 63 160q0 84 -52.5 137.5t-135.5 53.5zM666 172q91 0 151 46.5t60 121.5q0 25 -6.5 48t-22 43t-31 36.5t-42.5 33t-48 28.5t-56 27t-57 23.5t-62 24t-60 23.5q-76 -76 -76 -199q0 -116 69.5 -186
t180.5 -70z" />
    <glyph glyph-name="nine" unicode="9" horiz-adv-x="1341" 
d="M655 1503q295 0 458 -196.5t163 -556.5q0 -121 -21.5 -230.5t-72.5 -212.5t-128.5 -177.5t-198.5 -119.5t-273 -45q-222 0 -373 90q-105 64 -105 138q0 43 25.5 72.5t67.5 29.5q24 0 88 -29q116 -57 227 -57q156 0 237.5 91.5t96.5 279.5q-129 -125 -316 -125
q-94 0 -177 31t-148.5 92t-103.5 160.5t-38 226.5q0 151 72 273t208 193.5t312 71.5zM668 702q75 0 122.5 60t47.5 190q0 148 -47.5 246t-131.5 98q-82 0 -123.5 -78.5t-41.5 -207.5q0 -163 47.5 -235.5t126.5 -72.5z" />
    <glyph glyph-name="colon" unicode=":" horiz-adv-x="618" 
d="M326 989q-106 0 -175 -59.5t-69 -143.5q0 -82 57 -130t152 -48q108 0 177 59.5t69 143.5q0 81 -57.5 129.5t-153.5 48.5zM326 360q-106 0 -175 -59t-69 -143q0 -82 57 -130t152 -48q108 0 177 59t69 143q0 81 -57.5 129.5t-153.5 48.5z" />
    <glyph glyph-name="semicolon" unicode=";" horiz-adv-x="628" 
d="M319 985q-106 0 -174.5 -59.5t-68.5 -143.5q0 -82 57 -130t152 -48q108 0 176.5 59.5t68.5 143.5q0 81 -57.5 129.5t-153.5 48.5zM213 -317q-30 0 -49 17t-19 44q0 9 2.5 17t5.5 13.5t10.5 13t12 11t15 11.5t14.5 12q78 63 78 117q0 12 -5 22t-16.5 17.5t-20.5 12.5
t-26 12t-25 11q-52 25 -80 57.5t-28 94.5q0 85 71.5 144t176.5 59q225 0 225 -232q0 -79 -35.5 -163.5t-87.5 -147t-112 -103t-107 -40.5z" />
    <glyph glyph-name="less" unicode="&#x3c;" horiz-adv-x="1052" 
d="M913 150q-20 0 -75 22l-672 303q-57 26 -77.5 61t-20.5 103t20.5 103t77.5 61l672 303q55 22 75 22q56 0 56 -92q0 -87 -21 -126.5t-86 -65.5l-483 -191q-10 -3 -10 -14t10 -14l483 -191q65 -25 86 -66.5t21 -125.5q0 -92 -56 -92z" />
    <glyph glyph-name="equal" unicode="=" horiz-adv-x="1245" 
d="M1065 739h-885q-43 0 -61.5 31.5t-18.5 95.5t18.5 95.5t61.5 31.5h885q43 0 61.5 -31.5t18.5 -95.5t-18.5 -95.5t-61.5 -31.5zM1065 289h-885q-43 0 -61.5 31.5t-18.5 95.5t18.5 95.5t61.5 31.5h885q43 0 61.5 -31.5t18.5 -95.5t-18.5 -95.5t-61.5 -31.5z" />
    <glyph glyph-name="greater" unicode="&#x3e;" horiz-adv-x="1052" 
d="M139 150q-55 0 -55 92q0 84 20.5 125.5t85.5 66.5l484 191q10 3 10 14t-10 14l-484 191q-64 26 -85 65.5t-21 126.5q0 92 55 92q21 0 76 -22l672 -303q57 -26 77.5 -61t20.5 -103t-20.5 -103t-77.5 -61l-672 -303q-55 -22 -76 -22z" />
    <glyph glyph-name="question" unicode="?" horiz-adv-x="1224" 
d="M545 430q-67 0 -92 59q-58 136 -58 269q0 58 21.5 102.5t60 82t119.5 99.5q22 17 58.5 43t54 40t38 33t29 36.5t8.5 36.5q0 36 -29 56t-71 20q-49 0 -93.5 -24t-78 -64t-57 -81t-39.5 -85q-11 -29 -34.5 -49.5t-59.5 -20.5q-46 0 -95 27q-100 56 -140 111t-40 102
q0 45 43 94.5t115.5 91t179.5 68t223 26.5q87 0 167 -12t152 -39.5t125 -68t84 -101.5t31 -135q0 -54 -17 -103t-41.5 -84.5t-66.5 -74t-76 -63t-87 -58.5q-26 -17 -66 -42t-61 -38t-43.5 -31t-34.5 -35q-13 -18 -20 -36.5t-14 -50.5t-11 -48q-16 -53 -84 -53zM575 324
q-97 0 -159 -53.5t-62 -129.5q0 -73 51.5 -117t137.5 -44q97 0 160 54t63 130q0 72 -52.5 116t-138.5 44z" />
    <glyph glyph-name="at" unicode="@" horiz-adv-x="2242" 
d="M1225 1331q168 0 317 -35t266.5 -100.5t203.5 -156.5t131.5 -208t45.5 -249q0 -146 -50.5 -269t-133.5 -202.5t-187.5 -123.5t-215.5 -44q-126 0 -204.5 59.5t-103.5 165.5q-67 -84 -161.5 -135t-204.5 -51q-147 0 -247.5 110t-100.5 291q0 239 148 397t374 158
q76 0 143.5 -21.5t113.5 -43t68 -21.5q27 0 87.5 31.5t89.5 31.5q34 0 50 -23.5t11 -64.5l-55 -475q-11 -93 -11 -112q0 -36 16 -58t48 -22q88 0 149.5 110t61.5 281q0 280 -185 439t-501 159q-129 0 -248 -34t-218.5 -101t-173.5 -159.5t-115.5 -215.5t-41.5 -262
q0 -268 189.5 -424t506.5 -156q102 0 188.5 14.5t137.5 29t68 14.5q24 0 42.5 -15.5t18.5 -46.5q0 -37 -27 -62t-96 -55q-62 -28 -183 -50.5t-243 -22.5q-159 0 -302 32.5t-260 96t-202.5 153t-132.5 208t-47 255.5q0 213 90.5 397t247.5 312t374 201t464 73zM1130 225
q64 0 107.5 65.5t54.5 162.5q8 78 8 86q0 91 -45.5 160t-121.5 69q-57 0 -96 -47.5t-54.5 -110t-15.5 -129.5q0 -116 47 -186t116 -70z" />
    <glyph glyph-name="A" unicode="A" horiz-adv-x="1607" 
d="M1161 1053l299 -789q14 -37 36.5 -64t43.5 -41l40.5 -27t31.5 -31t12 -44q0 -27 -19.5 -44t-52.5 -17q-26 0 -114.5 3t-167.5 3t-176.5 -3t-124.5 -3q-50 0 -78.5 18.5t-28.5 51.5q0 32 22.5 51t49.5 26.5t49.5 28t22.5 55.5q0 33 -23 97l-20 57q-13 39 -31 55.5
t-58 16.5h-364q-39 0 -56 -16t-32 -56l-21 -53q-28 -76 -28 -101q0 -35 23.5 -55.5t51 -28t51 -26.5t23.5 -51q0 -34 -27.5 -52t-78.5 -18q-36 0 -101.5 3t-93.5 3q-29 0 -84.5 -3t-91.5 -3q-33 0 -52.5 17t-19.5 44t13 45t34.5 30t44.5 25.5t46.5 40.5t38.5 66l299 789
q55 140 102 290q29 88 77.5 114t180.5 26q89 0 134.5 -12t69 -40t44.5 -90q68 -197 104 -288zM580 647h229q24 0 33.5 9.5t8.5 20.5t-7 28l-150 407l-151 -407q-21 -58 37 -58z" />
    <glyph glyph-name="B" unicode="B" horiz-adv-x="1597" 
d="M1245 791q143 -47 224 -142.5t81 -226.5q0 -430 -620 -430q-83 0 -273 5t-254 5q-81 0 -155.5 -3t-91.5 -3q-44 0 -67 21t-23 51q0 25 12 41.5t29.5 27.5t35 24.5t29.5 40.5t12 68v926q0 34 -8.5 59.5t-22 38t-28.5 24.5t-28.5 20.5t-22 24t-8.5 36.5q0 30 22.5 50.5
t67.5 20.5q17 0 91.5 -3t155.5 -3q66 0 216 8.5t241 8.5q267 0 425.5 -104.5t158.5 -289.5q0 -199 -199 -296zM623 1194v-274q0 -32 15.5 -45t59.5 -13h68q90 0 150.5 50t60.5 149q0 100 -63.5 162.5t-159.5 62.5h-13q-55 0 -86.5 -20t-31.5 -72zM793 186h20q114 0 186 65
t72 169q0 126 -82.5 194t-228.5 68h-68q-38 0 -53.5 -17t-15.5 -57v-278q0 -93 34 -118.5t136 -25.5z" />
    <glyph glyph-name="C" unicode="C" horiz-adv-x="1484" 
d="M782 -35q-148 0 -279.5 50.5t-231.5 143.5t-158 234t-58 312q0 172 59.5 322.5t157.5 253t225.5 161.5t262.5 59q83 0 194.5 -25.5t126.5 -25.5q30 0 65 29.5t62 29.5q66 0 105 -112l82 -223q49 -134 49 -175q0 -39 -23.5 -61.5t-56.5 -22.5q-47 0 -90 58
q-56 74 -86.5 112.5t-76 88t-79 72.5t-77 40t-89.5 17q-148 0 -245 -144t-97 -373q0 -250 116 -393t302 -143q194 0 332 170q15 19 25.5 30t30 22t40.5 11q34 0 56 -24t22 -56q0 -41 -37 -110q-75 -145 -250 -236.5t-379 -91.5z" />
    <glyph glyph-name="D" unicode="D" horiz-adv-x="1699" 
d="M864 -8q-77 0 -230.5 5t-230.5 5q-81 0 -155.5 -3t-91.5 -3q-44 0 -67 21t-23 51q0 25 12 41.5t29.5 27.5t35 24.5t29.5 40.5t12 68v926q0 34 -8.5 59.5t-22 38t-28.5 24.5t-28.5 20.5t-22 24t-8.5 36.5q0 30 22.5 50.5t67.5 20.5q17 0 91.5 -3t155.5 -3q63 0 189 8.5
t188 8.5q138 0 265.5 -30.5t237 -93.5t191.5 -152t128.5 -213t46.5 -269q0 -155 -53.5 -288.5t-152.5 -232t-248 -154.5t-331 -56zM725 188h55q192 0 288.5 130.5t96.5 404.5q0 276 -110.5 419.5t-286.5 143.5h-43q-56 0 -79 -22.5t-23 -73.5v-905q0 -51 23 -74t79 -23z" />
    <glyph glyph-name="E" unicode="E" horiz-adv-x="1495" 
d="M1407 522q29 0 51.5 -22.5t22.5 -59.5q0 -24 -8 -51.5t-15.5 -45t-32.5 -69.5l-100 -219q-28 -59 -55.5 -83.5t-65.5 -24.5q-26 0 -72.5 26.5t-101.5 26.5h-627q-81 0 -155.5 -3t-91.5 -3q-44 0 -67 21t-23 51q0 25 12 41.5t29.5 27.5t35 24.5t29.5 40.5t12 68v930
q0 34 -8.5 59.5t-22 38t-28.5 24.5t-28.5 20.5t-22 24t-8.5 36.5q0 30 23 51t67 21q15 0 89.5 -3.5t157.5 -3.5h547q55 0 101.5 27t72.5 27q38 0 66.5 -25.5t54.5 -83.5l90 -205q5 -11 16 -35t14.5 -32t10 -25t9 -26.5t4.5 -22t2 -25.5q0 -37 -22.5 -59.5t-51.5 -22.5
q-25 0 -43.5 13.5t-50.5 46.5q-115 122 -157 158q-104 89 -217 97q-14 1 -28 1h-96q-56 0 -79 -22.5t-23 -73.5v-281q0 -32 14 -44.5t51 -12.5h51q39 0 69.5 22.5t47 50t41 50t53.5 22.5q76 0 76 -94q0 -25 -3 -74t-3 -74t3 -74t3 -73q0 -94 -76 -94q-29 0 -53.5 22.5
t-41 50t-47 50t-69.5 22.5h-51q-37 0 -51 -12.5t-14 -44.5v-301q0 -51 23 -73.5t79 -22.5h158q64 0 118.5 17t108 56t96.5 81.5t107 115.5q27 32 47.5 45.5t46.5 13.5z" />
    <glyph glyph-name="F" unicode="F" horiz-adv-x="1380" 
d="M1241 1411l90 -205q4 -9 14 -30.5t12.5 -28t9.5 -22.5t9 -23.5t5 -19.5t4 -21.5t1 -20.5q0 -37 -22 -59.5t-51 -22.5q-25 0 -43.5 13.5t-50.5 46.5q-49 52 -69 73t-60 59.5t-63.5 54t-58.5 35.5t-67.5 27t-69.5 7h-106q-56 0 -79 -22.5t-23 -73.5v-312q0 -32 14 -44.5
t51 -12.5h107q39 0 69.5 24.5t47 53.5t41 53.5t53.5 24.5q75 0 75 -95q0 -24 -3 -78t-3 -79t3 -81t3 -81q0 -94 -75 -94q-29 0 -53.5 25t-41 54.5t-47 54.5t-69.5 25h-107q-37 0 -51 -12.5t-14 -44.5v-291q0 -41 14.5 -68t35.5 -40.5t42.5 -24.5t36 -27.5t14.5 -41.5
q0 -30 -23 -51t-67 -21q-18 0 -98 3t-166 3q-84 0 -162 -3t-94 -3q-44 0 -67 21t-23 51q0 25 12 41.5t29.5 27.5t35 24.5t29.5 40.5t12 68v930q0 34 -8.5 59.5t-22 38t-28.5 24.5t-28.5 20.5t-22 24t-8.5 36.5q0 30 23 51t67 21q17 0 91.5 -3.5t155.5 -3.5h543
q55 0 101.5 27t72.5 27q38 0 66.5 -25.5t54.5 -83.5z" />
    <glyph glyph-name="G" unicode="G" horiz-adv-x="1609" 
d="M874 -35q-140 0 -264 29.5t-226 89.5t-176 146t-114.5 205t-40.5 261q0 144 41 273t111 224.5t160.5 166t191.5 106t201 35.5q99 0 217.5 -25.5t134.5 -25.5q26 0 61.5 29.5t59.5 29.5q36 0 61 -26.5t45 -87.5l74 -224q7 -22 19 -56.5t17 -49t9 -34t4 -34.5
q0 -42 -23.5 -64t-56.5 -22q-28 0 -47.5 13.5t-42.5 44.5q-54 73 -89.5 117.5t-78.5 91t-78.5 70.5t-76.5 39.5t-84 15.5q-90 0 -159 -50.5t-108.5 -135.5t-59 -185t-19.5 -211q0 -110 21.5 -204t66.5 -173t125 -124.5t188 -45.5q42 0 68 19.5t26 50.5v223q0 41 -12.5 68.5
t-30 41t-34.5 24.5t-29.5 27.5t-12.5 41.5q0 30 23 50.5t68 20.5h485q45 0 67.5 -20.5t22.5 -50.5q0 -25 -12.5 -41.5t-29.5 -27.5t-34.5 -24.5t-30 -41t-12.5 -68.5v-174q0 -36 9.5 -61.5t20.5 -37.5t20.5 -28.5t9.5 -36.5q0 -28 -18 -46.5t-60 -33.5q-85 -31 -239 -57.5
t-329 -26.5z" />
    <glyph glyph-name="H" unicode="H" horiz-adv-x="1740" 
d="M1556 1196v-926q0 -41 12.5 -68t30 -40.5t34.5 -24.5t29.5 -27.5t12.5 -41.5q0 -30 -23 -51t-67 -21q-17 0 -92 3t-156 3t-155.5 -3t-91.5 -3q-45 0 -68 21t-23 51q0 25 12.5 41.5t29.5 27.5t34.5 24.5t30 40.5t12.5 68v320q0 32 -14 44.5t-51 12.5h-365q-37 0 -51 -12.5
t-14 -44.5v-320q0 -41 12 -68t29.5 -40.5t35 -24.5t29.5 -27.5t12 -41.5q0 -30 -23 -51t-67 -21q-17 0 -92 3t-156 3t-155.5 -3t-91.5 -3q-44 0 -67 21t-23 51q0 25 12 41.5t29.5 27.5t35 24.5t29.5 40.5t12 68v926q0 34 -8.5 59.5t-22 38t-28.5 24.5t-28.5 20.5t-22 24
t-8.5 36.5q0 29 27.5 50t72.5 21q17 0 86.5 -3t150.5 -3t156 3t92 3q45 0 67.5 -20.5t22.5 -50.5q0 -21 -8.5 -36.5t-22 -24t-28.5 -20.5t-28.5 -24.5t-22 -38t-8.5 -59.5v-299q0 -32 14 -44.5t51 -12.5h365q37 0 51 12.5t14 44.5v299q0 41 -12.5 68.5t-30 41t-34.5 24.5
t-29.5 27.5t-12.5 41.5q0 30 23 50.5t68 20.5q17 0 91.5 -3t155.5 -3t156 3t92 3q45 0 67.5 -20.5t22.5 -50.5q0 -25 -12.5 -41.5t-29.5 -27.5t-34.5 -24.5t-30 -41t-12.5 -68.5z" />
    <glyph glyph-name="I" unicode="I" horiz-adv-x="806" 
d="M156 -4q-44 0 -67 21t-23 51q0 25 12 41.5t29.5 27.5t35 24.5t29.5 40.5t12 68v926q0 34 -8.5 59.5t-22 38t-28.5 24.5t-28.5 20.5t-22 24t-8.5 36.5q0 29 27.5 50t72.5 21q17 0 86.5 -3t150.5 -3t156 3t92 3q45 0 67.5 -20.5t22.5 -50.5q0 -21 -8.5 -36.5t-22 -24
t-28.5 -20.5t-28.5 -24.5t-22 -38t-8.5 -59.5v-926q0 -41 12 -68t29.5 -40.5t35 -24.5t29.5 -27.5t12 -41.5q0 -30 -23 -51t-67 -21q-17 0 -92 3t-156 3t-155.5 -3t-91.5 -3z" />
    <glyph glyph-name="J" unicode="J" horiz-adv-x="1196" 
d="M526 -33q-133 0 -255 35t-195.5 92t-73.5 117q0 32 15 81.5t54 157.5q11 30 17 46q20 55 46 81.5t56 24.5q63 -3 82 -80q43 -194 69 -252q39 -87 108 -96q10 -2 22 -2q66 0 96.5 56.5t30.5 148.5l-2 819q0 41 -14 68.5t-34 41t-39.5 24.5t-33.5 27.5t-14 41.5
q0 30 24.5 50.5t69.5 20.5q18 0 96 -3t164 -3q81 0 156 3t92 3q45 0 67.5 -20.5t22.5 -50.5q0 -25 -12.5 -41.5t-29.5 -27.5t-34.5 -24.5t-30 -41t-12.5 -68.5l2 -834q0 -182 -125.5 -288.5t-384.5 -106.5z" />
    <glyph glyph-name="K" unicode="K" horiz-adv-x="1656" 
d="M1087 979l441 -731q22 -37 52.5 -64t51.5 -38.5t36 -32t15 -50.5q0 -28 -22 -47.5t-64 -19.5q-17 0 -108 3t-172 3q-78 0 -152 -3t-102 -3q-54 0 -79.5 20t-25.5 50q0 29 13.5 47t29.5 25.5t29.5 25.5t13.5 47q0 42 -32 96l-230 383l-159 -151v-269q0 -41 12 -68
t29.5 -40.5t35 -24.5t29.5 -27.5t12 -41.5q0 -30 -23 -51t-67 -21q-17 0 -92 3t-156 3t-155.5 -3t-91.5 -3q-44 0 -67 21t-23 51q0 25 12 41.5t29.5 27.5t35 24.5t29.5 40.5t12 68v926q0 34 -8.5 59.5t-22 38t-28.5 24.5t-28.5 20.5t-22 24t-8.5 36.5q0 29 27.5 50t72.5 21
q17 0 86.5 -3t150.5 -3t156 3t92 3q45 0 67.5 -20.5t22.5 -50.5q0 -21 -8.5 -36.5t-22 -24t-28.5 -20.5t-28.5 -24.5t-22 -38t-8.5 -59.5v-391l407 401q27 27 36 42t9 36q0 16 -15.5 28t-33.5 19.5t-33.5 24.5t-15.5 43q0 35 28.5 53t79.5 18q37 0 117 -3t107 -3
q28 0 115.5 3t123.5 3q34 0 54 -17.5t20 -49.5q0 -34 -27 -54.5t-64.5 -29.5t-89 -31.5t-87.5 -56.5z" />
    <glyph glyph-name="L" unicode="L" horiz-adv-x="1374" 
d="M1102 -53q-26 0 -72.5 26.5t-101.5 26.5h-525q-81 0 -155.5 -3t-91.5 -3q-44 0 -67 21t-23 51q0 25 12 41.5t29.5 27.5t35 24.5t29.5 40.5t12 68v928q0 34 -8.5 59.5t-22 38t-28.5 24.5t-28.5 20.5t-22 24t-8.5 36.5q0 29 27.5 50t72.5 21q17 0 86.5 -3t150.5 -3t156 3
t92 3q45 0 67.5 -20.5t22.5 -50.5q0 -21 -8.5 -36.5t-22 -24t-28.5 -20.5t-28.5 -24.5t-22 -38t-8.5 -59.5v-907q0 -51 23 -73.5t79 -22.5h76q96 0 189 68t222 212q30 33 50.5 47.5t46.5 14.5q30 0 52.5 -23.5t22.5 -60.5q0 -10 -1 -20t-2 -17t-5.5 -19.5t-6 -18t-8.5 -21.5
t-9 -21t-12 -25.5t-13 -27.5l-102 -224q-28 -60 -55.5 -85t-67.5 -25z" />
    <glyph glyph-name="M" unicode="M" horiz-adv-x="2142" 
d="M1837 981l152 -715q8 -38 27.5 -64t40.5 -39t41.5 -24.5t34 -29t13.5 -43.5q0 -31 -23 -50.5t-67 -19.5q-21 0 -105.5 3t-152.5 3q-69 0 -163.5 -3t-123.5 -3q-50 0 -78 18.5t-28 51.5q0 26 14.5 43t35 26t40.5 18.5t34.5 27.5t14.5 46q0 34 -10 86l-102 506l-312 -641
q-42 -82 -119 -82q-42 0 -70 19.5t-50 60.5l-361 655l-96 -518q-10 -55 -10 -86q0 -33 21.5 -53.5t48 -28.5t48 -27.5t21.5 -51.5q0 -33 -27.5 -51.5t-74.5 -18.5q-34 0 -100 3t-93 3q-31 0 -87.5 -3t-78.5 -3q-94 0 -94 70q0 25 15 42t38 29t46.5 26t44.5 42t28 67l135 709
q21 113 21 180q0 45 -13 77.5t-31 50t-36.5 32t-31.5 33.5t-13 45q0 33 23.5 52t86.5 19q11 0 103.5 -3t152.5 -3q64 0 137.5 3t98.5 3q43 0 66.5 -21t23.5 -54q0 -21 -9.5 -38t-23.5 -28.5t-28 -23.5t-23.5 -29.5t-9.5 -38.5q0 -51 71 -186l217 -412l201 412q55 113 55 174
q0 31 -15.5 54.5t-34.5 35.5t-34.5 32t-15.5 46q0 35 24.5 56t65.5 21q23 0 106.5 -3t157.5 -3q56 0 126.5 3t91.5 3q45 0 67.5 -20.5t22.5 -50.5q0 -25 -11 -43t-26.5 -30t-30.5 -25.5t-26 -35.5t-11 -53q0 -57 37 -231z" />
    <glyph glyph-name="N" unicode="N" horiz-adv-x="1613" 
d="M1483 1470q45 0 67.5 -20.5t22.5 -50.5q0 -25 -13.5 -41.5t-32.5 -27.5t-37.5 -24.5t-32 -41t-13.5 -68.5v-1110q0 -53 -31 -79.5t-74 -26.5q-35 0 -63.5 13t-45.5 29t-44 48l-764 886v-686q0 -39 17 -64.5t41.5 -37.5t49 -22.5t41.5 -29t17 -48.5q0 -35 -26.5 -53.5
t-74.5 -18.5q-33 0 -89.5 3t-82.5 3q-25 0 -80.5 -3t-84.5 -3q-45 0 -68 21t-23 51q0 25 13.5 41.5t32.5 27.5t37.5 24.5t32 40.5t13.5 68v926q0 41 -13.5 68.5t-32.5 41t-37.5 24.5t-32 27.5t-13.5 41.5q0 31 27.5 51t73.5 20q28 0 81.5 -3t77.5 -3q32 0 84 3t76 3
q39 0 67.5 -15t61.5 -52l602 -701v494q0 39 -17 64.5t-41.5 38t-49 23t-41.5 29t-17 48.5q0 29 28 50t73 21q33 0 89 -3t83 -3q25 0 81 3t85 3z" />
    <glyph glyph-name="O" unicode="O" horiz-adv-x="1724" 
d="M858 -37q-172 0 -318.5 47.5t-255.5 138t-171 231t-62 316.5q0 145 41.5 272.5t116.5 224.5t176 167.5t223 106.5t254 36q227 0 411 -98.5t292 -282t108 -417.5q0 -348 -219.5 -545t-595.5 -197zM862 168q87 0 152.5 46.5t102.5 128t55 178t18 208.5q0 83 -11 162.5
t-36 155t-62 132t-93 90.5t-124 34q-86 0 -151.5 -50.5t-103 -136t-56 -186.5t-18.5 -213q0 -106 19.5 -201.5t57.5 -174.5t102.5 -126t147.5 -47z" />
    <glyph glyph-name="P" unicode="P" horiz-adv-x="1513" 
d="M748 1481q370 0 558.5 -142.5t188.5 -394.5q0 -493 -721 -493q-22 0 -58 1q-63 1 -78 -5.5t-15 -40.5v-136q0 -40 15.5 -66t37.5 -38.5t44.5 -23t38 -28.5t15.5 -46q0 -30 -23 -51t-67 -21q-18 0 -105 3t-176 3q-81 0 -155.5 -3t-91.5 -3q-44 0 -67 21t-23 51
q0 25 12 41.5t29.5 27.5t35 24.5t29.5 40.5t12 68v926q0 34 -8.5 59.5t-22 38t-28.5 24.5t-28.5 20.5t-22 24t-8.5 36.5q0 29 27.5 50t72.5 21q17 0 85.5 -3t147.5 -3q43 0 158.5 8.5t190.5 8.5zM739 647q135 0 207 78.5t72 228.5q0 158 -75.5 243t-203.5 85q-41 0 -67 -8.5
t-35.5 -25.5t-11.5 -28t-2 -30v-461q0 -45 28.5 -63.5t87.5 -18.5z" />
    <glyph glyph-name="Q" unicode="Q" horiz-adv-x="1724" 
d="M1571 78q29 0 47 -19t18 -49q0 -31 -25 -74t-95 -143q-37 -53 -80.5 -76.5t-104.5 -23.5q-120 0 -212 80.5t-132 195.5q-61 -6 -129 -6q-172 0 -318.5 47.5t-255.5 138t-171 231t-62 316.5q0 145 41.5 272.5t116.5 224.5t176 167.5t223 106.5t254 36q227 0 411 -98.5
t292 -282t108 -417.5q0 -233 -102 -402t-289 -256q40 -59 104 -59q34 0 96.5 45t88.5 45zM535 717q0 -106 19.5 -201.5t57.5 -174.5t102.5 -126t147.5 -47q45 0 90 10q-51 230 -153 230q-19 0 -46 -11.5t-40 -11.5q-22 0 -35.5 15t-13.5 38q0 48 59 91.5t141 43.5
q96 0 164 -62.5t107 -162.5q55 130 55 381q0 83 -11 162.5t-36 155t-62 132t-93 90.5t-124 34q-86 0 -151.5 -50.5t-103 -136t-56 -186.5t-18.5 -213z" />
    <glyph glyph-name="R" unicode="R" horiz-adv-x="1640" 
d="M1206 565l187 -235q49 -62 102 -107.5t82.5 -63.5t49.5 -43t20 -59q0 -27 -19.5 -44t-52.5 -17q-27 0 -132 3t-179 3q-68 0 -158 -3t-111 -3q-102 0 -102 70q0 28 14 44.5t31 22t31 21.5t14 43q0 9 -2 17.5t-7 18.5l-8.5 17t-12 19t-12 16.5t-14 17.5t-12.5 16l-92 123
q-30 39 -54 54.5t-58 15.5h-49q-39 0 -39 -49v-193q0 -41 12.5 -68t30.5 -40.5t36 -24.5t30.5 -27.5t12.5 -41.5q0 -30 -23 -51t-67 -21q-17 0 -94 3t-158 3t-155.5 -3t-91.5 -3q-44 0 -67 21t-23 51q0 25 12 41.5t29.5 27.5t35 24.5t29.5 40.5t12 68v926q0 34 -8.5 59.5
t-22 38t-28.5 24.5t-28.5 20.5t-22 24t-8.5 36.5q0 30 24.5 50.5t81.5 20.5q8 0 81 -3t124 -3q35 0 172.5 8.5t210.5 8.5q365 0 553 -133.5t188 -366.5q0 -150 -77.5 -258t-217.5 -158zM737 680q148 0 217.5 70t69.5 225q0 159 -80 233t-215 74q-49 0 -77.5 -20t-28.5 -72
v-438q0 -42 27.5 -57t86.5 -15z" />
    <glyph glyph-name="S" unicode="S" horiz-adv-x="1458" 
d="M313 -51q-36 0 -59 26.5t-49 81.5l-94 205q-66 142 -66 195q0 42 22 65t52 23q15 0 27.5 -4t27 -16t19 -16.5t22.5 -23.5q48 -51 82.5 -84t94 -80t112.5 -75t125.5 -49t146.5 -21q118 0 180 46t62 120q0 37 -16 66t-43 49.5t-70 38.5t-89.5 32t-108.5 31q-15 4 -23 6
q-61 17 -111.5 33.5t-112 42t-109.5 53.5t-95 67.5t-78 83t-50.5 101.5t-19.5 123q0 124 66 223.5t178.5 154t247.5 54.5q72 0 135.5 -12.5t104 -24.5t57.5 -12q20 0 36 17t34 34t44 17q18 0 33 -5t25 -12t22 -23.5t19 -28.5t22 -38t25 -43l55 -92q94 -156 94 -215
q0 -29 -19 -47.5t-42 -18.5q-20 0 -37.5 8.5t-29.5 19t-36 34.5q-42 43 -88 80t-106.5 75t-131.5 60t-141 22q-83 0 -127.5 -31.5t-44.5 -88.5q0 -24 7 -42.5t28 -35t37.5 -27t59.5 -25.5t68 -22.5t88 -24.5q2 -1 3.5 -1.5t3.5 -0.5q60 -16 105 -29.5t101.5 -33.5t98 -38.5
t88 -45t79.5 -54.5t65 -64.5t51.5 -77t31 -90.5t11.5 -107q0 -228 -168 -360t-440 -132q-78 0 -155 13.5t-130.5 26.5t-73.5 13q-32 0 -68 -34.5t-65 -34.5z" />
    <glyph glyph-name="T" unicode="T" horiz-adv-x="1630" 
d="M535 -4q-45 0 -68 21t-23 51q0 28 15.5 46t38 28.5t45 22.5t38 38t15.5 67v901q0 53 -21.5 78t-70.5 25h-21q-36 0 -69.5 -14t-74.5 -50t-70 -66.5t-86 -95.5q-15 -17 -23 -26q-28 -31 -48 -45t-46 -14q-31 0 -52.5 23t-21.5 63q0 12 1.5 23.5t3.5 21t7.5 24.5t9 24
t12 30.5t13.5 33.5l80 205q23 59 49.5 84t64.5 25q26 0 74 -27t103 -27h811q55 0 102.5 27t73.5 27q38 0 64.5 -25t49.5 -84l80 -205q5 -12 13.5 -33.5t12 -30.5t9 -24t7.5 -24.5t3.5 -21t1.5 -23.5q0 -40 -21 -63t-52 -23q-26 0 -46.5 14t-48.5 45q-122 137 -162 173
q-86 79 -161 79h-21q-49 0 -70.5 -25t-21.5 -78v-901q0 -41 15.5 -67t38 -38t45 -22.5t38 -28.5t15.5 -46q0 -30 -23 -51t-67 -21q-19 0 -105 3t-176 3q-89 0 -175.5 -3t-104.5 -3z" />
    <glyph glyph-name="U" unicode="U" horiz-adv-x="1519" 
d="M764 -33q-116 0 -212.5 17t-177.5 55t-137 95t-87 141t-31 190q0 53 8 151l43 512q6 75 6 91q0 32 -11.5 54.5t-21.5 31t-32 22.5q-18 10 -27.5 17t-18 21.5t-8.5 33.5q0 30 22.5 50.5t67.5 20.5q17 0 92 -3t156 -3t162 3t98 3q45 0 67.5 -20.5t22.5 -50.5
q0 -20 -8 -35.5t-18 -23t-27 -17.5q-19 -13 -26.5 -19.5t-21.5 -22t-21 -36.5t-9 -49l-47 -588q-8 -116 -8 -131q0 -123 76 -193.5t225 -70.5q63 0 115.5 13.5t96.5 42.5t68.5 81t24.5 123q0 7 -6 94l-53 629q-2 27 -10.5 47t-25 33.5t-28 20t-34.5 16.5q-20 9 -29 14
t-22 15.5t-18 24t-5 32.5q0 29 27.5 50t72.5 21q32 0 92 -3t86 -3q25 0 81 3t85 3q45 0 67.5 -20.5t22.5 -50.5q0 -28 -13.5 -42.5t-41.5 -29.5q-24 -14 -36 -23t-25 -31.5t-13 -53.5q0 -3 7 -91l45 -544q8 -114 8 -129q0 -128 -45 -222.5t-130 -152.5t-199.5 -85.5
t-260.5 -27.5z" />
    <glyph glyph-name="V" unicode="V" horiz-adv-x="1660" 
d="M1597 1470q44 0 66.5 -17.5t22.5 -45.5q0 -33 -21 -55.5t-49.5 -37t-65 -54t-59.5 -99.5l-416 -1063q-20 -50 -43 -74t-71.5 -36.5t-137.5 -12.5q-84 0 -130.5 12t-70.5 36.5t-44 74.5l-416 1061q-22 55 -56.5 94t-61.5 55t-47 40t-20 57q0 28 22.5 46.5t57.5 18.5
q29 0 121.5 -3t171.5 -3q82 0 183.5 3t130.5 3q50 0 78 -18.5t28 -52.5q0 -29 -14.5 -48.5t-36 -30.5t-42.5 -22t-35.5 -30.5t-14.5 -48.5q0 -9 2 -19.5t6.5 -24.5t8 -24t11 -30t11.5 -31l278 -723l291 757q27 70 27 101q0 29 -16.5 48t-40.5 29.5t-48 20.5t-40.5 28.5
t-16.5 47.5q0 71 100 71q39 0 105.5 -3t95.5 -3q31 0 95.5 3t100.5 3z" />
    <glyph glyph-name="W" unicode="W" horiz-adv-x="2377" 
d="M2322 1470q40 0 62 -17t22 -44q0 -28 -13.5 -46t-35.5 -30.5t-45 -26t-47 -40.5t-37 -66l-381 -1114q-13 -38 -32 -60t-65 -36.5t-122 -14.5q-77 0 -121.5 15t-60.5 35.5t-31 60.5l-223 633l-229 -633q-21 -58 -67.5 -84.5t-156.5 -26.5q-74 0 -117.5 15t-60.5 36t-31 60
l-393 1114q-13 37 -35 64t-44 41t-42 27t-32.5 31.5t-12.5 45.5q0 26 24 43.5t58 17.5q28 0 116 -3t169 -3q80 0 171.5 3t119.5 3q98 0 98 -69q0 -25 -12 -41.5t-29.5 -26t-34.5 -19t-29 -29t-12 -48.5q0 -31 21 -96l235 -721l217 612l-59 168q-13 37 -34 64t-41.5 41
t-39 27t-30 31.5t-11.5 45.5q0 26 24 43.5t58 17.5q27 0 110 -3t163 -3q81 0 175 3t122 3q96 0 96 -69q0 -25 -13.5 -41.5t-32 -26t-37.5 -19t-32.5 -29t-13.5 -48.5q0 -33 20 -96l242 -717l213 692q27 89 27 121q0 29 -14.5 48.5t-35 29l-41 19t-35 26t-14.5 41.5
q0 69 97 69q38 0 102.5 -3t91.5 -3q29 0 90 3t92 3z" />
    <glyph glyph-name="X" unicode="X" horiz-adv-x="1591" 
d="M1020 803l397 -549q32 -44 71.5 -74t65.5 -41t44 -29t18 -47q0 -31 -23 -49t-57 -18q-18 0 -124.5 3t-182.5 3q-75 0 -183 -3t-131 -3q-100 0 -100 65q0 26 16.5 44t37 26t37 23.5t16.5 38.5q0 33 -50 102l-174 244l-198 -248q-49 -61 -49 -92q0 -26 20 -42.5t43.5 -23.5
t43.5 -24.5t20 -45.5q0 -67 -101 -67q-19 0 -109.5 3t-123.5 3q-28 0 -100.5 -3t-86.5 -3q-37 0 -59.5 17.5t-22.5 47.5q0 31 20 51.5t51 35t85.5 56.5t106.5 103l340 400l-355 493q-34 47 -73.5 80t-65.5 45t-43.5 31t-17.5 47q0 31 23 49t58 18q16 0 117.5 -3t179.5 -3
q72 0 176.5 3t129.5 3q100 0 100 -65q0 -27 -16 -44.5t-35 -24.5t-35 -24t-16 -42q0 -32 51 -103l143 -196l164 207q45 61 45 88q0 24 -17.5 40t-39 23.5t-39 26t-17.5 47.5q0 31 25 49t74 18q20 0 101 -3t114 -3q27 0 95 3t83 3q37 0 59.5 -17.5t22.5 -47.5
q0 -29 -17.5 -47.5t-42.5 -28.5t-64 -37t-71 -65z" />
    <glyph glyph-name="Y" unicode="Y" horiz-adv-x="1511" 
d="M1452 1470q34 0 54 -17t20 -44q0 -31 -16 -51.5t-38 -31t-50 -34t-46 -55.5l-405 -713v-254q0 -41 15.5 -67t37.5 -38t44.5 -22.5t38 -28.5t15.5 -46q0 -30 -23 -51t-67 -21q-19 0 -104.5 3t-175.5 3q-89 0 -176 -3t-105 -3q-44 0 -67 21t-23 51q0 28 15.5 46t37.5 28.5
t44.5 22.5t38 38t15.5 67v267l-395 700q-17 31 -43.5 54.5t-46.5 34.5t-34.5 31.5t-14.5 49.5q0 28 20.5 45.5t53.5 17.5q26 0 113 -3t165 -3q73 0 165 3t118 3q50 0 78 -18t28 -51q0 -30 -17.5 -48t-38.5 -25t-38.5 -26.5t-17.5 -52.5q0 -30 49 -123l196 -370l209 370
q43 77 43 117q0 29 -14 47.5t-34 27.5t-39.5 18t-33.5 24.5t-14 40.5q0 69 94 69q34 0 97.5 -3t89.5 -3q24 0 84.5 3t97.5 3z" />
    <glyph glyph-name="Z" unicode="Z" horiz-adv-x="1492" 
d="M1411 555q29 0 51.5 -22.5t22.5 -59.5q0 -39 -12 -74.5t-52 -124.5l-100 -219q-26 -56 -53.5 -82t-67.5 -26q-26 0 -72.5 26.5t-101.5 26.5h-674q-76 0 -146.5 -3t-88.5 -3q-43 0 -70 27t-27 55q0 33 21 63l799 1135h-197q-58 0 -107 -15.5t-95.5 -50t-83 -70.5
t-93.5 -96q-14 -16 -22 -24q-31 -33 -50.5 -46.5t-44.5 -13.5q-29 0 -51 22.5t-22 59.5q0 30 11 61t37 90q2 3 2.5 5t2 5l2.5 5l90 205q27 60 53.5 84.5t67.5 24.5q26 0 72.5 -27t101.5 -27h569q81 0 152 3.5t88 3.5q44 0 71 -25.5t27 -56.5q0 -37 -22 -68l-797 -1130h277
q43 0 82 9t76.5 30.5t67.5 43.5t69.5 62.5t66.5 71.5t74 86q50 59 96 59z" />
    <glyph glyph-name="bracketleft" unicode="[" horiz-adv-x="864" 
d="M721 -168h-395q-80 0 -130.5 50.5t-50.5 129.5v1360q0 79 50.5 129.5t130.5 50.5h395q121 0 121 -96q0 -98 -121 -98h-119q-30 0 -42.5 -11.5t-12.5 -35.5v-1237q0 -24 12.5 -35.5t42.5 -11.5h119q121 0 121 -99q0 -96 -121 -96z" />
    <glyph glyph-name="backslash" unicode="\" horiz-adv-x="862" 
d="M698 -66q-70 0 -110 21.5t-62 81.5l-471 1302q-16 46 -16 66q0 40 30 55t97 15q70 0 110 -21.5t62 -81.5l471 -1302q16 -46 16 -66q0 -40 -30 -55t-97 -15z" />
    <glyph glyph-name="bracketright" unicode="]" horiz-adv-x="864" 
d="M539 -168h-396q-120 0 -120 96q0 99 120 99h119q30 0 42.5 11.5t12.5 35.5v1237q0 24 -12.5 35.5t-42.5 11.5h-119q-120 0 -120 98q0 96 120 96h396q79 0 129.5 -50t50.5 -130v-1360q0 -80 -50.5 -130t-129.5 -50z" />
    <glyph glyph-name="asciicircum" unicode="^" horiz-adv-x="1069" 
d="M147 811q-42 0 -69 16t-27 43q0 25 29 70l295 446q40 61 71.5 81t88.5 20t88 -20t71 -81l295 -446q29 -45 29 -70q0 -27 -27 -43t-69 -16q-158 0 -220 111l-151 272q-6 12 -16 12q-11 0 -17 -12l-151 -272q-62 -111 -220 -111z" />
    <glyph glyph-name="underscore" unicode="_" horiz-adv-x="966" 
d="M918 -362h-869q-56 0 -78 20.5t-22 81.5v82q0 62 21.5 82t78.5 20h869q55 0 76 -20t22 -82l2 -82q1 -62 -21 -82t-79 -20z" />
    <glyph glyph-name="grave" unicode="`" 
d="M520 1174q-68 0 -119 38q-149 112 -225 174q-51 43 -69.5 65.5t-18.5 51.5q0 32 31.5 47t124.5 15q76 0 110.5 -14t59.5 -50q12 -17 43.5 -62t59 -85.5t52.5 -81.5q21 -34 21 -55q0 -18 -19 -30.5t-51 -12.5z" />
    <glyph glyph-name="a" unicode="a" horiz-adv-x="1318" 
d="M1311 225q19 -3 31 -15.5t12 -33.5q0 -28 -20.5 -60t-58.5 -62t-101 -50t-138 -20q-73 0 -135.5 33.5t-103.5 95.5q-167 -138 -385 -138q-174 0 -275.5 89.5t-101.5 234.5q0 147 116 243.5t324 96.5q125 0 223 -27l-2 23q-13 97 -67 149t-133 52q-96 0 -215 -52
q-6 -2 -21.5 -9t-22.5 -10t-18.5 -7.5t-20 -6t-16.5 -1.5q-24 0 -42.5 18.5t-18.5 48.5q0 62 88 131q155 121 414 121q414 0 460 -340l45 -332q11 -87 50 -120.5t133 -51.5zM592 195q87 0 158 51l-31 217q-37 12 -103 12q-79 0 -127.5 -32t-48.5 -99q0 -70 43 -109.5
t109 -39.5z" />
    <glyph glyph-name="b" unicode="b" horiz-adv-x="1429" 
d="M918 1069q202 0 333 -142t131 -392q0 -160 -76.5 -290t-210 -204t-296.5 -74q-89 0 -160.5 13.5t-106 30.5t-67.5 30.5t-55 13.5q-33 0 -106.5 -36.5t-104.5 -36.5q-39 0 -59.5 25.5t-20.5 70.5v1075q0 37 -15 60t-37 34t-44 20t-37 26t-15 44q0 37 49 67t193 91
q179 74 223 74q80 0 80 -117v-594q67 96 168 153.5t234 57.5zM766 156q87 0 141 68.5t54 203.5q0 164 -71.5 268.5t-170.5 104.5q-89 0 -146 -75.5t-57 -190.5v-29q0 -93 29 -171.5t87 -128.5t134 -50z" />
    <glyph glyph-name="c" unicode="c" horiz-adv-x="1189" 
d="M633 -33q-258 0 -423 145.5t-165 385.5q0 130 51.5 239.5t136.5 181t193 111t223 39.5q98 0 188.5 -28.5t149.5 -71.5t94 -91t35 -90q0 -46 -42.5 -104t-125.5 -109q-45 -28 -76 -28q-67 0 -84 71q-1 7 -7 39t-11 52.5t-15 54.5t-23 57t-30.5 46t-42.5 34.5t-55 11.5
q-70 0 -109.5 -66t-39.5 -181q0 -194 102.5 -315.5t249.5 -121.5q51 0 105 18.5t84 36t75 48.5q29 22 51 22q23 0 37.5 -18t14.5 -39q0 -20 -17 -59q-19 -42 -59.5 -86t-103.5 -87t-157.5 -70.5t-203.5 -27.5z" />
    <glyph glyph-name="d" unicode="d" horiz-adv-x="1449" 
d="M1294 1452v-1081q0 -31 10 -54t24.5 -34.5t32 -23t32 -19.5t24.5 -23.5t10 -36.5q0 -43 -48.5 -70.5t-196.5 -76.5q-174 -58 -207 -58q-78 0 -78 121v78q-140 -207 -385 -207q-201 0 -333 142.5t-132 386.5q0 165 75 297t205.5 205t290.5 73q168 0 279 -84v176
q0 37 -16 59.5t-38.5 33t-45 19.5t-38.5 26.5t-16 46.5q0 38 50 66.5t206 90.5q165 64 218 64q77 0 77 -117zM705 236q86 0 139 76t53 192v24q0 145 -68 250t-174 105q-82 0 -134 -71t-52 -206q0 -162 70 -266t166 -104z" />
    <glyph glyph-name="e" unicode="e" horiz-adv-x="1230" 
d="M1145 336q26 0 40.5 -20t14.5 -37q0 -24 -20 -60q-24 -40 -71 -81.5t-115.5 -81t-165.5 -64.5t-203 -25q-256 0 -418 152t-162 387q0 168 85.5 298.5t222.5 197.5t300 67q117 0 215.5 -37t161 -97t97 -133t34.5 -147q0 -35 -8.5 -53.5t-19 -24t-37.5 -14.5l-572 -178
q50 -76 126.5 -122t170.5 -46q66 0 122 19t120 61q57 39 82 39zM600 881q-72 0 -115 -63.5t-43 -174.5q0 -42 13 -96l260 84q26 9 39.5 23.5t13.5 43.5q0 67 -50 125t-118 58z" />
    <glyph glyph-name="f" unicode="f" horiz-adv-x="856" 
d="M561 1036h246q61 0 61 -53q0 -28 -6 -70q-5 -31 -20 -46t-45 -15h-193v-594q0 -39 15 -64t36.5 -37t43 -22t36.5 -27.5t15 -44.5q0 -28 -21.5 -47.5t-64.5 -19.5q-18 0 -97.5 3t-160.5 3q-72 0 -141 -3t-85 -3q-43 0 -64.5 19t-21.5 48q0 24 11.5 40t28 26.5t33.5 23.5
t28.5 39.5t11.5 65.5v594h-131q-57 0 -66 61q-6 42 -6 70q0 53 62 53h106q-19 39 -28 61.5t-19 67.5t-10 92q0 144 117 236t321 92q105 0 200 -30t148 -72.5t53 -81.5q0 -64 -102 -189q-45 -55 -86 -55q-26 0 -44 16t-24 44q-4 16 -11 51t-10.5 49t-11 39t-15 35t-18.5 23
t-25.5 17.5t-33.5 4.5q-50 0 -76 -39.5t-26 -98.5q0 -36 5 -67.5t16.5 -60.5t19 -45.5t25.5 -47.5t24 -41z" />
    <glyph glyph-name="g" unicode="g" horiz-adv-x="1318" 
d="M993 281q148 -10 247 -86.5t99 -217.5q0 -171 -176.5 -274.5t-484.5 -103.5q-312 0 -481.5 69.5t-169.5 181.5q0 113 157 173q-110 62 -110 182q0 65 43 133t116 117q-178 81 -178 243q0 74 40 140.5t115 118t194.5 82t267.5 30.5q46 0 69 -2q4 77 32 148.5t68 119.5
t85 76.5t84 28.5q80 0 207 -111q59 -52 59 -98q0 -31 -19 -52t-55 -22q-141 -4 -221 -26t-92 -82q157 -32 241 -110.5t84 -186.5q0 -73 -38 -137t-111.5 -114.5t-193 -80t-269.5 -29.5q-104 0 -211 17q-24 -31 -24 -46q0 -24 34 -36t111 -17q209 -11 481 -28zM627 918
q-84 0 -136.5 -51t-52.5 -130q0 -96 60 -145t143 -49q84 0 136 50.5t52 129.5q0 97 -59 146t-143 49zM678 -252q150 0 219.5 24.5t69.5 63.5q0 60 -113 74q-40 5 -496 57h-2q-39 -42 -39 -90q0 -129 361 -129z" />
    <glyph glyph-name="h" unicode="h" horiz-adv-x="1419" 
d="M1245 668l49 -383q6 -49 21.5 -81.5t33 -47.5t34 -26.5t27.5 -27.5t11 -41q0 -28 -23.5 -45.5t-64.5 -17.5q-16 0 -82.5 3t-138.5 3q-73 0 -141 -3t-84 -3q-46 0 -69 19.5t-23 48.5q0 26 16.5 44.5t36.5 27.5t36.5 27.5t16.5 45.5q0 22 -6 76l-37 266q-17 120 -56 170.5
t-104 50.5q-60 0 -102.5 -56.5t-42.5 -193.5v-266q0 -39 12 -65.5t28.5 -39.5t33.5 -23.5t29 -26.5t12 -40q0 -28 -21.5 -47.5t-64.5 -19.5q-16 0 -86 3t-142 3t-140.5 -3t-84.5 -3q-43 0 -64.5 19t-21.5 48q0 24 11.5 40t28.5 26.5t33.5 23.5t28 39.5t11.5 65.5v895
q0 37 -13 60t-32 34t-37.5 20t-31.5 26t-13 44q0 38 47.5 68t187.5 90q172 74 211 74q78 0 78 -117v-592h2q49 88 141 146.5t207 58.5q140 0 228.5 -101.5t113.5 -295.5z" />
    <glyph glyph-name="i" unicode="i" horiz-adv-x="731" 
d="M297 1141q-84 0 -132 41t-48 106q0 94 88.5 171t212.5 77q79 0 134.5 -45t55.5 -113q0 -91 -93.5 -164t-217.5 -73zM154 -4q-43 0 -64.5 19t-21.5 48q0 24 11.5 40t28 26.5t33 23.5t28 39.5t11.5 65.5v383q0 37 -13 60t-32 34t-37.5 20t-31.5 26t-13 44q0 37 47.5 67
t188.5 91q172 74 211 74q78 0 78 -117v-682q0 -39 11.5 -65.5t28.5 -39.5t34 -23.5t28.5 -26.5t11.5 -40q0 -28 -21.5 -47.5t-64.5 -19.5q-16 0 -85.5 3t-141.5 3t-140.5 -3t-84.5 -3z" />
    <glyph glyph-name="j" unicode="j" horiz-adv-x="675" 
d="M276 1141q-84 0 -132 41t-48 106q0 94 88.5 171t212.5 77q79 0 135 -45t56 -113q0 -91 -94 -164t-218 -73zM176 -168q0 15 -8 75.5t-8 112.5v621q0 37 -13 60t-32 34t-37.5 20t-31.5 26t-13 44q0 37 48 67t189 91q111 48 149.5 61t59.5 13q78 0 78 -117v-852
q0 -101 -45.5 -192.5t-119.5 -156t-170 -102.5t-195 -38q-88 0 -126 32.5t-38 104.5q0 36 4 68.5t13.5 65t29 52t47.5 19.5q36 0 61 -43q37 -61 63 -91t54 -30q41 0 41 55z" />
    <glyph glyph-name="k" unicode="k" horiz-adv-x="1409" 
d="M991 715l299 -492q22 -35 50.5 -58.5t48.5 -32t34.5 -26t14.5 -45.5q0 -30 -22.5 -47.5t-55.5 -17.5q-18 0 -98.5 3t-149.5 3q-64 0 -137.5 -3t-97.5 -3q-48 0 -72.5 17.5t-24.5 47.5q0 25 12 42t27 24.5t27 24.5t12 43q0 30 -37 92l-110 194l-158 -131v-92
q0 -39 12 -65.5t28.5 -39.5t33.5 -23.5t29 -26.5t12 -40q0 -28 -21.5 -47.5t-64.5 -19.5q-16 0 -86 3t-142 3t-140.5 -3t-84.5 -3q-43 0 -64.5 19t-21.5 48q0 24 11.5 40t28.5 26.5t33.5 23.5t28 39.5t11.5 65.5v895q0 37 -13 60t-32 34t-37.5 20t-31.5 26t-13 44
q0 38 47.5 68t187.5 90q172 74 211 74q78 0 78 -117v-881l262 232q24 23 32.5 35t8.5 26q0 15 -13.5 26t-29.5 17t-29.5 23.5t-13.5 44.5q0 65 96 65q20 0 88 -3t97 -3q27 0 118.5 3t108.5 3q34 0 56 -17t22 -46q0 -32 -24 -52t-56.5 -29t-80 -29.5t-81.5 -49.5z" />
    <glyph glyph-name="l" unicode="l" horiz-adv-x="708" 
d="M129 -4q-43 0 -64.5 19t-21.5 48q0 24 11.5 40t28.5 26.5t33.5 23.5t28 39.5t11.5 65.5v895q0 37 -13 60t-32 34t-37.5 20t-31.5 26t-13 44q0 38 47.5 68t187.5 90q172 74 211 74q78 0 78 -117v-1194q0 -39 12 -65.5t28.5 -39.5t33.5 -23.5t29 -26.5t12 -40
q0 -28 -21.5 -47.5t-64.5 -19.5q-16 0 -86 3t-142 3t-140.5 -3t-84.5 -3z" />
    <glyph glyph-name="m" unicode="m" horiz-adv-x="2117" 
d="M1944 668l51 -383q7 -49 23.5 -81.5t34.5 -47.5t35 -26.5t28.5 -27.5t11.5 -41q0 -28 -24.5 -45.5t-65.5 -17.5q-18 0 -86 3t-137 3q-74 0 -143.5 -3t-86.5 -3q-47 0 -70.5 19.5t-23.5 48.5q0 26 17.5 44.5t38 28.5t38 32.5t17.5 55.5q0 21 -13 119l-28 215
q-26 213 -144 213q-60 0 -98.5 -57.5t-38.5 -192.5v-266q0 -48 20 -77.5t43.5 -40t43.5 -29.5t20 -48q0 -27 -22.5 -47t-63.5 -20q-18 0 -91.5 3t-148.5 3q-71 0 -140 -3t-85 -3q-42 0 -64 19.5t-22 47.5q0 24 11.5 40t28 26.5t33.5 23.5t28.5 39.5t11.5 65.5v303
q0 109 -35.5 161t-110.5 52q-30 0 -56 -11.5t-50 -37.5t-38.5 -77.5t-14.5 -123.5v-266q0 -39 11.5 -65.5t28.5 -39.5t34 -23.5t28.5 -26.5t11.5 -40q0 -28 -21.5 -47.5t-64.5 -19.5q-16 0 -85.5 3t-141.5 3t-140.5 -3t-84.5 -3q-43 0 -64.5 19t-21.5 48q0 24 11.5 40
t28 26.5t33 23.5t28 39.5t11.5 65.5v383q0 37 -13 60t-32 34t-37.5 20t-31.5 26t-13 44q0 37 47.5 67t188.5 91q172 74 211 74q78 0 78 -117v-80h2q51 88 146.5 146.5t213.5 58.5q107 0 187.5 -53t119.5 -152q51 89 137 147t203 58q150 0 240.5 -100.5t116.5 -296.5z" />
    <glyph glyph-name="n" unicode="n" horiz-adv-x="1443" 
d="M1270 668l49 -385q6 -49 21.5 -81.5t33 -47.5t34 -26.5t27.5 -27.5t11 -41q0 -28 -23.5 -45.5t-64.5 -17.5q-16 0 -82.5 3t-138.5 3q-73 0 -141.5 -3t-84.5 -3q-46 0 -69 19t-23 48q0 26 16.5 44.5t36 29t36 33t16.5 55.5q0 30 -13 119l-28 209q-17 120 -56 170.5
t-104 50.5q-60 0 -102.5 -56.5t-42.5 -193.5v-266q0 -39 11.5 -65.5t28.5 -39.5t34 -23.5t28.5 -26.5t11.5 -40q0 -28 -21.5 -47.5t-64.5 -19.5q-16 0 -85.5 3t-141.5 3t-140.5 -3t-84.5 -3q-43 0 -64.5 19t-21.5 48q0 24 11.5 40t28 26.5t33 23.5t28 39.5t11.5 65.5v383
q0 37 -13 60t-32 34t-37.5 20t-31.5 26t-13 44q0 37 47.5 67t188.5 91q172 74 211 74q78 0 78 -117v-80h2q49 88 141 146.5t207 58.5q140 0 228.5 -101.5t113.5 -295.5z" />
    <glyph glyph-name="o" unicode="o" horiz-adv-x="1388" 
d="M670 -37q-146 0 -266 42.5t-197.5 116t-119.5 170.5t-42 208q0 122 50 228t138 182t214.5 119.5t273.5 43.5q146 0 265 -42.5t196.5 -116t119 -171t41.5 -208.5q0 -165 -87.5 -296t-241 -203.5t-344.5 -72.5zM735 152q91 0 134.5 71t43.5 219q0 65 -17.5 139.5
t-48.5 143.5t-82.5 114.5t-111.5 45.5q-178 0 -178 -293q0 -64 17 -137.5t48 -142.5t82.5 -114.5t112.5 -45.5z" />
    <glyph glyph-name="p" unicode="p" horiz-adv-x="1460" 
d="M948 1069q130 0 234.5 -64t167.5 -190t63 -293q0 -242 -154 -398.5t-389 -156.5q-116 0 -187.5 25.5t-125.5 70.5v-174q0 -38 14 -63t34.5 -37.5t40.5 -23t34 -27.5t14 -43q0 -27 -22.5 -47.5t-63.5 -20.5q-18 0 -95 3t-155 3q-72 0 -139.5 -3t-83.5 -3q-43 0 -64.5 19.5
t-21.5 48.5q0 24 11.5 40t27.5 26.5t32.5 23t28 39t11.5 65.5v752q0 37 -13 60t-31 34t-36.5 20t-31.5 26t-13 44q0 38 47.5 68t187.5 90q114 49 150 61.5t59 12.5q78 0 78 -117v-78q64 94 162 150.5t229 56.5zM801 156q84 0 137 69t53 203q0 163 -69 268t-166 105
q-87 0 -143 -77t-56 -192v-22q0 -147 67 -250.5t177 -103.5z" />
    <glyph glyph-name="q" unicode="q" horiz-adv-x="1398" 
d="M1280 952v-1063q0 -39 11.5 -65.5t28 -39t32.5 -23t27.5 -26.5t11.5 -40q0 -29 -21.5 -48.5t-64.5 -19.5q-16 0 -84 3t-140 3q-78 0 -155.5 -3t-94.5 -3q-43 0 -64.5 20t-21.5 48q0 26 14 43t34.5 27.5t41 22.5t34.5 37.5t14 63.5v281q-140 -203 -379 -203
q-197 0 -327 144t-130 389q0 249 161.5 409t401.5 160q75 0 142 -15t105 -33t75 -33t59 -15q31 0 104 38t105 38q39 0 59.5 -26.5t20.5 -70.5zM696 236q85 0 136 76t51 192v22q0 146 -65.5 250.5t-168.5 104.5q-79 0 -129.5 -70t-50.5 -205q0 -163 67 -266.5t160 -103.5z
" />
    <glyph glyph-name="r" unicode="r" horiz-adv-x="1153" 
d="M930 1065q97 0 159 -50.5t62 -121.5q0 -51 -23 -117t-69 -166q-32 -71 -88 -71q-48 0 -82 63q-37 66 -71.5 98.5t-78.5 32.5q-61 0 -111 -72.5t-50 -220.5v-182q0 -39 14.5 -64.5t35 -38t40.5 -22.5t34.5 -27t14.5 -43q0 -28 -21.5 -47.5t-64.5 -19.5q-18 0 -95 3t-157 3
q-72 0 -140.5 -3t-84.5 -3q-43 0 -64.5 19t-21.5 48q0 24 11.5 40t28 26.5t33 23.5t28 39.5t11.5 65.5v383q0 37 -13 60t-32 34t-37.5 20t-31.5 26t-13 44q0 37 47.5 67t188.5 91q172 74 211 74q78 0 78 -117v-147q41 113 140 192.5t212 79.5z" />
    <glyph glyph-name="s" unicode="s" horiz-adv-x="1214" 
d="M270 -51q-24 0 -44.5 18.5t-30 37t-25.5 52.5l-70 154q-4 8 -15.5 31.5t-15.5 33t-10.5 26.5t-9 29.5t-2.5 24.5q0 33 19 51.5t45 18.5q22 0 41 -11t47 -38q242 -234 458 -234q65 0 103.5 26t38.5 64q0 15 -7 27t-23 22t-32 17t-44.5 14t-50 12t-58 12.5t-60.5 12.5
q-458 98 -458 375q0 150 123 245t303 95q69 0 155.5 -16.5t97.5 -16.5q21 0 46 20.5t53 20.5q24 0 45 -14t31 -27t30 -43l84 -127q58 -88 58 -129q0 -27 -16.5 -44t-39.5 -17q-10 0 -19 2t-19.5 9l-15 10t-18.5 15t-18 15q-97 77 -201 125.5t-192 48.5q-48 0 -79.5 -20
t-31.5 -52q0 -11 3.5 -20.5t13 -18t18.5 -15t26 -13t30.5 -11t37 -11t39.5 -10t45 -10.5t47 -11q82 -19 142.5 -37.5t126 -49t107.5 -67.5t69 -92t27 -123q0 -116 -71.5 -200.5t-186 -124.5t-257.5 -40q-85 0 -172.5 16.5t-97.5 16.5q-30 0 -61 -27.5t-58 -27.5z" />
    <glyph glyph-name="t" unicode="t" horiz-adv-x="929" 
d="M842 279q29 0 45 -18.5t16 -45.5q0 -56 -57 -113q-131 -131 -344 -131q-138 0 -236 72t-98 172q0 9 4 134t4 208v295h-88q-38 0 -63 21t-25 55q0 35 20 59t62 45q99 50 169.5 113.5t141.5 169.5q19 29 27 40.5t23 28.5t29 23t32 6q30 0 49.5 -21.5t19.5 -66.5v-289h246
q62 0 62 -63q0 -11 -7 -60q-5 -31 -20 -46t-45 -15h-236v-451q0 -112 29 -155t80 -43q42 0 96 45q36 31 64 31z" />
    <glyph glyph-name="u" unicode="u" horiz-adv-x="1456" 
d="M1284 932v-582q0 -38 16 -66t38.5 -44t45 -29t38.5 -30.5t16 -39.5q0 -49 -50.5 -72t-213.5 -57q-163 -35 -207 -35q-38 0 -59 27t-21 70v98h-2q-54 -90 -147 -147.5t-214 -57.5q-158 0 -259 101t-101 290v299q0 37 -15 62t-36.5 37.5t-43 23t-36.5 27t-15 41.5
q0 44 49.5 71t200.5 76q180 58 213 58q80 0 80 -121v-449q0 -225 158 -225q32 0 59.5 11.5t53 38t40.5 78t15 122.5v149q0 37 -17.5 61.5t-42 36.5t-49 22.5t-42 27.5t-17.5 43q0 43 51 69t221 80q181 56 215 56q78 0 78 -121z" />
    <glyph glyph-name="v" unicode="v" horiz-adv-x="1304" 
d="M1235 1040q34 0 56 -18t22 -47q0 -24 -10.5 -39.5t-28 -27.5t-37.5 -26t-43.5 -43t-40.5 -71l-287 -676q-9 -20 -12 -26t-12.5 -22t-17.5 -22t-24.5 -16.5t-35 -14.5t-46.5 -7.5t-63 -3.5q-77 0 -121 15t-59.5 35t-34.5 62l-290 676q-23 53 -53 86.5t-52 44.5t-37.5 29
t-15.5 47q0 30 22.5 47.5t55.5 17.5q17 0 98.5 -3t155.5 -3q70 0 148 3t101 3q48 0 72.5 -17.5t24.5 -47.5q0 -27 -14 -46.5t-30 -29t-30 -31.5t-14 -53q0 -51 34 -135l140 -367l141 367q37 98 37 139q0 27 -14.5 47t-31.5 30.5t-31.5 31t-14.5 47.5q0 65 94 65q20 0 69 -3
t78 -3q27 0 81 3t71 3z" />
    <glyph glyph-name="w" unicode="w" horiz-adv-x="2033" 
d="M1968 1042q32 0 57 -19t25 -48q0 -24 -10.5 -40t-29 -27.5t-39 -25.5t-44.5 -43t-41 -71l-282 -674q-13 -31 -23 -47t-32 -34t-59.5 -25.5t-94.5 -7.5q-48 0 -83.5 6.5t-55 14.5t-35 25t-21 27.5t-15.5 33.5q-2 5 -3 7l-164 410l-156 -410q-10 -25 -14.5 -35t-20.5 -29
t-36 -27t-57 -15.5t-87 -7.5q-76 0 -119.5 15t-60.5 35.5t-35 63.5l-291 674q-23 53 -53 86t-51.5 43.5t-37 29t-15.5 48.5q0 31 23 49t56 18q17 0 99.5 -3t154.5 -3q71 0 149.5 3t98.5 3q50 0 76.5 -18t26.5 -49q0 -25 -12.5 -44t-27.5 -30t-27.5 -33.5t-12.5 -54.5
q0 -36 28 -115l140 -381l162 441l-5 12q-20 53 -48 85.5t-48.5 43t-35.5 28.5t-15 48q0 31 23.5 49t56.5 18q16 0 101 -3t161 -3q59 0 133.5 3t99.5 3q49 0 76 -18t27 -49q0 -25 -15 -44t-33 -29.5t-33 -33.5t-15 -55q0 -42 22 -115l121 -383l145 385q31 84 31 129
q0 26 -15 45t-33 28.5t-33 28.5t-15 44q0 31 26 49t72 18q22 0 71.5 -3t80.5 -3q27 0 78.5 3t68.5 3z" />
    <glyph glyph-name="x" unicode="x" horiz-adv-x="1288" 
d="M848 557l266 -305q35 -41 75 -71t63.5 -42.5t39 -31.5t15.5 -46q0 -30 -22.5 -47.5t-55.5 -17.5q-17 0 -99.5 3t-156.5 3q-71 0 -151 -3t-103 -3q-96 0 -96 63q0 23 11.5 38t26 22t26 23t11.5 40q0 39 -49 92l-86 99l-100 -111q-49 -55 -49 -88q0 -16 11 -29.5t24.5 -22
t24.5 -24.5t11 -37q0 -65 -96 -65q-20 0 -78.5 3t-87.5 3q-30 0 -84.5 -3t-70.5 -3q-34 0 -56 18t-22 47q0 35 24.5 54.5t80 54t102.5 84.5l241 262l-233 268q-35 41 -75 71t-63.5 42.5t-39 31.5t-15.5 46q0 30 22.5 47.5t55.5 17.5q17 0 99.5 -3t156.5 -3q70 0 147 3t99 3
q96 0 96 -63q0 -23 -10.5 -39t-23 -23t-23 -21t-10.5 -34q0 -37 49 -98l55 -66l74 78q55 58 55 92q0 16 -10.5 29t-22.5 21t-22.5 23.5t-10.5 35.5q0 30 22.5 47.5t63.5 17.5q26 0 74 -3t78 -3q27 0 86 3t76 3q34 0 56 -18t22 -47q0 -28 -15.5 -46t-37.5 -28t-58.5 -34
t-67.5 -56z" />
    <glyph glyph-name="y" unicode="y" horiz-adv-x="1314" 
d="M1235 1040q34 0 56 -18t22 -47q0 -22 -10.5 -37.5t-29 -30.5t-40.5 -34t-50.5 -59.5t-52.5 -96.5l-319 -746q-159 -372 -444 -372q-66 0 -117.5 15t-71.5 40q-33 40 -63.5 142t-30.5 173q0 38 20 63t48 25q38 0 63 -34q71 -92 117.5 -127t103.5 -35q67 0 121 110
l-383 746q-34 67 -71.5 113t-60.5 62t-38.5 36t-15.5 47q0 30 22.5 47.5t55.5 17.5q17 0 100.5 -3t157.5 -3q70 0 148 3t101 3q48 0 72.5 -17.5t24.5 -47.5q0 -27 -14 -46.5t-30 -29t-30 -31.5t-14 -53q0 -46 36 -135l152 -326l133 326q37 90 37 139q0 27 -14.5 47
t-31.5 30.5t-31.5 31t-14.5 47.5q0 65 94 65q20 0 69.5 -3t78.5 -3q27 0 77.5 3t67.5 3z" />
    <glyph glyph-name="z" unicode="z" horiz-adv-x="1220" 
d="M1128 428q25 0 46.5 -20.5t21.5 -53.5q0 -28 -13 -68t-28 -77l-65 -184q-27 -78 -84 -78q-25 0 -60.5 26.5t-64.5 26.5h-510q-69 0 -145 -4t-95 -4q-45 0 -71.5 23t-26.5 55q0 35 28 75l545 717h-92q-89 0 -156.5 -42t-140.5 -128q-39 -45 -78 -45q-24 0 -42.5 18
t-18.5 48q0 15 4 33t7 28.5t13 37t13 34.5l59 168q0 1 3.5 10.5t6 13.5t7 14t10 15t12.5 11t16.5 9t20.5 3q24 0 54.5 -27t57.5 -27h447q83 0 153 3t87 3q46 0 73 -20t27 -51q0 -33 -35 -80l-545 -717h123q108 0 187.5 50t162.5 153q42 51 86 51z" />
    <glyph glyph-name="braceleft" unicode="{" horiz-adv-x="915" 
d="M788 20q105 0 105 -96q0 -47 -25.5 -67.5t-79.5 -26.5q-71 -8 -208 -8q-183 0 -289.5 99t-106.5 241q0 60 28 155.5t28 135.5q0 102 -111 137q-19 6 -32.5 12t-31 17.5t-27 30t-9.5 42.5q0 76 100 105q111 34 111 139q0 39 -28 137t-28 156q0 139 106.5 237.5t289.5 98.5
q128 0 208 -9q56 -6 80.5 -27.5t24.5 -66.5q0 -96 -105 -96l-83 2q-109 0 -109 -96q0 -37 27.5 -158t27.5 -170q0 -83 -54 -152t-159 -98q105 -31 159 -100t54 -152q0 -49 -27.5 -169.5t-27.5 -157.5q0 -97 109 -97z" />
    <glyph glyph-name="bar" unicode="|" horiz-adv-x="606" 
d="M303 -305q-75 0 -114 27.5t-39 91.5v1847q0 64 39 91.5t114 27.5q76 0 115 -28t39 -91v-1847q0 -63 -39 -91t-115 -28z" />
    <glyph glyph-name="braceright" unicode="}" horiz-adv-x="915" 
d="M786 803q101 -29 101 -105q0 -24 -9.5 -42.5t-27 -30t-31.5 -17.5t-33 -12q-110 -35 -110 -137q0 -40 27.5 -135.5t27.5 -155.5q0 -142 -106 -241t-289 -99q-138 0 -209 8q-53 6 -78.5 26.5t-25.5 67.5q0 97 104 97l84 -2q108 0 108 96q0 37 -27.5 158t-27.5 170
q0 83 54 151.5t159 99.5q-105 29 -159 98t-54 152q0 49 27.5 170t27.5 158q0 96 -108 96l-84 -2q-104 0 -104 96q0 45 24 67t80 28q71 8 209 8q183 0 289 -98.5t106 -237.5q0 -58 -27.5 -156t-27.5 -137q0 -106 110 -139z" />
    <glyph glyph-name="asciitilde" unicode="~" horiz-adv-x="1189" 
d="M211 461q-55 0 -92 38t-37 83q0 28 10 51q40 89 115.5 150t191.5 61q55 0 115 -20t101.5 -43.5t85.5 -43.5t73 -20q92 0 146 94q22 39 61 39q55 0 92 -38t37 -83q0 -29 -10 -51q-40 -89 -115.5 -150t-191.5 -61q-54 0 -114 20t-102.5 43.5t-87 43.5t-71.5 20
q-92 0 -146 -94q-22 -39 -61 -39z" />
    <glyph glyph-name="uni00A0" unicode="&#xa0;" horiz-adv-x="491" 
 />
    <glyph glyph-name="exclamdown" unicode="&#xa1;" horiz-adv-x="587" 
d="M287 739q97 0 159 53.5t62 129.5q0 73 -51.5 117t-137.5 44q-97 0 -160 -54t-63 -130q0 -72 52.5 -116t138.5 -44zM295 633q65 0 88 -62q32 -89 83.5 -356t51.5 -412q0 -121 -52 -186.5t-173 -65.5q-120 0 -171.5 66t-51.5 186q0 145 51.5 409t83.5 359q22 62 90 62z" />
    <glyph glyph-name="cent" unicode="&#xa2;" horiz-adv-x="1265" 
d="M1133 377q29 0 48 -21t19 -47q0 -40 -37 -100q-45 -74 -150.5 -145.5t-256.5 -92.5v-166q0 -49 -21.5 -73.5t-72.5 -24.5q-97 0 -97 98v166q-217 27 -347 167t-130 356q0 121 39.5 224.5t106 173.5t148.5 114t171 57v145q0 99 96 99q51 0 72.5 -25t21.5 -74v-151
q22 -4 55 -12t54 -12.5t35 -4.5q23 0 52.5 24.5t49.5 24.5q58 0 90 -98l60 -188q7 -22 17 -49t14.5 -40t8 -29t3.5 -30q0 -37 -17 -55.5t-45 -18.5q-40 0 -82 56q-119 160 -179 217t-132 57q-71 0 -127.5 -90t-56.5 -250q0 -170 70.5 -255t183.5 -85q78 0 145 29.5t107 73.5
q1 1 10 11.5t11.5 13.5t11.5 10.5t15 10.5t16 6t20 3z" />
    <glyph glyph-name="sterling" unicode="&#xa3;" horiz-adv-x="1419" 
d="M1294 446q33 0 54.5 -30t21.5 -86q0 -57 -23.5 -119.5t-67 -120t-115.5 -94.5t-158 -37q-79 0 -160.5 30t-171 79.5t-121.5 62.5q-130 -164 -285 -164q-80 0 -141 45.5t-61 126.5q0 106 99.5 185t250.5 82q8 24 8 57q0 55 -33 133h-160q-61 0 -96 42.5t-35 96.5
q0 27 10 44.5t28 24t29 8t28 1.5h81q-83 162 -83 274q0 93 45.5 172.5t122.5 132t178.5 82t212.5 29.5q108 0 210.5 -27t174.5 -68.5t115.5 -92t43.5 -96.5q0 -49 -48.5 -108t-139.5 -114q-52 -32 -88 -32q-71 0 -92 77q-3 11 -10 43.5t-12.5 55t-18 53.5t-26.5 50.5
t-38 33.5t-53 14q-62 0 -97.5 -55t-35.5 -135q0 -32 6 -75t19 -112.5t18 -101.5h324q61 0 96 -42.5t35 -98.5q0 -27 -10 -44t-28 -23t-29 -7.5t-28 -1.5h-335v-12q0 -123 -39 -211q19 -4 83.5 -18.5t92 -20t71.5 -11.5t76 -6q64 0 116.5 21.5t111.5 69.5q47 38 77 38z" />
    <glyph glyph-name="currency" unicode="&#xa4;" horiz-adv-x="1200" 
d="M1004 416l86 -86q38 -38 38 -74q0 -38 -54 -89.5t-93 -51.5q-30 0 -70 37l-88 86q-103 -58 -221 -58q-117 0 -227 60l-90 -90q-39 -39 -72 -39q-38 0 -90.5 51.5t-52.5 89.5q0 31 39 76l90 92q-60 102 -60 223q0 114 58 221l-86 88q-39 39 -39 74q0 38 53.5 89.5
t93.5 51.5q33 0 70 -37l86 -86q108 62 227 62q117 0 225 -59l84 81q42 39 74 39q37 0 89 -51.5t52 -89.5q0 -35 -39 -74l-81 -82q59 -108 59 -227q0 -121 -61 -227zM602 403q100 0 170 70t70 170q0 101 -70 170.5t-170 69.5t-170 -70t-70 -170t70 -170t170 -70z" />
    <glyph glyph-name="yen" unicode="&#xa5;" horiz-adv-x="1576" 
d="M1468 1470q34 0 54 -17t20 -44q0 -31 -17.5 -52t-41.5 -31.5t-56.5 -34t-54.5 -54.5l-315 -446h149q88 0 88 -89q0 -88 -88 -88h-209v-125h209q88 0 88 -88t-88 -88h-209v-45q0 -41 15.5 -67t38 -38t45 -22.5t38 -28.5t15.5 -46q0 -30 -23 -51t-67 -21q-19 0 -105 3
t-176 3q-89 0 -175.5 -3t-104.5 -3q-44 0 -67 21t-23 51q0 28 15.5 46t37.5 28.5t44.5 22.5t38 38t15.5 67v45h-209q-88 0 -88 88t88 88h209v125h-209q-88 0 -88 88q0 89 88 89h154l-311 446q-20 29 -49.5 52.5t-51.5 35t-38.5 32.5t-16.5 50q0 28 20.5 45.5t53.5 17.5
q26 0 113 -3t165 -3q73 0 164 3t117 3q50 0 78 -18t28 -51q0 -29 -15 -47t-33 -25t-33 -26t-15 -50q0 -33 27 -77l198 -304l205 299q27 39 27 74q0 33 -17.5 53.5t-38 27.5t-38 25.5t-17.5 49.5q0 33 28 51t76 18q35 0 92 -3t81 -3t76 3t89 3z" />
    <glyph glyph-name="brokenbar" unicode="&#xa6;" horiz-adv-x="606" 
d="M303 940q-75 0 -114 27.5t-39 91.5v602q0 64 39 91.5t114 27.5q76 0 115 -28t39 -91v-602q0 -63 -39 -91t-115 -28zM303 -305q-75 0 -114 27.5t-39 91.5v602q0 64 39 91.5t114 27.5q76 0 115 -28t39 -91v-602q0 -63 -39 -91t-115 -28z" />
    <glyph glyph-name="section" unicode="&#xa7;" horiz-adv-x="1447" 
d="M1376 750q0 -120 -70 -198.5t-194 -117.5q176 -103 176 -272q0 -120 -76 -206t-198.5 -126.5t-276.5 -40.5q-94 0 -193 16.5t-108 16.5q-30 0 -63 -27.5t-64 -27.5q-11 0 -20.5 2.5t-18.5 10.5t-14.5 13t-14 19.5t-11.5 19t-12 23.5t-11 22l-78 158q-4 8 -17.5 33.5
t-17.5 34.5t-11.5 26.5t-10 30.5t-2.5 26q0 34 19 53t46 19q18 0 36 -8.5t26 -15t32 -27.5q57 -50 109 -88.5t118 -77.5t137.5 -60.5t141.5 -21.5q80 0 128 28.5t48 67.5q0 17 -7.5 30.5t-25 24t-35 18t-50.5 15.5t-56.5 13t-68.5 13.5t-72 14.5q-86 18 -152 37t-135 50.5
t-114 70t-74 95t-29 126.5q0 119 69 201.5t189 120.5q-170 102 -170 266q0 103 61.5 183.5t165.5 123.5t232 43q78 0 174.5 -17.5t106.5 -17.5q24 0 50 21.5t54 21.5q35 0 60 -22t53 -64l90 -133q61 -86 61 -133q0 -27 -17 -44t-40 -17q-9 0 -18 2.5t-15.5 5t-16.5 9
t-13.5 9.5t-15.5 13t-15 12q-104 82 -221.5 134t-217.5 52q-61 0 -99 -21t-38 -57q0 -12 4 -23t14 -19.5t20 -15.5t29 -14t34 -11.5t41.5 -11t45.5 -10.5t52.5 -10.5t54.5 -11.5q64 -13 112 -25t105 -30.5t98 -38.5t82 -48.5t66.5 -61.5t41 -77.5t15.5 -96.5zM768 547
q55 -10 131 -31q46 13 73 43.5t27 65.5q0 28 -18.5 48t-57 34.5t-79.5 24.5t-105 23q-36 7 -55 11q-72 16 -133 33q-36 -12 -57 -39t-21 -62q0 -57 67 -87.5t228 -63.5z" />
    <glyph glyph-name="dieresis" unicode="&#xa8;" 
d="M209 1188q-79 0 -132.5 48.5t-53.5 119.5q0 76 53.5 125t136.5 49q79 0 130.5 -48t51.5 -122t-52 -123t-134 -49zM684 1190q-78 0 -130 47.5t-52 118.5q0 76 52.5 124t135.5 48q78 0 129 -47.5t51 -120.5q0 -74 -51.5 -122t-134.5 -48z" />
    <glyph glyph-name="copyright" unicode="&#xa9;" horiz-adv-x="1703" 
d="M852 -33q-158 0 -300 60.5t-244.5 163.5t-163 246t-60.5 302t60.5 302t163 246t244.5 163.5t300 60.5t300 -60.5t244.5 -163.5t163 -246t60.5 -302t-60.5 -302t-163 -246t-244.5 -163.5t-300 -60.5zM852 133q165 0 302 80t216.5 219.5t79.5 306.5t-79.5 307t-217 220
t-301.5 80t-301.5 -80t-217 -220t-79.5 -307t79.5 -306.5t216.5 -219.5t302 -80zM831 319q-177 0 -286 107t-109 291q0 100 35 185.5t92 141t128 86.5t145 31q42 0 104 -14t76 -14t36 16t38 16q39 0 61 -63l47 -133q27 -76 27 -97q0 -55 -45 -55q-32 0 -58 41
q-62 95 -113.5 136.5t-109.5 41.5q-50 0 -93.5 -72t-43.5 -196q0 -133 48 -199.5t132 -66.5q98 0 172 82q35 39 62 39q21 0 35 -14.5t14 -33.5q0 -21 -25 -69q-38 -68 -135 -127.5t-234 -59.5z" />
    <glyph glyph-name="ordfeminine" unicode="&#xaa;" horiz-adv-x="946" 
d="M940 899q33 -7 33 -37q0 -48 -65.5 -97.5t-174.5 -49.5q-52 0 -97.5 23t-74.5 65q-128 -94 -272 -94q-124 0 -196.5 63t-72.5 166q0 104 82.5 173t229.5 69q88 0 155 -19l-4 25q-7 59 -45 93t-90 34q-62 0 -145 -27q-13 -4 -28.5 -11.5t-26 -11t-21.5 -3.5q-17 0 -31 14
t-14 37q0 27 21.5 54.5t50.5 47.5q111 76 290 76q303 0 336 -234l33 -237q8 -57 33 -81.5t94 -37.5zM428 874q36 0 94 23q-2 4 -2 8l-18 148q-32 4 -58 4q-49 0 -80.5 -20t-31.5 -64q0 -45 28 -72t68 -27z" />
    <glyph glyph-name="guillemotleft" unicode="&#xab;" horiz-adv-x="1239" 
d="M442 473l146 -211q76 -108 76 -162q0 -29 -20.5 -51t-51.5 -22q-21 0 -48.5 14.5t-47 29.5t-60.5 50l-264 219q-49 39 -75.5 75.5t-26.5 82.5t26.5 81.5t75.5 75.5l264 219q43 36 61 50.5t46 29.5t49 15q31 0 51.5 -23t20.5 -51q0 -54 -76 -162l-146 -211q-6 -12 -6 -24
q0 -13 6 -25zM942 473l145 -211q76 -108 76 -162q0 -29 -20 -51t-51 -22q-21 0 -48.5 14.5t-47 29.5t-60.5 50l-264 219q-49 40 -76 76t-27 82t26.5 81.5t76.5 75.5l264 219q43 36 61 50.5t46 29.5t49 15q31 0 51 -23t20 -51q0 -54 -76 -162l-145 -211q-6 -12 -6 -24
q0 -13 6 -25z" />
    <glyph glyph-name="logicalnot" unicode="&#xac;" horiz-adv-x="1130" 
d="M907 195q-66 0 -98.5 18t-32.5 61v318q0 31 -31 31h-602q-43 0 -61.5 31.5t-18.5 95.5t18.5 95.5t61.5 31.5h805q90 0 90 -91v-512q0 -43 -32.5 -61t-98.5 -18z" />
    <glyph glyph-name="registered" unicode="&#xae;" horiz-adv-x="1445" 
d="M723 1505q129 0 247 -50.5t203.5 -135.5t136 -202.5t50.5 -246.5q0 -172 -85.5 -318t-232.5 -231t-319 -85t-319 85t-232.5 231t-85.5 318q0 129 50.5 246.5t136 202.5t203.5 135.5t247 50.5zM723 379q134 0 247 65.5t178.5 178.5t65.5 247t-65.5 247t-178.5 179t-247 66
t-247 -66t-179 -179t-66 -247t66 -247t179 -178.5t247 -65.5zM895 815l100 -123q18 -22 41.5 -37t35 -25t11.5 -30q0 -11 -9.5 -20t-22.5 -9q-12 0 -58 2t-80 2q-31 0 -69 -2t-47 -2q-22 0 -35.5 9t-13.5 24q0 18 18 30t18 32q0 16 -30 51l-33 39q-23 30 -47 30h-10
q-19 0 -19 -26v-66q0 -21 8 -34.5t17.5 -18.5t17.5 -13.5t8 -21.5q0 -14 -11 -24.5t-32 -10.5q-6 0 -39 2t-71 2t-72 -2t-41 -2q-20 0 -30.5 10.5t-10.5 24.5q0 16 12.5 25t24.5 22.5t12 40.5v373q0 21 -7.5 34t-17 18t-17 13.5t-7.5 20.5q0 13 13 24t34 11q7 0 37 -2t68 -2
q15 0 69.5 4t104.5 4q147 0 227 -56t80 -151q0 -120 -127 -170zM645 1067v-164q0 -29 47 -29h8q45 0 72 28t27 87q0 56 -29.5 85.5t-67.5 29.5q-33 0 -45 -8.5t-12 -28.5z" />
    <glyph glyph-name="macron" unicode="&#xaf;" 
d="M176 1264q-74 0 -74 98t74 98q40 0 133 -2t137 -2t137 2t134 2q74 0 74 -98t-74 -98q-41 0 -134 2t-137 2t-137 -2t-133 -2z" />
    <glyph glyph-name="degree" unicode="&#xb0;" horiz-adv-x="831" 
d="M416 780q-160 0 -268.5 104.5t-108.5 258.5t108.5 258t268.5 104t268.5 -104t108.5 -258t-108.5 -258.5t-268.5 -104.5zM416 971q73 0 122.5 50t49.5 122q0 73 -50 122.5t-122 49.5q-73 0 -122.5 -50t-49.5 -122q0 -73 50 -122.5t122 -49.5z" />
    <glyph glyph-name="plusminus" unicode="&#xb1;" horiz-adv-x="1163" 
d="M582 328q-65 0 -98 18.5t-33 61.5v96q0 31 -31 31h-281q-43 0 -61.5 31.5t-18.5 95.5t18.5 95t61.5 31h281q31 0 31 31v260q0 43 33 61.5t98 18.5t98 -18.5t33 -61.5v-260q0 -31 30 -31h281q43 0 61.5 -31t18.5 -95t-18.5 -95.5t-61.5 -31.5h-281q-30 0 -30 -31v-96
q0 -43 -33 -61.5t-98 -18.5zM1024 37h-885q-43 0 -61.5 31.5t-18.5 95.5t18.5 95.5t61.5 31.5h885q43 0 61.5 -31.5t18.5 -95.5t-18.5 -95.5t-61.5 -31.5z" />
    <glyph glyph-name="uni00B2" unicode="&#xb2;" horiz-adv-x="948" 
d="M862 920q23 0 39.5 -17.5t16.5 -44.5q0 -6 -0.5 -11.5t-1 -10t-2.5 -11t-2.5 -10t-3.5 -11l-4 -10t-5.5 -11.5l-6 -12t-6.5 -14t-7 -14l-74 -153q-20 -43 -39 -60.5t-51 -17.5q-18 0 -51.5 18.5t-73.5 18.5h-332q-16 0 -74 -2t-94 -2q-39 0 -57.5 21t-18.5 46q0 37 37 80
q37 44 94 103t124 125.5t83 83.5q107 112 107 219q0 42 -28 74t-75 32q-85 0 -153 -88q-45 -59 -82 -59q-26 0 -40.5 20t-14.5 45q0 36 20 78q48 96 148.5 157.5t232.5 61.5q163 0 261.5 -81t98.5 -195q0 -145 -153 -264q-62 -48 -166.5 -112t-149.5 -99h260q94 0 175 86
q38 41 69 41z" />
    <glyph glyph-name="uni00B3" unicode="&#xb3;" horiz-adv-x="925" 
d="M590 1163q129 -21 206.5 -108t77.5 -187q0 -140 -121 -241t-309 -101q-82 0 -151 19.5t-115 51.5t-75.5 66t-45.5 70q-20 47 -20 84q0 30 17 49t44 19q19 0 34.5 -12.5t41.5 -41.5q83 -90 197 -90q63 0 101 33t38 84q0 57 -37.5 89t-87.5 32q-14 0 -36.5 -4t-33.5 -4
q-35 0 -53 20.5t-18 48.5q0 23 14.5 39t50 36.5t51.5 33.5q119 96 179 151h-195q-50 0 -76 -15.5t-84 -76.5q-36 -39 -67 -39q-22 0 -38 17.5t-16 46.5q0 12 3 24.5t5.5 20.5t11.5 29t13 32l58 144q15 39 34 56t48 17q19 0 53.5 -18t75.5 -18h258q17 0 74.5 2t93.5 2
q39 0 58 -26t19 -56q0 -25 -14 -48.5t-57 -62.5q-58 -51 -207 -168z" />
    <glyph glyph-name="acute" unicode="&#xb4;" 
d="M360 1174q-32 0 -50.5 12.5t-18.5 30.5q0 23 20 55q67 104 156 229q25 36 59.5 50t110.5 14q93 0 124.5 -15t31.5 -47q0 -29 -18.5 -51.5t-69.5 -65.5q-65 -53 -226 -174q-51 -38 -119 -38z" />
    <glyph glyph-name="uni00B5" unicode="&#xb5;" horiz-adv-x="1228" 
d="M1180 117q1 -60 -18 -86t-64 -37q-52 -12 -90 -12q-139 0 -207 100q-94 -105 -236 -105q-101 0 -182 62v-330q0 -58 -25 -77t-100 -19q-77 0 -102 19t-25 77v1256q0 58 25 77t102 19q75 0 100 -19t25 -77v-568q0 -83 47 -127.5t135 -44.5q183 0 183 181v559q0 58 24.5 77
t101.5 19q75 0 100 -19t25 -77v-652q0 -86 78 -86q6 0 21.5 2t21.5 2q30 0 44.5 -25t15.5 -89z" />
    <glyph glyph-name="paragraph" unicode="&#xb6;" horiz-adv-x="1531" 
d="M1386 1473q42 0 65.5 -20.5t23.5 -51.5q0 -28 -17.5 -46t-42.5 -29.5t-50 -24.5t-42.5 -39t-17.5 -66v-1102q0 -60 -30.5 -88.5t-103.5 -28.5q-75 0 -106 28.5t-31 88.5v1059q0 125 -80 125t-80 -125v-1059q0 -60 -30 -88.5t-103 -28.5q-75 0 -106 28.5t-31 88.5v391
q-257 10 -397.5 147.5t-140.5 373.5q0 231 162 354t468 123q110 0 235 -8.5t159 -8.5q92 0 182 3.5t114 3.5z" />
    <glyph glyph-name="periodcentered" unicode="&#xb7;" horiz-adv-x="577" 
d="M305 657q-108 0 -177 -60.5t-69 -147.5q0 -83 57 -133t154 -50q108 0 178 61t70 148q0 83 -58 132.5t-155 49.5z" />
    <glyph glyph-name="cedilla" unicode="&#xb8;" 
d="M485 -76q97 0 158.5 -45.5t61.5 -116.5q0 -78 -70 -126t-184 -48q-130 0 -213 47q-37 20 -37 58q0 21 12.5 35t32.5 14q9 0 49 -12q93 -29 137 -29q38 0 61 12.5t23 32.5q0 43 -76 43q-37 0 -94 -22q-20 4 -47.5 27t-36.5 42l64 217h129l-37 -135q35 6 67 6z" />
    <glyph glyph-name="uni00B9" unicode="&#xb9;" horiz-adv-x="706" 
d="M154 545q-33 0 -50.5 15t-17.5 36q0 25 19.5 40.5t43 23t43 31.5t19.5 63v465q0 28 -13.5 45.5t-37.5 17.5q-18 0 -49.5 -3t-47.5 -3q-27 0 -43 14.5t-16 38.5q0 47 55 62q182 49 289 84q51 17 99.5 35.5t69 25t38.5 6.5q26 0 40.5 -15t14.5 -36q0 -20 -11.5 -38
t-25 -29.5t-25 -33t-11.5 -47.5v-589q0 -39 19.5 -63t43 -31.5t43 -23t19.5 -40.5q0 -22 -17 -36.5t-49 -14.5q-18 0 -84.5 2t-136.5 2q-71 0 -138 -2t-83 -2z" />
    <glyph glyph-name="ordmasculine" unicode="&#xba;" horiz-adv-x="993" 
d="M477 694q-210 0 -329 110t-119 273q0 179 136 295.5t351 116.5q210 0 329.5 -110.5t119.5 -274.5q0 -180 -138.5 -295t-349.5 -115zM526 836q56 0 81.5 47.5t25.5 154.5q0 42 -10.5 93.5t-30 101t-52.5 82.5t-73 33q-56 0 -82.5 -49t-26.5 -154q0 -42 10.5 -92.5
t30 -100.5t53 -83t74.5 -33z" />
    <glyph glyph-name="guillemotright" unicode="&#xbb;" horiz-adv-x="1239" 
d="M670 498q0 -46 -27 -82t-76 -76l-264 -219q-41 -35 -60.5 -50t-47 -29.5t-48.5 -14.5q-31 0 -51 22t-20 51q0 54 76 162l145 211q6 12 6 25q0 12 -6 24l-145 211q-76 108 -76 162q0 28 20 51t51 23q21 0 49 -15t46 -29.5t61 -50.5l264 -219q50 -40 76.5 -75.5t26.5 -81.5
zM803 874l264 -219q49 -40 75.5 -75.5t26.5 -81.5t-26.5 -82.5t-75.5 -75.5l-264 -219q-41 -35 -60.5 -50t-47 -29.5t-48.5 -14.5q-31 0 -51.5 22t-20.5 51q0 54 76 162l146 211q6 12 6 25q0 12 -6 24l-146 211q-76 108 -76 162q0 28 20.5 51t51.5 23q21 0 49 -15t46 -29.5
t61 -50.5z" />
    <glyph glyph-name="onequarter" unicode="&#xbc;" horiz-adv-x="2185" 
d="M709 549q0 -22 -17 -36.5t-49 -14.5q-18 0 -84.5 2t-136.5 2t-137 -2t-84 -2q-33 0 -50.5 15t-17.5 36q0 25 19.5 40.5t43 23t43 31.5t19.5 63v464q0 29 -13.5 46.5t-37.5 17.5q-18 0 -49 -3t-47 -3q-27 0 -43.5 14.5t-16.5 38.5q0 46 55 61q182 49 289 84
q52 17 100 35.5t68.5 25.5t38.5 7q26 0 40.5 -15t14.5 -36q0 -20 -11.5 -38t-25 -29.5t-25 -33t-11.5 -47.5v-589q0 -39 19.5 -63t43 -31.5t43 -23t19.5 -40.5zM1632 1380q0 -29 -12.5 -57t-46.5 -80l-742 -1141q-4 -7 -16 -25t-16 -24.5t-14.5 -21t-15.5 -20t-14 -16
t-16 -14.5t-16 -9t-18 -7t-19 -2q-49 0 -88 34.5t-39 72.5q0 29 12.5 57t46.5 80l742 1141q4 7 16 25t16 24.5t14.5 21t15.5 20t14 16t16 14.5t16 9t18 7t19 2q49 0 88 -34.5t39 -72.5zM1999 432h53q39 0 54.5 -14t15.5 -66v-73q0 -47 -13.5 -63.5t-56.5 -16.5h-53v-13
q0 -33 12.5 -54t27.5 -28.5t27.5 -21.5t12.5 -35t-16.5 -36t-49.5 -15q-11 0 -64.5 2t-113.5 2q-59 0 -120 -2t-73 -2q-33 0 -49 15t-16 36q0 23 15 37.5t33 21.5t33 27t15 53v13h-323q-101 0 -101 84q0 47 18.5 85t75.5 124l234 356q47 72 87 99.5t105 27.5h134
q96 0 96 -78v-465zM1688 432v340l-220 -340h220z" />
    <glyph glyph-name="onehalf" unicode="&#xbd;" horiz-adv-x="2320" 
d="M709 549q0 -22 -17 -36.5t-49 -14.5q-18 0 -84.5 2t-136.5 2t-137 -2t-84 -2q-33 0 -50.5 15t-17.5 36q0 25 19.5 40.5t43 23t43 31.5t19.5 63v464q0 29 -13.5 46.5t-37.5 17.5q-18 0 -49 -3t-47 -3q-27 0 -43.5 14.5t-16.5 38.5q0 46 55 61q182 49 289 84
q52 17 100 35.5t68.5 25.5t38.5 7q26 0 40.5 -15t14.5 -36q0 -20 -11.5 -38t-25 -29.5t-25 -33t-11.5 -47.5v-589q0 -39 19.5 -63t43 -31.5t43 -23t19.5 -40.5zM1632 1380q0 -29 -12.5 -57t-46.5 -80l-742 -1141q-4 -7 -16 -25t-16 -24.5t-14.5 -21t-15.5 -20t-14 -16
t-16 -14.5t-16 -9t-18 -7t-19 -2q-49 0 -88 34.5t-39 72.5q0 29 12.5 57t46.5 80l742 1141q4 7 16 25t16 24.5t14.5 21t15.5 20t14 16t16 14.5t16 9t18 7t19 2q49 0 88 -34.5t39 -72.5zM2210 371q22 0 38.5 -17.5t16.5 -44.5q0 -7 -1 -14.5t-1.5 -12.5t-3.5 -13t-4 -12
t-6 -14.5t-6.5 -13.5t-8 -16.5t-8.5 -17.5l-74 -154q-20 -43 -39 -60.5t-51 -17.5q-18 0 -51.5 18.5t-73.5 18.5h-331q-16 0 -74 -2t-94 -2q-39 0 -57.5 21t-18.5 46q0 37 37 80q37 44 94 103t124 125.5t83 83.5q106 111 106 219q0 43 -27.5 74.5t-74.5 31.5q-86 0 -154 -88
q-45 -59 -82 -59q-26 0 -40.5 20t-14.5 45q0 34 21 78q48 96 148.5 157.5t232.5 61.5q163 0 261.5 -81t98.5 -195q0 -144 -154 -264q-62 -48 -166 -112t-149 -99h260q93 0 174 86q38 41 70 41z" />
    <glyph glyph-name="threequarters" unicode="&#xbe;" horiz-adv-x="2258" 
d="M897 821q0 -139 -121 -240.5t-309 -101.5q-82 0 -151 19.5t-115 51.5t-75.5 66t-45.5 70q-21 50 -21 84q0 30 17.5 49t44.5 19q19 0 34.5 -12.5t41.5 -41.5q83 -90 196 -90q63 0 101 33t38 84q0 57 -37 89t-87 32q-14 0 -36.5 -4t-33.5 -4q-36 0 -54 20.5t-18 48.5
q0 23 15 39t50.5 36.5t51.5 33.5q112 90 178 151h-194q-50 0 -76 -15.5t-84 -76.5q-36 -39 -68 -39q-22 0 -37.5 17.5t-15.5 46.5q0 12 3 24.5t5.5 20.5t11.5 29t13 32l57 144q15 39 34 56t48 17q19 0 53.5 -18t75.5 -18h258q17 0 74.5 2t93.5 2q39 0 58.5 -26t19.5 -56
q0 -25 -14.5 -48.5t-57.5 -62.5q-58 -51 -207 -168q129 -21 207 -108t78 -187zM1737 1380q0 -28 -12.5 -56t-47.5 -81l-741 -1141q-4 -7 -16 -25t-16 -24.5t-14.5 -21t-15.5 -20t-14 -16t-16 -14.5t-16 -9t-18 -7t-19 -2q-49 0 -88 34.5t-39 72.5q0 29 12.5 57t46.5 80
l741 1141q55 85 75 105q33 34 71 34q49 0 88 -34.5t39 -72.5zM2079 432h53q39 0 54.5 -14t15.5 -66v-73q0 -47 -13.5 -63.5t-56.5 -16.5h-53v-13q0 -33 12.5 -54t27.5 -28.5t27.5 -21.5t12.5 -35t-16.5 -36t-49.5 -15q-11 0 -64.5 2t-113.5 2q-59 0 -120 -2t-73 -2
q-33 0 -49 15t-16 36q0 23 15 37.5t33 21.5t33 27t15 53v13h-323q-101 0 -101 84q0 47 18.5 85t75.5 124l234 356q47 72 87 99.5t105 27.5h133q97 0 97 -78v-465zM1767 432v340l-219 -340h219z" />
    <glyph glyph-name="questiondown" unicode="&#xbf;" horiz-adv-x="1224" 
d="M627 739q97 0 159 53.5t62 129.5q0 73 -51.5 117t-137.5 44q-97 0 -160 -54t-63 -130q0 -72 52.5 -116t138.5 -44zM657 633q68 0 93 -60q57 -134 57 -268q0 -58 -21.5 -102.5t-60 -82.5t-119.5 -100q-22 -17 -58 -43t-54 -39.5t-38.5 -32.5t-29 -36.5t-8.5 -36.5
q0 -36 29 -56t71 -20q49 0 93.5 24t78 64t57 81t39.5 85q10 29 34.5 49.5t60.5 20.5q45 0 94 -27q100 -56 140 -111t40 -102q0 -45 -43 -94.5t-115.5 -91t-179.5 -68t-223 -26.5q-87 0 -167 12t-152 39.5t-125 68t-84 101.5t-31 135q0 54 17 103t41.5 84.5t67 74t76.5 63
t87 58.5q26 17 66 41.5t60.5 38t43 31t34.5 34.5q13 18 20 36.5t13.5 51t11.5 48.5q16 53 84 53z" />
    <glyph glyph-name="Agrave" unicode="&#xc0;" horiz-adv-x="1607" 
d="M539 1763q-51 43 -69.5 65.5t-18.5 51.5q0 21 10.5 33.5t45.5 20.5t99 8q76 0 110.5 -14t59.5 -50q13 -19 44 -62.5t59 -84.5t53 -82q20 -32 20 -56q0 -18 -18.5 -30.5t-50.5 -12.5q-67 0 -119 39q-149 112 -225 174zM1161 1053l299 -789q14 -37 36.5 -64t43.5 -41
l40.5 -27t31.5 -31t12 -44q0 -27 -19.5 -44t-52.5 -17q-26 0 -114.5 3t-167.5 3t-176.5 -3t-124.5 -3q-50 0 -78.5 18.5t-28.5 51.5q0 32 22.5 51t49.5 26.5t49.5 28t22.5 55.5q0 33 -23 97l-20 57q-13 39 -31 55.5t-58 16.5h-364q-39 0 -56 -16t-32 -56l-21 -53
q-28 -76 -28 -101q0 -35 23.5 -55.5t51 -28t51 -26.5t23.5 -51q0 -34 -27.5 -52t-78.5 -18q-36 0 -101.5 3t-93.5 3q-29 0 -84.5 -3t-91.5 -3q-33 0 -52.5 17t-19.5 44t13 45t34.5 30t44.5 25.5t46.5 40.5t38.5 66l299 789q55 140 102 290q29 88 77.5 114t180.5 26
q89 0 134.5 -12t69 -40t44.5 -90q68 -197 104 -288zM580 647h229q24 0 33.5 9.5t8.5 20.5t-7 28l-150 407l-151 -407q-21 -58 37 -58z" />
    <glyph glyph-name="Aacute" unicode="&#xc1;" horiz-adv-x="1607" 
d="M723 1550q-32 0 -51 12.5t-19 30.5q0 22 21 56q75 117 155 229q25 36 59.5 50t110.5 14q93 0 124.5 -15t31.5 -47q0 -29 -18.5 -51.5t-69.5 -65.5q-76 -62 -225 -174q-52 -39 -119 -39zM1161 1053l299 -789q14 -37 36.5 -64t43.5 -41l40.5 -27t31.5 -31t12 -44
q0 -27 -19.5 -44t-52.5 -17q-26 0 -114.5 3t-167.5 3t-176.5 -3t-124.5 -3q-50 0 -78.5 18.5t-28.5 51.5q0 32 22.5 51t49.5 26.5t49.5 28t22.5 55.5q0 33 -23 97l-20 57q-13 39 -31 55.5t-58 16.5h-364q-39 0 -56 -16t-32 -56l-21 -53q-28 -76 -28 -101q0 -35 23.5 -55.5
t51 -28t51 -26.5t23.5 -51q0 -34 -27.5 -52t-78.5 -18q-36 0 -101.5 3t-93.5 3q-29 0 -84.5 -3t-91.5 -3q-33 0 -52.5 17t-19.5 44t13 45t34.5 30t44.5 25.5t46.5 40.5t38.5 66l299 789q55 140 102 290q29 88 77.5 114t180.5 26q89 0 134.5 -12t69 -40t44.5 -90
q68 -197 104 -288zM580 647h229q24 0 33.5 9.5t8.5 20.5t-7 28l-150 407l-151 -407q-21 -58 37 -58z" />
    <glyph glyph-name="Acircumflex" unicode="&#xc2;" horiz-adv-x="1607" 
d="M551 1565q-36 0 -58 18.5t-22 42.5q0 26 29 68q73 103 151 186q37 39 69.5 52.5t98.5 13.5t98.5 -13.5t69.5 -52.5q82 -88 152 -186q28 -41 28 -68q0 -24 -22 -42.5t-58 -18.5q-48 0 -98 43l-170 143l-170 -143q-50 -43 -98 -43zM1161 1053l299 -789q14 -37 36.5 -64
t43.5 -41l40.5 -27t31.5 -31t12 -44q0 -27 -19.5 -44t-52.5 -17q-26 0 -114.5 3t-167.5 3t-176.5 -3t-124.5 -3q-50 0 -78.5 18.5t-28.5 51.5q0 32 22.5 51t49.5 26.5t49.5 28t22.5 55.5q0 33 -23 97l-20 57q-13 39 -31 55.5t-58 16.5h-364q-39 0 -56 -16t-32 -56l-21 -53
q-28 -76 -28 -101q0 -35 23.5 -55.5t51 -28t51 -26.5t23.5 -51q0 -34 -27.5 -52t-78.5 -18q-36 0 -101.5 3t-93.5 3q-29 0 -84.5 -3t-91.5 -3q-33 0 -52.5 17t-19.5 44t13 45t34.5 30t44.5 25.5t46.5 40.5t38.5 66l299 789q55 140 102 290q29 88 77.5 114t180.5 26
q89 0 134.5 -12t69 -40t44.5 -90q68 -197 104 -288zM580 647h229q24 0 33.5 9.5t8.5 20.5t-7 28l-150 407l-151 -407q-21 -58 37 -58z" />
    <glyph glyph-name="Atilde" unicode="&#xc3;" horiz-adv-x="1607" 
d="M537 1597q-32 0 -49 19t-17 53q0 37 16 86q26 80 76 122t119 42q49 0 93.5 -22.5t70 -49t52.5 -49t46 -22.5q14 0 27 13t33 44q15 25 24 37t24.5 21.5t34.5 9.5q32 0 49 -19t17 -53q0 -37 -16 -86q-26 -80 -76 -122t-119 -42q-51 0 -96 22.5t-70.5 49t-51 49t-42.5 22.5
q-27 0 -61 -57q-22 -37 -39 -52.5t-45 -15.5zM1161 1053l299 -789q14 -37 36.5 -64t43.5 -41l40.5 -27t31.5 -31t12 -44q0 -27 -19.5 -44t-52.5 -17q-26 0 -114.5 3t-167.5 3t-176.5 -3t-124.5 -3q-50 0 -78.5 18.5t-28.5 51.5q0 32 22.5 51t49.5 26.5t49.5 28t22.5 55.5
q0 33 -23 97l-20 57q-13 39 -31 55.5t-58 16.5h-364q-39 0 -56 -16t-32 -56l-21 -53q-28 -76 -28 -101q0 -35 23.5 -55.5t51 -28t51 -26.5t23.5 -51q0 -34 -27.5 -52t-78.5 -18q-36 0 -101.5 3t-93.5 3q-29 0 -84.5 -3t-91.5 -3q-33 0 -52.5 17t-19.5 44t13 45t34.5 30
t44.5 25.5t46.5 40.5t38.5 66l299 789q55 140 102 290q29 88 77.5 114t180.5 26q89 0 134.5 -12t69 -40t44.5 -90q68 -197 104 -288zM580 647h229q24 0 33.5 9.5t8.5 20.5t-7 28l-150 407l-151 -407q-21 -58 37 -58z" />
    <glyph glyph-name="Adieresis" unicode="&#xc4;" horiz-adv-x="1607" 
d="M571 1565q-79 0 -132.5 48.5t-53.5 119.5q0 76 53.5 125t136.5 49q79 0 131 -48t52 -122t-52.5 -123t-134.5 -49zM1047 1567q-78 0 -130.5 47.5t-52.5 118.5q0 76 53 124t136 48q78 0 129 -47.5t51 -120.5q0 -74 -51.5 -122t-134.5 -48zM1161 1053l299 -789
q14 -37 36.5 -64t43.5 -41l40.5 -27t31.5 -31t12 -44q0 -27 -19.5 -44t-52.5 -17q-26 0 -114.5 3t-167.5 3t-176.5 -3t-124.5 -3q-50 0 -78.5 18.5t-28.5 51.5q0 32 22.5 51t49.5 26.5t49.5 28t22.5 55.5q0 33 -23 97l-20 57q-13 39 -31 55.5t-58 16.5h-364q-39 0 -56 -16
t-32 -56l-21 -53q-28 -76 -28 -101q0 -35 23.5 -55.5t51 -28t51 -26.5t23.5 -51q0 -34 -27.5 -52t-78.5 -18q-36 0 -101.5 3t-93.5 3q-29 0 -84.5 -3t-91.5 -3q-33 0 -52.5 17t-19.5 44t13 45t34.5 30t44.5 25.5t46.5 40.5t38.5 66l299 789q55 140 102 290q29 88 77.5 114
t180.5 26q89 0 134.5 -12t69 -40t44.5 -90q68 -197 104 -288zM580 647h229q24 0 33.5 9.5t8.5 20.5t-7 28l-150 407l-151 -407q-21 -58 37 -58z" />
    <glyph glyph-name="Aring" unicode="&#xc5;" horiz-adv-x="1607" 
d="M813 1532q-274 0 -274 221q0 108 72.5 162.5t209.5 54.5q133 0 203 -53t70 -156q0 -112 -71.5 -170.5t-209.5 -58.5zM819 1862q-45 0 -67.5 -27.5t-22.5 -89.5q0 -50 23 -76.5t63 -26.5q46 0 67 27.5t21 89.5q0 51 -22.5 77t-61.5 26zM1161 1053l299 -789
q14 -37 36.5 -64t43.5 -41l40.5 -27t31.5 -31t12 -44q0 -27 -19.5 -44t-52.5 -17q-26 0 -114.5 3t-167.5 3t-176.5 -3t-124.5 -3q-50 0 -78.5 18.5t-28.5 51.5q0 32 22.5 51t49.5 26.5t49.5 28t22.5 55.5q0 33 -23 97l-20 57q-13 39 -31 55.5t-58 16.5h-364q-39 0 -56 -16
t-32 -56l-21 -53q-28 -76 -28 -101q0 -35 23.5 -55.5t51 -28t51 -26.5t23.5 -51q0 -34 -27.5 -52t-78.5 -18q-36 0 -101.5 3t-93.5 3q-29 0 -84.5 -3t-91.5 -3q-33 0 -52.5 17t-19.5 44t13 45t34.5 30t44.5 25.5t46.5 40.5t38.5 66l299 789q55 140 102 290q29 88 77.5 114
t180.5 26q89 0 134.5 -12t69 -40t44.5 -90q68 -197 104 -288zM580 647h229q24 0 33.5 9.5t8.5 20.5t-7 28l-150 407l-151 -407q-21 -58 37 -58z" />
    <glyph glyph-name="AE" unicode="&#xc6;" horiz-adv-x="2304" 
d="M2216 522q29 0 51.5 -22.5t22.5 -59.5q0 -24 -8 -51.5t-15.5 -45t-32.5 -69.5l-100 -219q-28 -59 -55.5 -83.5t-65.5 -24.5q-26 0 -72.5 26.5t-101.5 26.5h-602q-81 0 -156 -3t-92 -3q-44 0 -67 21t-23 51q0 25 12.5 41.5t29.5 27t34.5 23.5t30 40.5t12.5 69.5v133
q0 52 -45 52h-350q-40 0 -61.5 -16t-47.5 -56l-37 -55q-21 -31 -31.5 -48.5t-20 -41t-9.5 -41.5q0 -22 20.5 -37t45 -21.5t45 -25t20.5 -48.5q0 -69 -107 -69q-42 0 -110 3t-97 3q-34 0 -107.5 -3t-100.5 -3q-32 0 -52 17t-20 44q0 37 23 56.5t55 27.5t78 39t81 84l551 828
q2 2 20.5 28.5t25.5 38t15.5 33t8.5 37.5q0 27 -13.5 46t-32 30t-37.5 22t-32.5 29.5t-13.5 44.5q0 31 27 52.5t73 21.5q17 0 92 -3.5t156 -3.5h742q55 0 101.5 27t72.5 27q38 0 66 -25t54 -84l91 -205q4 -9 14 -30.5t12.5 -28t9.5 -22.5t9 -23.5t5 -19.5t4 -21.5t1 -20.5
q0 -37 -22.5 -59.5t-51.5 -22.5q-25 0 -43.5 13.5t-50.5 46.5q-7 7 -20 21q-111 119 -164 159q-100 76 -218 76h-83q-56 0 -79.5 -23t-23.5 -73v-281q0 -31 14 -44t52 -13h51q32 0 58.5 15t45 36t35 42.5t37.5 36.5t45 15q27 0 46.5 -24t19.5 -70q0 -25 -3.5 -74t-3.5 -74
t3.5 -74t3.5 -73q0 -46 -19.5 -70t-46.5 -24q-24 0 -45 15t-37.5 36t-35 42.5t-45 36.5t-58.5 15h-51q-38 0 -52 -13t-14 -44v-301q0 -50 23.5 -73t79.5 -23h133q124 0 217.5 63.5t212.5 206.5q27 32 47.5 45.5t46.5 13.5zM745 647h228q45 0 45 51v449l-291 -442
q-37 -58 18 -58z" />
    <glyph glyph-name="Ccedilla" unicode="&#xc7;" horiz-adv-x="1484" 
d="M1370 483q34 0 56 -24t22 -56q0 -41 -37 -110q-75 -145 -250 -236.5t-379 -91.5h-20l-12 -47q34 6 67 6q96 0 157.5 -45.5t61.5 -116.5q0 -78 -70 -126t-184 -48q-130 0 -213 47q-37 20 -37 58q0 21 13 35t33 14q9 0 49 -12q93 -29 137 -29q38 0 61 12.5t23 32.5
q0 43 -76 43q-37 0 -94 -22q-20 4 -47.5 27t-36.5 42l41 141q-123 22 -228 82t-184 150.5t-123.5 218.5t-44.5 277q0 172 59.5 322.5t157.5 253t225.5 161.5t262.5 59q83 0 194.5 -25.5t126.5 -25.5q30 0 65 29.5t62 29.5q66 0 105 -112l82 -223q49 -134 49 -175
q0 -39 -23.5 -61.5t-56.5 -22.5q-47 0 -90 58q-56 74 -86.5 112.5t-76 88t-79 72.5t-77 40t-89.5 17q-148 0 -245 -144t-97 -373q0 -250 116 -393t302 -143q194 0 332 170q15 19 25.5 30t30 22t40.5 11z" />
    <glyph glyph-name="Egrave" unicode="&#xc8;" horiz-adv-x="1495" 
d="M461 1763q-51 43 -69.5 65.5t-18.5 51.5q0 21 10.5 33.5t45.5 20.5t99 8q76 0 110.5 -14t59.5 -50q13 -19 44 -62.5t59 -84.5t53 -82q20 -32 20 -56q0 -18 -18.5 -30.5t-50.5 -12.5q-67 0 -119 39q-149 112 -225 174zM1407 522q29 0 51.5 -22.5t22.5 -59.5
q0 -24 -8 -51.5t-15.5 -45t-32.5 -69.5l-100 -219q-28 -59 -55.5 -83.5t-65.5 -24.5q-26 0 -72.5 26.5t-101.5 26.5h-627q-81 0 -155.5 -3t-91.5 -3q-44 0 -67 21t-23 51q0 25 12 41.5t29.5 27.5t35 24.5t29.5 40.5t12 68v930q0 34 -8.5 59.5t-22 38t-28.5 24.5t-28.5 20.5
t-22 24t-8.5 36.5q0 30 23 51t67 21q15 0 89.5 -3.5t157.5 -3.5h547q55 0 101.5 27t72.5 27q38 0 66.5 -25.5t54.5 -83.5l90 -205q5 -11 16 -35t14.5 -32t10 -25t9 -26.5t4.5 -22t2 -25.5q0 -37 -22.5 -59.5t-51.5 -22.5q-25 0 -43.5 13.5t-50.5 46.5q-115 122 -157 158
q-104 89 -217 97q-14 1 -28 1h-96q-56 0 -79 -22.5t-23 -73.5v-281q0 -32 14 -44.5t51 -12.5h51q39 0 69.5 22.5t47 50t41 50t53.5 22.5q76 0 76 -94q0 -25 -3 -74t-3 -74t3 -74t3 -73q0 -94 -76 -94q-29 0 -53.5 22.5t-41 50t-47 50t-69.5 22.5h-51q-37 0 -51 -12.5
t-14 -44.5v-301q0 -51 23 -73.5t79 -22.5h158q64 0 118.5 17t108 56t96.5 81.5t107 115.5q27 32 47.5 45.5t46.5 13.5z" />
    <glyph glyph-name="Eacute" unicode="&#xc9;" horiz-adv-x="1495" 
d="M645 1550q-32 0 -51 12.5t-19 30.5q0 22 21 56q67 104 156 229q25 36 59.5 50t110.5 14q64 0 99 -8t45.5 -20.5t10.5 -33.5q0 -29 -18.5 -51.5t-69.5 -65.5q-76 -62 -225 -174q-52 -39 -119 -39zM1407 522q29 0 51.5 -22.5t22.5 -59.5q0 -24 -8 -51.5t-15.5 -45
t-32.5 -69.5l-100 -219q-28 -59 -55.5 -83.5t-65.5 -24.5q-26 0 -72.5 26.5t-101.5 26.5h-627q-81 0 -155.5 -3t-91.5 -3q-44 0 -67 21t-23 51q0 25 12 41.5t29.5 27.5t35 24.5t29.5 40.5t12 68v930q0 34 -8.5 59.5t-22 38t-28.5 24.5t-28.5 20.5t-22 24t-8.5 36.5
q0 30 23 51t67 21q15 0 89.5 -3.5t157.5 -3.5h547q55 0 101.5 27t72.5 27q38 0 66.5 -25.5t54.5 -83.5l90 -205q5 -11 16 -35t14.5 -32t10 -25t9 -26.5t4.5 -22t2 -25.5q0 -37 -22.5 -59.5t-51.5 -22.5q-25 0 -43.5 13.5t-50.5 46.5q-115 122 -157 158q-104 89 -217 97
q-14 1 -28 1h-96q-56 0 -79 -22.5t-23 -73.5v-281q0 -32 14 -44.5t51 -12.5h51q39 0 69.5 22.5t47 50t41 50t53.5 22.5q76 0 76 -94q0 -25 -3 -74t-3 -74t3 -74t3 -73q0 -94 -76 -94q-29 0 -53.5 22.5t-41 50t-47 50t-69.5 22.5h-51q-37 0 -51 -12.5t-14 -44.5v-301
q0 -51 23 -73.5t79 -22.5h158q64 0 118.5 17t108 56t96.5 81.5t107 115.5q27 32 47.5 45.5t46.5 13.5z" />
    <glyph glyph-name="Ecircumflex" unicode="&#xca;" horiz-adv-x="1495" 
d="M473 1565q-36 0 -58 18.5t-22 42.5q0 26 29 68q73 103 151 186q37 39 69.5 52.5t98.5 13.5t98.5 -13.5t69.5 -52.5q82 -88 152 -186q29 -42 29 -68q0 -24 -22 -42.5t-58 -18.5q-49 0 -99 43l-170 143l-170 -143q-50 -43 -98 -43zM1407 522q29 0 51.5 -22.5t22.5 -59.5
q0 -24 -8 -51.5t-15.5 -45t-32.5 -69.5l-100 -219q-28 -59 -55.5 -83.5t-65.5 -24.5q-26 0 -72.5 26.5t-101.5 26.5h-627q-81 0 -155.5 -3t-91.5 -3q-44 0 -67 21t-23 51q0 25 12 41.5t29.5 27.5t35 24.5t29.5 40.5t12 68v930q0 34 -8.5 59.5t-22 38t-28.5 24.5t-28.5 20.5
t-22 24t-8.5 36.5q0 30 23 51t67 21q15 0 89.5 -3.5t157.5 -3.5h547q55 0 101.5 27t72.5 27q38 0 66.5 -25.5t54.5 -83.5l90 -205q5 -11 16 -35t14.5 -32t10 -25t9 -26.5t4.5 -22t2 -25.5q0 -37 -22.5 -59.5t-51.5 -22.5q-25 0 -43.5 13.5t-50.5 46.5q-115 122 -157 158
q-104 89 -217 97q-14 1 -28 1h-96q-56 0 -79 -22.5t-23 -73.5v-281q0 -32 14 -44.5t51 -12.5h51q39 0 69.5 22.5t47 50t41 50t53.5 22.5q76 0 76 -94q0 -25 -3 -74t-3 -74t3 -74t3 -73q0 -94 -76 -94q-29 0 -53.5 22.5t-41 50t-47 50t-69.5 22.5h-51q-37 0 -51 -12.5
t-14 -44.5v-301q0 -51 23 -73.5t79 -22.5h158q64 0 118.5 17t108 56t96.5 81.5t107 115.5q27 32 47.5 45.5t46.5 13.5z" />
    <glyph glyph-name="Edieresis" unicode="&#xcb;" horiz-adv-x="1495" 
d="M494 1565q-79 0 -133 48.5t-54 119.5q0 76 54 125t137 49q79 0 130.5 -48t51.5 -122t-52 -123t-134 -49zM969 1567q-78 0 -130.5 47.5t-52.5 118.5q0 76 53 124t136 48q78 0 129 -47.5t51 -120.5q0 -74 -51.5 -122t-134.5 -48zM1407 522q29 0 51.5 -22.5t22.5 -59.5
q0 -24 -8 -51.5t-15.5 -45t-32.5 -69.5l-100 -219q-28 -59 -55.5 -83.5t-65.5 -24.5q-26 0 -72.5 26.5t-101.5 26.5h-627q-81 0 -155.5 -3t-91.5 -3q-44 0 -67 21t-23 51q0 25 12 41.5t29.5 27.5t35 24.5t29.5 40.5t12 68v930q0 34 -8.5 59.5t-22 38t-28.5 24.5t-28.5 20.5
t-22 24t-8.5 36.5q0 30 23 51t67 21q15 0 89.5 -3.5t157.5 -3.5h547q55 0 101.5 27t72.5 27q38 0 66.5 -25.5t54.5 -83.5l90 -205q5 -11 16 -35t14.5 -32t10 -25t9 -26.5t4.5 -22t2 -25.5q0 -37 -22.5 -59.5t-51.5 -22.5q-25 0 -43.5 13.5t-50.5 46.5q-115 122 -157 158
q-104 89 -217 97q-14 1 -28 1h-96q-56 0 -79 -22.5t-23 -73.5v-281q0 -32 14 -44.5t51 -12.5h51q39 0 69.5 22.5t47 50t41 50t53.5 22.5q76 0 76 -94q0 -25 -3 -74t-3 -74t3 -74t3 -73q0 -94 -76 -94q-29 0 -53.5 22.5t-41 50t-47 50t-69.5 22.5h-51q-37 0 -51 -12.5
t-14 -44.5v-301q0 -51 23 -73.5t79 -22.5h158q64 0 118.5 17t108 56t96.5 81.5t107 115.5q27 32 47.5 45.5t46.5 13.5z" />
    <glyph glyph-name="Igrave" unicode="&#xcc;" horiz-adv-x="806" 
d="M471 1550q-67 0 -119 39q-149 112 -225 174q-51 43 -69.5 65.5t-18.5 51.5q0 32 31.5 47t124.5 15q76 0 110.5 -14t59.5 -50q12 -17 43.5 -62t59 -85.5t52.5 -81.5q21 -34 21 -56q0 -18 -19 -30.5t-51 -12.5zM156 -4q-44 0 -67 21t-23 51q0 25 12 41.5t29.5 27.5t35 24.5
t29.5 40.5t12 68v926q0 34 -8.5 59.5t-22 38t-28.5 24.5t-28.5 20.5t-22 24t-8.5 36.5q0 29 27.5 50t72.5 21q17 0 86.5 -3t150.5 -3t156 3t92 3q45 0 67.5 -20.5t22.5 -50.5q0 -21 -8.5 -36.5t-22 -24t-28.5 -20.5t-28.5 -24.5t-22 -38t-8.5 -59.5v-926q0 -41 12 -68
t29.5 -40.5t35 -24.5t29.5 -27.5t12 -41.5q0 -30 -23 -51t-67 -21q-17 0 -92 3t-156 3t-155.5 -3t-91.5 -3z" />
    <glyph glyph-name="Iacute" unicode="&#xcd;" horiz-adv-x="806" 
d="M311 1550q-32 0 -50.5 12.5t-18.5 30.5q0 24 20 56q67 104 156 229q25 36 59.5 50t110.5 14q64 0 99 -8t45.5 -20.5t10.5 -33.5q0 -29 -18.5 -51.5t-69.5 -65.5q-76 -62 -225 -174q-52 -39 -119 -39zM156 -4q-44 0 -67 21t-23 51q0 25 12 41.5t29.5 27.5t35 24.5
t29.5 40.5t12 68v926q0 34 -8.5 59.5t-22 38t-28.5 24.5t-28.5 20.5t-22 24t-8.5 36.5q0 29 27.5 50t72.5 21q17 0 86.5 -3t150.5 -3t156 3t92 3q45 0 67.5 -20.5t22.5 -50.5q0 -21 -8.5 -36.5t-22 -24t-28.5 -20.5t-28.5 -24.5t-22 -38t-8.5 -59.5v-926q0 -41 12 -68
t29.5 -40.5t35 -24.5t29.5 -27.5t12 -41.5q0 -30 -23 -51t-67 -21q-17 0 -92 3t-156 3t-155.5 -3t-91.5 -3z" />
    <glyph glyph-name="Icircumflex" unicode="&#xce;" horiz-adv-x="806" 
d="M139 1565q-36 0 -58 18.5t-22 42.5q0 26 29 68q70 98 152 186q37 39 69.5 52.5t98.5 13.5t98 -13.5t69 -52.5q82 -88 152 -186q29 -42 29 -68q0 -24 -22 -42.5t-58 -18.5q-48 0 -98 43l-170 143l-170 -143q-50 -43 -99 -43zM741 1399q0 -21 -8.5 -36.5t-22 -24
t-28.5 -20.5t-28.5 -24.5t-22 -38t-8.5 -59.5v-926q0 -41 12 -68t29.5 -40.5t35 -24.5t29.5 -27.5t12 -41.5q0 -30 -23 -51t-67 -21q-17 0 -92 3t-156 3t-155.5 -3t-91.5 -3q-44 0 -67 21t-23 51q0 25 12 41.5t29.5 27.5t35 24.5t29.5 40.5t12 68v926q0 34 -8.5 59.5t-22 38
t-28.5 24.5t-28.5 20.5t-22 24t-8.5 36.5q0 29 27.5 50t72.5 21q17 0 86.5 -3t150.5 -3t156 3t92 3q45 0 67.5 -20.5t22.5 -50.5z" />
    <glyph glyph-name="Idieresis" unicode="&#xcf;" horiz-adv-x="806" 
d="M160 1565q-79 0 -133 48.5t-54 119.5q0 76 54 125t137 49q79 0 130.5 -48t51.5 -122t-52 -123t-134 -49zM635 1567q-78 0 -130 47.5t-52 118.5q0 76 52.5 124t135.5 48q78 0 129 -47.5t51 -120.5q0 -74 -51.5 -122t-134.5 -48zM156 -4q-44 0 -67 21t-23 51q0 25 12 41.5
t29.5 27.5t35 24.5t29.5 40.5t12 68v926q0 34 -8.5 59.5t-22 38t-28.5 24.5t-28.5 20.5t-22 24t-8.5 36.5q0 29 27.5 50t72.5 21q17 0 86.5 -3t150.5 -3t156 3t92 3q45 0 67.5 -20.5t22.5 -50.5q0 -21 -8.5 -36.5t-22 -24t-28.5 -20.5t-28.5 -24.5t-22 -38t-8.5 -59.5v-926
q0 -41 12 -68t29.5 -40.5t35 -24.5t29.5 -27.5t12 -41.5q0 -30 -23 -51t-67 -21q-17 0 -92 3t-156 3t-155.5 -3t-91.5 -3z" />
    <glyph glyph-name="Eth" unicode="&#xd0;" horiz-adv-x="1705" 
d="M784 1481q138 0 265.5 -30.5t237 -93.5t191.5 -152t128.5 -213t46.5 -269q0 -155 -53.5 -288.5t-152.5 -232t-248 -154.5t-331 -56q-77 0 -230 5t-230 5q-81 0 -156 -3t-92 -3q-44 0 -67 21t-23 51q0 25 12 41.5t29.5 27.5t35 24.5t29.5 40.5t12 68v387h-57
q-52 0 -72 22.5t-20 74.5q0 50 20 73t72 23h57v346q0 34 -8.5 59.5t-22 38t-28.5 24.5t-28.5 20.5t-22 24t-8.5 36.5q0 30 22.5 50.5t67.5 20.5q17 0 92 -3t156 -3q62 0 188 8.5t188 8.5zM729 188h55q192 0 288.5 130.5t96.5 404.5q0 276 -110.5 419.5t-286.5 143.5h-43
q-56 0 -79 -22.5t-23 -73.5v-340h241q52 0 72.5 -23t20.5 -73q0 -51 -20.5 -74t-72.5 -23h-241v-372q0 -51 23 -74t79 -23z" />
    <glyph glyph-name="Ntilde" unicode="&#xd1;" horiz-adv-x="1613" 
d="M553 1597q-32 0 -49 19t-17 53t17 86q54 164 194 164q49 0 93.5 -22.5t70.5 -49t53 -49t46 -22.5q14 0 26.5 12.5t32.5 44.5q22 37 39 52.5t45 15.5q65 0 65 -72q0 -37 -16 -86q-26 -80 -76 -122t-119 -42q-51 0 -96 22.5t-70.5 49t-51 49t-42.5 22.5q-27 0 -61 -57
q-22 -37 -39 -52.5t-45 -15.5zM1483 1470q45 0 67.5 -20.5t22.5 -50.5q0 -25 -13.5 -41.5t-32.5 -27.5t-37.5 -24.5t-32 -41t-13.5 -68.5v-1110q0 -53 -31 -79.5t-74 -26.5q-35 0 -63.5 13t-45.5 29t-44 48l-764 886v-686q0 -39 17 -64.5t41.5 -37.5t49 -22.5t41.5 -29
t17 -48.5q0 -35 -26.5 -53.5t-74.5 -18.5q-33 0 -89.5 3t-82.5 3q-25 0 -80.5 -3t-84.5 -3q-45 0 -68 21t-23 51q0 25 13.5 41.5t32.5 27.5t37.5 24.5t32 40.5t13.5 68v926q0 41 -13.5 68.5t-32.5 41t-37.5 24.5t-32 27.5t-13.5 41.5q0 31 27.5 51t73.5 20q28 0 81.5 -3
t77.5 -3q32 0 84 3t76 3q39 0 67.5 -15t61.5 -52l602 -701v494q0 39 -17 64.5t-41.5 38t-49 23t-41.5 29t-17 48.5q0 29 28 50t73 21q33 0 89 -3t83 -3q25 0 81 3t85 3z" />
    <glyph glyph-name="Ograve" unicode="&#xd2;" horiz-adv-x="1724" 
d="M934 1561q-68 0 -119 38q-135 101 -225 175q-52 43 -70 65t-18 51q0 21 10.5 33.5t45.5 20.5t99 8q76 0 110.5 -14t59.5 -50q13 -19 44 -62.5t59 -84.5t53 -82q21 -34 21 -55q0 -18 -19 -30.5t-51 -12.5zM858 -37q-172 0 -318.5 47.5t-255.5 138t-171 231t-62 316.5
q0 145 41.5 272.5t116.5 224.5t176 167.5t223 106.5t254 36q227 0 411 -98.5t292 -282t108 -417.5q0 -348 -219.5 -545t-595.5 -197zM862 168q87 0 152.5 46.5t102.5 128t55 178t18 208.5q0 83 -11 162.5t-36 155t-62 132t-93 90.5t-124 34q-86 0 -151.5 -50.5t-103 -136
t-56 -186.5t-18.5 -213q0 -106 19.5 -201.5t57.5 -174.5t102.5 -126t147.5 -47z" />
    <glyph glyph-name="Oacute" unicode="&#xd3;" horiz-adv-x="1724" 
d="M774 1561q-32 0 -50.5 12.5t-18.5 30.5q0 23 20 55q67 104 156 229q25 36 59.5 50t110.5 14q64 0 99 -8t45.5 -20.5t10.5 -33.5q0 -29 -18 -51t-70 -65q-90 -74 -225 -175q-51 -38 -119 -38zM858 -37q-172 0 -318.5 47.5t-255.5 138t-171 231t-62 316.5q0 145 41.5 272.5
t116.5 224.5t176 167.5t223 106.5t254 36q227 0 411 -98.5t292 -282t108 -417.5q0 -348 -219.5 -545t-595.5 -197zM862 168q87 0 152.5 46.5t102.5 128t55 178t18 208.5q0 83 -11 162.5t-36 155t-62 132t-93 90.5t-124 34q-86 0 -151.5 -50.5t-103 -136t-56 -186.5
t-18.5 -213q0 -106 19.5 -201.5t57.5 -174.5t102.5 -126t147.5 -47z" />
    <glyph glyph-name="Ocircumflex" unicode="&#xd4;" horiz-adv-x="1724" 
d="M602 1575q-36 0 -58 18.5t-22 42.5q0 26 29 68q73 103 151 186q37 39 69.5 52.5t98.5 13.5t98.5 -13.5t69.5 -52.5q82 -88 152 -186q29 -42 29 -68q0 -24 -22 -42.5t-58 -18.5q-49 0 -99 43l-170 143l-170 -143q-50 -43 -98 -43zM862 1503q227 0 411 -98.5t292 -282
t108 -417.5q0 -348 -219.5 -545t-595.5 -197q-172 0 -318.5 47.5t-255.5 138t-171 231t-62 316.5q0 145 41.5 272.5t116.5 224.5t176 167.5t223 106.5t254 36zM862 168q87 0 152.5 46.5t102.5 128t55 178t18 208.5q0 83 -11 162.5t-36 155t-62 132t-93 90.5t-124 34
q-86 0 -151.5 -50.5t-103 -136t-56 -186.5t-18.5 -213q0 -106 19.5 -201.5t57.5 -174.5t102.5 -126t147.5 -47z" />
    <glyph glyph-name="Otilde" unicode="&#xd5;" horiz-adv-x="1724" 
d="M993 1589q-51 0 -96 22.5t-70.5 49.5t-51 49.5t-42.5 22.5q-27 0 -61 -58q-22 -36 -39 -51.5t-45 -15.5q-66 0 -66 71q0 34 17 86q54 164 194 164q49 0 93.5 -22.5t70 -49t52.5 -49t46 -22.5q14 0 27 13t33 44q22 37 39 52.5t45 15.5q65 0 65 -72q0 -37 -16 -86
q-26 -80 -76 -122t-119 -42zM858 -37q-172 0 -318.5 47.5t-255.5 138t-171 231t-62 316.5q0 145 41.5 272.5t116.5 224.5t176 167.5t223 106.5t254 36q227 0 411 -98.5t292 -282t108 -417.5q0 -348 -219.5 -545t-595.5 -197zM862 168q87 0 152.5 46.5t102.5 128t55 178
t18 208.5q0 83 -11 162.5t-36 155t-62 132t-93 90.5t-124 34q-86 0 -151.5 -50.5t-103 -136t-56 -186.5t-18.5 -213q0 -106 19.5 -201.5t57.5 -174.5t102.5 -126t147.5 -47z" />
    <glyph glyph-name="Odieresis" unicode="&#xd6;" horiz-adv-x="1724" 
d="M623 1575q-79 0 -133 48.5t-54 119.5q0 76 54 125t137 49q79 0 130.5 -48t51.5 -122t-52 -123t-134 -49zM1098 1577q-78 0 -130.5 47.5t-52.5 118.5q0 76 53 124t136 48q78 0 129 -47.5t51 -120.5q0 -74 -51.5 -122t-134.5 -48zM858 -37q-172 0 -318.5 47.5t-255.5 138
t-171 231t-62 316.5q0 145 41.5 272.5t116.5 224.5t176 167.5t223 106.5t254 36q227 0 411 -98.5t292 -282t108 -417.5q0 -348 -219.5 -545t-595.5 -197zM862 168q87 0 152.5 46.5t102.5 128t55 178t18 208.5q0 83 -11 162.5t-36 155t-62 132t-93 90.5t-124 34
q-86 0 -151.5 -50.5t-103 -136t-56 -186.5t-18.5 -213q0 -106 19.5 -201.5t57.5 -174.5t102.5 -126t147.5 -47z" />
    <glyph glyph-name="multiply" unicode="&#xd7;" horiz-adv-x="1056" 
d="M223 182q-42 0 -97.5 54t-55.5 100q0 27 22 49l234 233q12 12 12 23t-12 23l-234 233q-22 22 -22 49q0 44 54.5 99t98.5 55q26 0 49 -23l234 -233q13 -13 22 -13q10 0 23 13l233 233q23 23 50 23q42 0 97.5 -54t55.5 -100q0 -27 -22 -49l-234 -233q-12 -12 -12 -23
t12 -23l234 -233q22 -22 22 -49q0 -44 -54.5 -99t-98.5 -55q-27 0 -50 23l-233 233q-13 13 -23 13q-9 0 -22 -13l-234 -233q-23 -23 -49 -23z" />
    <glyph glyph-name="Oslash" unicode="&#xd8;" horiz-adv-x="1761" 
d="M1626 1325l-117 -111q172 -210 172 -509q0 -348 -219.5 -545t-595.5 -197q-309 0 -520 146l-108 -103q-35 -35 -64 -35q-30 0 -67 33.5t-37 73.5q0 34 34 65l101 97q-146 186 -146 456q0 145 41.5 272.5t116.5 224.5t176 167.5t223 106.5t254 36q291 0 500 -155l123 114
q36 33 66 33q27 0 65.5 -32t38.5 -72q0 -29 -37 -66zM872 1303q-86 0 -151.5 -50.5t-103 -136t-56 -186.5t-18.5 -213q0 -81 12 -158l573 547q-41 91 -105 144t-151 53zM870 168q87 0 152.5 46.5t102.5 128t55 178t18 208.5q0 101 -14 186l-578 -546q90 -201 264 -201z" />
    <glyph glyph-name="Ugrave" unicode="&#xd9;" horiz-adv-x="1519" 
d="M858 1550q-67 0 -119 39q-149 112 -225 174q-51 43 -69.5 65.5t-18.5 51.5q0 32 31.5 47t124.5 15q76 0 110.5 -14t59.5 -50q12 -17 43.5 -62t59 -85.5t52.5 -81.5q21 -34 21 -56q0 -18 -19 -30.5t-51 -12.5zM764 -33q-116 0 -212.5 17t-177.5 55t-137 95t-87 141
t-31 190q0 53 8 151l43 512q6 75 6 91q0 32 -11.5 54.5t-21.5 31t-32 22.5q-18 10 -27.5 17t-18 21.5t-8.5 33.5q0 30 22.5 50.5t67.5 20.5q17 0 92 -3t156 -3t162 3t98 3q45 0 67.5 -20.5t22.5 -50.5q0 -20 -8 -35.5t-18 -23t-27 -17.5q-19 -13 -26.5 -19.5t-21.5 -22
t-21 -36.5t-9 -49l-47 -588q-8 -116 -8 -131q0 -123 76 -193.5t225 -70.5q63 0 115.5 13.5t96.5 42.5t68.5 81t24.5 123q0 7 -6 94l-53 629q-2 27 -10.5 47t-25 33.5t-28 20t-34.5 16.5q-20 9 -29 14t-22 15.5t-18 24t-5 32.5q0 29 27.5 50t72.5 21q32 0 92 -3t86 -3
q25 0 81 3t85 3q45 0 67.5 -20.5t22.5 -50.5q0 -28 -13.5 -42.5t-41.5 -29.5q-24 -14 -36 -23t-25 -31.5t-13 -53.5q0 -3 7 -91l45 -544q8 -114 8 -129q0 -128 -45 -222.5t-130 -152.5t-199.5 -85.5t-260.5 -27.5z" />
    <glyph glyph-name="Uacute" unicode="&#xda;" horiz-adv-x="1519" 
d="M698 1550q-32 0 -50.5 12.5t-18.5 30.5q0 24 20 56q67 104 156 229q25 36 59.5 50t110.5 14q64 0 99 -8t45.5 -20.5t10.5 -33.5q0 -29 -18.5 -51.5t-69.5 -65.5q-76 -62 -225 -174q-52 -39 -119 -39zM764 -33q-116 0 -212.5 17t-177.5 55t-137 95t-87 141t-31 190
q0 53 8 151l43 512q6 75 6 91q0 32 -11.5 54.5t-21.5 31t-32 22.5q-18 10 -27.5 17t-18 21.5t-8.5 33.5q0 30 22.5 50.5t67.5 20.5q17 0 92 -3t156 -3t162 3t98 3q45 0 67.5 -20.5t22.5 -50.5q0 -20 -8 -35.5t-18 -23t-27 -17.5q-19 -13 -26.5 -19.5t-21.5 -22t-21 -36.5
t-9 -49l-47 -588q-8 -116 -8 -131q0 -123 76 -193.5t225 -70.5q63 0 115.5 13.5t96.5 42.5t68.5 81t24.5 123q0 7 -6 94l-53 629q-2 27 -10.5 47t-25 33.5t-28 20t-34.5 16.5q-20 9 -29 14t-22 15.5t-18 24t-5 32.5q0 29 27.5 50t72.5 21q32 0 92 -3t86 -3q25 0 81 3t85 3
q45 0 67.5 -20.5t22.5 -50.5q0 -28 -13.5 -42.5t-41.5 -29.5q-24 -14 -36 -23t-25 -31.5t-13 -53.5q0 -3 7 -91l45 -544q8 -114 8 -129q0 -128 -45 -222.5t-130 -152.5t-199.5 -85.5t-260.5 -27.5z" />
    <glyph glyph-name="Ucircumflex" unicode="&#xdb;" horiz-adv-x="1519" 
d="M526 1565q-36 0 -58 18.5t-22 42.5q0 26 29 68q70 98 152 186q37 39 69.5 52.5t98.5 13.5t98.5 -13.5t69.5 -52.5q78 -83 151 -186q29 -42 29 -68q0 -24 -22 -42.5t-58 -18.5q-48 0 -98 43l-170 143l-170 -143q-50 -43 -99 -43zM1378 1470q45 0 67.5 -20.5t22.5 -50.5
q0 -28 -13.5 -42.5t-41.5 -29.5q-24 -14 -36 -23t-25 -31.5t-13 -53.5q0 -3 7 -91l45 -544q8 -114 8 -129q0 -128 -45 -222.5t-130 -152.5t-199.5 -85.5t-260.5 -27.5q-116 0 -212.5 17t-177.5 55t-137 95t-87 141t-31 190q0 53 8 151l43 512q6 75 6 91q0 32 -11.5 54.5
t-21.5 31t-32 22.5q-18 10 -27.5 17t-18 21.5t-8.5 33.5q0 30 22.5 50.5t67.5 20.5q17 0 92 -3t156 -3t162 3t98 3q45 0 67.5 -20.5t22.5 -50.5q0 -20 -8 -35.5t-18 -23t-27 -17.5q-19 -13 -26.5 -19.5t-21.5 -22t-21 -36.5t-9 -49l-47 -588q-8 -116 -8 -131
q0 -123 76 -193.5t225 -70.5q63 0 115.5 13.5t96.5 42.5t68.5 81t24.5 123q0 7 -6 94l-53 629q-2 27 -10.5 47t-25 33.5t-28 20t-34.5 16.5q-20 9 -29 14t-22 15.5t-18 24t-5 32.5q0 29 27.5 50t72.5 21q32 0 92 -3t86 -3q25 0 81 3t85 3z" />
    <glyph glyph-name="Udieresis" unicode="&#xdc;" horiz-adv-x="1519" 
d="M547 1565q-79 0 -133 48.5t-54 119.5q0 76 54 125t137 49q79 0 130.5 -48t51.5 -122t-52 -123t-134 -49zM1022 1567q-78 0 -130 47.5t-52 118.5q0 76 52.5 124t135.5 48q78 0 129 -47.5t51 -120.5q0 -74 -51.5 -122t-134.5 -48zM764 -33q-116 0 -212.5 17t-177.5 55
t-137 95t-87 141t-31 190q0 53 8 151l43 512q6 75 6 91q0 32 -11.5 54.5t-21.5 31t-32 22.5q-18 10 -27.5 17t-18 21.5t-8.5 33.5q0 30 22.5 50.5t67.5 20.5q17 0 92 -3t156 -3t162 3t98 3q45 0 67.5 -20.5t22.5 -50.5q0 -20 -8 -35.5t-18 -23t-27 -17.5
q-19 -13 -26.5 -19.5t-21.5 -22t-21 -36.5t-9 -49l-47 -588q-8 -116 -8 -131q0 -123 76 -193.5t225 -70.5q63 0 115.5 13.5t96.5 42.5t68.5 81t24.5 123q0 7 -6 94l-53 629q-2 27 -10.5 47t-25 33.5t-28 20t-34.5 16.5q-20 9 -29 14t-22 15.5t-18 24t-5 32.5q0 29 27.5 50
t72.5 21q32 0 92 -3t86 -3q25 0 81 3t85 3q45 0 67.5 -20.5t22.5 -50.5q0 -28 -13.5 -42.5t-41.5 -29.5q-24 -14 -36 -23t-25 -31.5t-13 -53.5q0 -3 7 -91l45 -544q8 -114 8 -129q0 -128 -45 -222.5t-130 -152.5t-199.5 -85.5t-260.5 -27.5z" />
    <glyph glyph-name="Yacute" unicode="&#xdd;" horiz-adv-x="1511" 
d="M731 1550q-32 0 -50.5 12.5t-18.5 30.5q0 24 20 56q67 104 156 229q25 36 59.5 50t110.5 14q64 0 99 -8t45.5 -20.5t10.5 -33.5q0 -29 -18.5 -51.5t-69.5 -65.5q-76 -62 -225 -174q-52 -39 -119 -39zM1452 1470q34 0 54 -17t20 -44q0 -31 -16 -51.5t-38 -31t-50 -34
t-46 -55.5l-405 -713v-254q0 -41 15.5 -67t37.5 -38t44.5 -22.5t38 -28.5t15.5 -46q0 -30 -23 -51t-67 -21q-19 0 -104.5 3t-175.5 3q-89 0 -176 -3t-105 -3q-44 0 -67 21t-23 51q0 28 15.5 46t37.5 28.5t44.5 22.5t38 38t15.5 67v267l-395 700q-17 31 -43.5 54.5
t-46.5 34.5t-34.5 31.5t-14.5 49.5q0 28 20.5 45.5t53.5 17.5q26 0 113 -3t165 -3q73 0 165 3t118 3q50 0 78 -18t28 -51q0 -30 -17.5 -48t-38.5 -25t-38.5 -26.5t-17.5 -52.5q0 -30 49 -123l196 -370l209 370q43 77 43 117q0 29 -14 47.5t-34 27.5t-39.5 18t-33.5 24.5
t-14 40.5q0 69 94 69q34 0 97.5 -3t89.5 -3q24 0 84.5 3t97.5 3z" />
    <glyph glyph-name="Thorn" unicode="&#xde;" horiz-adv-x="1536" 
d="M1491 743q0 -89 -20 -161t-71 -137.5t-132.5 -110t-210 -70.5t-297.5 -26q-57 0 -135 4q4 -40 28.5 -64.5t51 -32.5t48 -27t21.5 -52q0 -30 -23 -51t-67 -21q-18 0 -105 3t-176 3q-81 0 -155.5 -3t-91.5 -3q-44 0 -67 21t-23 51q0 25 12 41.5t29.5 27.5t35 24.5
t29.5 40.5t12 68v930q0 34 -8.5 59.5t-22 38t-28.5 24.5t-28.5 20.5t-22 24t-8.5 36.5q0 30 23 51t67 21q17 0 91.5 -3.5t155.5 -3.5q89 0 176 3.5t105 3.5q44 0 67 -21t23 -51q0 -26 -12.5 -42t-32 -25t-39.5 -17t-38 -25.5t-25 -44.5q77 6 180 6q324 0 504 -140t180 -370z
M623 971v-457q0 -47 30.5 -63.5t100.5 -16.5q121 0 190.5 78t69.5 227q0 151 -71.5 236.5t-174.5 85.5q-77 0 -111 -18t-34 -72z" />
    <glyph glyph-name="germandbls" unicode="&#xdf;" horiz-adv-x="1589" 
d="M836 -53q-52 0 -91 110l-55 154q-4 12 -12.5 33t-12 31t-8.5 25t-6.5 27t-1.5 25q0 33 18.5 51.5t39.5 18.5q37 0 75 -49q40 -52 68.5 -84.5t73 -71.5t93.5 -58.5t103 -19.5q41 0 66.5 21t25.5 55q0 14 -5 26t-17.5 24.5t-23.5 21t-34.5 21t-37 19t-45 21t-45.5 21.5
q-149 72 -186 95q-107 66 -134 154q-10 36 -10 78q0 64 21.5 120t53 97.5t63.5 80.5t56 85.5t27 96.5q4 71 -42 112t-110 41q-190 0 -190 -291v-782q0 -39 10.5 -65.5t26 -39.5t31 -23.5t26 -26.5t10.5 -40q0 -28 -21.5 -47.5t-64.5 -19.5q-17 0 -79.5 3t-137.5 3
q-72 0 -140.5 -3t-84.5 -3q-43 0 -64.5 19t-21.5 48q0 24 11.5 40t28.5 26.5t33.5 23.5t28 39.5t11.5 65.5l-2 721q0 129 32 231.5t99.5 179.5t180.5 118.5t265 41.5q144 0 267 -38t201.5 -117.5t72.5 -186.5q-3 -61 -26.5 -110.5t-54 -81t-60.5 -57.5t-51 -52.5t-21 -54.5
q0 -12 3.5 -22t12.5 -19t17 -15.5t25.5 -15.5t30 -14.5t38 -16.5t41.5 -18q63 -29 108 -53.5t91.5 -60t74.5 -73.5t46 -90t18 -114q0 -89 -36.5 -161t-98.5 -116.5t-140.5 -68t-165.5 -23.5q-67 0 -120 16.5t-64 16.5q-27 0 -54 -27.5t-50 -27.5z" />
    <glyph glyph-name="agrave" unicode="&#xe0;" horiz-adv-x="1318" 
d="M367 1386q-51 43 -69.5 65.5t-18.5 51.5q0 21 10.5 33.5t45.5 20.5t99 8q76 0 110.5 -14t59.5 -50q13 -19 44 -62.5t59 -84.5t53 -82q20 -32 20 -55q0 -18 -18.5 -30.5t-50.5 -12.5q-68 0 -119 38q-149 112 -225 174zM1311 225q19 -3 31 -15.5t12 -33.5q0 -28 -20.5 -60
t-58.5 -62t-101 -50t-138 -20q-73 0 -135.5 33.5t-103.5 95.5q-167 -138 -385 -138q-174 0 -275.5 89.5t-101.5 234.5q0 147 116 243.5t324 96.5q125 0 223 -27l-2 23q-13 97 -67 149t-133 52q-96 0 -215 -52q-6 -2 -21.5 -9t-22.5 -10t-18.5 -7.5t-20 -6t-16.5 -1.5
q-24 0 -42.5 18.5t-18.5 48.5q0 62 88 131q155 121 414 121q414 0 460 -340l45 -332q11 -87 50 -120.5t133 -51.5zM592 195q87 0 158 51l-31 217q-37 12 -103 12q-79 0 -127.5 -32t-48.5 -99q0 -70 43 -109.5t109 -39.5z" />
    <glyph glyph-name="aacute" unicode="&#xe1;" horiz-adv-x="1318" 
d="M551 1174q-32 0 -51 12.5t-19 30.5q0 21 21 55q75 117 155 229q25 36 59.5 50t110.5 14q93 0 124.5 -15t31.5 -47q0 -29 -18.5 -51.5t-69.5 -65.5q-76 -62 -225 -174q-51 -38 -119 -38zM1311 225q19 -3 31 -15.5t12 -33.5q0 -28 -20.5 -60t-58.5 -62t-101 -50t-138 -20
q-73 0 -135.5 33.5t-103.5 95.5q-167 -138 -385 -138q-174 0 -275.5 89.5t-101.5 234.5q0 147 116 243.5t324 96.5q125 0 223 -27l-2 23q-13 97 -67 149t-133 52q-96 0 -215 -52q-6 -2 -21.5 -9t-22.5 -10t-18.5 -7.5t-20 -6t-16.5 -1.5q-24 0 -42.5 18.5t-18.5 48.5
q0 62 88 131q155 121 414 121q414 0 460 -340l45 -332q11 -87 50 -120.5t133 -51.5zM592 195q87 0 158 51l-31 217q-37 12 -103 12q-79 0 -127.5 -32t-48.5 -99q0 -70 43 -109.5t109 -39.5z" />
    <glyph glyph-name="acircumflex" unicode="&#xe2;" horiz-adv-x="1318" 
d="M379 1188q-36 0 -58 18.5t-22 42.5q0 26 29 68q73 103 151 186q37 39 69.5 52.5t98.5 13.5t98.5 -13.5t69.5 -52.5q82 -88 152 -186q28 -41 28 -68q0 -24 -22 -42.5t-58 -18.5q-48 0 -98 43l-170 143l-170 -143q-50 -43 -98 -43zM1311 225q19 -3 31 -15.5t12 -33.5
q0 -28 -20.5 -60t-58.5 -62t-101 -50t-138 -20q-73 0 -135.5 33.5t-103.5 95.5q-167 -138 -385 -138q-174 0 -275.5 89.5t-101.5 234.5q0 147 116 243.5t324 96.5q125 0 223 -27l-2 23q-13 97 -67 149t-133 52q-96 0 -215 -52q-6 -2 -21.5 -9t-22.5 -10t-18.5 -7.5t-20 -6
t-16.5 -1.5q-24 0 -42.5 18.5t-18.5 48.5q0 62 88 131q155 121 414 121q414 0 460 -340l45 -332q11 -87 50 -120.5t133 -51.5zM592 195q87 0 158 51l-31 217q-37 12 -103 12q-79 0 -127.5 -32t-48.5 -99q0 -70 43 -109.5t109 -39.5z" />
    <glyph glyph-name="atilde" unicode="&#xe3;" horiz-adv-x="1318" 
d="M365 1221q-66 0 -66 71q0 37 16 86q26 80 76 122t119 42q49 0 93.5 -22.5t70 -49t52.5 -49t46 -22.5q14 0 26.5 12.5t32.5 44.5q22 37 39 52.5t45 15.5q32 0 49 -19t17 -53q0 -37 -16 -86q-26 -80 -76 -122t-119 -42q-51 0 -96 22.5t-70.5 49.5t-51 49.5t-42.5 22.5
q-27 0 -61 -58q-22 -36 -39 -51.5t-45 -15.5zM1311 225q19 -3 31 -15.5t12 -33.5q0 -28 -20.5 -60t-58.5 -62t-101 -50t-138 -20q-73 0 -135.5 33.5t-103.5 95.5q-167 -138 -385 -138q-174 0 -275.5 89.5t-101.5 234.5q0 147 116 243.5t324 96.5q125 0 223 -27l-2 23
q-13 97 -67 149t-133 52q-96 0 -215 -52q-6 -2 -21.5 -9t-22.5 -10t-18.5 -7.5t-20 -6t-16.5 -1.5q-24 0 -42.5 18.5t-18.5 48.5q0 62 88 131q155 121 414 121q414 0 460 -340l45 -332q11 -87 50 -120.5t133 -51.5zM592 195q87 0 158 51l-31 217q-37 12 -103 12
q-79 0 -127.5 -32t-48.5 -99q0 -70 43 -109.5t109 -39.5z" />
    <glyph glyph-name="adieresis" unicode="&#xe4;" horiz-adv-x="1318" 
d="M399 1188q-79 0 -132.5 48.5t-53.5 119.5q0 76 53.5 125t136.5 49q79 0 131 -48t52 -122t-52.5 -123t-134.5 -49zM874 1190q-78 0 -130 47.5t-52 118.5q0 76 53 124t136 48q78 0 129 -47.5t51 -120.5q0 -74 -52 -122t-135 -48zM1311 225q19 -3 31 -15.5t12 -33.5
q0 -28 -20.5 -60t-58.5 -62t-101 -50t-138 -20q-73 0 -135.5 33.5t-103.5 95.5q-167 -138 -385 -138q-174 0 -275.5 89.5t-101.5 234.5q0 147 116 243.5t324 96.5q125 0 223 -27l-2 23q-13 97 -67 149t-133 52q-96 0 -215 -52q-6 -2 -21.5 -9t-22.5 -10t-18.5 -7.5t-20 -6
t-16.5 -1.5q-24 0 -42.5 18.5t-18.5 48.5q0 62 88 131q155 121 414 121q414 0 460 -340l45 -332q11 -87 50 -120.5t133 -51.5zM592 195q87 0 158 51l-31 217q-37 12 -103 12q-79 0 -127.5 -32t-48.5 -99q0 -70 43 -109.5t109 -39.5z" />
    <glyph glyph-name="aring" unicode="&#xe5;" horiz-adv-x="1318" 
d="M641 1155q-274 0 -274 221q0 108 72.5 162.5t209.5 54.5q133 0 203 -53t70 -156q0 -112 -71.5 -170.5t-209.5 -58.5zM647 1485q-45 0 -67.5 -27.5t-22.5 -89.5q0 -50 22.5 -76t63.5 -26q46 0 67 27t21 89q0 51 -22.5 77t-61.5 26zM1311 225q19 -3 31 -15.5t12 -33.5
q0 -28 -20.5 -60t-58.5 -62t-101 -50t-138 -20q-73 0 -135.5 33.5t-103.5 95.5q-167 -138 -385 -138q-174 0 -275.5 89.5t-101.5 234.5q0 147 116 243.5t324 96.5q125 0 223 -27l-2 23q-13 97 -67 149t-133 52q-96 0 -215 -52q-6 -2 -21.5 -9t-22.5 -10t-18.5 -7.5t-20 -6
t-16.5 -1.5q-24 0 -42.5 18.5t-18.5 48.5q0 62 88 131q155 121 414 121q414 0 460 -340l45 -332q11 -87 50 -120.5t133 -51.5zM592 195q87 0 158 51l-31 217q-37 12 -103 12q-79 0 -127.5 -32t-48.5 -99q0 -70 43 -109.5t109 -39.5z" />
    <glyph glyph-name="ae" unicode="&#xe6;" horiz-adv-x="1894" 
d="M1808 340q26 0 41 -20t15 -37q0 -23 -21 -60q-24 -40 -71 -81.5t-115.5 -81t-165.5 -64.5t-203 -25q-311 0 -459 183l7 -13q-28 -27 -64.5 -53t-90 -54t-124 -45.5t-145.5 -17.5q-175 0 -276 90t-101 238q0 147 116 243.5t324 96.5q125 0 223 -27l-2 23
q-9 96 -64.5 148.5t-135.5 52.5q-96 0 -215 -52q-6 -2 -21.5 -9t-22.5 -10t-18.5 -7.5t-20 -6t-16.5 -1.5q-24 0 -42.5 18.5t-18.5 48.5q0 62 88 131q155 121 414 121q220 0 338 -98q159 98 356 98q117 0 215.5 -37t161 -97t97 -133t34.5 -147q0 -34 -9 -53t-19.5 -24.5
t-37.5 -14.5l-571 -178q115 -164 297 -164q66 0 121 19t120 61q57 39 82 39zM1264 881q-72 0 -115 -63.5t-43 -174.5q0 -49 12 -96l260 84q26 9 40 23.5t14 43.5q0 67 -50 125t-118 58zM592 190q50 0 98.5 20.5t75.5 43.5q-44 86 -53 201v10q-45 10 -97 10q-79 0 -127.5 -32
t-48.5 -99q0 -70 43.5 -112t108.5 -42z" />
    <glyph glyph-name="ccedilla" unicode="&#xe7;" horiz-adv-x="1189" 
d="M1122 354q23 0 37.5 -18t14.5 -39q0 -20 -17 -59q-18 -41 -57 -84t-99.5 -85.5t-150.5 -70.5t-193 -31l-14 -49q35 6 68 6q96 0 157.5 -45.5t61.5 -116.5q0 -78 -70 -126t-184 -48q-130 0 -213 47q-37 20 -37 58q0 21 12.5 35t32.5 14q9 0 49 -12q93 -29 137 -29
q38 0 61 12.5t23 32.5q0 43 -75 43q-38 0 -95 -22q-20 4 -47.5 27t-36.5 42l41 137q-217 30 -350 170.5t-133 354.5q0 130 51.5 239.5t136.5 181t193 111t223 39.5q98 0 188.5 -28.5t149.5 -71.5t94 -91t35 -90q0 -46 -42.5 -104t-125.5 -109q-45 -28 -76 -28q-67 0 -84 71
q-1 7 -7 39t-11 52.5t-15 54.5t-23 57t-30.5 46t-42.5 34.5t-55 11.5q-70 0 -109.5 -66t-39.5 -181q0 -194 102.5 -315.5t249.5 -121.5q51 0 105 18.5t84 36t75 48.5q29 22 51 22z" />
    <glyph glyph-name="egrave" unicode="&#xe8;" horiz-adv-x="1230" 
d="M362 1362q-51 43 -69.5 65.5t-18.5 51.5q0 32 31 46.5t125 14.5q76 0 111 -14t59 -49q12 -18 43.5 -62.5t59.5 -85.5t53 -82q20 -32 20 -55q0 -18 -18.5 -30.5t-50.5 -12.5q-67 0 -119 39q-161 121 -226 174zM1145 336q26 0 40.5 -20t14.5 -37q0 -24 -20 -60
q-24 -40 -71 -81.5t-115.5 -81t-165.5 -64.5t-203 -25q-256 0 -418 152t-162 387q0 168 85.5 298.5t222.5 197.5t300 67q117 0 215.5 -37t161 -97t97 -133t34.5 -147q0 -35 -8.5 -53.5t-19 -24t-37.5 -14.5l-572 -178q50 -76 126.5 -122t170.5 -46q66 0 122 19t120 61
q57 39 82 39zM600 881q-72 0 -115 -63.5t-43 -174.5q0 -42 13 -96l260 84q26 9 39.5 23.5t13.5 43.5q0 67 -50 125t-118 58z" />
    <glyph glyph-name="eacute" unicode="&#xe9;" horiz-adv-x="1230" 
d="M547 1149q-32 0 -51 12.5t-19 30.5q0 21 21 55q82 127 155 230q24 35 59 49t111 14q94 0 125 -14.5t31 -46.5q0 -29 -18.5 -51.5t-69.5 -65.5q-76 -62 -225 -174q-52 -39 -119 -39zM1145 336q26 0 40.5 -20t14.5 -37q0 -24 -20 -60q-24 -40 -71 -81.5t-115.5 -81
t-165.5 -64.5t-203 -25q-256 0 -418 152t-162 387q0 168 85.5 298.5t222.5 197.5t300 67q117 0 215.5 -37t161 -97t97 -133t34.5 -147q0 -35 -8.5 -53.5t-19 -24t-37.5 -14.5l-572 -178q50 -76 126.5 -122t170.5 -46q66 0 122 19t120 61q57 39 82 39zM600 881
q-72 0 -115 -63.5t-43 -174.5q0 -42 13 -96l260 84q26 9 39.5 23.5t13.5 43.5q0 67 -50 125t-118 58z" />
    <glyph glyph-name="ecircumflex" unicode="&#xea;" horiz-adv-x="1230" 
d="M375 1163q-36 0 -58 19t-22 43q0 25 29 67q76 107 151 187q37 38 69 51.5t99 13.5t99 -13.5t69 -51.5q79 -85 152 -187q28 -41 28 -67q0 -24 -22 -43t-58 -19q-48 0 -98 43l-170 144l-170 -144q-50 -43 -98 -43zM1145 336q26 0 40.5 -20t14.5 -37q0 -24 -20 -60
q-24 -40 -71 -81.5t-115.5 -81t-165.5 -64.5t-203 -25q-256 0 -418 152t-162 387q0 168 85.5 298.5t222.5 197.5t300 67q117 0 215.5 -37t161 -97t97 -133t34.5 -147q0 -35 -8.5 -53.5t-19 -24t-37.5 -14.5l-572 -178q50 -76 126.5 -122t170.5 -46q66 0 122 19t120 61
q57 39 82 39zM600 881q-72 0 -115 -63.5t-43 -174.5q0 -42 13 -96l260 84q26 9 39.5 23.5t13.5 43.5q0 67 -50 125t-118 58z" />
    <glyph glyph-name="edieresis" unicode="&#xeb;" horiz-adv-x="1230" 
d="M395 1163q-79 0 -132.5 48.5t-53.5 119.5q0 76 53.5 125t136.5 49q79 0 131 -48t52 -122t-52.5 -123t-134.5 -49zM870 1165q-78 0 -130 47.5t-52 118.5q0 76 53 124t136 48q78 0 129 -47.5t51 -120.5q0 -74 -52 -122t-135 -48zM1145 336q26 0 40.5 -20t14.5 -37
q0 -24 -20 -60q-24 -40 -71 -81.5t-115.5 -81t-165.5 -64.5t-203 -25q-256 0 -418 152t-162 387q0 168 85.5 298.5t222.5 197.5t300 67q117 0 215.5 -37t161 -97t97 -133t34.5 -147q0 -35 -8.5 -53.5t-19 -24t-37.5 -14.5l-572 -178q50 -76 126.5 -122t170.5 -46
q66 0 122 19t120 61q57 39 82 39zM600 881q-72 0 -115 -63.5t-43 -174.5q0 -42 13 -96l260 84q26 9 39.5 23.5t13.5 43.5q0 67 -50 125t-118 58z" />
    <glyph glyph-name="igrave" unicode="&#xec;" horiz-adv-x="731" 
d="M436 1174q-68 0 -119 38q-149 112 -225 174q-51 43 -69.5 65.5t-18.5 51.5q0 32 31.5 47t124.5 15q76 0 110.5 -14t59.5 -50q12 -17 43.5 -62t59 -85.5t52.5 -81.5q21 -34 21 -55q0 -18 -19 -30.5t-51 -12.5zM154 -4q-43 0 -64.5 19t-21.5 48q0 24 11.5 40t28 26.5
t33 23.5t28 39.5t11.5 65.5v383q0 37 -13 60t-32 34t-37.5 20t-31.5 26t-13 44q0 37 47.5 67t188.5 91q172 74 211 74q78 0 78 -117v-682q0 -39 11.5 -65.5t28.5 -39.5t34 -23.5t28.5 -26.5t11.5 -40q0 -28 -21.5 -47.5t-64.5 -19.5q-16 0 -85.5 3t-141.5 3t-140.5 -3
t-84.5 -3z" />
    <glyph glyph-name="iacute" unicode="&#xed;" horiz-adv-x="731" 
d="M276 1174q-32 0 -50.5 12.5t-18.5 30.5q0 23 20 55q67 104 156 229q25 36 59.5 50t110.5 14q93 0 124.5 -15t31.5 -47q0 -29 -18.5 -51.5t-69.5 -65.5q-65 -53 -226 -174q-51 -38 -119 -38zM154 -4q-43 0 -64.5 19t-21.5 48q0 24 11.5 40t28 26.5t33 23.5t28 39.5
t11.5 65.5v383q0 37 -13 60t-32 34t-37.5 20t-31.5 26t-13 44q0 37 47.5 67t188.5 91q172 74 211 74q78 0 78 -117v-682q0 -39 11.5 -65.5t28.5 -39.5t34 -23.5t28.5 -26.5t11.5 -40q0 -28 -21.5 -47.5t-64.5 -19.5q-16 0 -85.5 3t-141.5 3t-140.5 -3t-84.5 -3z" />
    <glyph glyph-name="icircumflex" unicode="&#xee;" horiz-adv-x="731" 
d="M692 1317q29 -42 29 -68q0 -24 -22 -42.5t-58 -18.5q-48 0 -98 43l-170 143l-170 -143q-50 -43 -99 -43q-36 0 -57.5 18.5t-21.5 42.5q0 27 28 68q70 98 152 186q37 39 69.5 52.5t98.5 13.5t98.5 -13.5t69.5 -52.5q78 -83 151 -186zM578 940v-682q0 -39 11.5 -65.5
t28.5 -39.5t34 -23.5t28.5 -26.5t11.5 -40q0 -28 -21.5 -47.5t-64.5 -19.5q-16 0 -85.5 3t-141.5 3t-140.5 -3t-84.5 -3q-43 0 -64.5 19t-21.5 48q0 24 11.5 40t28 26.5t33 23.5t28 39.5t11.5 65.5v383q0 37 -13 60t-32 34t-37.5 20t-31.5 26t-13 44q0 37 47.5 67t188.5 91
q172 74 211 74q78 0 78 -117z" />
    <glyph glyph-name="idieresis" unicode="&#xef;" horiz-adv-x="731" 
d="M125 1188q-79 0 -132.5 48.5t-53.5 119.5q0 76 53.5 125t136.5 49q79 0 130.5 -48t51.5 -122t-52 -123t-134 -49zM600 1190q-78 0 -130 47.5t-52 118.5q0 76 52.5 124t135.5 48q78 0 129 -47.5t51 -120.5q0 -74 -51.5 -122t-134.5 -48zM154 -4q-43 0 -64.5 19t-21.5 48
q0 24 11.5 40t28 26.5t33 23.5t28 39.5t11.5 65.5v383q0 37 -13 60t-32 34t-37.5 20t-31.5 26t-13 44q0 37 47.5 67t188.5 91q172 74 211 74q78 0 78 -117v-682q0 -39 11.5 -65.5t28.5 -39.5t34 -23.5t28.5 -26.5t11.5 -40q0 -28 -21.5 -47.5t-64.5 -19.5q-16 0 -85.5 3
t-141.5 3t-140.5 -3t-84.5 -3z" />
    <glyph glyph-name="eth" unicode="&#xf0;" horiz-adv-x="1339" 
d="M1026 1380l-76 -37q154 -134 251 -323t97 -397q0 -131 -37 -240.5t-100.5 -186t-149 -130t-181.5 -78.5t-199 -25q-255 0 -419.5 151t-164.5 398q0 252 148.5 405.5t386.5 153.5q82 0 143 -20q-47 77 -102 135l-136 -66q-37 -16 -59 -16q-29 0 -53.5 28t-24.5 74t58 74
l67 33l-12 8q-105 73 -126 95q-30 31 -30 63q0 37 31.5 59.5t85.5 22.5q142 0 303 -72q14 -6 55 -29l164 80q37 16 58 16q29 0 55 -29t26 -75q0 -43 -59 -72zM700 184q81 0 130 77.5t49 213.5q0 95 -31 184.5t-87.5 148t-123.5 58.5q-75 0 -121.5 -71t-46.5 -207
q0 -173 71 -288.5t160 -115.5z" />
    <glyph glyph-name="ntilde" unicode="&#xf1;" horiz-adv-x="1443" 
d="M442 1221q-65 0 -65 71q0 37 16 86q26 80 76 122t119 42q49 0 93.5 -22.5t70 -49t52.5 -49t46 -22.5q14 0 26.5 12.5t32.5 44.5q22 37 39 52.5t45 15.5q32 0 49 -19t17 -53t-17 -86q-54 -164 -194 -164q-51 0 -96 22.5t-70.5 49.5t-51 49.5t-42.5 22.5q-28 0 -62 -58
q-22 -36 -39 -51.5t-45 -15.5zM1270 668l49 -385q6 -49 21.5 -81.5t33 -47.5t34 -26.5t27.5 -27.5t11 -41q0 -28 -23.5 -45.5t-64.5 -17.5q-16 0 -82.5 3t-138.5 3q-73 0 -141.5 -3t-84.5 -3q-46 0 -69 19t-23 48q0 26 16.5 44.5t36 29t36 33t16.5 55.5q0 30 -13 119
l-28 209q-17 120 -56 170.5t-104 50.5q-60 0 -102.5 -56.5t-42.5 -193.5v-266q0 -39 11.5 -65.5t28.5 -39.5t34 -23.5t28.5 -26.5t11.5 -40q0 -28 -21.5 -47.5t-64.5 -19.5q-16 0 -85.5 3t-141.5 3t-140.5 -3t-84.5 -3q-43 0 -64.5 19t-21.5 48q0 24 11.5 40t28 26.5
t33 23.5t28 39.5t11.5 65.5v383q0 37 -13 60t-32 34t-37.5 20t-31.5 26t-13 44q0 37 47.5 67t188.5 91q172 74 211 74q78 0 78 -117v-80h2q49 88 141 146.5t207 58.5q140 0 228.5 -101.5t113.5 -295.5z" />
    <glyph glyph-name="ograve" unicode="&#xf2;" horiz-adv-x="1388" 
d="M764 1157q-67 0 -119 39q-149 112 -225 174q-51 43 -69.5 65.5t-18.5 51.5q0 32 30.5 46.5t124.5 14.5q76 0 111 -14t59 -49q12 -18 43.5 -62.5t59.5 -85.5t53 -82q21 -34 21 -55q0 -18 -19 -30.5t-51 -12.5zM670 -37q-146 0 -266 42.5t-197.5 116t-119.5 170.5t-42 208
q0 122 50 228t138 182t214.5 119.5t273.5 43.5q146 0 265 -42.5t196.5 -116t119 -171t41.5 -208.5q0 -165 -87.5 -296t-241 -203.5t-344.5 -72.5zM735 152q91 0 134.5 71t43.5 219q0 65 -17.5 139.5t-48.5 143.5t-82.5 114.5t-111.5 45.5q-178 0 -178 -293q0 -64 17 -137.5
t48 -142.5t82.5 -114.5t112.5 -45.5z" />
    <glyph glyph-name="oacute" unicode="&#xf3;" horiz-adv-x="1388" 
d="M604 1157q-32 0 -50.5 12.5t-18.5 30.5q0 23 20 55q73 114 156 230q24 35 59 49t111 14q94 0 124.5 -14.5t30.5 -46.5q0 -29 -18.5 -51.5t-69.5 -65.5q-76 -62 -225 -174q-52 -39 -119 -39zM670 -37q-146 0 -266 42.5t-197.5 116t-119.5 170.5t-42 208q0 122 50 228
t138 182t214.5 119.5t273.5 43.5q146 0 265 -42.5t196.5 -116t119 -171t41.5 -208.5q0 -165 -87.5 -296t-241 -203.5t-344.5 -72.5zM735 152q91 0 134.5 71t43.5 219q0 65 -17.5 139.5t-48.5 143.5t-82.5 114.5t-111.5 45.5q-178 0 -178 -293q0 -64 17 -137.5t48 -142.5
t82.5 -114.5t112.5 -45.5z" />
    <glyph glyph-name="ocircumflex" unicode="&#xf4;" horiz-adv-x="1388" 
d="M432 1171q-36 0 -58 19t-22 43q0 25 29 67q76 107 151 187q37 38 69 51.5t99 13.5t99 -13.5t69 -51.5q79 -85 152 -187q29 -42 29 -67q0 -24 -22 -43t-58 -19q-49 0 -99 43l-170 144l-170 -144q-50 -43 -98 -43zM721 1073q146 0 265 -42.5t196.5 -116t119 -171
t41.5 -208.5q0 -165 -87.5 -296t-241 -203.5t-344.5 -72.5q-146 0 -266 42.5t-197.5 116t-119.5 170.5t-42 208q0 122 50 228t138 182t214.5 119.5t273.5 43.5zM735 152q91 0 134.5 71t43.5 219q0 65 -17.5 139.5t-48.5 143.5t-82.5 114.5t-111.5 45.5q-178 0 -178 -293
q0 -64 17 -137.5t48 -142.5t82.5 -114.5t112.5 -45.5z" />
    <glyph glyph-name="otilde" unicode="&#xf5;" horiz-adv-x="1388" 
d="M823 1186q-51 0 -96 22.5t-70.5 49t-51 49t-42.5 22.5q-27 0 -61 -57q-22 -37 -39 -52.5t-45 -15.5q-32 0 -49 19t-17 53t17 86q54 164 194 164q49 0 93.5 -22.5t70 -49.5t52.5 -49.5t46 -22.5q14 0 27 13t33 45q22 36 39 51.5t45 15.5q65 0 65 -71q0 -37 -16 -86
q-26 -80 -76 -122t-119 -42zM670 -37q-146 0 -266 42.5t-197.5 116t-119.5 170.5t-42 208q0 122 50 228t138 182t214.5 119.5t273.5 43.5q146 0 265 -42.5t196.5 -116t119 -171t41.5 -208.5q0 -165 -87.5 -296t-241 -203.5t-344.5 -72.5zM735 152q91 0 134.5 71t43.5 219
q0 65 -17.5 139.5t-48.5 143.5t-82.5 114.5t-111.5 45.5q-178 0 -178 -293q0 -64 17 -137.5t48 -142.5t82.5 -114.5t112.5 -45.5z" />
    <glyph glyph-name="odieresis" unicode="&#xf6;" horiz-adv-x="1388" 
d="M453 1171q-79 0 -133 48.5t-54 119.5q0 76 54 125t137 49q79 0 130.5 -48t51.5 -122t-52 -123t-134 -49zM928 1174q-78 0 -130.5 47.5t-52.5 117.5q0 76 53 124t136 48q78 0 129 -47.5t51 -120.5q0 -74 -51.5 -121.5t-134.5 -47.5zM670 -37q-146 0 -266 42.5t-197.5 116
t-119.5 170.5t-42 208q0 122 50 228t138 182t214.5 119.5t273.5 43.5q146 0 265 -42.5t196.5 -116t119 -171t41.5 -208.5q0 -165 -87.5 -296t-241 -203.5t-344.5 -72.5zM735 152q91 0 134.5 71t43.5 219q0 65 -17.5 139.5t-48.5 143.5t-82.5 114.5t-111.5 45.5
q-178 0 -178 -293q0 -64 17 -137.5t48 -142.5t82.5 -114.5t112.5 -45.5z" />
    <glyph glyph-name="divide" unicode="&#xf7;" horiz-adv-x="1171" 
d="M586 872q-76 0 -123 42t-47 106q0 65 47 107t123 42t123 -42t47 -107q0 -64 -47 -106t-123 -42zM1028 514h-885q-43 0 -61.5 31.5t-18.5 95.5t18.5 95.5t61.5 31.5h885q43 0 61.5 -31.5t18.5 -95.5t-18.5 -95.5t-61.5 -31.5zM586 113q-76 0 -123 42t-47 107q0 64 47 106
t123 42t123 -42t47 -106q0 -65 -47 -107t-123 -42z" />
    <glyph glyph-name="oslash" unicode="&#xf8;" horiz-adv-x="1433" 
d="M1317 909l-62 -51q111 -135 111 -323q0 -165 -88 -296t-241.5 -203.5t-344.5 -72.5q-224 0 -381 96l-75 -65q-41 -33 -68 -33t-58.5 34.5t-31.5 67.5q0 34 39 68l57 49q-106 136 -106 320q0 163 85 293.5t239.5 205t350.5 74.5q221 0 377 -94l78 65q39 31 68 31
q28 0 59 -33.5t31 -66.5t-39 -66zM676 885q-178 0 -178 -293q0 -59 16 -137l344 293q-76 137 -182 137zM758 152q91 0 134.5 71t43.5 219q0 64 -16 142l-347 -293q75 -139 185 -139z" />
    <glyph glyph-name="ugrave" unicode="&#xf9;" horiz-adv-x="1456" 
d="M438 1386q-51 43 -69.5 65.5t-18.5 51.5q0 32 31.5 47t124.5 15q76 0 110.5 -14t59.5 -50q12 -17 43.5 -62t59 -85.5t52.5 -81.5q21 -34 21 -55q0 -18 -19 -30.5t-51 -12.5q-67 0 -118 38q-161 121 -226 174zM1284 932v-582q0 -38 16 -66t38.5 -44t45 -29t38.5 -30.5
t16 -39.5q0 -49 -50.5 -72t-213.5 -57q-163 -35 -207 -35q-38 0 -59 27t-21 70v98h-2q-54 -90 -147 -147.5t-214 -57.5q-158 0 -259 101t-101 290v299q0 37 -15 62t-36.5 37.5t-43 23t-36.5 27t-15 41.5q0 44 49.5 71t200.5 76q180 58 213 58q80 0 80 -121v-449
q0 -225 158 -225q32 0 59.5 11.5t53 38t40.5 78t15 122.5v149q0 37 -17.5 61.5t-42 36.5t-49 22.5t-42 27.5t-17.5 43q0 43 51 69t221 80q181 56 215 56q78 0 78 -121z" />
    <glyph glyph-name="uacute" unicode="&#xfa;" horiz-adv-x="1456" 
d="M623 1174q-32 0 -51 12.5t-19 30.5q0 23 20 55q67 104 156 229q25 36 59.5 50t110.5 14q93 0 124.5 -15t31.5 -47q0 -29 -18.5 -51.5t-69.5 -65.5q-65 -53 -226 -174q-51 -38 -118 -38zM1284 932v-582q0 -38 16 -66t38.5 -44t45 -29t38.5 -30.5t16 -39.5q0 -49 -50.5 -72
t-213.5 -57q-163 -35 -207 -35q-38 0 -59 27t-21 70v98h-2q-54 -90 -147 -147.5t-214 -57.5q-158 0 -259 101t-101 290v299q0 37 -15 62t-36.5 37.5t-43 23t-36.5 27t-15 41.5q0 44 49.5 71t200.5 76q180 58 213 58q80 0 80 -121v-449q0 -225 158 -225q32 0 59.5 11.5t53 38
t40.5 78t15 122.5v149q0 37 -17.5 61.5t-42 36.5t-49 22.5t-42 27.5t-17.5 43q0 43 51 69t221 80q181 56 215 56q78 0 78 -121z" />
    <glyph glyph-name="ucircumflex" unicode="&#xfb;" horiz-adv-x="1456" 
d="M451 1188q-36 0 -58 18.5t-22 42.5q0 27 28 68q70 98 152 186q37 39 69.5 52.5t98.5 13.5t98.5 -13.5t69.5 -52.5q78 -83 151 -186q29 -42 29 -68q0 -24 -22 -42.5t-58 -18.5q-48 0 -98 43l-170 143l-170 -143q-50 -43 -98 -43zM1284 932v-582q0 -38 16 -66t38.5 -44
t45 -29t38.5 -30.5t16 -39.5q0 -49 -50.5 -72t-213.5 -57q-163 -35 -207 -35q-38 0 -59 27t-21 70v98h-2q-54 -90 -147 -147.5t-214 -57.5q-158 0 -259 101t-101 290v299q0 37 -15 62t-36.5 37.5t-43 23t-36.5 27t-15 41.5q0 44 49.5 71t200.5 76q180 58 213 58
q80 0 80 -121v-449q0 -225 158 -225q32 0 59.5 11.5t53 38t40.5 78t15 122.5v149q0 37 -17.5 61.5t-42 36.5t-49 22.5t-42 27.5t-17.5 43q0 43 51 69t221 80q181 56 215 56q78 0 78 -121z" />
    <glyph glyph-name="udieresis" unicode="&#xfc;" horiz-adv-x="1456" 
d="M471 1188q-79 0 -132.5 48.5t-53.5 119.5q0 76 53.5 125t136.5 49q79 0 130.5 -48t51.5 -122t-52 -123t-134 -49zM946 1190q-78 0 -130 47.5t-52 118.5q0 76 52.5 124t135.5 48q78 0 129.5 -47.5t51.5 -120.5q0 -74 -52 -122t-135 -48zM1284 932v-582q0 -38 16 -66
t38.5 -44t45 -29t38.5 -30.5t16 -39.5q0 -49 -50.5 -72t-213.5 -57q-163 -35 -207 -35q-38 0 -59 27t-21 70v98h-2q-54 -90 -147 -147.5t-214 -57.5q-158 0 -259 101t-101 290v299q0 37 -15 62t-36.5 37.5t-43 23t-36.5 27t-15 41.5q0 44 49.5 71t200.5 76q180 58 213 58
q80 0 80 -121v-449q0 -225 158 -225q32 0 59.5 11.5t53 38t40.5 78t15 122.5v149q0 37 -17.5 61.5t-42 36.5t-49 22.5t-42 27.5t-17.5 43q0 43 51 69t221 80q181 56 215 56q78 0 78 -121z" />
    <glyph glyph-name="yacute" unicode="&#xfd;" horiz-adv-x="1314" 
d="M625 1174q-32 0 -51 12.5t-19 30.5q0 23 20 55q67 104 156 229q25 36 59.5 50t110.5 14q93 0 124.5 -15t31.5 -47q0 -29 -18.5 -51.5t-69.5 -65.5q-65 -53 -226 -174q-51 -38 -118 -38zM1235 1040q34 0 56 -18t22 -47q0 -22 -10.5 -37.5t-29 -30.5t-40.5 -34t-50.5 -59.5
t-52.5 -96.5l-319 -746q-159 -372 -444 -372q-66 0 -117.5 15t-71.5 40q-33 40 -63.5 142t-30.5 173q0 38 20 63t48 25q38 0 63 -34q71 -92 117.5 -127t103.5 -35q67 0 121 110l-383 746q-34 67 -71.5 113t-60.5 62t-38.5 36t-15.5 47q0 30 22.5 47.5t55.5 17.5
q17 0 100.5 -3t157.5 -3q70 0 148 3t101 3q48 0 72.5 -17.5t24.5 -47.5q0 -27 -14 -46.5t-30 -29t-30 -31.5t-14 -53q0 -46 36 -135l152 -326l133 326q37 90 37 139q0 27 -14.5 47t-31.5 30.5t-31.5 31t-14.5 47.5q0 65 94 65q20 0 69.5 -3t78.5 -3q27 0 77.5 3t67.5 3z" />
    <glyph glyph-name="thorn" unicode="&#xfe;" horiz-adv-x="1421" 
d="M909 1071q200 0 332.5 -148.5t132.5 -400.5q0 -243 -153.5 -399t-389.5 -156q-192 0 -313 94v-174q0 -38 14 -63t34 -37.5t40.5 -23t34.5 -27.5t14 -43q0 -27 -22 -46.5t-64 -19.5q-17 0 -95 3t-155 3q-72 0 -139.5 -3t-83.5 -3q-43 0 -64.5 18.5t-21.5 47.5
q0 24 11.5 40t28 26.5t32.5 23t27.5 39t11.5 65.5v1266q0 37 -13 60t-32 34t-37.5 20t-31.5 26t-13 44q0 38 47.5 68t187.5 90q172 74 211 74q78 0 78 -117v-588q64 94 162 150.5t229 56.5zM766 154q83 0 134.5 73.5t51.5 208.5q0 166 -71 266.5t-170 100.5
q-84 0 -138.5 -77t-54.5 -191v-50q0 -79 28.5 -153.5t87 -126t132.5 -51.5z" />
    <glyph glyph-name="ydieresis" unicode="&#xff;" horiz-adv-x="1314" 
d="M473 1188q-79 0 -132.5 48.5t-53.5 119.5q0 76 53.5 125t136.5 49q79 0 130.5 -48t51.5 -122t-52 -123t-134 -49zM948 1190q-78 0 -130 47.5t-52 118.5q0 76 52.5 124t135.5 48q78 0 129.5 -47.5t51.5 -120.5q0 -74 -52 -122t-135 -48zM1235 1040q34 0 56 -18t22 -47
q0 -22 -10.5 -37.5t-29 -30.5t-40.5 -34t-50.5 -59.5t-52.5 -96.5l-319 -746q-159 -372 -444 -372q-66 0 -117.5 15t-71.5 40q-33 40 -63.5 142t-30.5 173q0 38 20 63t48 25q38 0 63 -34q71 -92 117.5 -127t103.5 -35q67 0 121 110l-383 746q-34 67 -71.5 113t-60.5 62
t-38.5 36t-15.5 47q0 30 22.5 47.5t55.5 17.5q17 0 100.5 -3t157.5 -3q70 0 148 3t101 3q48 0 72.5 -17.5t24.5 -47.5q0 -27 -14 -46.5t-30 -29t-30 -31.5t-14 -53q0 -46 36 -135l152 -326l133 326q37 90 37 139q0 27 -14.5 47t-31.5 30.5t-31.5 31t-14.5 47.5q0 65 94 65
q20 0 69.5 -3t78.5 -3q27 0 77.5 3t67.5 3z" />
    <glyph glyph-name="Amacron" unicode="&#x100;" horiz-adv-x="1607" 
d="M539 1640q-74 0 -74 99q0 98 74 98q41 0 133.5 -2t136.5 -2q43 0 136 2t134 2q74 0 74 -98q0 -99 -74 -99q-41 0 -134 2.5t-136 2.5t-136 -2.5t-134 -2.5zM1161 1053l299 -789q14 -37 36.5 -64t43.5 -41l40.5 -27t31.5 -31t12 -44q0 -27 -19.5 -44t-52.5 -17
q-26 0 -114.5 3t-167.5 3t-176.5 -3t-124.5 -3q-50 0 -78.5 18.5t-28.5 51.5q0 32 22.5 51t49.5 26.5t49.5 28t22.5 55.5q0 33 -23 97l-20 57q-13 39 -31 55.5t-58 16.5h-364q-39 0 -56 -16t-32 -56l-21 -53q-28 -76 -28 -101q0 -35 23.5 -55.5t51 -28t51 -26.5t23.5 -51
q0 -34 -27.5 -52t-78.5 -18q-36 0 -101.5 3t-93.5 3q-29 0 -84.5 -3t-91.5 -3q-33 0 -52.5 17t-19.5 44t13 45t34.5 30t44.5 25.5t46.5 40.5t38.5 66l299 789q55 140 102 290q29 88 77.5 114t180.5 26q89 0 134.5 -12t69 -40t44.5 -90q68 -197 104 -288zM580 647h229
q24 0 33.5 9.5t8.5 20.5t-7 28l-150 407l-151 -407q-21 -58 37 -58z" />
    <glyph glyph-name="amacron" unicode="&#x101;" horiz-adv-x="1318" 
d="M367 1264q-74 0 -74 98t74 98q41 0 134 -2t136 -2t136 2t134 2q74 0 74 -98t-74 -98q-41 0 -134 2t-136 2t-136 -2t-134 -2zM1311 225q19 -3 31 -15.5t12 -33.5q0 -28 -20.5 -60t-58.5 -62t-101 -50t-138 -20q-73 0 -135.5 33.5t-103.5 95.5q-167 -138 -385 -138
q-174 0 -275.5 89.5t-101.5 234.5q0 147 116 243.5t324 96.5q125 0 223 -27l-2 23q-13 97 -67 149t-133 52q-96 0 -215 -52q-6 -2 -21.5 -9t-22.5 -10t-18.5 -7.5t-20 -6t-16.5 -1.5q-24 0 -42.5 18.5t-18.5 48.5q0 62 88 131q155 121 414 121q414 0 460 -340l45 -332
q11 -87 50 -120.5t133 -51.5zM592 195q87 0 158 51l-31 217q-37 12 -103 12q-79 0 -127.5 -32t-48.5 -99q0 -70 43 -109.5t109 -39.5z" />
    <glyph glyph-name="Abreve" unicode="&#x102;" horiz-adv-x="1607" 
d="M811 1565q-110 0 -189.5 53.5t-123.5 148.5q-29 62 -29 109q0 31 22 49.5t54 18.5t55.5 -19t56.5 -61q78 -99 154 -99t154 99q33 42 56.5 61t55.5 19t54 -18.5t22 -49.5q0 -47 -29 -109q-44 -95 -123.5 -148.5t-189.5 -53.5zM1161 1053l299 -789q14 -37 36.5 -64
t43.5 -41l40.5 -27t31.5 -31t12 -44q0 -27 -19.5 -44t-52.5 -17q-26 0 -114.5 3t-167.5 3t-176.5 -3t-124.5 -3q-50 0 -78.5 18.5t-28.5 51.5q0 32 22.5 51t49.5 26.5t49.5 28t22.5 55.5q0 33 -23 97l-20 57q-13 39 -31 55.5t-58 16.5h-364q-39 0 -56 -16t-32 -56l-21 -53
q-28 -76 -28 -101q0 -35 23.5 -55.5t51 -28t51 -26.5t23.5 -51q0 -34 -27.5 -52t-78.5 -18q-36 0 -101.5 3t-93.5 3q-29 0 -84.5 -3t-91.5 -3q-33 0 -52.5 17t-19.5 44t13 45t34.5 30t44.5 25.5t46.5 40.5t38.5 66l299 789q55 140 102 290q29 88 77.5 114t180.5 26
q89 0 134.5 -12t69 -40t44.5 -90q68 -197 104 -288zM580 647h229q24 0 33.5 9.5t8.5 20.5t-7 28l-150 407l-151 -407q-21 -58 37 -58z" />
    <glyph glyph-name="abreve" unicode="&#x103;" horiz-adv-x="1318" 
d="M639 1188q-109 0 -189 54t-124 149q-29 62 -29 108q0 31 22 49.5t54 18.5t55.5 -19t56.5 -61q77 -98 154 -98t154 98q33 42 56.5 61t55.5 19t54 -18.5t22 -49.5q0 -46 -29 -108q-44 -95 -124 -149t-189 -54zM1311 225q19 -3 31 -15.5t12 -33.5q0 -28 -20.5 -60t-58.5 -62
t-101 -50t-138 -20q-73 0 -135.5 33.5t-103.5 95.5q-167 -138 -385 -138q-174 0 -275.5 89.5t-101.5 234.5q0 147 116 243.5t324 96.5q125 0 223 -27l-2 23q-13 97 -67 149t-133 52q-96 0 -215 -52q-6 -2 -21.5 -9t-22.5 -10t-18.5 -7.5t-20 -6t-16.5 -1.5q-24 0 -42.5 18.5
t-18.5 48.5q0 62 88 131q155 121 414 121q414 0 460 -340l45 -332q11 -87 50 -120.5t133 -51.5zM592 195q87 0 158 51l-31 217q-37 12 -103 12q-79 0 -127.5 -32t-48.5 -99q0 -70 43 -109.5t109 -39.5z" />
    <glyph glyph-name="Aogonek" unicode="&#x104;" horiz-adv-x="1607" 
d="M1161 1053l299 -789q14 -37 36.5 -64t43.5 -41l40.5 -27t31.5 -31t12 -44q0 -27 -19.5 -44t-52.5 -17q-31 0 -102.5 2.5t-120.5 3.5q-96 -104 -96 -205q0 -61 43 -61q23 0 43 12q24 12 35 12q18 0 32.5 -15t14.5 -36q0 -37 -33 -63q-69 -58 -168 -58q-78 0 -129 47
t-51 127q0 123 149 240q-37 -1 -104 -3.5t-96 -2.5q-50 0 -78.5 18.5t-28.5 51.5q0 32 22.5 51t49.5 26.5t49.5 28t22.5 55.5q0 33 -23 97l-20 57q-13 39 -31 55.5t-58 16.5h-364q-39 0 -56 -16t-32 -56l-21 -53q-28 -76 -28 -101q0 -35 23.5 -55.5t51 -28t51 -26.5
t23.5 -51q0 -34 -27.5 -52t-78.5 -18q-36 0 -101.5 3t-93.5 3q-29 0 -84.5 -3t-91.5 -3q-33 0 -52.5 17t-19.5 44t13 45t34.5 30t44.5 25.5t46.5 40.5t38.5 66l299 789q55 140 102 290q29 88 77.5 114t180.5 26q89 0 134.5 -12t69 -40t44.5 -90q68 -197 104 -288zM580 647
h229q24 0 33.5 9.5t8.5 20.5t-7 28l-150 407l-151 -407q-21 -58 37 -58z" />
    <glyph glyph-name="aogonek" unicode="&#x105;" horiz-adv-x="1318" 
d="M1354 176q0 -49 -58 -105t-157 -77q-90 -96 -90 -197q0 -61 43 -61q23 0 43 12q24 12 34 12q18 0 33 -15t15 -36q0 -37 -33 -63q-69 -58 -168 -58q-78 0 -129 47t-51 127q0 119 137 228q-112 25 -176 123q-167 -138 -385 -138q-174 0 -275.5 89.5t-101.5 234.5
q0 147 116 243.5t324 96.5q125 0 223 -27l-2 23q-13 97 -67 149t-133 52q-96 0 -215 -52q-6 -2 -21.5 -9t-22.5 -10t-18.5 -7.5t-20 -6t-16.5 -1.5q-24 0 -42.5 18.5t-18.5 48.5q0 62 88 131q155 121 414 121q414 0 460 -340l45 -332q11 -87 50 -120.5t133 -51.5
q19 -3 31 -15.5t12 -33.5zM592 195q87 0 158 51l-31 217q-37 12 -103 12q-79 0 -127.5 -32t-48.5 -99q0 -70 43 -109.5t109 -39.5z" />
    <glyph glyph-name="Cacute" unicode="&#x106;" horiz-adv-x="1484" 
d="M674 1550q-32 0 -51 12.5t-19 30.5q0 22 21 56q75 117 155 229q25 36 59.5 50t110.5 14q93 0 124.5 -15t31.5 -47q0 -29 -18.5 -51.5t-69.5 -65.5q-76 -62 -225 -174q-52 -39 -119 -39zM782 -35q-148 0 -279.5 50.5t-231.5 143.5t-158 234t-58 312q0 172 59.5 322.5
t157.5 253t225.5 161.5t262.5 59q83 0 194.5 -25.5t126.5 -25.5q30 0 65 29.5t62 29.5q66 0 105 -112l82 -223q49 -134 49 -175q0 -39 -23.5 -61.5t-56.5 -22.5q-47 0 -90 58q-56 74 -86.5 112.5t-76 88t-79 72.5t-77 40t-89.5 17q-148 0 -245 -144t-97 -373
q0 -250 116 -393t302 -143q194 0 332 170q15 19 25.5 30t30 22t40.5 11q34 0 56 -24t22 -56q0 -41 -37 -110q-75 -145 -250 -236.5t-379 -91.5z" />
    <glyph glyph-name="cacute" unicode="&#x107;" horiz-adv-x="1189" 
d="M551 1151q-32 0 -51 12.5t-19 30.5q0 21 21 55q82 127 155 230q24 35 59 49t111 14q94 0 125 -14.5t31 -46.5q0 -29 -18.5 -51.5t-69.5 -65.5q-76 -62 -225 -174q-52 -39 -119 -39zM633 -33q-258 0 -423 145.5t-165 385.5q0 130 51.5 239.5t136.5 181t193 111t223 39.5
q98 0 188.5 -28.5t149.5 -71.5t94 -91t35 -90q0 -46 -42.5 -104t-125.5 -109q-45 -28 -76 -28q-67 0 -84 71q-1 7 -7 39t-11 52.5t-15 54.5t-23 57t-30.5 46t-42.5 34.5t-55 11.5q-70 0 -109.5 -66t-39.5 -181q0 -194 102.5 -315.5t249.5 -121.5q51 0 105 18.5t84 36
t75 48.5q29 22 51 22q23 0 37.5 -18t14.5 -39q0 -20 -17 -59q-19 -42 -59.5 -86t-103.5 -87t-157.5 -70.5t-203.5 -27.5z" />
    <glyph glyph-name="Ccircumflex" unicode="&#x108;" horiz-adv-x="1484" 
d="M502 1565q-36 0 -58 18.5t-22 42.5q0 26 29 68q73 103 151 186q37 39 69.5 52.5t98.5 13.5t98.5 -13.5t69.5 -52.5q82 -88 152 -186q28 -41 28 -68q0 -24 -22 -42.5t-58 -18.5q-48 0 -98 43l-170 143l-170 -143q-50 -43 -98 -43zM1370 483q34 0 56 -24t22 -56
q0 -41 -37 -110q-75 -145 -250 -236.5t-379 -91.5q-148 0 -279.5 50.5t-231.5 143.5t-158 234t-58 312q0 172 59.5 322.5t157.5 253t225.5 161.5t262.5 59q83 0 194.5 -25.5t126.5 -25.5q30 0 65 29.5t62 29.5q66 0 105 -112l82 -223q49 -134 49 -175q0 -39 -23.5 -61.5
t-56.5 -22.5q-47 0 -90 58q-56 74 -86.5 112.5t-76 88t-79 72.5t-77 40t-89.5 17q-148 0 -245 -144t-97 -373q0 -250 116 -393t302 -143q194 0 332 170q15 19 25.5 30t30 22t40.5 11z" />
    <glyph glyph-name="ccircumflex" unicode="&#x109;" horiz-adv-x="1189" 
d="M379 1165q-36 0 -58 19t-22 43q0 25 29 67q76 107 151 187q37 38 69 51.5t99 13.5t99 -13.5t69 -51.5q79 -85 152 -187q28 -41 28 -67q0 -24 -22 -43t-58 -19q-48 0 -98 43l-170 144l-170 -144q-50 -43 -98 -43zM1122 354q23 0 37.5 -18t14.5 -39q0 -20 -17 -59
q-19 -42 -59.5 -86t-103.5 -87t-157.5 -70.5t-203.5 -27.5q-258 0 -423 145.5t-165 385.5q0 130 51.5 239.5t136.5 181t193 111t223 39.5q98 0 188.5 -28.5t149.5 -71.5t94 -91t35 -90q0 -46 -42.5 -104t-125.5 -109q-45 -28 -76 -28q-67 0 -84 71q-1 7 -7 39t-11 52.5
t-15 54.5t-23 57t-30.5 46t-42.5 34.5t-55 11.5q-70 0 -109.5 -66t-39.5 -181q0 -194 102.5 -315.5t249.5 -121.5q51 0 105 18.5t84 36t75 48.5q29 22 51 22z" />
    <glyph glyph-name="Cdotaccent" unicode="&#x10a;" horiz-adv-x="1484" 
d="M764 1565q-79 0 -132.5 48.5t-53.5 119.5q0 77 52.5 125.5t135.5 48.5q80 0 132 -48.5t52 -121.5q0 -74 -52 -123t-134 -49zM782 -35q-148 0 -279.5 50.5t-231.5 143.5t-158 234t-58 312q0 172 59.5 322.5t157.5 253t225.5 161.5t262.5 59q83 0 194.5 -25.5t126.5 -25.5
q30 0 65 29.5t62 29.5q66 0 105 -112l82 -223q49 -134 49 -175q0 -39 -23.5 -61.5t-56.5 -22.5q-47 0 -90 58q-56 74 -86.5 112.5t-76 88t-79 72.5t-77 40t-89.5 17q-148 0 -245 -144t-97 -373q0 -250 116 -393t302 -143q194 0 332 170q15 19 25.5 30t30 22t40.5 11
q34 0 56 -24t22 -56q0 -41 -37 -110q-75 -145 -250 -236.5t-379 -91.5z" />
    <glyph glyph-name="cdotaccent" unicode="&#x10b;" horiz-adv-x="1189" 
d="M641 1165q-79 0 -132.5 48.5t-53.5 119.5q0 77 52.5 125.5t135.5 48.5q80 0 132 -48.5t52 -121.5q0 -74 -52 -123t-134 -49zM633 -33q-258 0 -423 145.5t-165 385.5q0 130 51.5 239.5t136.5 181t193 111t223 39.5q98 0 188.5 -28.5t149.5 -71.5t94 -91t35 -90
q0 -46 -42.5 -104t-125.5 -109q-45 -28 -76 -28q-67 0 -84 71q-1 7 -7 39t-11 52.5t-15 54.5t-23 57t-30.5 46t-42.5 34.5t-55 11.5q-70 0 -109.5 -66t-39.5 -181q0 -194 102.5 -315.5t249.5 -121.5q51 0 105 18.5t84 36t75 48.5q29 22 51 22q23 0 37.5 -18t14.5 -39
q0 -20 -17 -59q-19 -42 -59.5 -86t-103.5 -87t-157.5 -70.5t-203.5 -27.5z" />
    <glyph glyph-name="Ccaron" unicode="&#x10c;" horiz-adv-x="1484" 
d="M602 1642q-75 80 -151 187q-29 42 -29 67q0 24 22 43t58 19q48 0 98 -43l170 -143l170 143q50 43 98 43q36 0 58 -19t22 -43q0 -26 -28 -67q-73 -102 -152 -187q-37 -38 -69 -51.5t-99 -13.5t-99 13.5t-69 51.5zM1370 483q34 0 56 -24t22 -56q0 -41 -37 -110
q-75 -145 -250 -236.5t-379 -91.5q-148 0 -279.5 50.5t-231.5 143.5t-158 234t-58 312q0 172 59.5 322.5t157.5 253t225.5 161.5t262.5 59q83 0 194.5 -25.5t126.5 -25.5q30 0 65 29.5t62 29.5q66 0 105 -112l82 -223q49 -134 49 -175q0 -39 -23.5 -61.5t-56.5 -22.5
q-47 0 -90 58q-56 74 -86.5 112.5t-76 88t-79 72.5t-77 40t-89.5 17q-148 0 -245 -144t-97 -373q0 -250 116 -393t302 -143q194 0 332 170q15 19 25.5 30t30 22t40.5 11z" />
    <glyph glyph-name="ccaron" unicode="&#x10d;" horiz-adv-x="1189" 
d="M479 1243q-75 80 -151 187q-29 42 -29 67q0 24 22 43t58 19q48 0 98 -43l170 -144l170 144q50 43 98 43q36 0 58 -19t22 -43q0 -26 -28 -67q-73 -102 -152 -187q-37 -38 -69 -51.5t-99 -13.5t-99 13.5t-69 51.5zM1122 354q23 0 37.5 -18t14.5 -39q0 -20 -17 -59
q-19 -42 -59.5 -86t-103.5 -87t-157.5 -70.5t-203.5 -27.5q-258 0 -423 145.5t-165 385.5q0 130 51.5 239.5t136.5 181t193 111t223 39.5q98 0 188.5 -28.5t149.5 -71.5t94 -91t35 -90q0 -46 -42.5 -104t-125.5 -109q-45 -28 -76 -28q-67 0 -84 71q-1 7 -7 39t-11 52.5
t-15 54.5t-23 57t-30.5 46t-42.5 34.5t-55 11.5q-70 0 -109.5 -66t-39.5 -181q0 -194 102.5 -315.5t249.5 -121.5q51 0 105 18.5t84 36t75 48.5q29 22 51 22z" />
    <glyph glyph-name="Dcaron" unicode="&#x10e;" horiz-adv-x="1699" 
d="M594 1642q-79 85 -152 187q-28 41 -28 67q0 24 22 43t58 19q48 0 98 -43l170 -143l170 143q50 43 98 43q36 0 58 -19t22 -43q0 -25 -29 -67q-76 -107 -151 -187q-37 -38 -69 -51.5t-99 -13.5t-99 13.5t-69 51.5zM780 1481q138 0 265.5 -30.5t237 -93.5t191.5 -152
t128.5 -213t46.5 -269q0 -155 -53.5 -288.5t-152.5 -232t-248 -154.5t-331 -56q-77 0 -230.5 5t-230.5 5q-81 0 -155.5 -3t-91.5 -3q-44 0 -67 21t-23 51q0 25 12 41.5t29.5 27.5t35 24.5t29.5 40.5t12 68v926q0 34 -8.5 59.5t-22 38t-28.5 24.5t-28.5 20.5t-22 24
t-8.5 36.5q0 30 22.5 50.5t67.5 20.5q17 0 91.5 -3t155.5 -3q63 0 189 8.5t188 8.5zM725 188h55q192 0 288.5 130.5t96.5 404.5q0 276 -110.5 419.5t-286.5 143.5h-43q-56 0 -79 -22.5t-23 -73.5v-905q0 -51 23 -74t79 -23z" />
    <glyph glyph-name="dcaron" unicode="&#x10f;" horiz-adv-x="1449" 
d="M1487 1589q75 0 107 -18t32 -62q0 -87 -25.5 -212.5t-56.5 -221.5q-21 -63 -82 -63q-32 0 -48.5 15t-16.5 52l2 428q0 47 17.5 64.5t70.5 17.5zM1294 1452v-1081q0 -31 10 -54t24.5 -34.5t32 -23t32 -19.5t24.5 -23.5t10 -36.5q0 -43 -48.5 -70.5t-196.5 -76.5
q-174 -58 -207 -58q-78 0 -78 121v78q-140 -207 -385 -207q-201 0 -333 142.5t-132 386.5q0 165 75 297t205.5 205t290.5 73q168 0 279 -84v176q0 37 -16 59.5t-38.5 33t-45 19.5t-38.5 26.5t-16 46.5q0 38 50 66.5t206 90.5q165 64 218 64q77 0 77 -117zM705 236
q86 0 139 76t53 192v24q0 145 -68 250t-174 105q-82 0 -134 -71t-52 -206q0 -162 70 -266t166 -104z" />
    <glyph glyph-name="Dcroat" unicode="&#x110;" horiz-adv-x="1705" 
d="M784 1481q138 0 265.5 -30.5t237 -93.5t191.5 -152t128.5 -213t46.5 -269q0 -155 -53.5 -288.5t-152.5 -232t-248 -154.5t-331 -56q-77 0 -230 5t-230 5q-81 0 -156 -3t-92 -3q-44 0 -67 21t-23 51q0 25 12 41.5t29.5 27.5t35 24.5t29.5 40.5t12 68v387h-57
q-52 0 -72 22.5t-20 74.5q0 50 20 73t72 23h57v346q0 34 -8.5 59.5t-22 38t-28.5 24.5t-28.5 20.5t-22 24t-8.5 36.5q0 30 22.5 50.5t67.5 20.5q17 0 92 -3t156 -3q62 0 188 8.5t188 8.5zM729 188h55q192 0 288.5 130.5t96.5 404.5q0 276 -110.5 419.5t-286.5 143.5h-43
q-56 0 -79 -22.5t-23 -73.5v-340h241q52 0 72.5 -23t20.5 -73q0 -51 -20.5 -74t-72.5 -23h-241v-372q0 -51 23 -74t79 -23z" />
    <glyph glyph-name="dcroat" unicode="&#x111;" horiz-adv-x="1449" 
d="M1294 1053v-682q0 -31 10 -54t24.5 -34.5t32 -23t32 -19.5t24.5 -23.5t10 -36.5q0 -43 -48.5 -70.5t-196.5 -76.5q-174 -58 -207 -58q-78 0 -78 121v66q-140 -195 -385 -195q-201 0 -333 135t-132 365q0 157 75 282.5t205.5 195t290.5 69.5q169 0 279 -80v119h-270
q-52 0 -72 21.5t-20 68.5q0 46 20.5 68t71.5 22h245q-16 16 -50.5 30t-56.5 32t-22 53q0 38 50 66.5t206 90.5q165 64 218 64q77 0 77 -117v-219h49q52 0 72.5 -22.5t20.5 -67.5q0 -46 -20.5 -68t-72.5 -22h-49zM705 221q86 0 139 72.5t53 181.5v25q0 138 -68 237t-174 99
q-82 0 -134 -67.5t-52 -195.5q0 -155 70 -253.5t166 -98.5z" />
    <glyph glyph-name="Emacron" unicode="&#x112;" horiz-adv-x="1495" 
d="M461 1640q-74 0 -74 99q0 98 74 98q40 0 133.5 -2t136.5 -2t136 2t134 2q74 0 74 -98q0 -99 -74 -99q-41 0 -134 2.5t-136 2.5t-136 -2.5t-134 -2.5zM1407 522q29 0 51.5 -22.5t22.5 -59.5q0 -24 -8 -51.5t-15.5 -45t-32.5 -69.5l-100 -219q-28 -59 -55.5 -83.5
t-65.5 -24.5q-26 0 -72.5 26.5t-101.5 26.5h-627q-81 0 -155.5 -3t-91.5 -3q-44 0 -67 21t-23 51q0 25 12 41.5t29.5 27.5t35 24.5t29.5 40.5t12 68v930q0 34 -8.5 59.5t-22 38t-28.5 24.5t-28.5 20.5t-22 24t-8.5 36.5q0 30 23 51t67 21q15 0 89.5 -3.5t157.5 -3.5h547
q55 0 101.5 27t72.5 27q38 0 66.5 -25.5t54.5 -83.5l90 -205q5 -11 16 -35t14.5 -32t10 -25t9 -26.5t4.5 -22t2 -25.5q0 -37 -22.5 -59.5t-51.5 -22.5q-25 0 -43.5 13.5t-50.5 46.5q-115 122 -157 158q-104 89 -217 97q-14 1 -28 1h-96q-56 0 -79 -22.5t-23 -73.5v-281
q0 -32 14 -44.5t51 -12.5h51q39 0 69.5 22.5t47 50t41 50t53.5 22.5q76 0 76 -94q0 -25 -3 -74t-3 -74t3 -74t3 -73q0 -94 -76 -94q-29 0 -53.5 22.5t-41 50t-47 50t-69.5 22.5h-51q-37 0 -51 -12.5t-14 -44.5v-301q0 -51 23 -73.5t79 -22.5h158q64 0 118.5 17t108 56
t96.5 81.5t107 115.5q27 32 47.5 45.5t46.5 13.5z" />
    <glyph glyph-name="emacron" unicode="&#x113;" horiz-adv-x="1230" 
d="M362 1239q-73 0 -73 98q0 99 73 99q40 0 134 -2t137 -2t136 2t134 2q74 0 74 -99q0 -98 -74 -98q-41 0 -134 2t-136 2t-137 -2t-134 -2zM1145 336q26 0 40.5 -20t14.5 -37q0 -24 -20 -60q-24 -40 -71 -81.5t-115.5 -81t-165.5 -64.5t-203 -25q-256 0 -418 152t-162 387
q0 168 85.5 298.5t222.5 197.5t300 67q117 0 215.5 -37t161 -97t97 -133t34.5 -147q0 -35 -8.5 -53.5t-19 -24t-37.5 -14.5l-572 -178q50 -76 126.5 -122t170.5 -46q66 0 122 19t120 61q57 39 82 39zM600 881q-72 0 -115 -63.5t-43 -174.5q0 -42 13 -96l260 84
q26 9 39.5 23.5t13.5 43.5q0 67 -50 125t-118 58z" />
    <glyph glyph-name="Ebreve" unicode="&#x114;" horiz-adv-x="1495" 
d="M733 1565q-110 0 -189.5 53.5t-123.5 148.5q-29 62 -29 109q0 31 22 49.5t54 18.5t56 -19t57 -61q78 -99 153 -99q76 0 154 99q33 42 56.5 61t55.5 19t54 -18.5t22 -49.5q0 -49 -28 -109q-44 -95 -124 -148.5t-190 -53.5zM1407 522q29 0 51.5 -22.5t22.5 -59.5
q0 -24 -8 -51.5t-15.5 -45t-32.5 -69.5l-100 -219q-28 -59 -55.5 -83.5t-65.5 -24.5q-26 0 -72.5 26.5t-101.5 26.5h-627q-81 0 -155.5 -3t-91.5 -3q-44 0 -67 21t-23 51q0 25 12 41.5t29.5 27.5t35 24.5t29.5 40.5t12 68v930q0 34 -8.5 59.5t-22 38t-28.5 24.5t-28.5 20.5
t-22 24t-8.5 36.5q0 30 23 51t67 21q15 0 89.5 -3.5t157.5 -3.5h547q55 0 101.5 27t72.5 27q38 0 66.5 -25.5t54.5 -83.5l90 -205q5 -11 16 -35t14.5 -32t10 -25t9 -26.5t4.5 -22t2 -25.5q0 -37 -22.5 -59.5t-51.5 -22.5q-25 0 -43.5 13.5t-50.5 46.5q-115 122 -157 158
q-104 89 -217 97q-14 1 -28 1h-96q-56 0 -79 -22.5t-23 -73.5v-281q0 -32 14 -44.5t51 -12.5h51q39 0 69.5 22.5t47 50t41 50t53.5 22.5q76 0 76 -94q0 -25 -3 -74t-3 -74t3 -74t3 -73q0 -94 -76 -94q-29 0 -53.5 22.5t-41 50t-47 50t-69.5 22.5h-51q-37 0 -51 -12.5
t-14 -44.5v-301q0 -51 23 -73.5t79 -22.5h158q64 0 118.5 17t108 56t96.5 81.5t107 115.5q27 32 47.5 45.5t46.5 13.5z" />
    <glyph glyph-name="ebreve" unicode="&#x115;" horiz-adv-x="1230" 
d="M635 1163q-109 0 -189 54t-124 149q-29 62 -29 109q0 31 22 49t54 18t55.5 -19t56.5 -61q77 -98 154 -98q76 0 153 98q33 42 57 61t56 19t54 -18t22 -49q0 -47 -29 -109q-44 -95 -124 -149t-189 -54zM1145 336q26 0 40.5 -20t14.5 -37q0 -24 -20 -60q-24 -40 -71 -81.5
t-115.5 -81t-165.5 -64.5t-203 -25q-256 0 -418 152t-162 387q0 168 85.5 298.5t222.5 197.5t300 67q117 0 215.5 -37t161 -97t97 -133t34.5 -147q0 -35 -8.5 -53.5t-19 -24t-37.5 -14.5l-572 -178q50 -76 126.5 -122t170.5 -46q66 0 122 19t120 61q57 39 82 39zM600 881
q-72 0 -115 -63.5t-43 -174.5q0 -42 13 -96l260 84q26 9 39.5 23.5t13.5 43.5q0 67 -50 125t-118 58z" />
    <glyph glyph-name="Edotaccent" unicode="&#x116;" horiz-adv-x="1495" 
d="M735 1565q-79 0 -132.5 48.5t-53.5 119.5q0 77 52.5 125.5t135.5 48.5q80 0 132.5 -48.5t52.5 -121.5q0 -74 -52.5 -123t-134.5 -49zM1407 522q29 0 51.5 -22.5t22.5 -59.5q0 -24 -8 -51.5t-15.5 -45t-32.5 -69.5l-100 -219q-28 -59 -55.5 -83.5t-65.5 -24.5
q-26 0 -72.5 26.5t-101.5 26.5h-627q-81 0 -155.5 -3t-91.5 -3q-44 0 -67 21t-23 51q0 25 12 41.5t29.5 27.5t35 24.5t29.5 40.5t12 68v930q0 34 -8.5 59.5t-22 38t-28.5 24.5t-28.5 20.5t-22 24t-8.5 36.5q0 30 23 51t67 21q15 0 89.5 -3.5t157.5 -3.5h547q55 0 101.5 27
t72.5 27q38 0 66.5 -25.5t54.5 -83.5l90 -205q5 -11 16 -35t14.5 -32t10 -25t9 -26.5t4.5 -22t2 -25.5q0 -37 -22.5 -59.5t-51.5 -22.5q-25 0 -43.5 13.5t-50.5 46.5q-115 122 -157 158q-104 89 -217 97q-14 1 -28 1h-96q-56 0 -79 -22.5t-23 -73.5v-281q0 -32 14 -44.5
t51 -12.5h51q39 0 69.5 22.5t47 50t41 50t53.5 22.5q76 0 76 -94q0 -25 -3 -74t-3 -74t3 -74t3 -73q0 -94 -76 -94q-29 0 -53.5 22.5t-41 50t-47 50t-69.5 22.5h-51q-37 0 -51 -12.5t-14 -44.5v-301q0 -51 23 -73.5t79 -22.5h158q64 0 118.5 17t108 56t96.5 81.5t107 115.5
q27 32 47.5 45.5t46.5 13.5z" />
    <glyph glyph-name="edotaccent" unicode="&#x117;" horiz-adv-x="1230" 
d="M637 1163q-79 0 -132.5 48.5t-53.5 119.5q0 77 52.5 125.5t135.5 48.5q80 0 132 -48.5t52 -121.5q0 -74 -52 -123t-134 -49zM1145 336q26 0 40.5 -20t14.5 -37q0 -24 -20 -60q-24 -40 -71 -81.5t-115.5 -81t-165.5 -64.5t-203 -25q-256 0 -418 152t-162 387
q0 168 85.5 298.5t222.5 197.5t300 67q117 0 215.5 -37t161 -97t97 -133t34.5 -147q0 -35 -8.5 -53.5t-19 -24t-37.5 -14.5l-572 -178q50 -76 126.5 -122t170.5 -46q66 0 122 19t120 61q57 39 82 39zM600 881q-72 0 -115 -63.5t-43 -174.5q0 -42 13 -96l260 84
q26 9 39.5 23.5t13.5 43.5q0 67 -50 125t-118 58z" />
    <glyph glyph-name="Eogonek" unicode="&#x118;" horiz-adv-x="1495" 
d="M1407 522q29 0 51.5 -22.5t22.5 -59.5q0 -24 -8 -51.5t-15.5 -45t-32.5 -69.5l-100 -219q-28 -59 -55.5 -83.5t-65.5 -24.5q-25 0 -59 19t-51 24q-86 -95 -86 -193q0 -61 43 -61q23 0 43 12q24 12 34 12q18 0 33 -15t15 -36q0 -37 -33 -63q-69 -58 -168 -58
q-78 0 -129 47t-51 127q0 121 149 238h-541q-81 0 -155.5 -3t-91.5 -3q-44 0 -67 21t-23 51q0 25 12 41.5t29.5 27.5t35 24.5t29.5 40.5t12 68v930q0 34 -8.5 59.5t-22 38t-28.5 24.5t-28.5 20.5t-22 24t-8.5 36.5q0 30 23 51t67 21q15 0 89.5 -3.5t157.5 -3.5h547
q55 0 101.5 27t72.5 27q38 0 66.5 -25.5t54.5 -83.5l90 -205q5 -11 16 -35t14.5 -32t10 -25t9 -26.5t4.5 -22t2 -25.5q0 -37 -22.5 -59.5t-51.5 -22.5q-25 0 -43.5 13.5t-50.5 46.5q-115 122 -157 158q-104 89 -217 97q-14 1 -28 1h-96q-56 0 -79 -22.5t-23 -73.5v-281
q0 -32 14 -44.5t51 -12.5h51q39 0 69.5 22.5t47 50t41 50t53.5 22.5q76 0 76 -94q0 -25 -3 -74t-3 -74t3 -74t3 -73q0 -94 -76 -94q-29 0 -53.5 22.5t-41 50t-47 50t-69.5 22.5h-51q-37 0 -51 -12.5t-14 -44.5v-301q0 -51 23 -73.5t79 -22.5h158q64 0 118.5 17t108 56
t96.5 81.5t107 115.5q27 32 47.5 45.5t46.5 13.5z" />
    <glyph glyph-name="eogonek" unicode="&#x119;" horiz-adv-x="1230" 
d="M1145 336q26 0 40.5 -20t14.5 -37q0 -24 -20 -60q-33 -55 -107.5 -112.5t-179.5 -94.5q-107 -110 -107 -215q0 -61 43 -61q23 0 43 12q24 12 35 12q18 0 32.5 -15t14.5 -36q0 -38 -32 -63q-69 -58 -168 -58q-79 0 -130 47t-51 127q0 103 113 207q-20 -2 -61 -2
q-256 0 -418 152t-162 387q0 168 85.5 298.5t222.5 197.5t300 67q117 0 215.5 -37t161 -97t97 -133t34.5 -147q0 -35 -8.5 -53.5t-19 -24t-37.5 -14.5l-572 -178q50 -76 126.5 -122t170.5 -46q66 0 122 19t120 61q57 39 82 39zM600 881q-72 0 -115 -63.5t-43 -174.5
q0 -42 13 -96l260 84q26 9 39.5 23.5t13.5 43.5q0 67 -50 125t-118 58z" />
    <glyph glyph-name="Ecaron" unicode="&#x11a;" horiz-adv-x="1495" 
d="M573 1642q-75 80 -151 187q-29 42 -29 67q0 24 22 43t58 19q48 0 98 -43l170 -143l170 143q50 43 99 43q36 0 58 -19t22 -43q0 -25 -29 -67q-73 -102 -152 -187q-37 -38 -69 -51.5t-99 -13.5t-99 13.5t-69 51.5zM1407 522q29 0 51.5 -22.5t22.5 -59.5q0 -24 -8 -51.5
t-15.5 -45t-32.5 -69.5l-100 -219q-28 -59 -55.5 -83.5t-65.5 -24.5q-26 0 -72.5 26.5t-101.5 26.5h-627q-81 0 -155.5 -3t-91.5 -3q-44 0 -67 21t-23 51q0 25 12 41.5t29.5 27.5t35 24.5t29.5 40.5t12 68v930q0 34 -8.5 59.5t-22 38t-28.5 24.5t-28.5 20.5t-22 24
t-8.5 36.5q0 30 23 51t67 21q15 0 89.5 -3.5t157.5 -3.5h547q55 0 101.5 27t72.5 27q38 0 66.5 -25.5t54.5 -83.5l90 -205q5 -11 16 -35t14.5 -32t10 -25t9 -26.5t4.5 -22t2 -25.5q0 -37 -22.5 -59.5t-51.5 -22.5q-25 0 -43.5 13.5t-50.5 46.5q-115 122 -157 158
q-104 89 -217 97q-14 1 -28 1h-96q-56 0 -79 -22.5t-23 -73.5v-281q0 -32 14 -44.5t51 -12.5h51q39 0 69.5 22.5t47 50t41 50t53.5 22.5q76 0 76 -94q0 -25 -3 -74t-3 -74t3 -74t3 -73q0 -94 -76 -94q-29 0 -53.5 22.5t-41 50t-47 50t-69.5 22.5h-51q-37 0 -51 -12.5
t-14 -44.5v-301q0 -51 23 -73.5t79 -22.5h158q64 0 118.5 17t108 56t96.5 81.5t107 115.5q27 32 47.5 45.5t46.5 13.5z" />
    <glyph glyph-name="ecaron" unicode="&#x11b;" horiz-adv-x="1230" 
d="M475 1241q-78 83 -151 186q-29 42 -29 68q0 24 22 42.5t58 18.5q48 0 98 -43l170 -143l170 143q50 43 98 43q36 0 58 -18.5t22 -42.5q0 -27 -28 -68q-70 -98 -152 -186q-37 -38 -69 -51.5t-99 -13.5t-99 13.5t-69 51.5zM1145 336q26 0 40.5 -20t14.5 -37q0 -24 -20 -60
q-24 -40 -71 -81.5t-115.5 -81t-165.5 -64.5t-203 -25q-256 0 -418 152t-162 387q0 168 85.5 298.5t222.5 197.5t300 67q117 0 215.5 -37t161 -97t97 -133t34.5 -147q0 -35 -8.5 -53.5t-19 -24t-37.5 -14.5l-572 -178q50 -76 126.5 -122t170.5 -46q66 0 122 19t120 61
q57 39 82 39zM600 881q-72 0 -115 -63.5t-43 -174.5q0 -42 13 -96l260 84q26 9 39.5 23.5t13.5 43.5q0 67 -50 125t-118 58z" />
    <glyph glyph-name="Gcircumflex" unicode="&#x11c;" horiz-adv-x="1609" 
d="M557 1565q-36 0 -58 18.5t-22 42.5q0 26 29 68q73 103 151 186q37 39 69.5 52.5t98.5 13.5t98.5 -13.5t69.5 -52.5q82 -88 152 -186q29 -42 29 -68q0 -24 -22 -42.5t-58 -18.5q-49 0 -99 43l-170 143l-170 -143q-50 -43 -98 -43zM1579 670q0 -25 -12.5 -41.5t-29.5 -27.5
t-34.5 -24.5t-30 -41t-12.5 -68.5v-174q0 -36 9.5 -61.5t20.5 -37.5t20.5 -28.5t9.5 -36.5q0 -28 -18 -46.5t-60 -33.5q-85 -31 -239 -57.5t-329 -26.5q-140 0 -264 29.5t-226 89.5t-176 146t-114.5 205t-40.5 261q0 144 41 273t111 224.5t160.5 166t191.5 106t201 35.5
q99 0 217.5 -25.5t134.5 -25.5q26 0 61.5 29.5t59.5 29.5q36 0 61 -26.5t45 -87.5l74 -224q7 -22 19 -56.5t17 -49t9 -34t4 -34.5q0 -42 -23.5 -64t-56.5 -22q-28 0 -47.5 13.5t-42.5 44.5q-54 73 -89.5 117.5t-78.5 91t-78.5 70.5t-76.5 39.5t-84 15.5q-90 0 -159 -50.5
t-108.5 -135.5t-59 -185t-19.5 -211q0 -110 21.5 -204t66.5 -173t125 -124.5t188 -45.5q42 0 68 19.5t26 50.5v223q0 41 -12.5 68.5t-30 41t-34.5 24.5t-29.5 27.5t-12.5 41.5q0 30 23 50.5t68 20.5h485q45 0 67.5 -20.5t22.5 -50.5z" />
    <glyph glyph-name="gcircumflex" unicode="&#x11d;" horiz-adv-x="1341" 
d="M340 1188q-36 0 -58 18.5t-22 42.5q0 26 29 68q73 103 151 186q37 39 69.5 52.5t98.5 13.5t98.5 -13.5t69.5 -52.5q82 -88 152 -186q28 -41 28 -68q0 -24 -21.5 -42.5t-57.5 -18.5q-49 0 -99 43l-170 143l-170 -143q-50 -43 -98 -43zM1286 1061q-19 0 -64 8t-80 11.5
t-81.5 -9t-81.5 -47.5q116 -39 175.5 -109.5t59.5 -162.5q0 -73 -38 -137t-111.5 -114.5t-193 -80t-269.5 -29.5q-104 0 -211 17q-24 -31 -24 -46q0 -24 34 -36t111 -17q331 -18 481 -28q148 -10 247 -86.5t99 -217.5q0 -171 -176.5 -274.5t-484.5 -103.5
q-312 0 -481.5 69.5t-169.5 181.5q0 113 157 173q-110 62 -110 182q0 65 43 133t116 117q-178 81 -178 243q0 74 40 140.5t115 118t194.5 82t267.5 30.5q80 0 162 -10q57 105 151.5 190.5t157.5 85.5q44 0 82 -24t94 -90q43 -50 43 -91q0 -31 -19.5 -50t-56.5 -19zM641 543
q84 0 136 50.5t52 129.5q0 97 -59 146t-143 49t-136.5 -51t-52.5 -130q0 -96 60 -145t143 -49zM854 -90q-175 22 -496 57h-2q-39 -42 -39 -90q0 -129 361 -129q150 0 219.5 24.5t69.5 63.5q0 60 -113 74z" />
    <glyph glyph-name="Gbreve" unicode="&#x11e;" horiz-adv-x="1609" 
d="M817 1565q-110 0 -189.5 53.5t-123.5 148.5q-29 62 -29 109q0 31 22 49.5t54 18.5t56 -19t57 -61q78 -99 153 -99q76 0 154 99q33 42 56.5 61t55.5 19t54 -18.5t22 -49.5q0 -47 -29 -109q-44 -95 -123.5 -148.5t-189.5 -53.5zM874 -35q-140 0 -264 29.5t-226 89.5
t-176 146t-114.5 205t-40.5 261q0 144 41 273t111 224.5t160.5 166t191.5 106t201 35.5q99 0 217.5 -25.5t134.5 -25.5q26 0 61.5 29.5t59.5 29.5q36 0 61 -26.5t45 -87.5l74 -224q7 -22 19 -56.5t17 -49t9 -34t4 -34.5q0 -42 -23.5 -64t-56.5 -22q-28 0 -47.5 13.5
t-42.5 44.5q-54 73 -89.5 117.5t-78.5 91t-78.5 70.5t-76.5 39.5t-84 15.5q-90 0 -159 -50.5t-108.5 -135.5t-59 -185t-19.5 -211q0 -110 21.5 -204t66.5 -173t125 -124.5t188 -45.5q42 0 68 19.5t26 50.5v223q0 41 -12.5 68.5t-30 41t-34.5 24.5t-29.5 27.5t-12.5 41.5
q0 30 23 50.5t68 20.5h485q45 0 67.5 -20.5t22.5 -50.5q0 -25 -12.5 -41.5t-29.5 -27.5t-34.5 -24.5t-30 -41t-12.5 -68.5v-174q0 -36 9.5 -61.5t20.5 -37.5t20.5 -28.5t9.5 -36.5q0 -28 -18 -46.5t-60 -33.5q-85 -31 -239 -57.5t-329 -26.5z" />
    <glyph glyph-name="gbreve" unicode="&#x11f;" horiz-adv-x="1341" 
d="M600 1188q-109 0 -189 54t-124 149q-29 62 -29 108q0 31 22 49.5t54 18.5t55.5 -19t56.5 -61q77 -98 154 -98t154 98q33 42 56.5 61t55.5 19t54 -18.5t22 -49.5q0 -46 -29 -108q-44 -95 -124 -149t-189 -54zM1286 1061q-19 0 -64 8t-80 11.5t-81.5 -9t-81.5 -47.5
q116 -39 175.5 -109.5t59.5 -162.5q0 -73 -38 -137t-111.5 -114.5t-193 -80t-269.5 -29.5q-104 0 -211 17q-24 -31 -24 -46q0 -24 34 -36t111 -17q331 -18 481 -28q148 -10 247 -86.5t99 -217.5q0 -171 -176.5 -274.5t-484.5 -103.5q-312 0 -481.5 69.5t-169.5 181.5
q0 113 157 173q-110 62 -110 182q0 65 43 133t116 117q-178 81 -178 243q0 74 40 140.5t115 118t194.5 82t267.5 30.5q80 0 162 -10q57 105 151.5 190.5t157.5 85.5q44 0 82 -24t94 -90q43 -50 43 -91q0 -31 -19.5 -50t-56.5 -19zM641 543q84 0 136 50.5t52 129.5
q0 97 -59 146t-143 49t-136.5 -51t-52.5 -130q0 -96 60 -145t143 -49zM854 -90q-175 22 -496 57h-2q-39 -42 -39 -90q0 -129 361 -129q150 0 219.5 24.5t69.5 63.5q0 60 -113 74z" />
    <glyph glyph-name="Gdotaccent" unicode="&#x120;" horiz-adv-x="1609" 
d="M819 1565q-79 0 -132.5 48.5t-53.5 119.5q0 77 52.5 125.5t135.5 48.5q80 0 132.5 -48.5t52.5 -121.5q0 -74 -52.5 -123t-134.5 -49zM874 -35q-140 0 -264 29.5t-226 89.5t-176 146t-114.5 205t-40.5 261q0 144 41 273t111 224.5t160.5 166t191.5 106t201 35.5
q99 0 217.5 -25.5t134.5 -25.5q26 0 61.5 29.5t59.5 29.5q36 0 61 -26.5t45 -87.5l74 -224q7 -22 19 -56.5t17 -49t9 -34t4 -34.5q0 -42 -23.5 -64t-56.5 -22q-28 0 -47.5 13.5t-42.5 44.5q-54 73 -89.5 117.5t-78.5 91t-78.5 70.5t-76.5 39.5t-84 15.5q-90 0 -159 -50.5
t-108.5 -135.5t-59 -185t-19.5 -211q0 -110 21.5 -204t66.5 -173t125 -124.5t188 -45.5q42 0 68 19.5t26 50.5v223q0 41 -12.5 68.5t-30 41t-34.5 24.5t-29.5 27.5t-12.5 41.5q0 30 23 50.5t68 20.5h485q45 0 67.5 -20.5t22.5 -50.5q0 -25 -12.5 -41.5t-29.5 -27.5
t-34.5 -24.5t-30 -41t-12.5 -68.5v-174q0 -36 9.5 -61.5t20.5 -37.5t20.5 -28.5t9.5 -36.5q0 -28 -18 -46.5t-60 -33.5q-85 -31 -239 -57.5t-329 -26.5z" />
    <glyph glyph-name="gdotaccent" unicode="&#x121;" horiz-adv-x="1341" 
d="M602 1188q-79 0 -132.5 48.5t-53.5 119.5q0 77 52.5 125.5t135.5 48.5q80 0 132 -48.5t52 -121.5q0 -74 -52 -123t-134 -49zM1286 1061q-19 0 -64 8t-80 11.5t-81.5 -9t-81.5 -47.5q116 -39 175.5 -109.5t59.5 -162.5q0 -73 -38 -137t-111.5 -114.5t-193 -80
t-269.5 -29.5q-104 0 -211 17q-24 -31 -24 -46q0 -24 34 -36t111 -17q331 -18 481 -28q148 -10 247 -86.5t99 -217.5q0 -171 -176.5 -274.5t-484.5 -103.5q-312 0 -481.5 69.5t-169.5 181.5q0 113 157 173q-110 62 -110 182q0 65 43 133t116 117q-178 81 -178 243
q0 74 40 140.5t115 118t194.5 82t267.5 30.5q80 0 162 -10q57 105 151.5 190.5t157.5 85.5q44 0 82 -24t94 -90q43 -50 43 -91q0 -31 -19.5 -50t-56.5 -19zM641 543q84 0 136 50.5t52 129.5q0 97 -59 146t-143 49t-136.5 -51t-52.5 -130q0 -96 60 -145t143 -49zM854 -90
q-175 22 -496 57h-2q-39 -42 -39 -90q0 -129 361 -129q150 0 219.5 24.5t69.5 63.5q0 60 -113 74z" />
    <glyph glyph-name="uni0122" unicode="&#x122;" horiz-adv-x="1609" 
d="M874 -35q-140 0 -264 29.5t-226 89.5t-176 146t-114.5 205t-40.5 261q0 144 41 273t111 224.5t160.5 166t191.5 106t201 35.5q99 0 217.5 -25.5t134.5 -25.5q26 0 61.5 29.5t59.5 29.5q36 0 61 -26.5t45 -87.5l74 -224q7 -22 19 -56.5t17 -49t9 -34t4 -34.5
q0 -42 -23.5 -64t-56.5 -22q-28 0 -47.5 13.5t-42.5 44.5q-54 73 -89.5 117.5t-78.5 91t-78.5 70.5t-76.5 39.5t-84 15.5q-90 0 -159 -50.5t-108.5 -135.5t-59 -185t-19.5 -211q0 -110 21.5 -204t66.5 -173t125 -124.5t188 -45.5q42 0 68 19.5t26 50.5v223q0 41 -12.5 68.5
t-30 41t-34.5 24.5t-29.5 27.5t-12.5 41.5q0 30 23 50.5t68 20.5h485q45 0 67.5 -20.5t22.5 -50.5q0 -25 -12.5 -41.5t-29.5 -27.5t-34.5 -24.5t-30 -41t-12.5 -68.5v-174q0 -36 9.5 -61.5t20.5 -37.5t20.5 -28.5t9.5 -36.5q0 -28 -18 -46.5t-60 -33.5q-85 -31 -239 -57.5
t-329 -26.5zM805 -567q-23 0 -36 12t-13 31q0 6 1 10.5t4 9.5t4.5 8t7 8t7.5 6.5t9.5 7.5t9.5 7q55 44 55 82q0 9 -3.5 16t-12 13t-14.5 9t-19 9t-17 8q-37 17 -57 40t-20 69q0 60 50.5 102.5t125.5 42.5q162 0 162 -166q0 -75 -42.5 -152.5t-99.5 -125t-102 -47.5z" />
    <glyph glyph-name="uni0123" unicode="&#x123;" horiz-adv-x="1341" 
d="M594 1108q-152 0 -152 156q0 53 24 109.5t59 98.5t75 69.5t72 27.5q21 0 33 -10.5t12 -28.5q0 -6 -1 -10.5t-3.5 -9t-4 -7.5t-6.5 -7.5t-7.5 -6.5t-9 -7t-9.5 -7q-51 -38 -51 -76q0 -8 3.5 -15t11 -12.5t13 -9t17.5 -9t16 -7.5q35 -15 54.5 -36.5t19.5 -64.5
q0 -57 -48 -97t-118 -40zM1286 1061q-19 0 -64 8t-80 11.5t-81.5 -9t-81.5 -47.5q116 -39 175.5 -109.5t59.5 -162.5q0 -73 -38 -137t-111.5 -114.5t-193 -80t-269.5 -29.5q-104 0 -211 17q-24 -31 -24 -46q0 -24 34 -36t111 -17q331 -18 481 -28q148 -10 247 -86.5
t99 -217.5q0 -171 -176.5 -274.5t-484.5 -103.5q-312 0 -481.5 69.5t-169.5 181.5q0 113 157 173q-110 62 -110 182q0 65 43 133t116 117q-178 81 -178 243q0 74 40 140.5t115 118t194.5 82t267.5 30.5q80 0 162 -10q57 105 151.5 190.5t157.5 85.5q44 0 82 -24t94 -90
q43 -50 43 -91q0 -31 -19.5 -50t-56.5 -19zM641 543q84 0 136 50.5t52 129.5q0 97 -59 146t-143 49t-136.5 -51t-52.5 -130q0 -96 60 -145t143 -49zM854 -90q-175 22 -496 57h-2q-39 -42 -39 -90q0 -129 361 -129q150 0 219.5 24.5t69.5 63.5q0 60 -113 74z" />
    <glyph glyph-name="Hcircumflex" unicode="&#x124;" horiz-adv-x="1740" 
d="M608 1565q-36 0 -58 18.5t-22 42.5q0 26 29 68q70 98 152 186q37 39 69.5 52.5t98.5 13.5t98 -13.5t69 -52.5q82 -88 152 -186q29 -42 29 -68q0 -24 -22 -42.5t-58 -18.5q-48 0 -98 43l-170 143l-170 -143q-50 -43 -99 -43zM1556 1196v-926q0 -41 12.5 -68t30 -40.5
t34.5 -24.5t29.5 -27.5t12.5 -41.5q0 -30 -23 -51t-67 -21q-17 0 -92 3t-156 3t-155.5 -3t-91.5 -3q-45 0 -68 21t-23 51q0 25 12.5 41.5t29.5 27.5t34.5 24.5t30 40.5t12.5 68v320q0 32 -14 44.5t-51 12.5h-365q-37 0 -51 -12.5t-14 -44.5v-320q0 -41 12 -68t29.5 -40.5
t35 -24.5t29.5 -27.5t12 -41.5q0 -30 -23 -51t-67 -21q-17 0 -92 3t-156 3t-155.5 -3t-91.5 -3q-44 0 -67 21t-23 51q0 25 12 41.5t29.5 27.5t35 24.5t29.5 40.5t12 68v926q0 34 -8.5 59.5t-22 38t-28.5 24.5t-28.5 20.5t-22 24t-8.5 36.5q0 29 27.5 50t72.5 21
q17 0 86.5 -3t150.5 -3t156 3t92 3q45 0 67.5 -20.5t22.5 -50.5q0 -21 -8.5 -36.5t-22 -24t-28.5 -20.5t-28.5 -24.5t-22 -38t-8.5 -59.5v-299q0 -32 14 -44.5t51 -12.5h365q37 0 51 12.5t14 44.5v299q0 41 -12.5 68.5t-30 41t-34.5 24.5t-29.5 27.5t-12.5 41.5
q0 30 23 50.5t68 20.5q17 0 91.5 -3t155.5 -3t156 3t92 3q45 0 67.5 -20.5t22.5 -50.5q0 -25 -12.5 -41.5t-29.5 -27.5t-34.5 -24.5t-30 -41t-12.5 -68.5z" />
    <glyph glyph-name="hcircumflex" unicode="&#x125;" horiz-adv-x="1419" 
d="M94 1602q-36 0 -58 18.5t-22 42.5q0 26 29 68q70 98 152 186q37 39 69 52t98 13q67 0 99 -13.5t69 -51.5q82 -88 152 -186q29 -42 29 -68q0 -24 -22 -42.5t-58 -18.5q-49 0 -99 43l-170 143l-169 -143q-50 -43 -99 -43zM1245 668l49 -383q6 -49 21.5 -81.5t33 -47.5
t34 -26.5t27.5 -27.5t11 -41q0 -28 -23.5 -45.5t-64.5 -17.5q-16 0 -82.5 3t-138.5 3q-73 0 -141 -3t-84 -3q-46 0 -69 19.5t-23 48.5q0 26 16.5 44.5t36.5 27.5t36.5 27.5t16.5 45.5q0 22 -6 76l-37 266q-17 120 -56 170.5t-104 50.5q-60 0 -102.5 -56.5t-42.5 -193.5v-266
q0 -39 12 -65.5t28.5 -39.5t33.5 -23.5t29 -26.5t12 -40q0 -28 -21.5 -47.5t-64.5 -19.5q-16 0 -86 3t-142 3t-140.5 -3t-84.5 -3q-43 0 -64.5 19t-21.5 48q0 24 11.5 40t28.5 26.5t33.5 23.5t28 39.5t11.5 65.5v895q0 37 -13 60t-32 34t-37.5 20t-31.5 26t-13 44
q0 38 47.5 68t187.5 90q172 74 211 74q78 0 78 -117v-592h2q49 88 141 146.5t207 58.5q140 0 228.5 -101.5t113.5 -295.5z" />
    <glyph glyph-name="Hbar" unicode="&#x126;" horiz-adv-x="1753" 
d="M1655 977h-94v-707q0 -41 12 -68t29.5 -40.5t35 -24.5t29.5 -27.5t12 -41.5q0 -30 -23 -51t-67 -21q-17 0 -92 3t-156 3t-155.5 -3t-91.5 -3q-44 0 -67 21t-23 51q0 25 12 41.5t29.5 27.5t35 24.5t29.5 40.5t12 68v320q0 32 -14 44.5t-51 12.5h-365q-37 0 -51 -12.5
t-14 -44.5v-320q0 -41 12 -68t29.5 -40.5t35 -24.5t29.5 -27.5t12 -41.5q0 -30 -23 -51t-67 -21q-17 0 -91.5 3t-155.5 3t-156 -3t-92 -3q-44 0 -67 21t-23 51q0 25 12 41.5t29.5 27.5t35 24.5t29.5 40.5t12 68v707h-71q-52 0 -72 22.5t-20 73.5q0 50 20 73t72 23h71v27
q0 34 -8.5 59.5t-22 38t-28.5 24.5t-28.5 20.5t-22 24t-8.5 36.5q0 29 27.5 50t72.5 21q17 0 87 -3t151 -3t155.5 3t91.5 3q45 0 67.5 -20.5t22.5 -50.5q0 -21 -8.5 -36.5t-22 -24t-28.5 -20.5t-28.5 -24.5t-22 -38t-8.5 -59.5v-35h495v35q0 34 -8.5 59.5t-22 38t-28.5 24.5
t-28.5 20.5t-22 24t-8.5 36.5q0 30 22.5 50.5t67.5 20.5q17 0 91.5 -3t155.5 -3t156 3t92 3q45 0 67.5 -20.5t22.5 -50.5q0 -21 -8.5 -36.5t-22 -24t-28.5 -20.5t-28.5 -24.5t-22 -38t-8.5 -59.5v-27h94q52 0 72 -23t20 -73q0 -51 -20 -73.5t-72 -22.5zM692 840h365
q37 0 51 12.5t14 44.5v88h-495v-88q0 -32 14 -44.5t51 -12.5z" />
    <glyph glyph-name="hbar" unicode="&#x127;" horiz-adv-x="1419" 
d="M1245 635l49 -365q5 -39 17 -67.5t26 -42.5t29 -26t27 -19.5t20 -21.5t8 -34q0 -28 -23.5 -44.5t-64.5 -16.5q-16 0 -82.5 3t-138.5 3q-73 0 -141 -3t-84 -3q-46 0 -69 18t-23 45q0 25 16.5 43t36.5 27t36.5 27t16.5 43q0 23 -6 71l-37 254q-17 114 -56.5 162.5
t-103.5 48.5q-60 0 -102.5 -54t-42.5 -183v-242q0 -39 12 -65.5t28.5 -39.5t33.5 -23.5t29 -26.5t12 -40q0 -28 -21.5 -47.5t-64.5 -19.5q-16 0 -86 3t-142 3t-140.5 -3t-84.5 -3q-43 0 -64.5 19t-21.5 48q0 24 11.5 40t28.5 26.5t33.5 23.5t28 39.5t11.5 65.5v795h-93
q-52 0 -72 21.5t-20 68.5q0 46 20.5 68t71.5 22h64q-12 12 -39.5 25.5t-43 30.5t-15.5 48q0 38 47.5 68t187.5 90q172 74 211 74q78 0 78 -117v-219h197q51 0 71.5 -22t20.5 -68q0 -47 -20 -68.5t-72 -21.5h-197v-234h2q50 83 141.5 139t206.5 56q140 0 228.5 -97
t113.5 -282z" />
    <glyph glyph-name="Itilde" unicode="&#x128;" horiz-adv-x="806" 
d="M530 1579q-51 0 -96 22.5t-70.5 49t-51 49t-42.5 22.5q-27 0 -61 -57q-22 -37 -39 -52.5t-45 -15.5q-32 0 -49 19t-17 53t17 86q54 164 194 164q49 0 93.5 -22.5t70 -49t52.5 -49t46 -22.5q14 0 27 13t33 44q22 37 39 52.5t45 15.5q65 0 65 -72q0 -37 -16 -86
q-26 -80 -76 -122t-119 -42zM156 -4q-44 0 -67 21t-23 51q0 25 12 41.5t29.5 27.5t35 24.5t29.5 40.5t12 68v926q0 34 -8.5 59.5t-22 38t-28.5 24.5t-28.5 20.5t-22 24t-8.5 36.5q0 29 27.5 50t72.5 21q17 0 86.5 -3t150.5 -3t156 3t92 3q45 0 67.5 -20.5t22.5 -50.5
q0 -21 -8.5 -36.5t-22 -24t-28.5 -20.5t-28.5 -24.5t-22 -38t-8.5 -59.5v-926q0 -41 12 -68t29.5 -40.5t35 -24.5t29.5 -27.5t12 -41.5q0 -30 -23 -51t-67 -21q-17 0 -92 3t-156 3t-155.5 -3t-91.5 -3z" />
    <glyph glyph-name="itilde" unicode="&#x129;" horiz-adv-x="731" 
d="M496 1202q-51 0 -96 22.5t-70.5 49.5t-51 49.5t-42.5 22.5q-28 0 -62 -58q-22 -36 -39 -51.5t-45 -15.5q-65 0 -65 71q0 37 16 86q26 80 76 122t119 42q49 0 93.5 -22.5t70 -49t52.5 -49t46 -22.5q14 0 26.5 12.5t32.5 44.5q22 37 39 52.5t45 15.5q32 0 49 -19t17 -53
t-17 -86q-54 -164 -194 -164zM154 -4q-43 0 -64.5 19t-21.5 48q0 24 11.5 40t28 26.5t33 23.5t28 39.5t11.5 65.5v383q0 37 -13 60t-32 34t-37.5 20t-31.5 26t-13 44q0 37 47.5 67t188.5 91q172 74 211 74q78 0 78 -117v-682q0 -39 11.5 -65.5t28.5 -39.5t34 -23.5
t28.5 -26.5t11.5 -40q0 -28 -21.5 -47.5t-64.5 -19.5q-16 0 -85.5 3t-141.5 3t-140.5 -3t-84.5 -3z" />
    <glyph glyph-name="Imacron" unicode="&#x12a;" horiz-adv-x="806" 
d="M127 1640q-74 0 -74 99q0 98 74 98q41 0 134 -2t136 -2t137 2t134 2q73 0 73 -98q0 -99 -73 -99q-40 0 -134 2.5t-137 2.5t-136 -2.5t-134 -2.5zM156 -4q-44 0 -67 21t-23 51q0 25 12 41.5t29.5 27.5t35 24.5t29.5 40.5t12 68v926q0 34 -8.5 59.5t-22 38t-28.5 24.5
t-28.5 20.5t-22 24t-8.5 36.5q0 29 27.5 50t72.5 21q17 0 86.5 -3t150.5 -3t156 3t92 3q45 0 67.5 -20.5t22.5 -50.5q0 -21 -8.5 -36.5t-22 -24t-28.5 -20.5t-28.5 -24.5t-22 -38t-8.5 -59.5v-926q0 -41 12 -68t29.5 -40.5t35 -24.5t29.5 -27.5t12 -41.5q0 -30 -23 -51
t-67 -21q-17 0 -92 3t-156 3t-155.5 -3t-91.5 -3z" />
    <glyph glyph-name="imacron" unicode="&#x12b;" horiz-adv-x="731" 
d="M92 1264q-74 0 -74 98t74 98q40 0 133 -2t137 -2t137 2t134 2q74 0 74 -98t-74 -98q-41 0 -134 2t-137 2t-137 -2t-133 -2zM154 -4q-43 0 -64.5 19t-21.5 48q0 24 11.5 40t28 26.5t33 23.5t28 39.5t11.5 65.5v383q0 37 -13 60t-32 34t-37.5 20t-31.5 26t-13 44
q0 37 47.5 67t188.5 91q172 74 211 74q78 0 78 -117v-682q0 -39 11.5 -65.5t28.5 -39.5t34 -23.5t28.5 -26.5t11.5 -40q0 -28 -21.5 -47.5t-64.5 -19.5q-16 0 -85.5 3t-141.5 3t-140.5 -3t-84.5 -3z" />
    <glyph glyph-name="Ibreve" unicode="&#x12c;" horiz-adv-x="806" 
d="M399 1565q-110 0 -189.5 53.5t-123.5 148.5q-29 62 -29 109q0 31 22 49.5t54 18.5t56 -19t57 -61q78 -99 153 -99q76 0 154 99q33 42 57 61t56 19t53.5 -18.5t21.5 -49.5q0 -49 -28 -109q-44 -95 -124 -148.5t-190 -53.5zM156 -4q-44 0 -67 21t-23 51q0 25 12 41.5
t29.5 27.5t35 24.5t29.5 40.5t12 68v926q0 34 -8.5 59.5t-22 38t-28.5 24.5t-28.5 20.5t-22 24t-8.5 36.5q0 29 27.5 50t72.5 21q17 0 86.5 -3t150.5 -3t156 3t92 3q45 0 67.5 -20.5t22.5 -50.5q0 -21 -8.5 -36.5t-22 -24t-28.5 -20.5t-28.5 -24.5t-22 -38t-8.5 -59.5v-926
q0 -41 12 -68t29.5 -40.5t35 -24.5t29.5 -27.5t12 -41.5q0 -30 -23 -51t-67 -21q-17 0 -92 3t-156 3t-155.5 -3t-91.5 -3z" />
    <glyph glyph-name="ibreve" unicode="&#x12d;" horiz-adv-x="731" 
d="M365 1188q-109 0 -189.5 54t-124.5 149q-28 60 -28 108q0 31 21.5 49.5t53.5 18.5t56 -19t57 -61q77 -98 154 -98q76 0 153 98q33 42 57 61t56 19t54 -18.5t22 -49.5q0 -46 -29 -108q-44 -95 -124 -149t-189 -54zM154 -4q-43 0 -64.5 19t-21.5 48q0 24 11.5 40t28 26.5
t33 23.5t28 39.5t11.5 65.5v383q0 37 -13 60t-32 34t-37.5 20t-31.5 26t-13 44q0 37 47.5 67t188.5 91q172 74 211 74q78 0 78 -117v-682q0 -39 11.5 -65.5t28.5 -39.5t34 -23.5t28.5 -26.5t11.5 -40q0 -28 -21.5 -47.5t-64.5 -19.5q-16 0 -85.5 3t-141.5 3t-140.5 -3
t-84.5 -3z" />
    <glyph glyph-name="Iogonek" unicode="&#x12e;" horiz-adv-x="806" 
d="M623 1196v-926q0 -41 12 -68t29.5 -40.5t35 -24.5t29.5 -27.5t12 -41.5q0 -30 -23 -51t-67 -21q-16 0 -61 2t-84 2q-96 -104 -96 -203q0 -61 43 -61q23 0 43 12q24 12 34 12q18 0 33 -15t15 -36q0 -37 -33 -63q-69 -58 -168 -58q-78 0 -129 47t-51 127q0 124 151 240
q-51 -1 -110 -3.5t-82 -2.5q-44 0 -67 21t-23 51q0 25 12 41.5t29.5 27.5t35 24.5t29.5 40.5t12 68v926q0 34 -8.5 59.5t-22 38t-28.5 24.5t-28.5 20.5t-22 24t-8.5 36.5q0 29 27.5 50t72.5 21q17 0 86.5 -3t150.5 -3t156 3t92 3q45 0 67.5 -20.5t22.5 -50.5
q0 -21 -8.5 -36.5t-22 -24t-28.5 -20.5t-28.5 -24.5t-22 -38t-8.5 -59.5z" />
    <glyph glyph-name="iogonek" unicode="&#x12f;" horiz-adv-x="731" 
d="M297 1141q-84 0 -132 41t-48 106q0 94 88.5 171t212.5 77q79 0 134.5 -45t55.5 -113q0 -91 -93.5 -164t-217.5 -73zM578 940v-682q0 -39 11.5 -65.5t28.5 -39.5t34 -23.5t28.5 -26.5t11.5 -40q0 -28 -21.5 -47.5t-64.5 -19.5q-14 0 -108 4q-95 -103 -95 -203
q0 -61 43 -61q23 0 43 12q24 12 35 12q18 0 32.5 -15t14.5 -36q0 -38 -32 -63q-69 -58 -168 -58q-79 0 -130 47t-51 127q0 123 152 240q-51 -1 -108.5 -3.5t-79.5 -2.5q-43 0 -64.5 19t-21.5 48q0 24 11.5 40t28 26.5t33 23.5t28 39.5t11.5 65.5v383q0 37 -13 60t-32 34
t-37.5 20t-31.5 26t-13 44q0 37 47.5 67t188.5 91q172 74 211 74q78 0 78 -117z" />
    <glyph glyph-name="Idotaccent" unicode="&#x130;" horiz-adv-x="806" 
d="M401 1565q-79 0 -132.5 48.5t-53.5 119.5q0 77 52.5 125.5t135.5 48.5q80 0 132.5 -48.5t52.5 -121.5q0 -74 -52.5 -123t-134.5 -49zM156 -4q-44 0 -67 21t-23 51q0 25 12 41.5t29.5 27.5t35 24.5t29.5 40.5t12 68v926q0 34 -8.5 59.5t-22 38t-28.5 24.5t-28.5 20.5
t-22 24t-8.5 36.5q0 29 27.5 50t72.5 21q17 0 86.5 -3t150.5 -3t156 3t92 3q45 0 67.5 -20.5t22.5 -50.5q0 -21 -8.5 -36.5t-22 -24t-28.5 -20.5t-28.5 -24.5t-22 -38t-8.5 -59.5v-926q0 -41 12 -68t29.5 -40.5t35 -24.5t29.5 -27.5t12 -41.5q0 -30 -23 -51t-67 -21
q-17 0 -92 3t-156 3t-155.5 -3t-91.5 -3z" />
    <glyph glyph-name="dotlessi" unicode="&#x131;" horiz-adv-x="731" 
d="M154 -4q-43 0 -64.5 19t-21.5 48q0 24 11.5 40t28 26.5t33 23.5t28 39.5t11.5 65.5v383q0 37 -13 60t-32 34t-37.5 20t-31.5 26t-13 44q0 37 47.5 67t188.5 91q172 74 211 74q78 0 78 -117v-682q0 -39 11.5 -65.5t28.5 -39.5t34 -23.5t28.5 -26.5t11.5 -40
q0 -28 -21.5 -47.5t-64.5 -19.5q-16 0 -85.5 3t-141.5 3t-140.5 -3t-84.5 -3z" />
    <glyph glyph-name="IJ" unicode="&#x132;" horiz-adv-x="2002" 
d="M156 -4q-44 0 -67 21t-23 51q0 25 12 41.5t29.5 27.5t35 24.5t29.5 40.5t12 68v926q0 34 -8.5 59.5t-22 38t-28.5 24.5t-28.5 20.5t-22 24t-8.5 36.5q0 29 27.5 50t72.5 21q17 0 86.5 -3t150.5 -3t156 3t92 3q45 0 67.5 -20.5t22.5 -50.5q0 -21 -8.5 -36.5t-22 -24
t-28.5 -20.5t-28.5 -24.5t-22 -38t-8.5 -59.5v-926q0 -41 12 -68t29.5 -40.5t35 -24.5t29.5 -27.5t12 -41.5q0 -30 -23 -51t-67 -21q-17 0 -92 3t-156 3t-155.5 -3t-91.5 -3zM1333 -33q-133 0 -255 35t-195.5 92t-73.5 117q0 32 15 81.5t54 157.5q11 30 17 46q20 55 46 81.5
t56 24.5q63 -3 82 -80q43 -194 69 -252q39 -87 108 -96q10 -2 22 -2q66 0 96.5 56.5t30.5 148.5l-2 819q0 34 -10 59.5t-25 38t-32.5 24.5t-32.5 20.5t-25 24t-10 36.5q0 30 24.5 50.5t69.5 20.5q18 0 96 -3t164 -3q81 0 156 3t92 3q45 0 67.5 -20.5t22.5 -50.5
q0 -25 -12.5 -41.5t-30 -27.5t-34.5 -24.5t-29.5 -41t-12.5 -68.5l2 -834q0 -182 -125.5 -288.5t-384.5 -106.5z" />
    <glyph glyph-name="ij" unicode="&#x133;" horiz-adv-x="1406" 
d="M297 1141q-84 0 -132 41t-48 106q0 94 88.5 171t212.5 77q79 0 134.5 -45t55.5 -113q0 -91 -93.5 -164t-217.5 -73zM1008 1141q-84 0 -132.5 41t-48.5 106q0 94 88.5 171t212.5 77q79 0 135 -45t56 -113q0 -91 -93.5 -164t-217.5 -73zM154 -4q-43 0 -64.5 19t-21.5 48
q0 24 11.5 40t28 26.5t33 23.5t28 39.5t11.5 65.5v383q0 37 -13 60t-32 34t-37.5 20t-31.5 26t-13 44q0 37 47.5 67t188.5 91q172 74 211 74q78 0 78 -117v-682q0 -39 11.5 -65.5t28.5 -39.5t34 -23.5t28.5 -26.5t11.5 -40q0 -28 -21.5 -47.5t-64.5 -19.5q-16 0 -85.5 3
t-141.5 3t-140.5 -3t-84.5 -3zM907 -168q0 15 -8 75.5t-8 112.5v621q0 37 -13 60t-31.5 34t-37.5 20t-32 26t-13 44q0 37 48 67t189 91q111 48 149.5 61t59.5 13q78 0 78 -117v-852q0 -101 -45.5 -192.5t-119.5 -156t-170 -102.5t-195 -38q-88 0 -126 32.5t-38 104.5
q0 36 4 68.5t13.5 65t29 52t47.5 19.5q37 0 62 -43q25 -41 40 -63t36 -40t40 -18q41 0 41 55z" />
    <glyph glyph-name="Jcircumflex" unicode="&#x134;" horiz-adv-x="1196" 
d="M530 1565q-36 0 -57.5 18.5t-21.5 42.5q0 27 28 68q70 98 152 186q37 39 69.5 52.5t98.5 13.5t98.5 -13.5t69.5 -52.5q78 -83 151 -186q29 -42 29 -68q0 -24 -22 -42.5t-58 -18.5q-48 0 -98 43l-170 143l-170 -143q-50 -43 -99 -43zM1063 1470q45 0 67.5 -20.5
t22.5 -50.5q0 -25 -12.5 -41.5t-29.5 -27.5t-34.5 -24.5t-30 -41t-12.5 -68.5l2 -834q0 -182 -125.5 -288.5t-384.5 -106.5q-133 0 -255 35t-195.5 92t-73.5 117q0 32 15 81.5t54 157.5q11 30 17 46q20 55 46 81.5t56 24.5q63 -3 82 -80q43 -194 69 -252q39 -87 108 -96
q10 -2 22 -2q66 0 96.5 56.5t30.5 148.5l-2 819q0 41 -14 68.5t-34 41t-39.5 24.5t-33.5 27.5t-14 41.5q0 30 24.5 50.5t69.5 20.5q18 0 96 -3t164 -3q81 0 156 3t92 3z" />
    <glyph glyph-name="jcircumflex" unicode="&#x135;" horiz-adv-x="675" 
d="M674 1317q28 -41 28 -68q0 -24 -21.5 -42.5t-57.5 -18.5q-49 0 -99 43l-170 143l-170 -143q-50 -43 -98 -43q-36 0 -58 18.5t-22 42.5q0 26 29 68q73 103 151 186q37 39 69.5 52.5t98.5 13.5t98.5 -13.5t69.5 -52.5q82 -88 152 -186zM479 1057q78 0 78 -117v-852
q0 -101 -45.5 -192.5t-119.5 -156t-170 -102.5t-195 -38q-88 0 -126 32.5t-38 104.5q0 36 4 68.5t13.5 65t29 52t47.5 19.5q36 0 61 -43q37 -61 63 -91t54 -30q41 0 41 55q0 15 -8 75.5t-8 112.5v621q0 37 -13 60t-32 34t-37.5 20t-31.5 26t-13 44q0 37 48 67t189 91
q111 48 149.5 61t59.5 13z" />
    <glyph glyph-name="uni0136" unicode="&#x136;" horiz-adv-x="1656" 
d="M1087 979l441 -731q22 -37 52.5 -64t51.5 -38.5t36 -32t15 -50.5q0 -28 -22 -47.5t-64 -19.5q-17 0 -108 3t-172 3q-78 0 -152 -3t-102 -3q-54 0 -79.5 20t-25.5 50q0 29 13.5 47t29.5 25.5t29.5 25.5t13.5 47q0 42 -32 96l-230 383l-159 -151v-269q0 -41 12 -68
t29.5 -40.5t35 -24.5t29.5 -27.5t12 -41.5q0 -30 -23 -51t-67 -21q-17 0 -92 3t-156 3t-155.5 -3t-91.5 -3q-44 0 -67 21t-23 51q0 25 12 41.5t29.5 27.5t35 24.5t29.5 40.5t12 68v926q0 34 -8.5 59.5t-22 38t-28.5 24.5t-28.5 20.5t-22 24t-8.5 36.5q0 29 27.5 50t72.5 21
q17 0 86.5 -3t150.5 -3t156 3t92 3q45 0 67.5 -20.5t22.5 -50.5q0 -21 -8.5 -36.5t-22 -24t-28.5 -20.5t-28.5 -24.5t-22 -38t-8.5 -59.5v-391l407 401q27 27 36 42t9 36q0 16 -15.5 28t-33.5 19.5t-33.5 24.5t-15.5 43q0 35 28.5 53t79.5 18q37 0 117 -3t107 -3
q28 0 115.5 3t123.5 3q34 0 54 -17.5t20 -49.5q0 -34 -27 -54.5t-64.5 -29.5t-89 -31.5t-87.5 -56.5zM811 -76q162 0 162 -166q0 -75 -42.5 -152.5t-99.5 -125t-102 -47.5q-23 0 -36 12t-13 31q0 6 1 10.5t4 9.5t4.5 8t7 8t7.5 6.5t9.5 7.5t9.5 7q55 44 55 82q0 9 -3.5 16
t-12 13t-13.5 9t-18.5 9t-17.5 8q-37 17 -57.5 40t-20.5 69q0 60 50.5 102.5t125.5 42.5z" />
    <glyph glyph-name="uni0137" unicode="&#x137;" horiz-adv-x="1409" 
d="M991 715l299 -492q22 -35 50.5 -58.5t48.5 -32t34.5 -26t14.5 -45.5q0 -30 -22.5 -47.5t-55.5 -17.5q-18 0 -98.5 3t-149.5 3q-64 0 -137.5 -3t-97.5 -3q-48 0 -72.5 17.5t-24.5 47.5q0 25 12 42t27 24.5t27 24.5t12 43q0 30 -37 92l-110 194l-158 -131v-92
q0 -39 12 -65.5t28.5 -39.5t33.5 -23.5t29 -26.5t12 -40q0 -28 -21.5 -47.5t-64.5 -19.5q-16 0 -86 3t-142 3t-140.5 -3t-84.5 -3q-43 0 -64.5 19t-21.5 48q0 24 11.5 40t28.5 26.5t33.5 23.5t28 39.5t11.5 65.5v895q0 37 -13 60t-32 34t-37.5 20t-31.5 26t-13 44
q0 38 47.5 68t187.5 90q172 74 211 74q78 0 78 -117v-881l262 232q24 23 32.5 35t8.5 26q0 15 -13.5 26t-29.5 17t-29.5 23.5t-13.5 44.5q0 65 96 65q20 0 88 -3t97 -3q27 0 118.5 3t108.5 3q34 0 56 -17t22 -46q0 -32 -24 -52t-56.5 -29t-80 -29.5t-81.5 -49.5zM733 -76
q162 0 162 -166q0 -75 -42.5 -152.5t-99.5 -125t-102 -47.5q-23 0 -36 12t-13 31q0 6 1 10.5t4 9.5t4.5 8t7 8t7.5 6.5t9.5 7.5t9.5 7q55 44 55 82q0 9 -3.5 16t-12 13t-13.5 9t-18.5 9t-17.5 8q-37 17 -57.5 40t-20.5 69q0 60 50.5 102.5t125.5 42.5z" />
    <glyph glyph-name="kgreenlandic" unicode="&#x138;" horiz-adv-x="1435" 
d="M1016 717l301 -496q22 -35 50.5 -58.5t48.5 -32t34 -26t14 -45.5q0 -30 -22.5 -47.5t-55.5 -17.5q-18 0 -98 3t-149 3q-64 0 -138 -3t-98 -3q-96 0 -96 65q0 25 12 42t27 24.5t27 24.5t12 43q0 27 -27 73l-123 215l-157 -129v-96q0 -39 11.5 -65.5t28.5 -39.5t34 -23.5
t28.5 -26.5t11.5 -40q0 -28 -21.5 -47.5t-64.5 -19.5q-16 0 -85.5 3t-141.5 3t-140.5 -3t-84.5 -3q-43 0 -64.5 19t-21.5 48q0 24 11.5 40t28 26.5t33 23.5t28 39.5t11.5 65.5v381q0 37 -13 60t-32 34t-37.5 20t-31.5 26t-13 44q0 37 47.5 67t188.5 91q172 74 211 74
q78 0 78 -117v-365l262 234q24 23 32.5 35t8.5 26q0 15 -13.5 26t-29.5 17t-29.5 23.5t-13.5 44.5q0 65 96 65q20 0 87.5 -3t96.5 -3q27 0 119 3t109 3q34 0 55.5 -17t21.5 -46q0 -32 -23.5 -52t-56 -29t-80 -29.5t-81.5 -49.5z" />
    <glyph glyph-name="Lacute" unicode="&#x139;" horiz-adv-x="1374" 
d="M420 1550q-32 0 -51 12.5t-19 30.5q0 22 21 56q75 117 155 229q25 36 59.5 50t110.5 14q93 0 124.5 -15t31.5 -47q0 -29 -18.5 -51.5t-69.5 -65.5q-76 -62 -225 -174q-52 -39 -119 -39zM1102 -53q-26 0 -72.5 26.5t-101.5 26.5h-525q-81 0 -155.5 -3t-91.5 -3
q-44 0 -67 21t-23 51q0 25 12 41.5t29.5 27.5t35 24.5t29.5 40.5t12 68v928q0 34 -8.5 59.5t-22 38t-28.5 24.5t-28.5 20.5t-22 24t-8.5 36.5q0 29 27.5 50t72.5 21q17 0 86.5 -3t150.5 -3t156 3t92 3q45 0 67.5 -20.5t22.5 -50.5q0 -21 -8.5 -36.5t-22 -24t-28.5 -20.5
t-28.5 -24.5t-22 -38t-8.5 -59.5v-907q0 -51 23 -73.5t79 -22.5h76q96 0 189 68t222 212q30 33 50.5 47.5t46.5 14.5q30 0 52.5 -23.5t22.5 -60.5q0 -10 -1 -20t-2 -17t-5.5 -19.5t-6 -18t-8.5 -21.5t-9 -21t-12 -25.5t-13 -27.5l-102 -224q-28 -60 -55.5 -85t-67.5 -25z
" />
    <glyph glyph-name="lacute" unicode="&#x13a;" horiz-adv-x="708" 
d="M238 1608q-32 0 -51 12.5t-19 30.5q0 23 20 55q67 104 156 229q25 36 59.5 50t110.5 14q93 0 124.5 -15t31.5 -47q0 -29 -18 -51t-70 -65q-65 -53 -226 -174q-52 -39 -118 -39zM129 -4q-43 0 -64.5 19t-21.5 48q0 24 11.5 40t28.5 26.5t33.5 23.5t28 39.5t11.5 65.5v895
q0 37 -13 60t-32 34t-37.5 20t-31.5 26t-13 44q0 38 47.5 68t187.5 90q172 74 211 74q78 0 78 -117v-1194q0 -39 12 -65.5t28.5 -39.5t33.5 -23.5t29 -26.5t12 -40q0 -28 -21.5 -47.5t-64.5 -19.5q-16 0 -86 3t-142 3t-140.5 -3t-84.5 -3z" />
    <glyph glyph-name="uni013B" unicode="&#x13b;" horiz-adv-x="1374" 
d="M1102 -53q-26 0 -72.5 26.5t-101.5 26.5h-525q-81 0 -155.5 -3t-91.5 -3q-44 0 -67 21t-23 51q0 25 12 41.5t29.5 27.5t35 24.5t29.5 40.5t12 68v928q0 34 -8.5 59.5t-22 38t-28.5 24.5t-28.5 20.5t-22 24t-8.5 36.5q0 29 27.5 50t72.5 21q17 0 86.5 -3t150.5 -3t156 3
t92 3q45 0 67.5 -20.5t22.5 -50.5q0 -21 -8.5 -36.5t-22 -24t-28.5 -20.5t-28.5 -24.5t-22 -38t-8.5 -59.5v-907q0 -51 23 -73.5t79 -22.5h76q96 0 189 68t222 212q30 33 50.5 47.5t46.5 14.5q30 0 52.5 -23.5t22.5 -60.5q0 -10 -1 -20t-2 -17t-5.5 -19.5t-6 -18t-8.5 -21.5
t-9 -21t-12 -25.5t-13 -27.5l-102 -224q-28 -60 -55.5 -85t-67.5 -25zM633 -567q-23 0 -36 12t-13 31q0 6 1 10.5t4 9.5t4.5 8t7 8t7.5 6.5t9.5 7.5t9.5 7q55 44 55 82q0 9 -3.5 16t-12 13t-14.5 9t-19 9t-17 8q-37 17 -57 40t-20 69q0 60 50.5 102.5t125.5 42.5
q162 0 162 -166q0 -75 -42.5 -152.5t-99.5 -125t-102 -47.5z" />
    <glyph glyph-name="uni013C" unicode="&#x13c;" horiz-adv-x="708" 
d="M129 -4q-43 0 -64.5 19t-21.5 48q0 24 11.5 40t28.5 26.5t33.5 23.5t28 39.5t11.5 65.5v895q0 37 -13 60t-32 34t-37.5 20t-31.5 26t-13 44q0 38 47.5 68t187.5 90q172 74 211 74q78 0 78 -117v-1194q0 -39 12 -65.5t28.5 -39.5t33.5 -23.5t29 -26.5t12 -40
q0 -28 -21.5 -47.5t-64.5 -19.5q-16 0 -86 3t-142 3t-140.5 -3t-84.5 -3zM291 -567q-23 0 -36 12t-13 31q0 6 1 10.5t4 9.5t4.5 8t7 8t7.5 6.5t9.5 7.5t9.5 7q55 44 55 82q0 9 -3.5 16t-12 13t-14.5 9t-19 9t-17 8q-37 17 -57 40t-20 69q0 60 50.5 102.5t125.5 42.5
q162 0 162 -166q0 -75 -42.5 -152.5t-99.5 -125t-102 -47.5z" />
    <glyph glyph-name="Lcaron" unicode="&#x13d;" horiz-adv-x="1374" 
d="M874 969q-32 0 -48.5 15t-16.5 52l2 428q0 47 17.5 64.5t70.5 17.5q75 0 107 -18t32 -62q0 -87 -25.5 -212.5t-56.5 -221.5q-21 -63 -82 -63zM1102 -53q-26 0 -72.5 26.5t-101.5 26.5h-525q-81 0 -155.5 -3t-91.5 -3q-44 0 -67 21t-23 51q0 25 12 41.5t29.5 27.5t35 24.5
t29.5 40.5t12 68v928q0 34 -8.5 59.5t-22 38t-28.5 24.5t-28.5 20.5t-22 24t-8.5 36.5q0 29 27.5 50t72.5 21q17 0 86.5 -3t150.5 -3t156 3t92 3q45 0 67.5 -20.5t22.5 -50.5q0 -21 -8.5 -36.5t-22 -24t-28.5 -20.5t-28.5 -24.5t-22 -38t-8.5 -59.5v-907q0 -51 23 -73.5
t79 -22.5h76q96 0 189 68t222 212q30 33 50.5 47.5t46.5 14.5q30 0 52.5 -23.5t22.5 -60.5q0 -10 -1 -20t-2 -17t-5.5 -19.5t-6 -18t-8.5 -21.5t-9 -21t-12 -25.5t-13 -27.5l-102 -224q-28 -60 -55.5 -85t-67.5 -25z" />
    <glyph glyph-name="lcaron" unicode="&#x13e;" horiz-adv-x="708" 
d="M719 1012q-33 0 -49.5 15t-16.5 52l2 428q0 47 17.5 64.5t70.5 17.5q76 0 108 -18t32 -62q0 -87 -25.5 -212.5t-56.5 -221.5q-21 -63 -82 -63zM129 -4q-43 0 -64.5 19t-21.5 48q0 24 11.5 40t28.5 26.5t33.5 23.5t28 39.5t11.5 65.5v895q0 37 -13 60t-32 34t-37.5 20
t-31.5 26t-13 44q0 38 47.5 68t187.5 90q172 74 211 74q78 0 78 -117v-1194q0 -39 12 -65.5t28.5 -39.5t33.5 -23.5t29 -26.5t12 -40q0 -28 -21.5 -47.5t-64.5 -19.5q-16 0 -86 3t-142 3t-140.5 -3t-84.5 -3z" />
    <glyph glyph-name="Ldot" unicode="&#x13f;" horiz-adv-x="1374" 
d="M1102 -53q-26 0 -72.5 26.5t-101.5 26.5h-525q-81 0 -155.5 -3t-91.5 -3q-44 0 -67 21t-23 51q0 25 12 41.5t29.5 27.5t35 24.5t29.5 40.5t12 68v928q0 34 -8.5 59.5t-22 38t-28.5 24.5t-28.5 20.5t-22 24t-8.5 36.5q0 29 27.5 50t72.5 21q17 0 86.5 -3t150.5 -3t156 3
t92 3q45 0 67.5 -20.5t22.5 -50.5q0 -21 -8.5 -36.5t-22 -24t-28.5 -20.5t-28.5 -24.5t-22 -38t-8.5 -59.5v-907q0 -51 23 -73.5t79 -22.5h76q96 0 189 68t222 212q30 33 50.5 47.5t46.5 14.5q30 0 52.5 -23.5t22.5 -60.5q0 -10 -1 -20t-2 -17t-5.5 -19.5t-6 -18t-8.5 -21.5
t-9 -21t-12 -25.5t-13 -27.5l-102 -224q-28 -60 -55.5 -85t-67.5 -25zM1079 946q-86 0 -141 -49.5t-55 -118.5q0 -66 46 -105.5t124 -39.5q86 0 141 49.5t55 118.5q0 66 -46 105.5t-124 39.5z" />
    <glyph glyph-name="ldot" unicode="&#x140;" horiz-adv-x="933" 
d="M129 -4q-43 0 -64.5 19t-21.5 48q0 24 11.5 40t28.5 26.5t33.5 23.5t28 39.5t11.5 65.5v895q0 37 -13 60t-32 34t-37.5 20t-31.5 26t-13 44q0 38 47.5 68t187.5 90q172 74 211 74q78 0 78 -117v-1194q0 -39 12 -65.5t28.5 -39.5t33.5 -23.5t29 -26.5t12 -40
q0 -28 -21.5 -47.5t-64.5 -19.5q-16 0 -86 3t-142 3t-140.5 -3t-84.5 -3zM834 913q-92 0 -150.5 -52t-58.5 -126q0 -71 48.5 -112t131.5 -41q92 0 151.5 51.5t59.5 124.5q0 71 -49.5 113t-132.5 42z" />
    <glyph glyph-name="Lslash" unicode="&#x141;" horiz-adv-x="1431" 
d="M1366 535q31 0 53.5 -23.5t22.5 -60.5q0 -11 -1 -21t-4.5 -22.5t-5.5 -20t-9 -23t-10 -23t-13 -29t-15 -31.5l-102 -224q-28 -60 -55.5 -85t-67.5 -25q-26 0 -72.5 26.5t-101.5 26.5h-524q-81 0 -156 -3t-92 -3q-44 0 -67 21t-23 51q0 25 12.5 41.5t29.5 27.5t34.5 24.5
t30 40.5t12.5 68v256l-64 -32q-34 -17 -55 -17q-32 0 -59 34t-27 79q0 46 55 74l150 75v459q0 41 -12.5 68.5t-30 41t-34.5 24.5t-29.5 27.5t-12.5 41.5q0 29 27.5 50t72.5 21q17 0 87 -3t151 -3t156 3t92 3q45 0 67.5 -20.5t22.5 -50.5q0 -25 -12.5 -41.5t-29.5 -27.5
t-34.5 -24.5t-30 -41t-12.5 -68.5v-235l199 102q32 16 57 16q29 0 57.5 -34.5t28.5 -77.5q0 -45 -57 -74l-285 -145v-459q0 -51 23 -73.5t79 -22.5h76q96 0 190 68.5t222 211.5q30 33 50 47.5t46 14.5z" />
    <glyph glyph-name="lslash" unicode="&#x142;" horiz-adv-x="866" 
d="M811 1032q27 0 54.5 -33t27.5 -71q0 -43 -59 -72l-199 -100v-498q0 -39 12 -65.5t28.5 -39.5t33.5 -23.5t29 -26.5t12 -40q0 -28 -21.5 -47.5t-64.5 -19.5q-16 0 -86 3t-142 3t-140.5 -3t-84.5 -3q-43 0 -64.5 19t-21.5 48q0 24 11.5 40t28.5 26.5t33.5 23.5t28 39.5
t11.5 65.5v295l-72 -37q-31 -16 -60 -16q-27 0 -52 31.5t-25 70.5q0 46 57 74l152 78v399q0 37 -13 60t-32 34t-37.5 20t-31.5 26t-13 44q0 38 47.5 68t187.5 90q172 74 211 74q78 0 78 -117v-498l119 62q37 16 57 16z" />
    <glyph glyph-name="Nacute" unicode="&#x143;" horiz-adv-x="1613" 
d="M739 1550q-32 0 -50.5 12.5t-18.5 30.5q0 24 20 56q67 104 156 229q25 36 59.5 50t110.5 14q64 0 99 -8t45.5 -20.5t10.5 -33.5q0 -29 -18.5 -51.5t-69.5 -65.5q-76 -62 -225 -174q-52 -39 -119 -39zM1483 1470q45 0 67.5 -20.5t22.5 -50.5q0 -25 -13.5 -41.5
t-32.5 -27.5t-37.5 -24.5t-32 -41t-13.5 -68.5v-1110q0 -53 -31 -79.5t-74 -26.5q-35 0 -63.5 13t-45.5 29t-44 48l-764 886v-686q0 -39 17 -64.5t41.5 -37.5t49 -22.5t41.5 -29t17 -48.5q0 -35 -26.5 -53.5t-74.5 -18.5q-33 0 -89.5 3t-82.5 3q-25 0 -80.5 -3t-84.5 -3
q-45 0 -68 21t-23 51q0 25 13.5 41.5t32.5 27.5t37.5 24.5t32 40.5t13.5 68v926q0 41 -13.5 68.5t-32.5 41t-37.5 24.5t-32 27.5t-13.5 41.5q0 31 27.5 51t73.5 20q28 0 81.5 -3t77.5 -3q32 0 84 3t76 3q39 0 67.5 -15t61.5 -52l602 -701v494q0 39 -17 64.5t-41.5 38t-49 23
t-41.5 29t-17 48.5q0 29 28 50t73 21q33 0 89 -3t83 -3q25 0 81 3t85 3z" />
    <glyph glyph-name="nacute" unicode="&#x144;" horiz-adv-x="1443" 
d="M629 1174q-32 0 -51 12.5t-19 30.5q0 21 21 55q75 117 155 229q25 36 59.5 50t110.5 14q93 0 124.5 -15t31.5 -47q0 -29 -18.5 -51.5t-69.5 -65.5q-76 -62 -225 -174q-51 -38 -119 -38zM1270 668l49 -385q6 -49 21.5 -81.5t33 -47.5t34 -26.5t27.5 -27.5t11 -41
q0 -28 -23.5 -45.5t-64.5 -17.5q-16 0 -82.5 3t-138.5 3q-73 0 -141.5 -3t-84.5 -3q-46 0 -69 19t-23 48q0 26 16.5 44.5t36 29t36 33t16.5 55.5q0 30 -13 119l-28 209q-17 120 -56 170.5t-104 50.5q-60 0 -102.5 -56.5t-42.5 -193.5v-266q0 -39 11.5 -65.5t28.5 -39.5
t34 -23.5t28.5 -26.5t11.5 -40q0 -28 -21.5 -47.5t-64.5 -19.5q-16 0 -85.5 3t-141.5 3t-140.5 -3t-84.5 -3q-43 0 -64.5 19t-21.5 48q0 24 11.5 40t28 26.5t33 23.5t28 39.5t11.5 65.5v383q0 37 -13 60t-32 34t-37.5 20t-31.5 26t-13 44q0 37 47.5 67t188.5 91
q172 74 211 74q78 0 78 -117v-80h2q49 88 141 146.5t207 58.5q140 0 228.5 -101.5t113.5 -295.5z" />
    <glyph glyph-name="uni0145" unicode="&#x145;" horiz-adv-x="1613" 
d="M1483 1470q45 0 67.5 -20.5t22.5 -50.5q0 -25 -13.5 -41.5t-32.5 -27.5t-37.5 -24.5t-32 -41t-13.5 -68.5v-1110q0 -53 -31 -79.5t-74 -26.5q-35 0 -63.5 13t-45.5 29t-44 48l-764 886v-686q0 -39 17 -64.5t41.5 -37.5t49 -22.5t41.5 -29t17 -48.5q0 -35 -26.5 -53.5
t-74.5 -18.5q-33 0 -89.5 3t-82.5 3q-25 0 -80.5 -3t-84.5 -3q-45 0 -68 21t-23 51q0 25 13.5 41.5t32.5 27.5t37.5 24.5t32 40.5t13.5 68v926q0 41 -13.5 68.5t-32.5 41t-37.5 24.5t-32 27.5t-13.5 41.5q0 31 27.5 51t73.5 20q28 0 81.5 -3t77.5 -3q32 0 84 3t76 3
q39 0 67.5 -15t61.5 -52l602 -701v494q0 39 -17 64.5t-41.5 38t-49 23t-41.5 29t-17 48.5q0 29 28 50t73 21q33 0 89 -3t83 -3q25 0 81 3t85 3zM817 -76q162 0 162 -166q0 -75 -42.5 -152.5t-99.5 -125t-102 -47.5q-23 0 -36 12t-13 31q0 6 1 10.5t4 9.5t4.5 8t7 8t7.5 6.5
t9.5 7.5t9.5 7q55 44 55 82q0 9 -3.5 16t-12 13t-13.5 9t-18.5 9t-17.5 8q-37 17 -57.5 40t-20.5 69q0 60 50.5 102.5t125.5 42.5z" />
    <glyph glyph-name="uni0146" unicode="&#x146;" horiz-adv-x="1443" 
d="M1270 668l49 -385q6 -49 21.5 -81.5t33 -47.5t34 -26.5t27.5 -27.5t11 -41q0 -28 -23.5 -45.5t-64.5 -17.5q-16 0 -82.5 3t-138.5 3q-73 0 -141.5 -3t-84.5 -3q-46 0 -69 19t-23 48q0 26 16.5 44.5t36 29t36 33t16.5 55.5q0 30 -13 119l-28 209q-17 120 -56 170.5
t-104 50.5q-60 0 -102.5 -56.5t-42.5 -193.5v-266q0 -39 11.5 -65.5t28.5 -39.5t34 -23.5t28.5 -26.5t11.5 -40q0 -28 -21.5 -47.5t-64.5 -19.5q-16 0 -85.5 3t-141.5 3t-140.5 -3t-84.5 -3q-43 0 -64.5 19t-21.5 48q0 24 11.5 40t28 26.5t33 23.5t28 39.5t11.5 65.5v383
q0 37 -13 60t-32 34t-37.5 20t-31.5 26t-13 44q0 37 47.5 67t188.5 91q172 74 211 74q78 0 78 -117v-80h2q49 88 141 146.5t207 58.5q140 0 228.5 -101.5t113.5 -295.5zM762 -76q162 0 162 -166q0 -75 -42.5 -152.5t-99.5 -125t-102 -47.5q-23 0 -36 12t-13 31q0 6 1 10.5
t4 9.5t4.5 8t7 8t7.5 6.5t9.5 7.5t9.5 7q55 44 55 82q0 9 -3.5 16t-12 13t-13.5 9t-18.5 9t-17.5 8q-37 17 -57.5 40t-20.5 69q0 60 51 102.5t125 42.5z" />
    <glyph glyph-name="Ncaron" unicode="&#x147;" horiz-adv-x="1613" 
d="M668 1642q-79 85 -152 187q-29 42 -29 67q0 24 22 43t58 19q49 0 99 -43l170 -143l170 143q50 43 98 43q36 0 58 -19t22 -43q0 -25 -29 -67q-76 -107 -151 -187q-37 -38 -69 -51.5t-99 -13.5t-99 13.5t-69 51.5zM1483 1470q45 0 67.5 -20.5t22.5 -50.5q0 -25 -13.5 -41.5
t-32.5 -27.5t-37.5 -24.5t-32 -41t-13.5 -68.5v-1110q0 -53 -31 -79.5t-74 -26.5q-35 0 -63.5 13t-45.5 29t-44 48l-764 886v-686q0 -39 17 -64.5t41.5 -37.5t49 -22.5t41.5 -29t17 -48.5q0 -35 -26.5 -53.5t-74.5 -18.5q-33 0 -89.5 3t-82.5 3q-25 0 -80.5 -3t-84.5 -3
q-45 0 -68 21t-23 51q0 25 13.5 41.5t32.5 27.5t37.5 24.5t32 40.5t13.5 68v926q0 41 -13.5 68.5t-32.5 41t-37.5 24.5t-32 27.5t-13.5 41.5q0 31 27.5 51t73.5 20q28 0 81.5 -3t77.5 -3q32 0 84 3t76 3q39 0 67.5 -15t61.5 -52l602 -701v494q0 39 -17 64.5t-41.5 38t-49 23
t-41.5 29t-17 48.5q0 29 28 50t73 21q33 0 89 -3t83 -3q25 0 81 3t85 3z" />
    <glyph glyph-name="ncaron" unicode="&#x148;" horiz-adv-x="1443" 
d="M557 1266q-78 83 -151 186q-29 42 -29 68q0 24 22 42.5t58 18.5q48 0 98 -43l170 -143l170 143q50 43 98 43q36 0 58 -18.5t22 -42.5q0 -26 -29 -68q-73 -103 -151 -186q-37 -39 -69.5 -52.5t-98.5 -13.5t-98.5 13.5t-69.5 52.5zM1270 668l49 -385q6 -49 21.5 -81.5
t33 -47.5t34 -26.5t27.5 -27.5t11 -41q0 -28 -23.5 -45.5t-64.5 -17.5q-16 0 -82.5 3t-138.5 3q-73 0 -141.5 -3t-84.5 -3q-46 0 -69 19t-23 48q0 26 16.5 44.5t36 29t36 33t16.5 55.5q0 30 -13 119l-28 209q-17 120 -56 170.5t-104 50.5q-60 0 -102.5 -56.5t-42.5 -193.5
v-266q0 -39 11.5 -65.5t28.5 -39.5t34 -23.5t28.5 -26.5t11.5 -40q0 -28 -21.5 -47.5t-64.5 -19.5q-16 0 -85.5 3t-141.5 3t-140.5 -3t-84.5 -3q-43 0 -64.5 19t-21.5 48q0 24 11.5 40t28 26.5t33 23.5t28 39.5t11.5 65.5v383q0 37 -13 60t-32 34t-37.5 20t-31.5 26t-13 44
q0 37 47.5 67t188.5 91q172 74 211 74q78 0 78 -117v-80h2q49 88 141 146.5t207 58.5q140 0 228.5 -101.5t113.5 -295.5z" />
    <glyph glyph-name="Eng" unicode="&#x14a;" horiz-adv-x="1613" 
d="M1483 1473q44 0 67 -21t23 -51q0 -25 -13.5 -41.5t-32.5 -27.5t-37.5 -24.5t-32 -41t-13.5 -68.5v-1132q0 -100 -44 -192.5t-114.5 -156.5t-159 -102.5t-176.5 -38.5t-126 32.5t-38 104.5q0 43 4 80t14 72.5t29.5 56.5t47.5 21q38 0 61 -39q6 -11 22.5 -38t22.5 -36.5
t19.5 -27.5t23.5 -25t24.5 -13t30.5 -6q101 0 101 168l2 140l-766 903v-701q0 -39 17 -64.5t41.5 -37.5t49 -22.5t41.5 -29t17 -48.5q0 -29 -28 -50.5t-73 -21.5q-33 0 -89.5 3t-82.5 3q-25 0 -80.5 -3t-84.5 -3q-45 0 -68 21t-23 51q0 25 13.5 41.5t32.5 27.5t37.5 24.5
t32 40.5t13.5 68v930q0 41 -13.5 68.5t-32.5 41t-37.5 24.5t-32 27.5t-13.5 41.5q0 29 28 50.5t73 21.5q28 0 74.5 -3.5t70.5 -3.5q29 0 93 3.5t100 3.5q52 0 75 -27l637 -750v502q0 39 -17 64.5t-41.5 38t-49 23t-41.5 29t-17 48.5q0 29 28 50.5t73 21.5q33 0 89 -3.5
t83 -3.5q25 0 81 3.5t85 3.5z" />
    <glyph glyph-name="eng" unicode="&#x14b;" horiz-adv-x="1378" 
d="M938 1061q141 0 239.5 -112t98.5 -306v-577q0 -101 -45.5 -192.5t-120 -156.5t-170.5 -103t-195 -38q-86 0 -122.5 31t-36.5 100q0 56 6.5 100.5t27.5 80.5t56 36q38 0 61 -39q5 -8 14.5 -23t14 -22.5t12.5 -20t13 -19t12 -15.5t12.5 -13.5t12 -9t13 -6.5t13.5 -2
q41 0 41 56q0 15 -8 75.5t-8 112.5v547q0 225 -136 225q-30 0 -56.5 -11.5t-52.5 -37.5t-41 -77.5t-15 -123.5v-264q0 -39 11.5 -65.5t28.5 -39.5t34 -23.5t28.5 -26.5t11.5 -40q0 -28 -21.5 -47.5t-64.5 -19.5q-16 0 -85.5 3t-141.5 3t-140.5 -3t-84.5 -3q-43 0 -64.5 19
t-21.5 48q0 24 11.5 40t28 26.5t33 23.5t28 39.5t11.5 65.5v381q0 37 -13 60t-32 34t-37.5 20t-31.5 26t-13 44q0 37 47.5 67t188.5 91q172 74 211 74q78 0 78 -117v-80h2q49 88 144.5 146.5t213.5 58.5z" />
    <glyph glyph-name="Omacron" unicode="&#x14c;" horiz-adv-x="1724" 
d="M590 1651q-74 0 -74 98t74 98q40 0 133.5 -2t136.5 -2q44 0 137 2t133 2q74 0 74 -98t-74 -98q-40 0 -133 2t-137 2q-43 0 -136.5 -2t-133.5 -2zM858 -37q-172 0 -318.5 47.5t-255.5 138t-171 231t-62 316.5q0 145 41.5 272.5t116.5 224.5t176 167.5t223 106.5t254 36
q227 0 411 -98.5t292 -282t108 -417.5q0 -348 -219.5 -545t-595.5 -197zM862 168q87 0 152.5 46.5t102.5 128t55 178t18 208.5q0 83 -11 162.5t-36 155t-62 132t-93 90.5t-124 34q-86 0 -151.5 -50.5t-103 -136t-56 -186.5t-18.5 -213q0 -106 19.5 -201.5t57.5 -174.5
t102.5 -126t147.5 -47z" />
    <glyph glyph-name="omacron" unicode="&#x14d;" horiz-adv-x="1388" 
d="M420 1247q-74 0 -74 99q0 98 74 98q40 0 133 -2t137 -2q43 0 136.5 2t134.5 2q73 0 73 -98q0 -99 -73 -99q-41 0 -134.5 2t-136.5 2q-44 0 -137 -2t-133 -2zM670 -37q-146 0 -266 42.5t-197.5 116t-119.5 170.5t-42 208q0 122 50 228t138 182t214.5 119.5t273.5 43.5
q146 0 265 -42.5t196.5 -116t119 -171t41.5 -208.5q0 -165 -87.5 -296t-241 -203.5t-344.5 -72.5zM735 152q91 0 134.5 71t43.5 219q0 65 -17.5 139.5t-48.5 143.5t-82.5 114.5t-111.5 45.5q-178 0 -178 -293q0 -64 17 -137.5t48 -142.5t82.5 -114.5t112.5 -45.5z" />
    <glyph glyph-name="Obreve" unicode="&#x14e;" horiz-adv-x="1724" 
d="M862 1575q-109 0 -189 54t-124 149q-29 62 -29 108q0 31 22 49.5t54 18.5t56 -19t57 -61q77 -98 153 -98q77 0 154 98q33 42 56.5 61t55.5 19t54 -18.5t22 -49.5q0 -48 -28 -108q-44 -95 -124.5 -149t-189.5 -54zM858 -37q-172 0 -318.5 47.5t-255.5 138t-171 231
t-62 316.5q0 145 41.5 272.5t116.5 224.5t176 167.5t223 106.5t254 36q227 0 411 -98.5t292 -282t108 -417.5q0 -348 -219.5 -545t-595.5 -197zM862 168q87 0 152.5 46.5t102.5 128t55 178t18 208.5q0 83 -11 162.5t-36 155t-62 132t-93 90.5t-124 34q-86 0 -151.5 -50.5
t-103 -136t-56 -186.5t-18.5 -213q0 -106 19.5 -201.5t57.5 -174.5t102.5 -126t147.5 -47z" />
    <glyph glyph-name="obreve" unicode="&#x14f;" horiz-adv-x="1388" 
d="M692 1171q-109 0 -189 54t-124 149q-29 62 -29 109q0 31 22 49t54 18t56 -19t57 -61q77 -98 153 -98q77 0 154 98q33 42 56.5 61t55.5 19t54 -18t22 -49q0 -49 -28 -109q-44 -95 -124.5 -149t-189.5 -54zM670 -37q-146 0 -266 42.5t-197.5 116t-119.5 170.5t-42 208
q0 122 50 228t138 182t214.5 119.5t273.5 43.5q146 0 265 -42.5t196.5 -116t119 -171t41.5 -208.5q0 -165 -87.5 -296t-241 -203.5t-344.5 -72.5zM735 152q91 0 134.5 71t43.5 219q0 65 -17.5 139.5t-48.5 143.5t-82.5 114.5t-111.5 45.5q-178 0 -178 -293q0 -64 17 -137.5
t48 -142.5t82.5 -114.5t112.5 -45.5z" />
    <glyph glyph-name="Ohungarumlaut" unicode="&#x150;" horiz-adv-x="1724" 
d="M649 1552q-23 0 -37 13t-14 34q0 19 18 60q34 75 115 229q20 36 46.5 50t86.5 14q64 0 95.5 -14t31.5 -48q0 -11 -3 -21t-5.5 -17t-11.5 -19.5t-13.5 -18t-19 -22t-20.5 -23.5q-18 -21 -40.5 -45.5t-38 -40t-44.5 -44t-41 -40.5q-47 -47 -105 -47zM991 1552q-23 0 -37 13
t-14 34q0 19 18 60q34 75 115 229q20 36 46.5 50t86.5 14q64 0 95.5 -14t31.5 -48q0 -11 -3 -21t-5.5 -17t-11.5 -19.5t-13.5 -18t-19 -22t-20.5 -23.5q-18 -21 -40.5 -45.5t-38 -40t-44.5 -44t-41 -40.5q-47 -47 -105 -47zM858 -37q-172 0 -318.5 47.5t-255.5 138t-171 231
t-62 316.5q0 145 41.5 272.5t116.5 224.5t176 167.5t223 106.5t254 36q227 0 411 -98.5t292 -282t108 -417.5q0 -348 -219.5 -545t-595.5 -197zM862 168q87 0 152.5 46.5t102.5 128t55 178t18 208.5q0 83 -11 162.5t-36 155t-62 132t-93 90.5t-124 34q-86 0 -151.5 -50.5
t-103 -136t-56 -186.5t-18.5 -213q0 -106 19.5 -201.5t57.5 -174.5t102.5 -126t147.5 -47z" />
    <glyph glyph-name="ohungarumlaut" unicode="&#x151;" horiz-adv-x="1388" 
d="M479 1149q-23 0 -37 13t-14 34q0 18 18 59q36 81 115 230q20 36 46.5 49.5t86.5 13.5q65 0 96 -13.5t31 -47.5q0 -11 -3 -21t-5.5 -17t-11.5 -19.5t-13.5 -18t-19 -22t-20.5 -23.5q-18 -21 -40.5 -45.5t-38 -40t-44.5 -44t-41 -40.5q-47 -47 -105 -47zM821 1149
q-23 0 -37 13t-14 34q0 18 18 59q36 81 115 230q20 36 46.5 49.5t86.5 13.5q65 0 96 -13.5t31 -47.5q0 -11 -3 -21t-5.5 -17t-11.5 -19.5t-13.5 -18t-19 -22t-20.5 -23.5q-18 -21 -40.5 -45.5t-38 -40t-44.5 -44t-41 -40.5q-47 -47 -105 -47zM670 -37q-146 0 -266 42.5
t-197.5 116t-119.5 170.5t-42 208q0 122 50 228t138 182t214.5 119.5t273.5 43.5q146 0 265 -42.5t196.5 -116t119 -171t41.5 -208.5q0 -165 -87.5 -296t-241 -203.5t-344.5 -72.5zM735 152q91 0 134.5 71t43.5 219q0 65 -17.5 139.5t-48.5 143.5t-82.5 114.5t-111.5 45.5
q-178 0 -178 -293q0 -64 17 -137.5t48 -142.5t82.5 -114.5t112.5 -45.5z" />
    <glyph glyph-name="OE" unicode="&#x152;" horiz-adv-x="2447" 
d="M2359 522q29 0 51.5 -22.5t22.5 -59.5q0 -35 -11 -66t-44 -100l-101 -219q-28 -59 -55 -83.5t-65 -24.5q-26 0 -73 26.5t-102 26.5h-849q-133 -37 -263 -37q-177 0 -325.5 47.5t-259 137.5t-172.5 230.5t-62 317.5q0 145 41.5 273t117 225t178 167t226.5 106t260 36
q173 0 302 -37h727q55 0 101.5 27t72.5 27q38 0 66.5 -25.5t54.5 -83.5l90 -205q4 -9 14 -30.5t12.5 -28t9.5 -22.5t9 -23.5t5 -19.5t4 -21.5t1 -20.5q0 -37 -22.5 -59.5t-51.5 -22.5q-25 0 -43.5 13.5t-50.5 46.5q-8 8 -22 24q-110 117 -163 157q-99 75 -216 75h-97
q-56 0 -79 -22.5t-23 -73.5v-281q0 -32 14 -44.5t51 -12.5h52q39 0 69.5 22.5t47 50t41 50t53.5 22.5q75 0 75 -94q0 -25 -3 -74t-3 -74t3 -74t3 -73q0 -94 -75 -94q-29 0 -53.5 22.5t-41 50t-47 50t-69.5 22.5h-52q-37 0 -51 -12.5t-14 -44.5v-301q0 -51 23 -73.5t79 -22.5
h158q64 0 118.5 17t108 56t96.5 81.5t107 115.5q27 32 47.5 45.5t46.5 13.5zM868 168q141 0 205 105.5t64 310.5v295q0 85 -13 156.5t-42.5 134.5t-84 99t-129.5 36q-86 0 -152 -51t-104.5 -137t-57.5 -187.5t-19 -212.5q0 -106 19.5 -201t58 -174.5t104.5 -126.5t151 -47z
" />
    <glyph glyph-name="oe" unicode="&#x153;" horiz-adv-x="2084" 
d="M1999 336q26 0 40.5 -20t14.5 -37q0 -24 -20 -60q-24 -40 -71 -81.5t-115.5 -81t-165.5 -64.5t-203 -25q-229 0 -377 127q-178 -131 -432 -131q-146 0 -266 42.5t-197.5 116t-119.5 170.5t-42 208q0 122 50 228t138 182t214.5 119.5t273.5 43.5q252 0 409 -129
q154 125 377 125q117 0 215.5 -37t161 -97t97 -133t34.5 -147q0 -35 -8.5 -53.5t-19 -24t-37.5 -14.5l-572 -178q50 -76 126.5 -122t170.5 -46q66 0 122 19t120 61q57 39 82 39zM735 152q91 0 134.5 71t43.5 219q0 65 -17.5 139.5t-48.5 143.5t-82.5 114.5t-111.5 45.5
q-178 0 -178 -293q0 -64 17 -137.5t48 -142.5t82.5 -114.5t112.5 -45.5zM1454 881q-72 0 -115 -63.5t-43 -174.5q0 -42 13 -96l260 84q26 9 39.5 23.5t13.5 43.5q0 67 -50 125t-118 58z" />
    <glyph glyph-name="Racute" unicode="&#x154;" horiz-adv-x="1640" 
d="M670 1550q-32 0 -51 12.5t-19 30.5q0 22 21 56q75 117 155 229q25 36 59.5 50t110.5 14q93 0 124.5 -15t31.5 -47q0 -29 -18.5 -51.5t-69.5 -65.5q-65 -53 -226 -174q-52 -39 -118 -39zM1206 565l187 -235q49 -62 102 -107.5t82.5 -63.5t49.5 -43t20 -59q0 -27 -19.5 -44
t-52.5 -17q-27 0 -132 3t-179 3q-68 0 -158 -3t-111 -3q-102 0 -102 70q0 28 14 44.5t31 22t31 21.5t14 43q0 9 -2 17.5t-7 18.5l-8.5 17t-12 19t-12 16.5t-14 17.5t-12.5 16l-92 123q-30 39 -54 54.5t-58 15.5h-49q-39 0 -39 -49v-193q0 -41 12.5 -68t30.5 -40.5t36 -24.5
t30.5 -27.5t12.5 -41.5q0 -30 -23 -51t-67 -21q-17 0 -94 3t-158 3t-155.5 -3t-91.5 -3q-44 0 -67 21t-23 51q0 25 12 41.5t29.5 27.5t35 24.5t29.5 40.5t12 68v926q0 34 -8.5 59.5t-22 38t-28.5 24.5t-28.5 20.5t-22 24t-8.5 36.5q0 30 24.5 50.5t81.5 20.5q8 0 81 -3
t124 -3q35 0 172.5 8.5t210.5 8.5q365 0 553 -133.5t188 -366.5q0 -150 -77.5 -258t-217.5 -158zM737 680q148 0 217.5 70t69.5 225q0 159 -80 233t-215 74q-49 0 -77.5 -20t-28.5 -72v-438q0 -42 27.5 -57t86.5 -15z" />
    <glyph glyph-name="racute" unicode="&#x155;" horiz-adv-x="1153" 
d="M561 1174q-32 0 -50.5 12.5t-18.5 30.5q0 23 20 55q67 104 156 229q25 36 59.5 50t110.5 14q64 0 99 -8t45.5 -20.5t10.5 -33.5q0 -29 -18.5 -51.5t-69.5 -65.5q-76 -62 -225 -174q-51 -38 -119 -38zM930 1065q97 0 159 -50.5t62 -121.5q0 -51 -23 -117t-69 -166
q-32 -71 -88 -71q-48 0 -82 63q-37 66 -71.5 98.5t-78.5 32.5q-61 0 -111 -72.5t-50 -220.5v-182q0 -39 14.5 -64.5t35 -38t40.5 -22.5t34.5 -27t14.5 -43q0 -28 -21.5 -47.5t-64.5 -19.5q-18 0 -95 3t-157 3q-72 0 -140.5 -3t-84.5 -3q-43 0 -64.5 19t-21.5 48
q0 24 11.5 40t28 26.5t33 23.5t28 39.5t11.5 65.5v383q0 37 -13 60t-32 34t-37.5 20t-31.5 26t-13 44q0 37 47.5 67t188.5 91q172 74 211 74q78 0 78 -117v-147q41 113 140 192.5t212 79.5z" />
    <glyph glyph-name="uni0156" unicode="&#x156;" horiz-adv-x="1640" 
d="M1206 565l187 -235q49 -62 102 -107.5t82.5 -63.5t49.5 -43t20 -59q0 -27 -19.5 -44t-52.5 -17q-27 0 -132 3t-179 3q-68 0 -158 -3t-111 -3q-102 0 -102 70q0 28 14 44.5t31 22t31 21.5t14 43q0 9 -2 17.5t-7 18.5l-8.5 17t-12 19t-12 16.5t-14 17.5t-12.5 16l-92 123
q-30 39 -54 54.5t-58 15.5h-49q-39 0 -39 -49v-193q0 -41 12.5 -68t30.5 -40.5t36 -24.5t30.5 -27.5t12.5 -41.5q0 -30 -23 -51t-67 -21q-17 0 -94 3t-158 3t-155.5 -3t-91.5 -3q-44 0 -67 21t-23 51q0 25 12 41.5t29.5 27.5t35 24.5t29.5 40.5t12 68v926q0 34 -8.5 59.5
t-22 38t-28.5 24.5t-28.5 20.5t-22 24t-8.5 36.5q0 30 24.5 50.5t81.5 20.5q8 0 81 -3t124 -3q35 0 172.5 8.5t210.5 8.5q365 0 553 -133.5t188 -366.5q0 -150 -77.5 -258t-217.5 -158zM737 680q148 0 217.5 70t69.5 225q0 159 -80 233t-215 74q-49 0 -77.5 -20t-28.5 -72
v-438q0 -42 27.5 -57t86.5 -15zM817 -76q162 0 162 -166q0 -75 -42.5 -152.5t-99.5 -125t-102 -47.5q-23 0 -36 12t-13 31q0 6 1 10.5t4 9.5t4.5 8t7 8t7.5 6.5t9.5 7.5t9.5 7q55 44 55 82q0 9 -3.5 16t-12 13t-13.5 9t-18.5 9t-17.5 8q-37 17 -57.5 40t-20.5 69
q0 60 50.5 102.5t125.5 42.5z" />
    <glyph glyph-name="uni0157" unicode="&#x157;" horiz-adv-x="1153" 
d="M930 1065q97 0 159 -50.5t62 -121.5q0 -51 -23 -117t-69 -166q-32 -71 -88 -71q-48 0 -82 63q-37 66 -71.5 98.5t-78.5 32.5q-61 0 -111 -72.5t-50 -220.5v-182q0 -39 14.5 -64.5t35 -38t40.5 -22.5t34.5 -27t14.5 -43q0 -28 -21.5 -47.5t-64.5 -19.5q-18 0 -95 3t-157 3
q-72 0 -140.5 -3t-84.5 -3q-43 0 -64.5 19t-21.5 48q0 24 11.5 40t28 26.5t33 23.5t28 39.5t11.5 65.5v383q0 37 -13 60t-32 34t-37.5 20t-31.5 26t-13 44q0 37 47.5 67t188.5 91q172 74 211 74q78 0 78 -117v-147q41 113 140 192.5t212 79.5zM408 -76q161 0 161 -166
q0 -75 -42 -152.5t-99 -125t-102 -47.5q-23 0 -36.5 12t-13.5 31q0 6 1 10.5t4 9.5t4.5 8t7 8t7.5 6.5t9.5 7.5t9.5 7q56 44 56 82q0 9 -3.5 16t-12 13t-14.5 9t-19 9t-17 8q-37 17 -57.5 40t-20.5 69q0 60 51 102.5t126 42.5z" />
    <glyph glyph-name="Rcaron" unicode="&#x158;" horiz-adv-x="1640" 
d="M598 1642q-79 85 -152 187q-28 41 -28 67q0 24 22 43t58 19q48 0 98 -43l170 -143l170 143q50 43 98 43q36 0 58 -19t22 -43q0 -25 -29 -67q-76 -107 -151 -187q-37 -38 -69 -51.5t-99 -13.5t-99 13.5t-69 51.5zM1206 565l187 -235q49 -62 102 -107.5t82.5 -63.5
t49.5 -43t20 -59q0 -27 -19.5 -44t-52.5 -17q-27 0 -132 3t-179 3q-68 0 -158 -3t-111 -3q-102 0 -102 70q0 28 14 44.5t31 22t31 21.5t14 43q0 9 -2 17.5t-7 18.5l-8.5 17t-12 19t-12 16.5t-14 17.5t-12.5 16l-92 123q-30 39 -54 54.5t-58 15.5h-49q-39 0 -39 -49v-193
q0 -41 12.5 -68t30.5 -40.5t36 -24.5t30.5 -27.5t12.5 -41.5q0 -30 -23 -51t-67 -21q-17 0 -94 3t-158 3t-155.5 -3t-91.5 -3q-44 0 -67 21t-23 51q0 25 12 41.5t29.5 27.5t35 24.5t29.5 40.5t12 68v926q0 34 -8.5 59.5t-22 38t-28.5 24.5t-28.5 20.5t-22 24t-8.5 36.5
q0 30 24.5 50.5t81.5 20.5q8 0 81 -3t124 -3q35 0 172.5 8.5t210.5 8.5q365 0 553 -133.5t188 -366.5q0 -150 -77.5 -258t-217.5 -158zM737 680q148 0 217.5 70t69.5 225q0 159 -80 233t-215 74q-49 0 -77.5 -20t-28.5 -72v-438q0 -42 27.5 -57t86.5 -15z" />
    <glyph glyph-name="rcaron" unicode="&#x159;" horiz-adv-x="1153" 
d="M489 1266q-78 83 -151 186q-29 42 -29 68q0 24 22 42.5t58 18.5q48 0 98 -43l170 -143l170 143q50 43 99 43q36 0 58 -18.5t22 -42.5q0 -26 -29 -68q-70 -98 -152 -186q-37 -39 -69.5 -52.5t-98.5 -13.5t-98.5 13.5t-69.5 52.5zM930 1065q97 0 159 -50.5t62 -121.5
q0 -51 -23 -117t-69 -166q-32 -71 -88 -71q-48 0 -82 63q-37 66 -71.5 98.5t-78.5 32.5q-61 0 -111 -72.5t-50 -220.5v-182q0 -39 14.5 -64.5t35 -38t40.5 -22.5t34.5 -27t14.5 -43q0 -28 -21.5 -47.5t-64.5 -19.5q-18 0 -95 3t-157 3q-72 0 -140.5 -3t-84.5 -3
q-43 0 -64.5 19t-21.5 48q0 24 11.5 40t28 26.5t33 23.5t28 39.5t11.5 65.5v383q0 37 -13 60t-32 34t-37.5 20t-31.5 26t-13 44q0 37 47.5 67t188.5 91q172 74 211 74q78 0 78 -117v-147q41 113 140 192.5t212 79.5z" />
    <glyph glyph-name="Sacute" unicode="&#x15a;" horiz-adv-x="1458" 
d="M582 1550q-32 0 -51 12.5t-19 30.5q0 24 20 56q67 104 156 229q25 36 59.5 50t110.5 14q93 0 124.5 -15t31.5 -47q0 -29 -18.5 -51.5t-69.5 -65.5q-65 -53 -226 -174q-52 -39 -118 -39zM313 -51q-36 0 -59 26.5t-49 81.5l-94 205q-66 142 -66 195q0 42 22 65t52 23
q15 0 27.5 -4t27 -16t19 -16.5t22.5 -23.5q48 -51 82.5 -84t94 -80t112.5 -75t125.5 -49t146.5 -21q118 0 180 46t62 120q0 37 -16 66t-43 49.5t-70 38.5t-89.5 32t-108.5 31q-15 4 -23 6q-61 17 -111.5 33.5t-112 42t-109.5 53.5t-95 67.5t-78 83t-50.5 101.5t-19.5 123
q0 124 66 223.5t178.5 154t247.5 54.5q72 0 135.5 -12.5t104 -24.5t57.5 -12q20 0 36 17t34 34t44 17q18 0 33 -5t25 -12t22 -23.5t19 -28.5t22 -38t25 -43l55 -92q94 -156 94 -215q0 -29 -19 -47.5t-42 -18.5q-20 0 -37.5 8.5t-29.5 19t-36 34.5q-42 43 -88 80t-106.5 75
t-131.5 60t-141 22q-83 0 -127.5 -31.5t-44.5 -88.5q0 -24 7 -42.5t28 -35t37.5 -27t59.5 -25.5t68 -22.5t88 -24.5q2 -1 3.5 -1.5t3.5 -0.5q60 -16 105 -29.5t101.5 -33.5t98 -38.5t88 -45t79.5 -54.5t65 -64.5t51.5 -77t31 -90.5t11.5 -107q0 -228 -168 -360t-440 -132
q-78 0 -155 13.5t-130.5 26.5t-73.5 13q-32 0 -68 -34.5t-65 -34.5z" />
    <glyph glyph-name="sacute" unicode="&#x15b;" horiz-adv-x="1214" 
d="M481 1174q-32 0 -50.5 12.5t-18.5 30.5q0 23 20 55q67 104 156 229q25 36 59.5 50t110.5 14q64 0 99 -8t45.5 -20.5t10.5 -33.5q0 -29 -18.5 -51.5t-69.5 -65.5q-76 -62 -225 -174q-51 -38 -119 -38zM270 -51q-24 0 -44.5 18.5t-30 37t-25.5 52.5l-70 154
q-4 8 -15.5 31.5t-15.5 33t-10.5 26.5t-9 29.5t-2.5 24.5q0 33 19 51.5t45 18.5q22 0 41 -11t47 -38q242 -234 458 -234q65 0 103.5 26t38.5 64q0 15 -7 27t-23 22t-32 17t-44.5 14t-50 12t-58 12.5t-60.5 12.5q-458 98 -458 375q0 150 123 245t303 95q69 0 155.5 -16.5
t97.5 -16.5q21 0 46 20.5t53 20.5q24 0 45 -14t31 -27t30 -43l84 -127q58 -88 58 -129q0 -27 -16.5 -44t-39.5 -17q-10 0 -19 2t-19.5 9l-15 10t-18.5 15t-18 15q-97 77 -201 125.5t-192 48.5q-48 0 -79.5 -20t-31.5 -52q0 -11 3.5 -20.5t13 -18t18.5 -15t26 -13t30.5 -11
t37 -11t39.5 -10t45 -10.5t47 -11q82 -19 142.5 -37.5t126 -49t107.5 -67.5t69 -92t27 -123q0 -116 -71.5 -200.5t-186 -124.5t-257.5 -40q-85 0 -172.5 16.5t-97.5 16.5q-30 0 -61 -27.5t-58 -27.5z" />
    <glyph glyph-name="Scircumflex" unicode="&#x15c;" horiz-adv-x="1458" 
d="M410 1565q-36 0 -58 18.5t-22 42.5q0 27 28 68q70 98 152 186q37 39 69.5 52.5t98.5 13.5t98.5 -13.5t69.5 -52.5q78 -83 151 -186q29 -42 29 -68q0 -24 -22 -42.5t-58 -18.5q-48 0 -98 43l-170 143l-170 -143q-50 -43 -98 -43zM782 997q60 -16 105 -29.5t101.5 -33.5
t98 -38.5t88 -45t79.5 -54.5t65 -64.5t51.5 -77t31 -90.5t11.5 -107q0 -228 -168 -360t-440 -132q-78 0 -155 13.5t-130.5 26.5t-73.5 13q-32 0 -68 -34.5t-65 -34.5q-36 0 -59 26.5t-49 81.5l-94 205q-66 142 -66 195q0 42 22 65t52 23q15 0 27.5 -4t27 -16t19 -16.5
t22.5 -23.5q48 -51 82.5 -84t94 -80t112.5 -75t125.5 -49t146.5 -21q118 0 180 46t62 120q0 37 -16 66t-43 49.5t-70 38.5t-89.5 32t-108.5 31q-15 4 -23 6q-61 17 -111.5 33.5t-112 42t-109.5 53.5t-95 67.5t-78 83t-50.5 101.5t-19.5 123q0 124 66 223.5t178.5 154
t247.5 54.5q72 0 135.5 -12.5t104 -24.5t57.5 -12q20 0 36 17t34 34t44 17q18 0 33 -5t25 -12t22 -23.5t19 -28.5t22 -38t25 -43l55 -92q94 -156 94 -215q0 -29 -19 -47.5t-42 -18.5q-20 0 -37.5 8.5t-29.5 19t-36 34.5q-42 43 -88 80t-106.5 75t-131.5 60t-141 22
q-83 0 -127.5 -31.5t-44.5 -88.5q0 -24 7 -42.5t28 -35t37.5 -27t59.5 -25.5t68 -22.5t88 -24.5q2 -1 3.5 -1.5t3.5 -0.5z" />
    </font>
</defs>
</svg>
